<svg width="143" height="70" viewBox="0 0 143 70" fill="none" xmlns="http://www.w3.org/2000/svg">
<path d="M33.4616 20.613C30.8758 20.613 28.484 20.4073 26.2862 19.996C24.1099 19.566 22.2137 18.9303 20.5976 18.0889C19.0031 17.2289 17.7533 16.1725 16.8483 14.9199C15.9649 13.6485 15.5231 12.1715 15.5231 10.4888C15.5231 8.82479 15.9541 7.34776 16.816 6.05769C17.6995 4.74893 18.9277 3.64583 20.5006 2.7484C22.0952 1.85096 23.9914 1.16854 26.1892 0.701121C28.3871 0.233707 30.8112 0 33.4616 0C36.0257 0 38.396 0.224359 40.5723 0.673077C42.7701 1.1031 44.6771 1.74813 46.2932 2.60817C47.9308 3.46822 49.2021 4.53392 50.1071 5.80529C51.0121 7.05796 51.4646 8.51629 51.4646 10.1803C51.4646 11.863 51.0121 13.3587 50.1071 14.6675C49.2021 15.9575 47.9308 17.0513 46.2932 17.9487C44.6771 18.8275 42.7701 19.4912 40.5723 19.9399C38.396 20.3886 36.0257 20.613 33.4616 20.613ZM33.4616 16.0697C35.4439 16.0697 37.1893 15.8827 38.6976 15.5088C40.206 15.1162 41.3803 14.4992 42.2207 13.6579C43.061 12.7978 43.4812 11.6854 43.4812 10.3205C43.4812 8.93697 43.061 7.82452 42.2207 6.98317C41.3803 6.12313 40.206 5.50614 38.6976 5.13221C37.1893 4.73958 35.4439 4.54327 33.4616 4.54327C30.3587 4.54327 27.9238 4.99199 26.1569 5.88942C24.4115 6.76816 23.5389 8.24519 23.5389 10.3205C23.5389 11.6854 23.9483 12.7978 24.7671 13.6579C25.6074 14.4992 26.771 15.1162 28.2578 15.5088C29.7446 15.8827 31.4792 16.0697 33.4616 16.0697Z" fill="#FAD883"/>
<path d="M55.3 0.252404H63.0248V8.04888H78.3775V0.252404H86.167V20.3325H78.3775V12.5361H63.0248V20.3325H55.3V0.252404Z" fill="#FAD883"/>
<path d="M107.858 20.613C105.272 20.613 102.88 20.4073 100.682 19.996C98.5061 19.566 96.6099 18.9303 94.9938 18.0889C93.3993 17.2289 92.1495 16.1725 91.2445 14.9199C90.361 13.6485 89.9193 12.1715 89.9193 10.4888C89.9193 8.82479 90.3503 7.34776 91.2122 6.05769C92.0956 4.74893 93.3238 3.64583 94.8968 2.7484C96.4913 1.85096 98.3875 1.16854 100.585 0.701121C102.783 0.233707 105.207 0 107.858 0C110.422 0 112.792 0.224359 114.968 0.673077C117.166 1.1031 119.073 1.74813 120.689 2.60817C122.327 3.46822 123.598 4.53392 124.503 5.80529C125.408 7.05796 125.861 8.51629 125.861 10.1803C125.861 11.863 125.408 13.3587 124.503 14.6675C123.598 15.9575 122.327 17.0513 120.689 17.9487C119.073 18.8275 117.166 19.4912 114.968 19.9399C112.792 20.3886 110.422 20.613 107.858 20.613ZM107.858 16.0697C109.84 16.0697 111.585 15.8827 113.094 15.5088C114.602 15.1162 115.776 14.4992 116.617 13.6579C117.457 12.7978 117.877 11.6854 117.877 10.3205C117.877 8.93697 117.457 7.82452 116.617 6.98317C115.776 6.12313 114.602 5.50614 113.094 5.13221C111.585 4.73958 109.84 4.54327 107.858 4.54327C104.755 4.54327 102.32 4.99199 100.553 5.88942C98.8077 6.76816 97.935 8.24519 97.935 10.3205C97.935 11.6854 98.3445 12.7978 99.1633 13.6579C100.004 14.4992 101.167 15.1162 102.654 15.5088C104.141 15.8827 105.875 16.0697 107.858 16.0697Z" fill="#FAD883"/>
<path d="M10.0678 27.1474V22.6883H39.7065V27.1474H28.7819V42.7684H21.0571V27.1474H10.0678Z" fill="#FAD883"/>
<path d="M43.1005 22.6883H68.5375V27.1474H50.8577V30.2043H65.9518V34.6635H50.8577V38.3093H68.7638V42.7684H43.1005V22.6883Z" fill="#FAD883"/>
<path d="M73.181 42.7684V22.6883H98.6826V27.1474H81.0351V29.98H88.1781C91.3887 29.98 93.9314 30.2043 95.806 30.653C97.6806 31.0831 99.0166 31.7561 99.8139 32.6723C100.611 33.5697 101.01 34.7382 101.01 36.1779C101.01 37.711 100.579 38.9637 99.7169 39.9359C98.855 40.8894 97.4759 41.5999 95.5797 42.0673C93.6835 42.5347 91.184 42.7684 88.0812 42.7684H73.181ZM87.5317 38.3654C89.04 38.3654 90.2036 38.2999 91.0224 38.1691C91.8628 38.0382 92.4446 37.8232 92.7678 37.524C93.1125 37.2062 93.2849 36.7949 93.2849 36.2901C93.2849 35.7853 93.1125 35.3926 92.7678 35.1122C92.423 34.813 91.8197 34.598 90.9578 34.4671C90.0959 34.3363 88.8784 34.2708 87.3055 34.2708H81.0351V38.3654H87.5317Z" fill="#FAD883"/>
<path d="M104.619 22.6883H130.056V27.1474H112.376V30.2043H127.47V34.6635H112.376V38.3093H130.282V42.7684H104.619V22.6883Z" fill="#FAD883"/>
<path d="M0 45.1242H7.72483V52.9207H23.0775V45.1242H30.867V65.2043H23.0775V57.4079H7.72483V65.2043H0V45.1242Z" fill="#FAD883"/>
<path d="M46.2874 45.1242H55.305L68.1044 65.2043H60.2502L57.8908 61.6707H42.4088L40.1786 65.2043H33.4234L46.2874 45.1242ZM45.1884 57.2115H54.9172L49.9074 49.6955L45.1884 57.2115Z" fill="#FAD883"/>
<path d="M68.9081 60.8574H71.914C72.7113 60.2965 73.3685 59.3897 73.8856 58.137C74.4027 56.8843 74.7906 55.2017 75.0492 53.0889C75.3293 50.9575 75.5125 48.3026 75.5986 45.1242H101.65V60.8574H106.304V70H100.034L99.6135 65.2043H75.5663L75.2108 70H68.9081V60.8574ZM79.1863 60.8574H93.8279V49.6114H82.0306C81.8367 52.3972 81.5458 54.6968 81.1579 56.5104C80.7701 58.3053 80.1129 59.7543 79.1863 60.8574Z" fill="#FAD883"/>
<path d="M124.997 65.4848C122.411 65.4848 120.019 65.2791 117.822 64.8678C115.645 64.4378 113.749 63.8021 112.133 62.9607C110.538 62.1007 109.289 61.0443 108.384 59.7917C107.5 58.5203 107.059 57.0433 107.059 55.3606C107.059 53.6966 107.489 52.2196 108.351 50.9295C109.235 49.6207 110.463 48.5176 112.036 47.6202C113.631 46.7228 115.527 46.0403 117.725 45.5729C119.922 45.1055 122.347 44.8718 124.997 44.8718C127.561 44.8718 129.931 45.0962 132.108 45.5449C134.306 45.9749 136.212 46.6199 137.829 47.48C139.466 48.34 140.738 49.4057 141.643 50.6771C142.548 51.9298 143 53.3881 143 55.0521C143 56.7348 142.548 58.2305 141.643 59.5393C140.738 60.8293 139.466 61.9231 137.829 62.8205C136.212 63.6993 134.306 64.363 132.108 64.8117C129.931 65.2604 127.561 65.4848 124.997 65.4848ZM124.997 60.9415C126.979 60.9415 128.725 60.7545 130.233 60.3806C131.741 59.988 132.916 59.371 133.756 58.5297C134.596 57.6696 135.017 56.5572 135.017 55.1923C135.017 53.8088 134.596 52.6963 133.756 51.855C132.916 50.9949 131.741 50.3779 130.233 50.004C128.725 49.6114 126.979 49.4151 124.997 49.4151C121.894 49.4151 119.459 49.8638 117.692 50.7612C115.947 51.64 115.074 53.117 115.074 55.1923C115.074 56.5572 115.484 57.6696 116.302 58.5297C117.143 59.371 118.306 59.988 119.793 60.3806C121.28 60.7545 123.015 60.9415 124.997 60.9415Z" fill="#FAD883"/>
<path d="M137.292 44.248C136.596 44.248 135.948 44.12 135.348 43.864C134.756 43.616 134.24 43.268 133.8 42.82C133.36 42.372 133.012 41.84 132.756 41.224C132.508 40.608 132.384 39.932 132.384 39.196C132.384 38.468 132.508 37.8 132.756 37.192C133.012 36.576 133.36 36.048 133.8 35.608C134.24 35.16 134.756 34.812 135.348 34.564C135.948 34.316 136.596 34.192 137.292 34.192C137.988 34.192 138.636 34.316 139.236 34.564C139.836 34.812 140.352 35.16 140.784 35.608C141.224 36.048 141.568 36.576 141.816 37.192C142.072 37.8 142.2 38.468 142.2 39.196C142.2 39.932 142.072 40.608 141.816 41.224C141.568 41.84 141.224 42.372 140.784 42.82C140.352 43.268 139.836 43.616 139.236 43.864C138.636 44.12 137.988 44.248 137.292 44.248ZM137.292 43.324C137.876 43.324 138.408 43.22 138.888 43.012C139.368 42.812 139.776 42.532 140.112 42.172C140.456 41.804 140.72 41.368 140.904 40.864C141.088 40.352 141.18 39.796 141.18 39.196C141.18 38.596 141.088 38.048 140.904 37.552C140.72 37.048 140.456 36.616 140.112 36.256C139.776 35.888 139.368 35.604 138.888 35.404C138.408 35.204 137.876 35.104 137.292 35.104C136.708 35.104 136.176 35.204 135.696 35.404C135.216 35.604 134.804 35.888 134.46 36.256C134.124 36.616 133.864 37.048 133.68 37.552C133.496 38.048 133.404 38.596 133.404 39.196C133.404 39.796 133.496 40.352 133.68 40.864C133.864 41.368 134.124 41.804 134.46 42.172C134.804 42.532 135.216 42.812 135.696 43.012C136.176 43.22 136.708 43.324 137.292 43.324ZM135.372 36.7H137.232C137.952 36.7 138.484 36.828 138.828 37.084C139.18 37.34 139.356 37.752 139.356 38.32C139.356 38.704 139.276 39.004 139.116 39.22C138.964 39.436 138.748 39.6 138.468 39.712L139.596 41.716H138.18L137.16 39.88H136.668V41.716H135.372V36.7ZM136.668 37.72V38.932H137.268C137.54 38.932 137.74 38.888 137.868 38.8C137.996 38.704 138.06 38.548 138.06 38.332C138.06 38.1 137.992 37.94 137.856 37.852C137.72 37.764 137.512 37.72 137.232 37.72H136.668Z" fill="#FAD883"/>
</svg>
