<svg width="640" height="640" viewBox="0 0 640 640" fill="none" xmlns="http://www.w3.org/2000/svg">
<path d="M320 0C235.077 0 166.234 68.8435 166.234 153.766C166.234 160.652 160.652 166.234 153.766 166.234C68.8435 166.234 0 235.077 0 320C0 404.923 68.8435 473.767 153.766 473.767C160.652 473.767 166.234 479.348 166.234 486.233C166.234 571.156 235.077 640 320 640C404.923 640 473.767 571.156 473.767 486.233C473.767 479.348 479.348 473.767 486.233 473.767C571.156 473.767 640 404.923 640 320C640 235.077 571.156 166.234 486.233 166.234C479.348 166.234 473.767 160.652 473.767 153.766C473.767 68.8435 404.923 0 320 0Z" fill="url(#paint0_linear_416_153)"/>
<defs>
<linearGradient id="paint0_linear_416_153" x1="320" y1="0" x2="320" y2="640" gradientUnits="userSpaceOnUse">
<stop stop-color="#FAD883"/>
<stop offset="1" stop-color="#FAD883" stop-opacity="0"/>
</linearGradient>
</defs>
</svg>
