<?xml version="1.0" standalone="no"?> <!DOCTYPE svg PUBLIC "-//W3C//DTD SVG 1.0//EN" "http://www.w3.org/TR/2001/REC-SVG-20010904/DTD/svg10.dtd" > <svg xmlns="http://www.w3.org/2000/svg" width="100%" height="100%">
<defs >
<font id="YS" horiz-adv-x="511" ><font-face
    font-family="YS Display"
    units-per-em="1000"
    panose-1="0 0 0 0 0 0 0 0 0 0"
    ascent="928"
    descent="-244"
    alphabetic="0" />
<missing-glyph horiz-adv-x="216" />
<glyph unicode=" " glyph-name="space" horiz-adv-x="194" />
<glyph unicode="!" glyph-name="exclam" horiz-adv-x="227" d="M145 689L134 173H92L82 689H145ZM114 -4Q94 -4 82 9T69 40Q69 59 81 71T114 84Q134 84 146 72T158 40Q158 22 146 9T114 -4Z" />
<glyph unicode="&quot;" glyph-name="quotedbl" horiz-adv-x="309" d="M56 695H118L109 514H65L56 695ZM192 695H254L245 514H201L192 695Z" />
<glyph unicode="#" glyph-name="numbersign" horiz-adv-x="625" d="M371 210H206L172 0H123L157 210H28V258H165L198 456H54V504H206L237 695H285L254 504H419L450 695H499L468 504H597V456H460L427 258H571V210H419L385 0H337L371 210ZM379 258L411 456H246L214
258H379Z" />
<glyph unicode="$" glyph-name="dollar" horiz-adv-x="534" d="M491 182Q491 133 476 99T433 42T370 7T294 -8V-127H248V-10Q166 -9 115 11T46 48V99Q57 91 77 81T125 61T184 46T253 40Q291 40 323 48T378 73T415 117T429 182Q429 216 418 238T384 277T330 304T257
326Q218 336 181 349T115 384T69 437T51 519Q51 600 101 647T245 702V815H291V704Q354 703 393 691T453 667V616Q427 631 382 642T284 654Q202 654 157 622T112 522Q112 489 124 467T157 429T208 404T271 384Q307 374 346 363T417 330T470 273T491 182Z" />
<glyph unicode="%" glyph-name="percent" horiz-adv-x="742" d="M140 -10L550 704H601L190 -10H140ZM313 512Q313 467 302 433T270 375T222 339T164 326Q133 326 106 337T59 372T27 429T15 508Q15 553 26 588T58 647T106 683T164 695Q195 695 222 684T269 649T301
591T313 512ZM69 510Q69 433 95 400T164 366Q204 366 232 399T260 510Q260 587 233 621T164 655Q123 655 96 621T69 510ZM726 186Q726 141 715 107T683 48T636 12T578 0Q546 0 519 11T472 46T441 103T429 182Q429 227 440 262T472 320T519 356T578 369Q609 369
636 358T683 323T714 265T726 186ZM578 328Q535 328 509 295T482 184Q482 108 509 74T578 40Q619 40 646 74T674 184Q674 261 647 294T578 328Z" />
<glyph unicode="&amp;" glyph-name="ampersand" horiz-adv-x="721" d="M643 12Q600 12 562 27T486 72Q444 35 389 13T264 -10Q204 -10 160 5T88 46T45 107T31 181Q31 219 43 248T76 299T124 338T184 367Q149 405 124 446T99 538Q99 572 112 602T149 654T208 690T289
704Q333 704 365 692T418 658T449 608T460 547Q460 510 445 481T404 429T347 388T281 355L415 221L486 149Q524 196 545 250T575 356L625 340Q617 287 593 227T526 114Q556 90 587 75T652 60Q672 60 688 63T709 68V24Q706 22 689 17T643 12ZM93 183Q93 153 103
127T135 81T189 50T267 39Q322 39 366 57T445 106Q425 123 405 143T361 187L218 332Q191 321 168 308T129 276T103 236T93 183ZM162 539Q162 515 170 495T190 456T217 421T248 389Q282 404 310 420T357 455T388 497T399 548Q399 569 393 588T374 623T340 647T289
656Q258 656 235 646T195 620T171 583T162 539Z" />
<glyph unicode="&apos;" glyph-name="quotesingle" horiz-adv-x="174" d="M56 695H118L109 514H65L56 695Z" />
<glyph unicode="(" glyph-name="parenleft" horiz-adv-x="294" d="M222 -135Q180 -92 151 -42T102 63T74 177T65 298Q65 359 74 420T102 538T150 644T222 733H272Q235 695 207 646T161 540T133 423T123 301Q123 177 160 65T272 -135H222Z" />
<glyph unicode=")" glyph-name="parenright" horiz-adv-x="294" d="M87 -135Q129 -92 158 -42T207 63T235 177T244 298Q244 359 235 420T207 538T159 644T87 733H37Q74 695 102 646T148 540T176 423T186 301Q186 177 149 65T37 -135H87Z" />
<glyph unicode="*" glyph-name="asterisk" horiz-adv-x="380" d="M263 387L190 506L118 387L73 420L163 527L31 559L48 610L173 559L163 695H217L207 559L331 610L348 559L217 527L306 420L263 387Z" />
<glyph unicode="+" glyph-name="plus" horiz-adv-x="518" d="M287 306V93H230V306H36V352H230V565H287V352H481V306H287Z" />
<glyph unicode="," glyph-name="comma" horiz-adv-x="188" d="M43 -93Q60 -73 72 -46T88 0Q72 3 62 14T52 42Q52 61 64 73T96 86Q116 86 128 73T140 36Q140 18 136 0T124 -36T107 -69T89 -93H43Z" />
<glyph unicode="-" glyph-name="hyphen" horiz-adv-x="323" d="M45 319H278V268H45V319Z" />
<glyph unicode="." glyph-name="period" horiz-adv-x="187" d="M94 -4Q74 -4 61 9T48 41Q48 61 61 73T94 86Q114 86 126 74T139 41Q139 22 127 9T94 -4Z" />
<glyph unicode="/" glyph-name="slash" horiz-adv-x="341" d="M-11 -116L302 733H352L39 -116H-11Z" />
<glyph unicode="0" glyph-name="zero" horiz-adv-x="628" d="M315 -10Q257 -10 207 12T121 80T63 192T42 348Q42 437 63 503T120 614T207 681T315 704Q373 704 423 682T509 616T566 505T587 350Q587 262 567 195T510 82T423 13T315 -10ZM314 37Q359 37 397 54T463
109T507 206T523 347Q523 430 507 489T464 585T398 640T315 657Q270 657 232 640T166 586T122 489T106 347Q106 265 121 206T165 110T231 55T314 37Z" />
<glyph unicode="1" glyph-name="one" horiz-adv-x="340" d="M254 0H191V622L34 481V544L202 695H254V0Z" />
<glyph unicode="2" glyph-name="two" horiz-adv-x="533" d="M481 0H39V45Q142 130 213 193T328 309T391 405T411 498Q411 531 402 560T373 610T323 644T253 656Q192 656 146 632T61 567V623Q91 656 139 680T259 704Q311 704 351 689T419 648T461 584T475 503Q475
447 454 396T388 293T277 181T119 49H481V0Z" />
<glyph unicode="3" glyph-name="three" horiz-adv-x="508" d="M465 191Q465 147 449 110T401 47T326 5T228 -10Q160 -10 110 13T26 68V118Q43 103 63 89T109 64T163 46T228 39Q319 39 360 81T401 191Q401 261 359 300T231 340H135V388H235Q300 388 338 423T377
522Q377 550 369 574T343 617T297 645T229 656Q169 656 126 637T42 585V632Q77 664 124 684T236 704Q284 704 322 691T386 654T425 597T439 525Q439 490 429 464T400 418T359 386T311 369Q342 364 370 351T419 315T452 261T465 191Z" />
<glyph unicode="4" glyph-name="four" horiz-adv-x="556" d="M432 171V0H372V171H22V216L379 695H432V219H532V171H432ZM372 219V606L84 219H372Z" />
<glyph unicode="5" glyph-name="five" horiz-adv-x="504" d="M477 221Q477 169 461 127T413 54T336 7T232 -10Q172 -10 124 9T42 59V109Q73 83 120 61T232 38Q277 38 311 51T367 89T401 146T412 220Q412 264 400 295T365 347T313 377T245 387Q216 387 194 382T156
369T131 354T117 344H67V695H443V647H124V398Q140 409 173 422T260 436Q305 436 345 423T414 383T460 316T477 221Z" />
<glyph unicode="6" glyph-name="six" horiz-adv-x="557" d="M539 228Q539 175 521 131T471 56T395 7T300 -10Q181 -10 117 66T52 291Q52 384 68 460T119 591T208 675T337 705Q389 705 425 695T491 670V619Q430 659 338 659Q281 659 240 636T171 569T129 467T112
338Q139 398 189 427T306 457Q355 457 397 442T471 397T521 325T539 228ZM298 37Q334 37 366 49T423 86T461 145T475 225Q475 269 461 303T424 361T370 397T304 410Q266 410 234 398T177 361T139 302T125 223Q125 181 137 147T172 89T227 51T298 37Z" />
<glyph unicode="7" glyph-name="seven" horiz-adv-x="504" d="M172 0H105L411 642H39V695H479V650L172 0Z" />
<glyph unicode="8" glyph-name="eight" horiz-adv-x="546" d="M511 190Q511 143 493 106T443 43T368 4T274 -10Q222 -10 178 3T103 42T53 104T35 187Q35 260 79 306T197 370Q136 385 98 424T60 529Q60 571 76 604T120 659T188 692T274 704Q319 704 358 693T426
660T471 606T488 531Q488 466 450 426T351 370Q423 354 467 309T511 190ZM274 394Q306 394 334 402T382 427T415 467T427 522Q427 588 384 622T274 657Q241 657 213 649T165 623T133 580T121 522Q121 491 133 468T165 428T214 403T274 394ZM274 37Q312 37 344 48T399
80T436 130T449 198Q449 233 436 260T399 307T343 337T274 347Q236 347 204 337T148 308T111 261T98 198Q98 160 111 131T147 80T202 48T274 37Z" />
<glyph unicode="9" glyph-name="nine" horiz-adv-x="557" d="M518 404Q518 311 502 235T450 104T359 20T228 -10Q177 -10 141 -1T75 25V75Q105 55 144 46T228 36Q286 36 328 60T399 126T441 228T458 357Q431 297 381 268T264 238Q215 238 172 253T98 298T48 370T30
466Q30 520 48 564T99 639T175 688T270 705Q389 705 453 629T518 404ZM272 658Q236 658 204 646T147 609T109 550T95 470Q95 426 109 392T146 333T200 297T265 284Q303 284 336 296T393 333T431 392T445 471Q445 513 433 547T398 606T343 644T272 658Z" />
<glyph unicode=":" glyph-name="colon" horiz-adv-x="187" d="M94 368Q74 368 61 381T48 413Q48 433 61 445T94 458Q114 458 126 446T139 413Q139 394 127 381T94 368ZM94 -4Q74 -4 61 9T48 41Q48 61 61 73T94 86Q114 86 126 74T139 41Q139 22 127 9T94 -4Z" />
<glyph unicode=";" glyph-name="semicolon" horiz-adv-x="188" d="M43 -93Q60 -73 72 -46T88 0Q72 3 62 14T52 42Q52 61 64 73T96 86Q116 86 128 73T140 36Q140 18 136 0T124 -36T107 -69T89 -93H43ZM94 368Q74 368 61 381T48 413Q48 433 61 445T94 458Q114 458
126 446T139 413Q139 394 127 381T94 368Z" />
<glyph unicode="&lt;" glyph-name="less" horiz-adv-x="462" d="M425 110L36 295V359L425 544V491L83 327L425 163V110Z" />
<glyph unicode="=" glyph-name="equal" horiz-adv-x="518" d="M36 402V448H482V402H36ZM36 206V252H482V206H36Z" />
<glyph unicode="&gt;" glyph-name="greater" horiz-adv-x="462" d="M36 110V163L379 327L36 491V544L425 359V295L36 110Z" />
<glyph unicode="?" glyph-name="question" horiz-adv-x="434" d="M393 523Q393 490 384 464T360 415T325 375T283 341Q258 322 237 306T200 273T175 235T166 188V173H116V190Q116 224 126 249T153 296T195 337T248 379Q286 408 308 441T331 523Q331 547 325 570T302
611T257 641T184 653Q155 653 132 649T90 638T59 626T41 616V667Q47 670 59 676T90 689T134 699T191 704Q243 704 281 690T344 652T381 595T393 523ZM146 -4Q126 -4 114 9T102 40Q102 59 114 71T146 84Q166 84 178 72T191 40Q191 22 179 9T146 -4Z" />
<glyph unicode="@" glyph-name="at" horiz-adv-x="984" d="M723 -138Q709 -145 687 -152T635 -166T572 -175T501 -179Q403 -179 318 -153T169 -74T69 57T32 238Q32 341 68 427T168 574T321 670T516 704Q606 704 685 679T824 606T917 488T952 326Q952 266 938 214T897
123T830 62T737 39Q705 39 681 47T640 69T613 103T598 144Q572 92 530 66T435 39Q403 39 373 50T319 84T281 145T267 235Q267 287 282 333T324 413T391 466T477 486Q531 486 568 458T619 371L650 458H690L651 223Q647 199 649 174T661 128T691 94T743 80Q776 80
805 96T855 143T889 218T902 318Q902 400 872 464T790 573T666 641T513 664Q418 664 339 633T203 547T115 414T83 242Q83 146 115 75T203 -44T337 -115T503 -139Q582 -139 639 -125T723 -96V-138ZM332 231Q332 189 342 160T369 114T407 88T449 80Q485 80 512 98T559
145T588 213T598 291Q598 330 589 359T565 406T529 434T485 443Q448 443 420 425T372 377T342 309T332 231Z" />
<glyph unicode="A" glyph-name="A" horiz-adv-x="625" d="M266 695H357L617 0H549L467 220H147L65 0H8L266 695ZM449 268L306 649L164 268H449Z" />
<glyph unicode="B" glyph-name="B" horiz-adv-x="591" d="M74 695H302Q413 695 470 656T528 526Q528 489 518 461T490 413T445 380T386 361Q468 352 509 314T551 198Q551 144 532 107T480 46T400 11T298 0H74V695ZM139 647V382H291Q369 382 416 415T463 523Q463
592 422 619T302 647H139ZM139 333V49H298Q340 49 374 56T432 81T470 127T484 196Q484 270 439 301T298 333H139Z" />
<glyph unicode="C" glyph-name="C" horiz-adv-x="634" d="M374 -10Q297 -10 235 14T130 85T63 197T39 347Q39 431 61 497T126 609T231 679T373 704Q447 704 501 687T586 644V590Q545 620 491 636T377 653Q242 653 175 573T108 347Q108 201 174 121T378 41Q438
41 491 58T586 110V54Q557 29 504 10T374 -10Z" />
<glyph unicode="D" glyph-name="D" horiz-adv-x="663" d="M73 695H304Q371 695 429 678T531 623T599 522T624 368Q624 276 599 208T530 93T426 23T294 0H73V695ZM138 647V49H294Q351 49 398 68T481 126T535 224T555 365Q555 446 536 500T483 587T403 633T305 647H138Z" />
<glyph unicode="E" glyph-name="E" horiz-adv-x="552" d="M73 695H501V647H138V389H450V341H138V49H506V0H73V695Z" />
<glyph unicode="F" glyph-name="F" horiz-adv-x="530" d="M73 695H495V647H138V369H445V320H138V0H73V695Z" />
<glyph unicode="G" glyph-name="G" horiz-adv-x="703" d="M658 270Q658 209 640 158T585 70T496 11T372 -10Q298 -10 237 15T131 86T63 198T39 347Q39 429 62 495T131 608T241 679T389 704Q474 704 528 684T612 641V587Q568 616 515 634T390 653Q321 653 269 632T180
572T126 476T108 347Q108 276 126 219T179 122T263 61T372 39Q427 39 468 56T537 103T578 174T592 262V308H348V356H658V270V270Z" />
<glyph unicode="H" glyph-name="H" horiz-adv-x="675" d="M537 320H138V0H73V695H138V369H537V695H602V0H537V320Z" />
<glyph unicode="I" glyph-name="I" horiz-adv-x="212" d="M138 695V0H73V695H138Z" />
<glyph unicode="J" glyph-name="J" horiz-adv-x="328" d="M258 695V131Q258 102 250 77T224 32T178 1T111 -10Q85 -10 60 -5T19 10V57Q36 50 56 46T98 42Q150 42 171 68T193 142V695H258Z" />
<glyph unicode="K" glyph-name="K" horiz-adv-x="587" d="M138 695V0H73V695H138ZM239 353L573 0H493L165 345L489 695H555L239 353Z" />
<glyph unicode="L" glyph-name="L" horiz-adv-x="535" d="M498 0H73V695H138V49H498V0Z" />
<glyph unicode="M" glyph-name="M" horiz-adv-x="812" d="M673 602L432 106H370L130 607V0H73V695H152L405 168L659 695H738V0H673V602Z" />
<glyph unicode="N" glyph-name="N" horiz-adv-x="680" d="M606 0H525L130 621V0H73V695H157L550 77V695H606V0Z" />
<glyph unicode="O" glyph-name="O" horiz-adv-x="734" d="M367 -10Q297 -10 237 14T133 84T64 197T39 350Q39 436 64 502T133 613T237 681T367 704Q438 704 498 681T602 613T670 502T695 349Q695 264 671 197T602 84T498 14T367 -10ZM367 39Q423 39 470 57T552
112T606 208T626 347Q626 427 607 485T553 582T471 638T367 656Q311 656 264 638T182 582T128 486T108 347Q108 267 127 209T181 113T263 57T367 39Z" />
<glyph unicode="P" glyph-name="P" horiz-adv-x="557" d="M73 695H286Q399 695 462 648T525 499Q525 442 507 402T457 335T379 297T277 285H138V0H73V695ZM138 647V333H277Q361 333 410 371T460 498Q460 575 415 611T286 647H138Z" />
<glyph unicode="Q" glyph-name="Q" horiz-adv-x="734" d="M677 -125Q600 -110 538 -93T425 -59T332 -24T250 7Q204 24 165 53T98 123T55 220T39 346Q39 432 64 498T132 611T236 680T366 704Q436 704 496 681T600 613T670 502T695 350Q695 278 677 217T622 110T529
35T397 -4Q463 -24 535 -39T701 -66L677 -125ZM367 39Q423 39 470 57T552 114T606 210T626 347Q626 426 607 484T553 581T471 637T367 656Q311 656 264 638T182 581T128 485T108 347Q108 268 127 210T181 114T263 58T367 39Z" />
<glyph unicode="R" glyph-name="R" horiz-adv-x="589" d="M73 695H296Q410 695 473 649T537 503Q537 458 525 424T491 366T439 326T371 303L562 0H489L302 295H138V0H73V695ZM138 647V343H284Q324 343 358 351T417 379T456 429T470 504Q470 579 424 613T296 647H138Z" />
<glyph unicode="S" glyph-name="S" horiz-adv-x="534" d="M256 -10Q210 -10 174 -4T110 12T64 33T35 55V109Q47 98 68 87T118 65T182 48T256 41Q295 41 328 49T386 74T424 118T438 182Q438 216 426 239T390 277T332 303T256 324Q217 334 178 347T108 382T58 437T38
520Q38 609 100 656T283 704Q355 704 398 691T465 661V608Q394 653 283 653Q189 653 145 620T100 522Q100 489 114 467T151 430T206 405T271 387Q309 377 350 365T425 332T481 275T503 185Q503 131 483 94T428 34T349 1T256 -10Z" />
<glyph unicode="T" glyph-name="T" horiz-adv-x="559" d="M312 647V0H247V647H19V695H541V647H312Z" />
<glyph unicode="U" glyph-name="U" horiz-adv-x="646" d="M59 695H124V239Q124 137 179 89T326 41Q369 41 406 53T472 89T515 151T531 240V695L587 696V243Q587 181 567 134T511 55T428 7T324 -10Q267 -10 219 5T135 52T79 130T59 239V695Z" />
<glyph unicode="V" glyph-name="V" horiz-adv-x="609" d="M353 0H258L5 695H73L309 40L546 695H604L353 0Z" />
<glyph unicode="W" glyph-name="W" horiz-adv-x="911" d="M720 0H633L456 597L280 0H191L20 695H87L243 56L431 695H491L678 63L833 695H890L720 0Z" />
<glyph unicode="X" glyph-name="X" horiz-adv-x="585" d="M286 314L73 0H7L253 361L27 695H103L300 406L498 695H564L333 359L578 0H501L286 314Z" />
<glyph unicode="Y" glyph-name="Y" horiz-adv-x="565" d="M316 301V0H250V302L8 695H82L288 354L496 695H557L316 301Z" />
<glyph unicode="Z" glyph-name="Z" horiz-adv-x="568" d="M534 0H34V46L460 647H44V695H533V649L106 49H534V0Z" />
<glyph unicode="[" glyph-name="bracketleft" horiz-adv-x="347" d="M85 733H331V690H143V-92H331V-135H85V733Z" />
<glyph unicode="\" glyph-name="backslash" horiz-adv-x="338" d="M-11 733H39L352 -116H302L-11 733Z" />
<glyph unicode="]" glyph-name="bracketright" horiz-adv-x="347" d="M262 733H16V690H204V-92H16V-135H262V733Z" />
<glyph unicode="^" glyph-name="asciicircum" horiz-adv-x="421" d="M211 653L71 444H25L176 695H246L396 444H350L211 653Z" />
<glyph unicode="_" glyph-name="underscore" horiz-adv-x="342" d="M-21 -61H362V-108H-21V-61Z" />
<glyph unicode="`" glyph-name="grave" horiz-adv-x="405" d="M233 575L137 715H211L280 575H233Z" />
<glyph unicode="a" glyph-name="a" horiz-adv-x="492" d="M381 0Q377 17 374 40T369 93Q361 76 348 58T314 24T265 0T199 -10Q126 -10 82 27T38 137Q38 214 99 252T292 290H368V347Q368 408 337 436T237 465Q186 465 142 448T70 407V453Q93 479 139 496T244 513Q333
513 380 475T428 355V88Q428 65 430 40T436 0H381ZM210 35Q250 35 280 50T329 86T358 131T368 171V251H297Q243 251 205 245T143 226T109 191T98 140Q98 88 127 62T210 35Z" />
<glyph unicode="b" glyph-name="b" horiz-adv-x="567" d="M533 252Q533 187 515 138T466 56T394 7T307 -10Q242 -10 196 23T123 114L115 0H66V725H126V393Q152 450 198 481T310 513Q355 513 395 497T466 448T515 366T533 252ZM299 34Q374 34 422 88T471 252Q471
361 423 415T299 470Q262 470 230 457T175 416T139 348T125 252Q125 196 138 155T175 87T230 47T299 34Z" />
<glyph unicode="c" glyph-name="c" horiz-adv-x="473" d="M286 -10Q229 -10 183 7T103 59T53 141T35 252Q35 313 53 361T104 444T184 495T290 513Q335 513 374 503T438 474V428Q408 447 369 456T291 465Q194 465 145 411T96 252Q96 148 145 94T286 39Q331 39 369
49T438 78V32Q412 13 376 2T286 -10Z" />
<glyph unicode="d" glyph-name="d" horiz-adv-x="567" d="M444 115Q420 58 375 24T260 -10Q214 -10 173 6T102 56T53 138T35 252Q35 317 53 366T101 447T173 496T261 513Q324 513 370 485T441 402V725H502V0H452L444 115ZM268 34Q305 34 337 48T392 89T428 157T442
252Q442 306 429 346T392 414T337 455T268 469Q231 469 200 455T145 414T109 346T96 252Q96 198 109 158T145 90T199 48T268 34Z" />
<glyph unicode="e" glyph-name="e" horiz-adv-x="508" d="M463 46Q454 38 439 28T402 10T352 -4T289 -10Q167 -10 101 58T35 252Q35 313 53 361T102 444T177 495T271 513Q321 513 361 496T429 444T467 358T468 238H96Q100 140 150 90T294 39Q352 39 396 56T463
92V46ZM269 469Q201 469 153 422T97 282H411Q415 330 406 365T378 423T330 457T269 469Z" />
<glyph unicode="f" glyph-name="f" horiz-adv-x="326" d="M158 458V0H98V458H33V503H98V549Q98 637 140 685T260 734Q286 734 301 730T320 723V680Q317 681 303 684T271 687Q213 687 186 651T158 549V503H311V458H158Z" />
<glyph unicode="g" glyph-name="g" horiz-adv-x="567" d="M500 27Q500 -74 443 -131T257 -189Q209 -189 177 -182T122 -165Q96 -154 80 -141V-95Q97 -108 123 -118Q145 -127 178 -134T258 -141Q356 -141 398 -100T440 26V135Q417 82 373 51T262 20Q215 20 174
36T102 83T53 160T35 266Q35 327 53 373T102 450T174 497T263 513Q329 513 375 482T444 396L445 402Q445 435 447 462T451 503H505Q503 490 502 462T500 402V27ZM272 64Q308 64 339 76T392 114T428 178T441 266Q441 317 428 355T393 418T339 456T271 469Q233 469
201 456T146 418T109 354T95 266Q95 216 108 179T145 116T201 77T272 64Z" />
<glyph unicode="h" glyph-name="h" horiz-adv-x="540" d="M126 0H66V725H126V401H128Q138 423 154 443T193 479T247 504T314 513Q391 513 435 473T479 353V0H419V350Q419 411 388 438T299 465Q264 465 237 456T189 430T153 392T126 346V0Z" />
<glyph unicode="i" glyph-name="i" horiz-adv-x="191" d="M96 597Q76 597 65 609T53 639Q53 656 64 669T96 683Q116 683 127 670T139 639Q139 622 128 610T96 597ZM126 503V0H66V503H126Z" />
<glyph unicode="j" glyph-name="j" horiz-adv-x="198" d="M102 597Q82 597 71 609T59 639Q59 656 70 669T102 683Q122 683 133 670T145 639Q145 622 134 610T102 597ZM133 -72Q133 -96 127 -118T106 -158T68 -185T12 -196Q-11 -196 -32 -190T-68 -171V-124Q-56
-133 -38 -140T4 -148Q39 -148 56 -130T73 -85V503H133V-72Z" />
<glyph unicode="k" glyph-name="k" horiz-adv-x="452" d="M126 725V0H66V725H126ZM213 261L446 0H372L146 252L369 503H431L213 261Z" />
<glyph unicode="l" glyph-name="l" horiz-adv-x="192" d="M126 725V0H66V725H126Z" />
<glyph unicode="m" glyph-name="m" horiz-adv-x="833" d="M126 0H66V503H119L124 400H126Q136 422 151 442T188 478T237 503T301 513Q360 513 398 484T445 394Q467 447 511 480T624 513Q693 513 732 473T772 353V0H711V346Q711 409 683 436T607 464Q574 464 550
454T507 426T475 385T449 337V0H389V352Q389 414 361 439T284 464Q252 464 228 455T185 429T152 390T126 342V0Z" />
<glyph unicode="n" glyph-name="n" horiz-adv-x="541" d="M299 465Q264 465 237 456T189 430T153 392T126 346V0H66V503H122L124 400H126Q136 422 153 442T193 478T246 503T314 513Q391 513 435 473T480 353V0H419V350Q419 411 388 438T299 465Z" />
<glyph unicode="o" glyph-name="o" horiz-adv-x="550" d="M274 -10Q223 -10 180 7T104 58T54 141T35 252Q35 314 53 362T104 444T179 495T274 513Q326 513 370 496T446 445T497 363T516 252Q516 190 498 141T447 59T370 8T274 -10ZM274 34Q312 34 345 47T402 86T440
154T454 252Q454 309 440 350T402 417T345 456T274 469Q236 469 204 457T147 418T110 350T96 252Q96 195 109 154T147 87T203 47T274 34Z" />
<glyph unicode="p" glyph-name="p" horiz-adv-x="567" d="M307 -10Q244 -10 198 21T126 107V-187H66V503H119L124 388Q149 446 195 479T310 513Q355 513 395 497T466 448T515 366T533 252Q533 187 515 138T466 56T394 7T307 -10ZM299 34Q374 34 422 88T471 252Q471
361 423 415T299 469Q262 469 230 456T175 416T139 348T125 252Q125 196 138 155T175 87T230 47T299 34Z" />
<glyph unicode="q" glyph-name="q" horiz-adv-x="569" d="M502 -187H441V109Q417 54 372 22T260 -10Q214 -10 173 6T102 56T53 138T35 252Q35 317 53 366T101 447T173 496T261 513Q327 513 373 482T445 394V402Q445 429 447 459T451 503H507Q505 490 504 462T502
402V-187ZM268 34Q305 34 337 48T392 89T428 157T442 252Q442 306 429 346T392 414T337 455T268 469Q231 469 200 455T145 414T109 346T96 252Q96 198 109 158T145 90T199 48T268 34Z" />
<glyph unicode="r" glyph-name="r" horiz-adv-x="315" d="M294 452Q235 447 192 418T126 326V0H66V503H119L124 385H126Q135 408 149 429T184 468T232 497T294 513V452V452Z" />
<glyph unicode="s" glyph-name="s" horiz-adv-x="441" d="M217 -10Q170 -10 137 -2T83 17T50 38T37 50V97Q40 94 54 85T91 66T145 47T217 39Q245 39 270 43T313 59T342 88T353 133Q353 159 343 176T313 203T268 220T211 232Q180 238 149 246T94 270T54 309T39
373Q39 445 90 479T231 513Q267 513 293 509T339 498T369 486T384 478V431Q380 433 368 438T337 450T292 460T233 465Q173 465 136 446T99 376Q99 352 108 337T134 313T173 299T221 288Q253 282 287 274T350 251T396 209T414 137Q414 94 397 66T352 21T289 -3T217
-10Z" />
<glyph unicode="t" glyph-name="t" horiz-adv-x="328" d="M293 7Q282 0 264 -5T220 -10Q150 -10 118 24T86 112V458H21V503H86V609H147V503H296V458H147V120Q147 80 165 60T232 39Q249 39 265 43T293 55V7V7Z" />
<glyph unicode="u" glyph-name="u" horiz-adv-x="527" d="M401 102Q381 56 337 23T221 -10Q147 -10 104 31T61 155V503H122V155Q122 123 130 101T154 66T191 46T237 40Q303 40 340 73T401 158V503H462V0H408L403 102H401V102Z" />
<glyph unicode="v" glyph-name="v" horiz-adv-x="466" d="M279 0H186L3 503H66L237 27L407 503H464L279 0Z" />
<glyph unicode="w" glyph-name="w" horiz-adv-x="722" d="M574 0H489L362 428L234 0H149L22 503H84L198 42L334 503H399L534 48L646 503H701L574 0Z" />
<glyph unicode="x" glyph-name="x" horiz-adv-x="447" d="M216 220L65 0H7L188 261L22 503H94L233 302L371 503H430L261 261L441 0H370L216 220Z" />
<glyph unicode="y" glyph-name="y" horiz-adv-x="476" d="M279 6Q260 -42 242 -79T203 -143T155 -182T93 -196Q79 -196 69 -194T52 -189Q44 -186 38 -182V-136Q43 -141 57 -144T89 -148Q127 -148 153 -120T209 -28L2 503H68L241 50L419 503H475L279 6V6Z" />
<glyph unicode="z" glyph-name="z" horiz-adv-x="423" d="M396 0H24V37L323 461H32V503H395V466L95 42H396V0Z" />
<glyph unicode="{" glyph-name="braceleft" horiz-adv-x="375" d="M341 -128Q288 -141 250 -136T188 -113T152 -67T140 -4Q140 20 144 40T153 80T162 121T165 167Q165 187 161 205T145 238T113 263T58 276V323Q92 326 113 336T145 360T161 393T165 433Q165 457
162 478T153 518T144 558T140 601Q140 635 151 663T188 710T250 733T341 727V686Q301 694 274 691T231 675T208 643T201 599Q201 576 204 557T211 518T218 479T222 435Q222 415 218 395T203 356T171 323T118 299Q150 290 170 275T202 242T218 204T222 165Q222 140
219 120T212 81T205 42T201 -1Q201 -25 208 -44T231 -76T274 -91T341 -87V-128V-128Z" />
<glyph unicode="|" glyph-name="bar" horiz-adv-x="215" d="M134 733V-116H82V733H134Z" />
<glyph unicode="}" glyph-name="braceright" horiz-adv-x="375" d="M49 -128Q102 -141 140 -136T202 -113T238 -67T250 -4Q250 20 246 40T237 80T228 121T225 167Q225 187 229 205T245 238T277 263T332 276V323Q298 326 277 336T245 360T229 393T225 433Q225 457
228 478T237 518T246 558T250 601Q250 635 239 663T202 710T140 733T49 727V686Q89 694 116 691T159 675T182 643T189 599Q189 576 186 557T179 518T172 479T168 435Q168 415 172 395T187 356T219 323T272 299Q240 290 220 275T188 242T172 204T168 165Q168 140
171 120T178 81T185 42T189 -1Q189 -25 182 -44T159 -76T116 -91T49 -87V-128V-128Z" />
<glyph unicode="~" glyph-name="asciitilde" horiz-adv-x="549" d="M38 243Q35 274 40 303T60 354T100 389T163 402Q204 402 233 386T287 352T335 317T387 301Q425 301 443 326T460 408H512Q515 377 510 348T490 297T450 262T387 249Q347 249 318 265T263 299T215
334T164 350Q128 350 108 325T90 243H38V243Z" />
<glyph unicode="&#xa0;" glyph-name="uni00A0" horiz-adv-x="194" />
<glyph unicode="&#xa1;" glyph-name="exclamdown" horiz-adv-x="227" d="M82 -181L93 335H135L145 -181H82ZM113 512Q133 512 145 499T158 468Q158 449 146 437T113 424Q93 424 81 436T69 468Q69 486 81 499T113 512Z" />
<glyph unicode="&#xa2;" glyph-name="cent" horiz-adv-x="506" d="M262 -7Q165 6 110 73T54 252Q54 363 109 429T262 510V625H308V513H309Q354 513 393 503T457 474V428Q427 447 388 456T310 465Q213 465 164 411T115 252Q115 148 164 94T305 39Q350 39 388 49T457
78V32Q431 13 396 2T308 -10V-136H262V-7Z" />
<glyph unicode="&#xa3;" glyph-name="sterling" horiz-adv-x="539" d="M508 0H53V34Q104 76 127 118T150 216Q150 240 146 262T136 305H45V350H122Q111 385 101 421T90 500Q90 593 147 648T321 704Q381 704 417 690T477 659V608Q452 627 414 640T323 654Q274 654
242 642T190 608T162 557T154 495Q154 453 164 419T187 350H374V305H200Q208 271 208 236Q208 182 192 138T129 49H508V0Z" />
<glyph unicode="&#xa4;" glyph-name="currency" horiz-adv-x="496" d="M432 116L365 182Q341 163 311 153T248 142Q215 142 185 152T131 182L64 116L31 149L97 216Q78 240 68 270T57 333Q57 366 67 396T97 450L31 517L64 550L130 484Q155 503 184 513T248 524Q282
524 312 514T366 483L432 550L465 517L399 450Q418 426 428 396T439 333Q439 299 429 270T399 215L465 149L432 116ZM249 481Q220 481 194 471T149 441T119 394T108 333Q108 299 119 272T149 226T194 196T249 185Q278 185 303 195T347 225T377 272T388 333Q388
366 377 393T348 440T304 470T249 481Z" />
<glyph unicode="&#xa5;" glyph-name="yen" horiz-adv-x="573" d="M317 156V0H257V156H89V200H257V310H89V354H240L25 695H94L292 379L489 695H547L333 354H485V310H317V200H485V156H317Z" />
<glyph unicode="&#xa6;" glyph-name="brokenbar" horiz-adv-x="219" d="M136 733V345H83V733H136ZM136 272V-116H83V272H136Z" />
<glyph unicode="&#xa7;" glyph-name="section" horiz-adv-x="531" d="M457 -16Q457 -62 438 -93T388 -144T317 -172T235 -181Q192 -181 159 -175T100 -160T57 -141T31 -122V-74Q42 -83 61 -93T107 -113T166 -128T234 -134Q268 -134 298 -128T350 -107T384 -71T397
-18Q397 11 386 31T354 64T301 87T229 105Q192 112 157 123T95 152T52 197T35 263Q35 327 78 365T197 408Q137 425 106 460T74 548Q74 623 130 663T294 704Q327 704 352 701T398 692T433 680T461 666L462 618Q430 637 388 647T293 657Q132 657 132 550Q132 522
144 503T177 470T226 449T286 435Q321 428 358 418T426 389T476 341T496 268Q496 208 456 171T342 124Q397 108 427 73T457 -16ZM275 152Q346 152 391 179T436 263Q436 320 390 349T256 378Q178 378 136 351T93 268Q93 234 110 212T153 176T211 158T275 152Z" />
<glyph unicode="&#xa8;" glyph-name="dieresis" horiz-adv-x="405" d="M106 597Q88 597 76 609T64 639Q64 656 76 668T106 681Q126 681 137 669T149 639Q149 622 138 610T106 597ZM299 597Q279 597 268 609T257 639Q257 656 268 668T299 681Q318 681 329 669T341
639Q341 622 330 610T299 597Z" />
<glyph unicode="&#xa9;" glyph-name="copyright" horiz-adv-x="857" d="M428 -93Q342 -93 269 -64T143 19T60 146T30 307Q30 394 60 466T143 592T269 674T428 704Q515 704 588 675T714 592T797 467T827 307Q827 220 797 147T714 20T588 -63T428 -93ZM428 -54Q506
-54 570 -27T681 48T753 162T779 307Q779 385 754 450T682 564T571 639T428 666Q350 666 286 639T176 564T104 451T78 307Q78 229 103 163T175 48T286 -27T428 -54ZM444 97Q352 97 298 152T243 306Q243 404 295 458T443 513Q485 513 514 503T560 479V435Q539 452
508 460T445 469Q299 469 299 306Q299 225 337 183T447 141Q479 141 508 150T560 179V134Q544 119 516 108T444 97Z" />
<glyph unicode="&#xaa;" glyph-name="ordfeminine" horiz-adv-x="424" d="M321 399Q313 383 301 367T271 337T228 314T170 305Q108 305 71 339T33 435Q33 505 83 538T228 571H319V610Q319 664 293 689T207 715Q159 715 122 702T61 671V712Q81 729 120 744T215
759Q291 759 332 725T374 621V389Q374 370 375 349T379 313H329Q326 327 324 347T321 390V399ZM182 347Q220 347 246 363T288 400T312 441T319 469V533H233Q158 533 123 509T88 438Q88 395 113 371T182 347Z" />
<glyph unicode="&#xab;" glyph-name="guillemotleft" horiz-adv-x="444" d="M278 256L413 87H354L217 256L354 425H413L278 256ZM92 256L227 87H168L32 256L168 425H227L92 256Z" />
<glyph unicode="&#xac;" glyph-name="logicalnot" horiz-adv-x="537" d="M501 361V106H443V315H36V361H501Z" />
<glyph unicode="&#xae;" glyph-name="registered" horiz-adv-x="857" d="M428 -93Q342 -93 269 -64T143 19T60 146T30 307Q30 394 60 466T143 592T269 674T428 704Q515 704 588 675T714 592T797 467T827 307Q827 220 797 147T714 20T588 -63T428 -93ZM428 -54Q506
-54 570 -27T681 48T753 162T779 307Q779 385 754 450T682 564T571 639T428 666Q350 666 286 639T176 564T104 451T78 307Q78 229 103 163T175 48T286 -27T428 -54ZM301 508H438Q507 508 544 480T581 392Q581 340 557 312T491 272L593 104H531L435 264H356V104H301V508ZM356
466V307H433Q475 307 500 326T525 390Q525 432 503 449T438 466H356Z" />
<glyph unicode="&#xaf;" glyph-name="overscore" horiz-adv-x="406" d="M75 660H331V615H75V660Z" />
<glyph unicode="&#xb0;" glyph-name="degree" horiz-adv-x="427" d="M213 417Q182 417 156 428T110 458T81 503T70 561Q70 592 80 618T110 664T155 693T213 704Q244 704 270 694T316 664T346 619T357 561Q357 530 346 504T316 458T271 428T213 417ZM213 460Q256
460 282 487T308 561Q308 606 282 633T213 661Q170 661 145 634T119 561Q119 514 144 487T213 460Z" />
<glyph unicode="&#xb1;" glyph-name="plusminus" horiz-adv-x="518" d="M288 306V111H230V306H36V352H230V565H288V352H482V306H288ZM36 0V46H482V0H36Z" />
<glyph unicode="&#xb2;" glyph-name="twosuperior" horiz-adv-x="343" d="M314 315H27V351Q90 399 133 436T202 506T241 566T253 623Q253 666 230 691T158 717Q120 717 92 703T41 666V707Q62 730 92 744T170 758Q236 758 273 723T311 626Q311 593 299 562T262
498T197 431T103 356H314V315Z" />
<glyph unicode="&#xb3;" glyph-name="threesuperior" horiz-adv-x="341" d="M312 437Q312 379 272 344T162 309Q112 309 78 322T23 354V396Q46 379 77 365T153 351Q205 351 229 375T254 439Q254 480 229 502T156 524H96V565H158Q193 565 216 584T240 639Q240 673
219 695T153 717Q116 717 88 705T38 676V717Q58 734 88 746T158 758Q223 758 259 728T295 645Q295 601 272 577T217 547Q255 542 283 515T312 437Z" />
<glyph unicode="&#xb4;" glyph-name="acute" horiz-adv-x="405" d="M199 715H273L177 575H129L199 715Z" />
<glyph unicode="&#xb6;" glyph-name="paragraph" horiz-adv-x="571" d="M30 482Q30 588 92 641T269 695H366V-187H313V271H277Q222 271 177 284T99 324T48 389T30 482ZM500 -187H448V695H500V-187Z" />
<glyph unicode="&#xb7;" glyph-name="middot" horiz-adv-x="177" d="M88 229Q68 229 55 242T42 274Q42 294 55 306T88 319Q108 319 120 307T133 274Q133 255 121 242T88 229Z" />
<glyph unicode="&#xb8;" glyph-name="cedilla" horiz-adv-x="406" d="M285 -113Q285 -150 257 -168T185 -187Q160 -187 148 -182T131 -175V-141Q135 -143 149 -147T182 -152Q234 -152 234 -113Q234 -71 173 -71H161L188 3H227L209 -44Q251 -47 268 -66T285 -113Z" />
<glyph unicode="&#xb9;" glyph-name="onesuperior" horiz-adv-x="253" d="M177 315H121V693L22 605V657L130 752H177V315Z" />
<glyph unicode="&#xba;" glyph-name="ordmasculine" horiz-adv-x="465" d="M232 305Q187 305 149 320T83 364T39 436T23 533Q23 587 39 629T83 700T149 744T232 759Q277 759 315 744T382 700T426 629T442 533Q442 479 426 437T382 365T316 320T232 305ZM232 347Q298
347 341 393T385 533Q385 626 342 671T232 717Q199 717 172 706T124 672T92 614T80 533Q80 486 91 452T123 394T171 359T232 347Z" />
<glyph unicode="&#xbb;" glyph-name="guillemotright" horiz-adv-x="444" d="M276 87H217L352 256L217 425H276L413 256L276 87ZM90 87H32L167 256L32 425H90L227 256L90 87Z" />
<glyph unicode="&#xbc;" glyph-name="onequarter" horiz-adv-x="880" d="M197 257H141V635L42 547V599L150 694H197V257ZM122 0L688 695H743L177 0H122ZM773 103V1H718V103H498V139L724 438H773V144H837V103H773ZM718 144V370L550 144H718Z" />
<glyph unicode="&#xbd;" glyph-name="onehalf" horiz-adv-x="946" d="M197 257H141V635L42 547V599L150 694H197V257ZM121 0L687 695H742L176 0H121ZM895 1H608V37Q671 85 714 122T783 192T822 252T834 309Q834 352 811 377T739 403Q701 403 673 389T622 352V393Q643
416 673 430T751 444Q817 444 854 409T892 312Q892 279 880 248T843 184T778 117T684 42H895V1Z" />
<glyph unicode="&#xbe;" glyph-name="threequarters" horiz-adv-x="936" d="M332 379Q332 321 292 286T182 251Q132 251 98 264T43 296V338Q66 321 97 307T173 293Q225 293 249 317T274 381Q274 422 249 444T176 466H116V507H178Q213 507 236 526T260 581Q260
615 239 637T173 659Q136 659 108 647T58 618V659Q78 676 108 688T178 700Q243 700 279 670T315 587Q315 543 292 519T237 489Q275 484 303 457T332 379ZM178 0L744 695H799L233 0H178ZM829 103V1H774V103H554V139L780 438H829V144H893V103H829ZM774 144V370L606
144H774Z" />
<glyph unicode="&#xbf;" glyph-name="questiondown" horiz-adv-x="434" d="M41 -16Q41 17 50 43T74 92T109 132T151 166Q176 185 197 201T234 234T259 272T268 319V334H318V317Q318 283 308 258T281 211T239 170T186 128Q148 99 126 66T103 -16Q103 -40 109 -63T132
-104T177 -134T250 -146Q279 -146 302 -142T344 -131T375 -119T393 -109V-160Q387 -163 375 -169T344 -182T300 -192T243 -197Q191 -197 153 -183T90 -145T53 -88T41 -16ZM288 511Q308 511 320 498T332 467Q332 448 320 436T288 423Q268 423 256 435T243 467Q243
485 255 498T288 511Z" />
<glyph unicode="&#xc0;" glyph-name="Agrave" horiz-adv-x="625" d="M266 695H357L617 0H549L467 220H147L65 0H8L266 695ZM449 268L306 649L164 268H449ZM289 750L191 866H272L343 750H289Z" />
<glyph unicode="&#xc1;" glyph-name="Aacute" horiz-adv-x="625" d="M266 695H357L617 0H549L467 220H147L65 0H8L266 695ZM449 268L306 649L164 268H449ZM350 866H431L333 750H279L350 866Z" />
<glyph unicode="&#xc2;" glyph-name="Acircumflex" horiz-adv-x="625" d="M266 695H357L617 0H549L467 220H147L65 0H8L266 695ZM449 268L306 649L164 268H449ZM309 828L228 754H179L272 866H346L440 754H390L309 828Z" />
<glyph unicode="&#xc3;" glyph-name="Atilde" horiz-adv-x="625" d="M266 695H357L617 0H549L467 220H147L65 0H8L266 695ZM449 268L306 649L164 268H449ZM160 763Q158 782 161 800T173 831T198 853T236 862Q260 862 279 855T316 838T350 821T383 813Q420 813
420 865H461Q463 846 460 828T447 797T422 775T385 766Q361 766 341 774T304 791T271 808T238 816Q199 816 201 763H160Z" />
<glyph unicode="&#xc4;" glyph-name="Adieresis" horiz-adv-x="625" d="M266 695H357L617 0H549L467 220H147L65 0H8L266 695ZM449 268L306 649L164 268H449ZM209 769Q189 769 178 781T167 811Q167 828 178 840T209 853Q228 853 239 841T251 811Q251 794 240 782T209
769ZM413 769Q394 769 382 781T370 811Q370 828 382 840T413 853Q433 853 444 841T455 811Q455 794 444 782T413 769Z" />
<glyph unicode="&#xc5;" glyph-name="Aring" horiz-adv-x="625" d="M266 695H357L617 0H549L467 220H147L65 0H8L266 695ZM449 268L306 649L164 268H449ZM310 727Q269 727 243 753T216 821Q216 862 242 888T310 914Q352 914 379 888T406 821Q406 779 379 753T310
727ZM310 761Q335 761 351 777T367 821Q367 847 351 863T310 879Q286 879 271 863T255 821Q255 794 270 778T310 761Z" />
<glyph unicode="&#xc6;" glyph-name="AE" horiz-adv-x="928" d="M882 0H453V242H209L70 0H9L409 695H877V647H518V388H825V340H518V49H882V0ZM453 291V665L237 291H453Z" />
<glyph unicode="&#xc7;" glyph-name="Ccedilla" horiz-adv-x="634" d="M374 -10Q297 -10 235 14T130 85T63 197T39 347Q39 431 61 497T126 609T231 679T373 704Q447 704 501 687T586 644V590Q545 620 491 636T377 653Q242 653 175 573T108 347Q108 201 174 121T378
41Q438 41 491 58T586 110V54Q557 29 504 10T374 -10ZM414 -113Q414 -150 386 -168T314 -187Q289 -187 277 -182T260 -175V-141Q264 -143 278 -147T311 -152Q363 -152 363 -113Q363 -71 302 -71H290L317 3H356L338 -44Q380 -47 397 -66T414 -113Z" />
<glyph unicode="&#xc8;" glyph-name="Egrave" horiz-adv-x="552" d="M73 695H501V647H138V389H450V341H138V49H506V0H73V695ZM272 750L174 866H255L326 750H272Z" />
<glyph unicode="&#xc9;" glyph-name="Eacute" horiz-adv-x="552" d="M73 695H501V647H138V389H450V341H138V49H506V0H73V695ZM333 866H414L316 750H262L333 866Z" />
<glyph unicode="&#xca;" glyph-name="Ecircumflex" horiz-adv-x="552" d="M73 695H501V647H138V389H450V341H138V49H506V0H73V695ZM292 828L211 754H162L255 866H329L423 754H373L292 828Z" />
<glyph unicode="&#xcb;" glyph-name="Edieresis" horiz-adv-x="552" d="M73 695H501V647H138V389H450V341H138V49H506V0H73V695ZM191 769Q171 769 160 781T149 811Q149 828 160 840T191 853Q210 853 221 841T233 811Q233 794 222 782T191 769ZM395 769Q376 769
364 781T352 811Q352 828 364 840T395 853Q415 853 426 841T437 811Q437 794 426 782T395 769Z" />
<glyph unicode="&#xcc;" glyph-name="Igrave" horiz-adv-x="212" d="M138 695V0H73V695H138ZM85 750L-13 866H68L139 750H85Z" />
<glyph unicode="&#xcd;" glyph-name="Iacute" horiz-adv-x="212" d="M138 695V0H73V695H138ZM402 866H483L385 750H331L402 866Z" />
<glyph unicode="&#xce;" glyph-name="Icircumflex" horiz-adv-x="212" d="M138 695V0H73V695H138ZM361 828L280 754H231L324 866H398L492 754H442L361 828Z" />
<glyph unicode="&#xcf;" glyph-name="Idieresis" horiz-adv-x="212" d="M27 769Q7 769 -4 781T-16 811Q-16 828 -5 840T27 853Q46 853 57 841T69 811Q69 794 58 782T27 769ZM186 769Q167 769 155 781T143 811Q143 828 155 840T186 853Q206 853 217 841T229 811Q229
794 218 782T186 769ZM138 695V0H73V695H138Z" />
<glyph unicode="&#xd0;" glyph-name="Eth" horiz-adv-x="689" d="M99 377V695H331Q398 695 456 678T557 623T626 522T651 368Q651 276 626 208T557 93T451 23T319 0H99V331H0V377H99ZM164 331V49H320Q377 49 425 68T507 126T561 224T581 365Q581 446 562 500T509
587T430 633T331 647H164V377H393V331H164Z" />
<glyph unicode="&#xd1;" glyph-name="Ntilde" horiz-adv-x="680" d="M606 0H525L130 621V0H73V695H157L550 77V695H606V0ZM201 763Q199 782 202 800T214 831T239 853T277 862Q301 862 320 855T357 838T391 821T424 813Q461 813 461 865H502Q504 846 501 828T488
797T463 775T426 766Q402 766 382 774T345 791T312 808T279 816Q240 816 242 763H201Z" />
<glyph unicode="&#xd2;" glyph-name="Ograve" horiz-adv-x="734" d="M367 -10Q297 -10 237 14T133 84T64 197T39 350Q39 436 64 502T133 613T237 681T367 704Q438 704 498 681T602 613T670 502T695 349Q695 264 671 197T602 84T498 14T367 -10ZM367 39Q423 39
470 57T552 112T606 208T626 347Q626 427 607 485T553 582T471 638T367 656Q311 656 264 638T182 582T128 486T108 347Q108 267 127 209T181 113T263 57T367 39ZM344 750L246 866H327L398 750H344Z" />
<glyph unicode="&#xd3;" glyph-name="Oacute" horiz-adv-x="734" d="M367 -10Q297 -10 237 14T133 84T64 197T39 350Q39 436 64 502T133 613T237 681T367 704Q438 704 498 681T602 613T670 502T695 349Q695 264 671 197T602 84T498 14T367 -10ZM367 39Q423 39
470 57T552 112T606 208T626 347Q626 427 607 485T553 582T471 638T367 656Q311 656 264 638T182 582T128 486T108 347Q108 267 127 209T181 113T263 57T367 39ZM405 866H486L388 750H334L405 866Z" />
<glyph unicode="&#xd4;" glyph-name="Ocircumflex" horiz-adv-x="734" d="M367 -10Q297 -10 237 14T133 84T64 197T39 350Q39 436 64 502T133 613T237 681T367 704Q438 704 498 681T602 613T670 502T695 349Q695 264 671 197T602 84T498 14T367 -10ZM367 39Q423
39 470 57T552 112T606 208T626 347Q626 427 607 485T553 582T471 638T367 656Q311 656 264 638T182 582T128 486T108 347Q108 267 127 209T181 113T263 57T367 39ZM364 828L283 754H234L327 866H401L495 754H445L364 828Z" />
<glyph unicode="&#xd5;" glyph-name="Otilde" horiz-adv-x="734" d="M367 -10Q297 -10 237 14T133 84T64 197T39 350Q39 436 64 502T133 613T237 681T367 704Q438 704 498 681T602 613T670 502T695 349Q695 264 671 197T602 84T498 14T367 -10ZM367 39Q423 39
470 57T552 112T606 208T626 347Q626 427 607 485T553 582T471 638T367 656Q311 656 264 638T182 582T128 486T108 347Q108 267 127 209T181 113T263 57T367 39ZM214 763Q212 782 215 800T227 831T252 853T290 862Q314 862 333 855T370 838T404 821T437 813Q474
813 474 865H515Q517 846 514 828T501 797T476 775T439 766Q415 766 395 774T358 791T325 808T292 816Q253 816 255 763H214Z" />
<glyph unicode="&#xd6;" glyph-name="Odieresis" horiz-adv-x="734" d="M367 -10Q297 -10 237 14T133 84T64 197T39 350Q39 436 64 502T133 613T237 681T367 704Q438 704 498 681T602 613T670 502T695 349Q695 264 671 197T602 84T498 14T367 -10ZM367 39Q423
39 470 57T552 112T606 208T626 347Q626 427 607 485T553 582T471 638T367 656Q311 656 264 638T182 582T128 486T108 347Q108 267 127 209T181 113T263 57T367 39ZM263 769Q243 769 232 781T221 811Q221 828 232 840T263 853Q282 853 293 841T305 811Q305 794
294 782T263 769ZM467 769Q448 769 436 781T424 811Q424 828 436 840T467 853Q487 853 498 841T509 811Q509 794 498 782T467 769Z" />
<glyph unicode="&#xd7;" glyph-name="multiply" horiz-adv-x="495" d="M424 116L246 294L70 119L36 153L212 328L36 504L71 539L247 363L425 541L459 507L281 329L459 151L424 116Z" />
<glyph unicode="&#xd8;" glyph-name="Oslash" horiz-adv-x="734" d="M367 -10Q297 -10 237 14Q221 20 206 28L151 -68H95L166 54Q148 67 133 84Q89 130 64 197T39 350Q39 436 64 502T133 613T237 681T367 704Q438 704 498 681Q511 676 523 670L573 756H629L564
645Q584 630 602 613Q646 568 670 502T695 349Q695 264 671 197T602 84T498 14T367 -10ZM367 39Q423 39 470 57T552 112T606 208T626 347Q626 427 607 485T552 582Q545 590 537 597L232 72Q247 63 263 57Q311 39 367 39ZM470 638Q423 656 367 656Q311 656 264 638T182
582T128 486T108 347Q108 267 127 209T181 112Q187 106 193 100L497 626Q484 632 470 638Z" />
<glyph unicode="&#xd9;" glyph-name="Ugrave" horiz-adv-x="646" d="M59 695H124V239Q124 137 179 89T326 41Q369 41 406 53T472 89T515 151T531 240V695L587 696V243Q587 181 567 134T511 55T428 7T324 -10Q267 -10 219 5T135 52T79 130T59 239V695ZM308 751L210
867H291L362 751H308Z" />
<glyph unicode="&#xda;" glyph-name="Uacute" horiz-adv-x="646" d="M59 695H124V239Q124 137 179 89T326 41Q369 41 406 53T472 89T515 151T531 240V695L587 696V243Q587 181 567 134T511 55T428 7T324 -10Q267 -10 219 5T135 52T79 130T59 239V695ZM369 867H450L352
751H298L369 867Z" />
<glyph unicode="&#xdb;" glyph-name="Ucircumflex" horiz-adv-x="646" d="M59 695H124V239Q124 137 179 89T326 41Q369 41 406 53T472 89T515 151T531 240V695L587 696V243Q587 181 567 134T511 55T428 7T324 -10Q267 -10 219 5T135 52T79 130T59 239V695ZM328
829L247 755H198L291 867H365L459 755H409L328 829Z" />
<glyph unicode="&#xdc;" glyph-name="Udieresis" horiz-adv-x="646" d="M59 695H124V239Q124 137 179 89T326 41Q369 41 406 53T472 89T515 151T531 240V695L587 696V243Q587 181 567 134T511 55T428 7T324 -10Q267 -10 219 5T135 52T79 130T59 239V695ZM227 770Q207
770 196 782T185 812Q185 829 196 841T227 854Q246 854 257 842T269 812Q269 795 258 783T227 770ZM431 770Q412 770 400 782T388 812Q388 829 400 841T431 854Q451 854 462 842T473 812Q473 795 462 783T431 770Z" />
<glyph unicode="&#xdd;" glyph-name="Yacute" horiz-adv-x="565" d="M316 301V0H250V302L8 695H82L288 354L496 695H557L316 301ZM327 866H408L310 750H256L327 866Z" />
<glyph unicode="&#xde;" glyph-name="Thorn" horiz-adv-x="557" d="M139 146V0H74V695H139V549H287Q342 549 386 538T462 504T509 445T526 360Q526 304 508 264T457 197T378 159T277 146H139ZM139 500V194H277Q361 194 411 231T461 356Q461 431 416 465T287 500H139Z" />
<glyph unicode="&#xdf;" glyph-name="germandbls" horiz-adv-x="557" d="M532 134Q532 96 519 69T481 24T425 -2T355 -10Q314 -10 283 -3T233 19V63Q255 52 286 44T353 35Q413 35 443 60T473 129Q473 161 457 180T417 211T365 232T313 253T273 285T257 338Q257
364 267 382T292 415T324 442T356 470T381 504T391 550Q391 600 358 630T266 660Q194 660 160 615T126 481V0H66V481Q66 585 115 644T267 704Q313 704 347 692T405 658T439 609T451 548Q451 501 430 473T383 423T336 384T314 340Q314 319 330 307T370 286T423 268T475
242T516 201T532 134Z" />
<glyph unicode="&#xe0;" glyph-name="agrave" horiz-adv-x="492" d="M381 0Q377 17 374 40T369 93Q361 76 348 58T314 24T265 0T199 -10Q126 -10 82 27T38 137Q38 214 99 252T292 290H368V347Q368 408 337 436T237 465Q186 465 142 448T70 407V453Q93 479 139
496T244 513Q333 513 380 475T428 355V88Q428 65 430 40T436 0H381ZM210 35Q250 35 280 50T329 86T358 131T368 171V251H297Q243 251 205 245T143 226T109 191T98 140Q98 88 127 62T210 35ZM472 575L376 715H450L519 575H472Z" />
<glyph unicode="&#xe1;" glyph-name="aacute" horiz-adv-x="492" d="M381 0Q377 17 374 40T369 93Q361 76 348 58T314 24T265 0T199 -10Q126 -10 82 27T38 137Q38 214 99 252T292 290H368V347Q368 408 337 436T237 465Q186 465 142 448T70 407V453Q93 479 139
496T244 513Q333 513 380 475T428 355V88Q428 65 430 40T436 0H381ZM210 35Q250 35 280 50T329 86T358 131T368 171V251H297Q243 251 205 245T143 226T109 191T98 140Q98 88 127 62T210 35ZM280 715H354L258 575H210L280 715Z" />
<glyph unicode="&#xe2;" glyph-name="acircumflex" horiz-adv-x="492" d="M381 0Q377 17 374 40T369 93Q361 76 348 58T314 24T265 0T199 -10Q126 -10 82 27T38 137Q38 214 99 252T292 290H368V347Q368 408 337 436T237 465Q186 465 142 448T70 407V453Q93 479
139 496T244 513Q333 513 380 475T428 355V88Q428 65 430 40T436 0H381ZM210 35Q250 35 280 50T329 86T358 131T368 171V251H297Q243 251 205 245T143 226T109 191T98 140Q98 88 127 62T210 35ZM237 669L150 575H105L204 706H269L368 575H323L237 669Z" />
<glyph unicode="&#xe3;" glyph-name="atilde" horiz-adv-x="492" d="M381 0Q377 17 374 40T369 93Q361 76 348 58T314 24T265 0T199 -10Q126 -10 82 27T38 137Q38 214 99 252T292 290H368V347Q368 408 337 436T237 465Q186 465 142 448T70 407V453Q93 479 139
496T244 513Q333 513 380 475T428 355V88Q428 65 430 40T436 0H381ZM210 35Q250 35 280 50T329 86T358 131T368 171V251H297Q243 251 205 245T143 226T109 191T98 140Q98 88 127 62T210 35ZM90 585Q88 604 91 622T104 653T129 675T168 684Q190 684 207 677T240
660T269 643T299 635Q335 635 335 687H379Q383 648 365 618T302 588Q280 588 263 595T230 612T200 629T169 637Q133 637 134 585H90Z" />
<glyph unicode="&#xe4;" glyph-name="adieresis" horiz-adv-x="492" d="M381 0Q377 17 374 40T369 93Q361 76 348 58T314 24T265 0T199 -10Q126 -10 82 27T38 137Q38 214 99 252T292 290H368V347Q368 408 337 436T237 465Q186 465 142 448T70 407V453Q93 479 139
496T244 513Q333 513 380 475T428 355V88Q428 65 430 40T436 0H381ZM210 35Q250 35 280 50T329 86T358 131T368 171V251H297Q243 251 205 245T143 226T109 191T98 140Q98 88 127 62T210 35ZM141 597Q123 597 111 609T99 639Q99 656 111 668T141 681Q161 681 172
669T184 639Q184 622 173 610T141 597ZM334 597Q314 597 303 609T292 639Q292 656 303 668T334 681Q353 681 364 669T376 639Q376 622 365 610T334 597Z" />
<glyph unicode="&#xe5;" glyph-name="aring" horiz-adv-x="492" d="M381 0Q377 17 374 40T369 93Q361 76 348 58T314 24T265 0T199 -10Q126 -10 82 27T38 137Q38 214 99 252T292 290H368V347Q368 408 337 436T237 465Q186 465 142 448T70 407V453Q93 479 139 496T244
513Q333 513 380 475T428 355V88Q428 65 430 40T436 0H381ZM210 35Q250 35 280 50T329 86T358 131T368 171V251H297Q243 251 205 245T143 226T109 191T98 140Q98 88 127 62T210 35ZM237 570Q196 570 170 596T143 664Q143 705 169 731T237 757Q279 757 306 731T333
664Q333 622 306 596T237 570ZM237 604Q262 604 278 620T294 664Q294 690 278 706T237 722Q213 722 198 706T182 664Q182 637 197 621T237 604Z" />
<glyph unicode="&#xe6;" glyph-name="ae" horiz-adv-x="835" d="M791 45Q782 37 768 27T732 9T682 -4T619 -10Q531 -10 475 28T394 137Q388 117 376 92T341 44T284 6T201 -10Q124 -10 81 29T38 141Q38 217 95 253T261 289H371V342Q371 401 339 433T243 465Q188
465 143 448T70 410V456Q93 479 140 496T251 513Q314 513 358 488T417 410Q446 460 493 486T601 513Q650 513 690 497T756 449T794 367T795 250H432Q433 147 482 93T624 39Q683 39 725 56T791 91V45ZM601 469Q536 469 490 424T434 289H738Q742 336 733 370T704
426T659 458T601 469ZM213 35Q257 35 287 53T336 96T363 147T371 189V250H273Q180 250 139 223T98 140Q98 91 127 63T213 35Z" />
<glyph unicode="&#xe7;" glyph-name="ccedilla" horiz-adv-x="473" d="M286 -10Q229 -10 183 7T103 59T53 141T35 252Q35 313 53 361T104 444T184 495T290 513Q335 513 374 503T438 474V428Q408 447 369 456T291 465Q194 465 145 411T96 252Q96 148 145 94T286
39Q331 39 369 49T438 78V32Q412 13 376 2T286 -10ZM326 -113Q326 -150 298 -168T226 -187Q201 -187 189 -182T172 -175V-141Q176 -143 190 -147T223 -152Q275 -152 275 -113Q275 -71 214 -71H202L229 3H268L250 -44Q292 -47 309 -66T326 -113Z" />
<glyph unicode="&#xe8;" glyph-name="egrave" horiz-adv-x="508" d="M463 46Q454 38 439 28T402 10T352 -4T289 -10Q167 -10 101 58T35 252Q35 313 53 361T102 444T177 495T271 513Q321 513 361 496T429 444T467 358T468 238H96Q100 140 150 90T294 39Q352 39
396 56T463 92V46ZM269 469Q201 469 153 422T97 282H411Q415 330 406 365T378 423T330 457T269 469ZM246 575L150 715H224L293 575H246Z" />
<glyph unicode="&#xe9;" glyph-name="eacute" horiz-adv-x="508" d="M463 46Q454 38 439 28T402 10T352 -4T289 -10Q167 -10 101 58T35 252Q35 313 53 361T102 444T177 495T271 513Q321 513 361 496T429 444T467 358T468 238H96Q100 140 150 90T294 39Q352 39
396 56T463 92V46ZM269 469Q201 469 153 422T97 282H411Q415 330 406 365T378 423T330 457T269 469ZM310 715H384L288 575H240L310 715Z" />
<glyph unicode="&#xea;" glyph-name="ecircumflex" horiz-adv-x="508" d="M463 46Q454 38 439 28T402 10T352 -4T289 -10Q167 -10 101 58T35 252Q35 313 53 361T102 444T177 495T271 513Q321 513 361 496T429 444T467 358T468 238H96Q100 140 150 90T294 39Q352
39 396 56T463 92V46ZM269 469Q201 469 153 422T97 282H411Q415 330 406 365T378 423T330 457T269 469ZM267 669L180 575H135L234 706H299L398 575H353L267 669Z" />
<glyph unicode="&#xeb;" glyph-name="edieresis" horiz-adv-x="508" d="M463 46Q454 38 439 28T402 10T352 -4T289 -10Q167 -10 101 58T35 252Q35 313 53 361T102 444T177 495T271 513Q321 513 361 496T429 444T467 358T468 238H96Q100 140 150 90T294 39Q352
39 396 56T463 92V46ZM269 469Q201 469 153 422T97 282H411Q415 330 406 365T378 423T330 457T269 469ZM171 597Q153 597 141 609T129 639Q129 656 141 668T171 681Q191 681 202 669T214 639Q214 622 203 610T171 597ZM364 597Q344 597 333 609T322 639Q322 656
333 668T364 681Q383 681 394 669T406 639Q406 622 395 610T364 597Z" />
<glyph unicode="&#xec;" glyph-name="igrave" horiz-adv-x="191" d="M126 503V0H66V503H126ZM76 575L-20 715H54L123 575H76Z" />
<glyph unicode="&#xed;" glyph-name="iacute" horiz-adv-x="191" d="M126 503V0H66V503H126ZM396 715H470L374 575H326L396 715Z" />
<glyph unicode="&#xee;" glyph-name="icircumflex" horiz-adv-x="191" d="M126 503V0H66V503H126ZM354 669L267 575H222L321 706H386L485 575H440L354 669Z" />
<glyph unicode="&#xef;" glyph-name="idieresis" horiz-adv-x="191" d="M18 597Q-1 597 -12 609T-24 639Q-24 656 -13 668T18 681Q38 681 49 669T61 639Q61 622 50 610T18 597ZM178 597Q158 597 147 609T136 639Q136 656 147 668T178 681Q197 681 208 669T220
639Q220 622 209 610T178 597ZM126 503V0H66V503H126Z" />
<glyph unicode="&#xf0;" glyph-name="eth" horiz-adv-x="543" d="M515 282Q515 210 497 155T445 64T367 9T270 -10Q219 -10 176 7T100 58T49 141T31 252Q31 314 49 362T99 442T173 491T264 508Q313 508 354 490T423 433Q403 484 370 527T293 605L135 554L122 594L251
636Q218 657 184 673T114 700V706H192Q219 698 248 685T305 654L427 693L440 652L348 622Q382 594 412 559T466 481T502 388T515 282ZM92 252Q92 199 105 159T142 93T198 53T269 39Q308 39 341 52T398 95T436 168T450 275Q450 305 446 332T433 383Q409 421 371
442T272 463Q233 463 200 450T143 411T106 346T92 252Z" />
<glyph unicode="&#xf1;" glyph-name="ntilde" horiz-adv-x="541" d="M299 465Q264 465 237 456T189 430T153 392T126 346V0H66V503H122L124 400H126Q136 422 153 442T193 478T246 503T314 513Q391 513 435 473T480 353V0H419V350Q419 411 388 438T299 465ZM123
585Q121 604 124 622T137 653T162 675T201 684Q223 684 240 677T273 660T302 643T332 635Q368 635 368 687H412Q416 648 398 618T335 588Q313 588 296 595T263 612T233 629T202 637Q166 637 167 585H123Z" />
<glyph unicode="&#xf2;" glyph-name="ograve" horiz-adv-x="550" d="M274 -10Q223 -10 180 7T104 58T54 141T35 252Q35 314 53 362T104 444T179 495T274 513Q326 513 370 496T446 445T497 363T516 252Q516 190 498 141T447 59T370 8T274 -10ZM274 34Q312 34 345
47T402 86T440 154T454 252Q454 309 440 350T402 417T345 456T274 469Q236 469 204 457T147 418T110 350T96 252Q96 195 109 154T147 87T203 47T274 34ZM253 575L157 715H231L300 575H253Z" />
<glyph unicode="&#xf3;" glyph-name="oacute" horiz-adv-x="550" d="M274 -10Q223 -10 180 7T104 58T54 141T35 252Q35 314 53 362T104 444T179 495T274 513Q326 513 370 496T446 445T497 363T516 252Q516 190 498 141T447 59T370 8T274 -10ZM274 34Q312 34 345
47T402 86T440 154T454 252Q454 309 440 350T402 417T345 456T274 469Q236 469 204 457T147 418T110 350T96 252Q96 195 109 154T147 87T203 47T274 34ZM317 715H391L295 575H247L317 715Z" />
<glyph unicode="&#xf4;" glyph-name="ocircumflex" horiz-adv-x="550" d="M274 -10Q223 -10 180 7T104 58T54 141T35 252Q35 314 53 362T104 444T179 495T274 513Q326 513 370 496T446 445T497 363T516 252Q516 190 498 141T447 59T370 8T274 -10ZM274 34Q312
34 345 47T402 86T440 154T454 252Q454 309 440 350T402 417T345 456T274 469Q236 469 204 457T147 418T110 350T96 252Q96 195 109 154T147 87T203 47T274 34ZM275 669L188 575H143L242 706H307L406 575H361L275 669Z" />
<glyph unicode="&#xf5;" glyph-name="otilde" horiz-adv-x="550" d="M274 -10Q223 -10 180 7T104 58T54 141T35 252Q35 314 53 362T104 444T179 495T274 513Q326 513 370 496T446 445T497 363T516 252Q516 190 498 141T447 59T370 8T274 -10ZM274 34Q312 34 345
47T402 86T440 154T454 252Q454 309 440 350T402 417T345 456T274 469Q236 469 204 457T147 418T110 350T96 252Q96 195 109 154T147 87T203 47T274 34ZM128 585Q126 604 129 622T142 653T167 675T206 684Q228 684 245 677T278 660T307 643T337 635Q373 635 373
687H417Q421 648 403 618T340 588Q318 588 301 595T268 612T238 629T207 637Q171 637 172 585H128Z" />
<glyph unicode="&#xf6;" glyph-name="odieresis" horiz-adv-x="550" d="M274 -10Q223 -10 180 7T104 58T54 141T35 252Q35 314 53 362T104 444T179 495T274 513Q326 513 370 496T446 445T497 363T516 252Q516 190 498 141T447 59T370 8T274 -10ZM274 34Q312 34
345 47T402 86T440 154T454 252Q454 309 440 350T402 417T345 456T274 469Q236 469 204 457T147 418T110 350T96 252Q96 195 109 154T147 87T203 47T274 34ZM178 597Q160 597 148 609T136 639Q136 656 148 668T178 681Q198 681 209 669T221 639Q221 622 210 610T178
597ZM371 597Q351 597 340 609T329 639Q329 656 340 668T371 681Q390 681 401 669T413 639Q413 622 402 610T371 597Z" />
<glyph unicode="&#xf7;" glyph-name="divide" horiz-adv-x="518" d="M257 91Q237 91 224 104T211 136Q211 156 224 168T257 181Q277 181 289 169T302 136Q302 117 290 104T257 91ZM257 450Q237 450 224 463T211 495Q211 515 224 527T257 540Q277 540 289 528T302
495Q302 476 290 463T257 450ZM36 302V348H481V302H36Z" />
<glyph unicode="&#xf8;" glyph-name="oslash" horiz-adv-x="550" d="M274 -10Q223 -10 180 8L138 -78H89L141 28Q92 60 64 116T35 252Q35 314 53 362T104 444T179 495T274 513Q324 513 369 496L411 581H460L409 476Q458 444 487 388T516 252Q516 190 498 141T447
59T370 8T274 -10ZM96 252Q96 188 114 144T163 73L349 454Q314 469 274 469Q236 469 204 456T147 415T110 348T96 252ZM454 252Q454 315 436 359T386 431L200 49Q233 34 274 34Q312 34 345 47T402 88T440 156T454 252Z" />
<glyph unicode="&#xf9;" glyph-name="ugrave" horiz-adv-x="527" d="M401 102Q381 56 337 23T221 -10Q147 -10 104 31T61 155V503H122V155Q122 123 130 101T154 66T191 46T237 40Q303 40 340 73T401 158V503H462V0H408L403 102H401V102ZM249 575L153 715H227L296
575H249Z" />
<glyph unicode="&#xfa;" glyph-name="uacute" horiz-adv-x="527" d="M401 102Q381 56 337 23T221 -10Q147 -10 104 31T61 155V503H122V155Q122 123 130 101T154 66T191 46T237 40Q303 40 340 73T401 158V503H462V0H408L403 102H401V102ZM308 715H382L286 575H238L308
715Z" />
<glyph unicode="&#xfb;" glyph-name="ucircumflex" horiz-adv-x="527" d="M401 102Q381 56 337 23T221 -10Q147 -10 104 31T61 155V503H122V155Q122 123 130 101T154 66T191 46T237 40Q303 40 340 73T401 158V503H462V0H408L403 102H401V102ZM267 669L180 575H135L234
706H299L398 575H353L267 669Z" />
<glyph unicode="&#xfc;" glyph-name="udieresis" horiz-adv-x="527" d="M401 102Q381 56 337 23T221 -10Q147 -10 104 31T61 155V503H122V155Q122 123 130 101T154 66T191 46T237 40Q303 40 340 73T401 158V503H462V0H408L403 102H401V102ZM170 597Q152 597 140
609T128 639Q128 656 140 668T170 681Q190 681 201 669T213 639Q213 622 202 610T170 597ZM363 597Q343 597 332 609T321 639Q321 656 332 668T363 681Q382 681 393 669T405 639Q405 622 394 610T363 597Z" />
<glyph unicode="&#xfd;" glyph-name="yacute" horiz-adv-x="476" d="M279 6Q260 -42 242 -79T203 -143T155 -182T93 -196Q79 -196 69 -194T52 -189Q44 -186 38 -182V-136Q43 -141 57 -144T89 -148Q127 -148 153 -120T209 -28L2 503H68L241 50L419 503H475L279
6V6ZM285 715H359L263 575H215L285 715Z" />
<glyph unicode="&#xfe;" glyph-name="thorn" horiz-adv-x="567" d="M307 -10Q244 -10 198 21T126 107V-178H66V706H126V398Q151 452 196 482T307 513Q353 513 394 497T466 448T515 366T533 252Q533 187 515 138T466 56T394 7T307 -10ZM299 34Q336 34 368 48T422
89T458 158T471 252Q471 305 458 345T423 413T368 455T299 469Q262 469 230 455T175 414T139 347T125 252Q125 198 138 158T175 90T230 48T299 34Z" />
<glyph unicode="&#xff;" glyph-name="ydieresis" horiz-adv-x="476" d="M279 6Q260 -42 242 -79T203 -143T155 -182T93 -196Q79 -196 69 -194T52 -189Q44 -186 38 -182V-136Q43 -141 57 -144T89 -148Q127 -148 153 -120T209 -28L2 503H68L241 50L419 503H475L279
6V6ZM145 597Q127 597 115 609T103 639Q103 656 115 668T145 681Q165 681 176 669T188 639Q188 622 177 610T145 597ZM338 597Q318 597 307 609T296 639Q296 656 307 668T338 681Q357 681 368 669T380 639Q380 622 369 610T338 597Z" />
<glyph unicode="&#x100;" glyph-name="Amacron" horiz-adv-x="625" d="M266 695H357L617 0H549L467 220H147L65 0H8L266 695ZM449 268L306 649L164 268H449ZM188 828H434V782H188V828Z" />
<glyph unicode="&#x101;" glyph-name="amacron" horiz-adv-x="492" d="M381 0Q377 17 374 40T369 93Q361 76 348 58T314 24T265 0T199 -10Q126 -10 82 27T38 137Q38 214 99 252T292 290H368V347Q368 408 337 436T237 465Q186 465 142 448T70 407V453Q93 479 139
496T244 513Q333 513 380 475T428 355V88Q428 65 430 40T436 0H381ZM210 35Q250 35 280 50T329 86T358 131T368 171V251H297Q243 251 205 245T143 226T109 191T98 140Q98 88 127 62T210 35ZM110 660H366V615H110V660Z" />
<glyph unicode="&#x102;" glyph-name="Abreve" horiz-adv-x="625" d="M266 695H357L617 0H549L467 220H147L65 0H8L266 695ZM449 268L306 649L164 268H449ZM310 746Q278 746 255 755T216 781T192 818T183 862H231Q233 829 254 811T310 792Q348 792 368 810T390
862H438Q437 839 429 818T405 781T366 756T310 746Z" />
<glyph unicode="&#x103;" glyph-name="abreve" horiz-adv-x="492" d="M381 0Q377 17 374 40T369 93Q361 76 348 58T314 24T265 0T199 -10Q126 -10 82 27T38 137Q38 214 99 252T292 290H368V347Q368 408 337 436T237 465Q186 465 142 448T70 407V453Q93 479 139
496T244 513Q333 513 380 475T428 355V88Q428 65 430 40T436 0H381ZM210 35Q250 35 280 50T329 86T358 131T368 171V251H297Q243 251 205 245T143 226T109 191T98 140Q98 88 127 62T210 35ZM237 567Q205 567 182 577T144 603T122 641T113 687H160Q162 652 182 633T237
613Q274 613 293 632T315 687H362Q361 663 354 642T331 604T292 577T237 567Z" />
<glyph unicode="&#x104;" glyph-name="Aogonek" horiz-adv-x="625" d="M266 695H357L617 0H549L467 220H147L65 0H8L266 695ZM449 268L306 649L164 268H449ZM581 -189Q530 -189 504 -167T478 -107Q478 -69 501 -42T555 0H610Q578 -17 557 -42T535 -99Q535 -146
589 -146Q605 -146 615 -144T633 -139V-179Q627 -182 615 -185T581 -189Z" />
<glyph unicode="&#x105;" glyph-name="aogonek" horiz-adv-x="492" d="M381 0Q377 17 374 40T369 93Q361 76 348 58T314 24T265 0T199 -10Q126 -10 82 27T38 137Q38 214 99 252T292 290H368V347Q368 408 337 436T237 465Q186 465 142 448T70 407V453Q93 479 139
496T244 513Q333 513 380 475T428 355V88Q428 65 430 40T436 0H381ZM210 35Q250 35 280 50T329 86T358 131T368 171V251H297Q243 251 205 245T143 226T109 191T98 140Q98 88 127 62T210 35ZM406 -189Q355 -189 329 -167T303 -107Q303 -69 326 -42T380 0H435Q403
-17 382 -42T360 -99Q360 -146 414 -146Q430 -146 440 -144T458 -139V-179Q452 -182 440 -185T406 -189Z" />
<glyph unicode="&#x106;" glyph-name="Cacute" horiz-adv-x="634" d="M374 -10Q297 -10 235 14T130 85T63 197T39 347Q39 431 61 497T126 609T231 679T373 704Q447 704 501 687T586 644V590Q545 620 491 636T377 653Q242 653 175 573T108 347Q108 201 174 121T378
41Q438 41 491 58T586 110V54Q557 29 504 10T374 -10ZM412 866H493L395 750H341L412 866Z" />
<glyph unicode="&#x107;" glyph-name="cacute" horiz-adv-x="473" d="M286 -10Q229 -10 183 7T103 59T53 141T35 252Q35 313 53 361T104 444T184 495T290 513Q335 513 374 503T438 474V428Q408 447 369 456T291 465Q194 465 145 411T96 252Q96 148 145 94T286
39Q331 39 369 49T438 78V32Q412 13 376 2T286 -10ZM310 715H384L288 575H240L310 715Z" />
<glyph unicode="&#x108;" glyph-name="Ccircumflex" horiz-adv-x="634" d="M374 -10Q297 -10 235 14T130 85T63 197T39 347Q39 431 61 497T126 609T231 679T373 704Q447 704 501 687T586 644V590Q545 620 491 636T377 653Q242 653 175 573T108 347Q108 201 174
121T378 41Q438 41 491 58T586 110V54Q557 29 504 10T374 -10ZM371 828L290 754H241L334 866H408L502 754H452L371 828Z" />
<glyph unicode="&#x109;" glyph-name="ccircumflex" horiz-adv-x="473" d="M286 -10Q229 -10 183 7T103 59T53 141T35 252Q35 313 53 361T104 444T184 495T290 513Q335 513 374 503T438 474V428Q408 447 369 456T291 465Q194 465 145 411T96 252Q96 148 145 94T286
39Q331 39 369 49T438 78V32Q412 13 376 2T286 -10ZM267 669L180 575H135L234 706H299L398 575H353L267 669Z" />
<glyph unicode="&#x10a;" glyph-name="Cdotaccent" horiz-adv-x="634" d="M374 -10Q297 -10 235 14T130 85T63 197T39 347Q39 431 61 497T126 609T231 679T373 704Q447 704 501 687T586 644V590Q545 620 491 636T377 653Q242 653 175 573T108 347Q108 201 174
121T378 41Q438 41 491 58T586 110V54Q557 29 504 10T374 -10ZM372 769Q353 769 342 781T330 811Q330 828 341 840T372 853Q392 853 403 841T415 811Q415 794 404 782T372 769Z" />
<glyph unicode="&#x10b;" glyph-name="cdotaccent" horiz-adv-x="473" d="M286 -10Q229 -10 183 7T103 59T53 141T35 252Q35 313 53 361T104 444T184 495T290 513Q335 513 374 503T438 474V428Q408 447 369 456T291 465Q194 465 145 411T96 252Q96 148 145 94T286
39Q331 39 369 49T438 78V32Q412 13 376 2T286 -10ZM267 597Q248 597 237 609T225 639Q225 656 236 668T267 681Q287 681 298 669T310 639Q310 622 299 610T267 597Z" />
<glyph unicode="&#x10c;" glyph-name="Ccaron" horiz-adv-x="634" d="M374 -10Q297 -10 235 14T130 85T63 197T39 347Q39 431 61 497T126 609T231 679T373 704Q447 704 501 687T586 644V590Q545 620 491 636T377 653Q242 653 175 573T108 347Q108 201 174 121T378
41Q438 41 491 58T586 110V54Q557 29 504 10T374 -10ZM407 754H333L240 866H289L370 791L451 866H501L407 754Z" />
<glyph unicode="&#x10d;" glyph-name="ccaron" horiz-adv-x="473" d="M286 -10Q229 -10 183 7T103 59T53 141T35 252Q35 313 53 361T104 444T184 495T290 513Q335 513 374 503T438 474V428Q408 447 369 456T291 465Q194 465 145 411T96 252Q96 148 145 94T286
39Q331 39 369 49T438 78V32Q412 13 376 2T286 -10ZM299 575H234L135 706H180L267 613L353 706H398L299 575Z" />
<glyph unicode="&#x10e;" glyph-name="Dcaron" horiz-adv-x="663" d="M73 695H304Q371 695 429 678T531 623T599 522T624 368Q624 276 599 208T530 93T426 23T294 0H73V695ZM138 647V49H294Q351 49 398 68T481 126T535 224T555 365Q555 446 536 500T483 587T403
633T305 647H138ZM358 754H284L191 866H240L321 791L402 866H452L358 754Z" />
<glyph unicode="&#x10f;" glyph-name="dcaron" horiz-adv-x="569" d="M444 115Q420 58 375 24T260 -10Q214 -10 173 6T102 56T53 138T35 252Q35 317 53 366T101 447T173 496T261 513Q324 513 370 485T441 402V725H502V0H452L444 115ZM268 34Q305 34 337 48T392
89T428 157T442 252Q442 306 429 346T392 414T337 455T268 469Q231 469 200 455T145 414T109 346T96 252Q96 198 109 158T145 90T199 48T268 34ZM556 572L581 725H642L594 572H556Z" />
<glyph unicode="&#x110;" glyph-name="Dcroat" horiz-adv-x="687" d="M353 377V695H585Q652 695 710 678T811 623T880 522T905 368Q905 276 880 208T811 93T705 23T573 0H353V331H254V377H353ZM418 331V49H574Q631 49 679 68T761 126T815 224T835 365Q835 446
816 500T763 587T684 633T585 647H418V377H647V331H418Z" />
<glyph unicode="&#x111;" glyph-name="" horiz-adv-x="567" d="M444 115Q420 58 375 24T260 -10Q214 -10 173 6T102 56T53 138T35 252Q35 317 53 366T101 447T173 496T261 513Q324 513 370 485T441 402V573H271V615H441V725H502V615H580V573H502V0H452L444 115ZM268
34Q305 34 337 48T392 89T428 157T442 252Q442 306 429 346T392 414T337 455T268 469Q231 469 200 455T145 414T109 346T96 252Q96 198 109 158T145 90T199 48T268 34Z" />
<glyph unicode="&#x112;" glyph-name="Emacron" horiz-adv-x="552" d="M73 695H501V647H138V389H450V341H138V49H506V0H73V695ZM170 828H416V782H170V828Z" />
<glyph unicode="&#x113;" glyph-name="emacron" horiz-adv-x="508" d="M463 46Q454 38 439 28T402 10T352 -4T289 -10Q167 -10 101 58T35 252Q35 313 53 361T102 444T177 495T271 513Q321 513 361 496T429 444T467 358T468 238H96Q100 140 150 90T294 39Q352 39
396 56T463 92V46ZM269 469Q201 469 153 422T97 282H411Q415 330 406 365T378 423T330 457T269 469ZM140 660H396V615H140V660Z" />
<glyph unicode="&#x114;" glyph-name="Ebreve" horiz-adv-x="552" d="M73 695H501V647H138V389H450V341H138V49H506V0H73V695ZM292 746Q260 746 237 755T198 781T174 818T165 862H213Q215 829 236 811T292 792Q330 792 350 810T372 862H420Q419 839 411 818T387
781T348 756T292 746Z" />
<glyph unicode="&#x115;" glyph-name="ebreve" horiz-adv-x="508" d="M463 46Q454 38 439 28T402 10T352 -4T289 -10Q167 -10 101 58T35 252Q35 313 53 361T102 444T177 495T271 513Q321 513 361 496T429 444T467 358T468 238H96Q100 140 150 90T294 39Q352 39
396 56T463 92V46ZM269 469Q201 469 153 422T97 282H411Q415 330 406 365T378 423T330 457T269 469ZM267 567Q235 567 212 577T174 603T152 641T143 687H190Q192 652 212 633T267 613Q304 613 323 632T345 687H392Q391 663 384 642T361 604T322 577T267 567Z" />
<glyph unicode="&#x116;" glyph-name="Edotaccent" horiz-adv-x="552" d="M73 695H501V647H138V389H450V341H138V49H506V0H73V695ZM292 769Q273 769 262 781T250 811Q250 828 261 840T292 853Q312 853 323 841T335 811Q335 794 324 782T292 769Z" />
<glyph unicode="&#x117;" glyph-name="edotaccent" horiz-adv-x="508" d="M463 46Q454 38 439 28T402 10T352 -4T289 -10Q167 -10 101 58T35 252Q35 313 53 361T102 444T177 495T271 513Q321 513 361 496T429 444T467 358T468 238H96Q100 140 150 90T294 39Q352
39 396 56T463 92V46ZM269 469Q201 469 153 422T97 282H411Q415 330 406 365T378 423T330 457T269 469ZM267 597Q248 597 237 609T225 639Q225 656 236 668T267 681Q287 681 298 669T310 639Q310 622 299 610T267 597Z" />
<glyph unicode="&#x118;" glyph-name="Eogonek" horiz-adv-x="552" d="M73 695H501V647H138V389H450V341H138V49H506V0H73V695ZM421 -189Q370 -189 344 -167T318 -107Q318 -69 341 -42T395 0H450Q418 -17 397 -42T375 -99Q375 -146 429 -146Q445 -146 455 -144T473
-139V-179Q467 -182 455 -185T421 -189Z" />
<glyph unicode="&#x119;" glyph-name="eogonek" horiz-adv-x="508" d="M463 46Q454 38 439 28T402 10T352 -4T289 -10Q167 -10 101 58T35 252Q35 313 53 361T102 444T177 495T271 513Q321 513 361 496T429 444T467 358T468 238H96Q100 140 150 90T294 39Q352 39
396 56T463 92V46ZM269 469Q201 469 153 422T97 282H411Q415 330 406 365T378 423T330 457T269 469ZM360 -189Q309 -189 283 -167T257 -107Q257 -69 280 -42T334 0H389Q357 -17 336 -42T314 -99Q314 -146 368 -146Q384 -146 394 -144T412 -139V-179Q406 -182 394
-185T360 -189Z" />
<glyph unicode="&#x11a;" glyph-name="Ecaron" horiz-adv-x="552" d="M73 695H501V647H138V389H450V341H138V49H506V0H73V695ZM328 754H254L161 866H210L291 791L372 866H422L328 754Z" />
<glyph unicode="&#x11b;" glyph-name="ecaron" horiz-adv-x="508" d="M463 46Q454 38 439 28T402 10T352 -4T289 -10Q167 -10 101 58T35 252Q35 313 53 361T102 444T177 495T271 513Q321 513 361 496T429 444T467 358T468 238H96Q100 140 150 90T294 39Q352 39
396 56T463 92V46ZM269 469Q201 469 153 422T97 282H411Q415 330 406 365T378 423T330 457T269 469ZM299 575H234L135 706H180L267 613L353 706H398L299 575Z" />
<glyph unicode="&#x11c;" glyph-name="Gcircumflex" horiz-adv-x="703" d="M658 270Q658 209 640 158T585 70T496 11T372 -10Q298 -10 237 15T131 86T63 198T39 347Q39 429 62 495T131 608T241 679T389 704Q474 704 528 684T612 641V587Q568 616 515 634T390 653Q321
653 269 632T180 572T126 476T108 347Q108 276 126 219T179 122T263 61T372 39Q427 39 468 56T537 103T578 174T592 262V308H348V356H658V270V270ZM363 828L282 754H233L326 866H400L494 754H444L363 828Z" />
<glyph unicode="&#x11d;" glyph-name="gcircumflex" horiz-adv-x="567" d="M500 27Q500 -74 443 -131T257 -189Q209 -189 177 -182T122 -165Q96 -154 80 -141V-95Q97 -108 123 -118Q145 -127 178 -134T258 -141Q356 -141 398 -100T440 26V135Q417 82 373 51T262
20Q215 20 174 36T102 83T53 160T35 266Q35 327 53 373T102 450T174 497T263 513Q329 513 375 482T444 396L445 402Q445 435 447 462T451 503H505Q503 490 502 462T500 402V27ZM272 64Q308 64 339 76T392 114T428 178T441 266Q441 317 428 355T393 418T339 456T271
469Q233 469 201 456T146 418T109 354T95 266Q95 216 108 179T145 116T201 77T272 64ZM273 669L186 575H141L240 706H305L404 575H359L273 669Z" />
<glyph unicode="&#x11e;" glyph-name="Gbreve" horiz-adv-x="703" d="M658 270Q658 209 640 158T585 70T496 11T372 -10Q298 -10 237 15T131 86T63 198T39 347Q39 429 62 495T131 608T241 679T389 704Q474 704 528 684T612 641V587Q568 616 515 634T390 653Q321
653 269 632T180 572T126 476T108 347Q108 276 126 219T179 122T263 61T372 39Q427 39 468 56T537 103T578 174T592 262V308H348V356H658V270V270ZM364 746Q332 746 309 755T270 781T246 818T237 862H285Q287 829 308 811T364 792Q402 792 422 810T444 862H492Q491
839 483 818T459 781T420 756T364 746Z" />
<glyph unicode="&#x11f;" glyph-name="gbreve" horiz-adv-x="567" d="M500 27Q500 -74 443 -131T257 -189Q209 -189 177 -182T122 -165Q96 -154 80 -141V-95Q97 -108 123 -118Q145 -127 178 -134T258 -141Q356 -141 398 -100T440 26V135Q417 82 373 51T262 20Q215
20 174 36T102 83T53 160T35 266Q35 327 53 373T102 450T174 497T263 513Q329 513 375 482T444 396L445 402Q445 435 447 462T451 503H505Q503 490 502 462T500 402V27ZM272 64Q308 64 339 76T392 114T428 178T441 266Q441 317 428 355T393 418T339 456T271 469Q233
469 201 456T146 418T109 354T95 266Q95 216 108 179T145 116T201 77T272 64ZM273 567Q241 567 218 577T180 603T158 641T149 687H196Q198 652 218 633T273 613Q310 613 329 632T351 687H398Q397 663 390 642T367 604T328 577T273 567Z" />
<glyph unicode="&#x120;" glyph-name="Gdotaccent" horiz-adv-x="703" d="M658 270Q658 209 640 158T585 70T496 11T372 -10Q298 -10 237 15T131 86T63 198T39 347Q39 429 62 495T131 608T241 679T389 704Q474 704 528 684T612 641V587Q568 616 515 634T390 653Q321
653 269 632T180 572T126 476T108 347Q108 276 126 219T179 122T263 61T372 39Q427 39 468 56T537 103T578 174T592 262V308H348V356H658V270V270ZM364 769Q345 769 334 781T322 811Q322 828 333 840T364 853Q384 853 395 841T407 811Q407 794 396 782T364 769Z"
/>
<glyph unicode="&#x121;" glyph-name="gdotaccent" horiz-adv-x="567" d="M500 27Q500 -74 443 -131T257 -189Q209 -189 177 -182T122 -165Q96 -154 80 -141V-95Q97 -108 123 -118Q145 -127 178 -134T258 -141Q356 -141 398 -100T440 26V135Q417 82 373 51T262
20Q215 20 174 36T102 83T53 160T35 266Q35 327 53 373T102 450T174 497T263 513Q329 513 375 482T444 396L445 402Q445 435 447 462T451 503H505Q503 490 502 462T500 402V27ZM272 64Q308 64 339 76T392 114T428 178T441 266Q441 317 428 355T393 418T339 456T271
469Q233 469 201 456T146 418T109 354T95 266Q95 216 108 179T145 116T201 77T272 64ZM273 597Q254 597 243 609T231 639Q231 656 242 668T273 681Q293 681 304 669T316 639Q316 622 305 610T273 597Z" />
<glyph unicode="&#x122;" glyph-name="uni0122" horiz-adv-x="703" d="M658 270Q658 209 640 158T585 70T496 11T372 -10Q298 -10 237 15T131 86T63 198T39 347Q39 429 62 495T131 608T241 679T389 704Q474 704 528 684T612 641V587Q568 616 515 634T390 653Q321
653 269 632T180 572T126 476T108 347Q108 276 126 219T179 122T263 61T372 39Q427 39 468 56T537 103T578 174T592 262V308H348V356H658V270V270ZM415 -99Q415 -128 400 -152T369 -193H325Q338 -180 348 -165T367 -128Q351 -126 342 -116T333 -90Q333 -73 344
-62T372 -51Q390 -51 402 -62T415 -99Z" />
<glyph unicode="&#x123;" glyph-name="uni0123" horiz-adv-x="567" d="M500 27Q500 -74 443 -131T257 -189Q209 -189 177 -182T122 -165Q96 -154 80 -141V-95Q97 -108 123 -118Q145 -127 178 -134T258 -141Q356 -141 398 -100T440 26V135Q417 82 373 51T262 20Q215
20 174 36T102 83T53 160T35 266Q35 327 53 373T102 450T174 497T263 513Q329 513 375 482T444 396L445 402Q445 435 447 462T451 503H505Q503 490 502 462T500 402V27ZM272 64Q308 64 339 76T392 114T428 178T441 266Q441 317 428 355T393 418T339 456T271 469Q233
469 201 456T146 418T109 354T95 266Q95 216 108 179T145 116T201 77T272 64ZM312 638Q312 621 301 610T273 599Q255 599 243 610T230 647Q230 676 245 700T276 741H320Q307 728 297 713T278 676Q294 674 303 664T312 638Z" />
<glyph unicode="&#x124;" glyph-name="Hcircumflex" horiz-adv-x="675" d="M537 320H138V0H73V695H138V369H537V695H602V0H537V320ZM343 828L262 754H213L306 866H380L474 754H424L343 828Z" />
<glyph unicode="&#x125;" glyph-name="hcircumflex" horiz-adv-x="540" d="M126 0H66V725H126V401H128Q138 423 154 443T193 479T247 504T314 513Q391 513 435 473T479 353V0H419V350Q419 411 388 438T299 465Q264 465 237 456T189 430T153 392T126 346V0ZM274
858L193 784H144L237 896H311L405 784H355L274 858Z" />
<glyph unicode="&#x126;" glyph-name="Hbar" horiz-adv-x="713" d="M555 320H156V0H91V516H-8V562H91V695H156V562H555V695H620V562H724V516H620V0H555V320ZM555 369V516H156V369H555Z" />
<glyph unicode="&#x127;" glyph-name="hbar" horiz-adv-x="540" d="M126 0H66V573H-18V615H66V725H126V615H291V573H126V401H128Q138 423 154 443T193 479T247 504T314 513Q391 513 435 473T479 353V0H419V350Q419 411 388 438T299 465Q264 465 237 456T189 430T153
392T126 346V0Z" />
<glyph unicode="&#x128;" glyph-name="Itilde" horiz-adv-x="212" d="M138 695V0H73V695H138ZM211 763Q209 782 212 800T224 831T249 853T287 862Q311 862 330 855T367 838T401 821T434 813Q471 813 471 865H512Q514 846 511 828T498 797T473 775T436 766Q412
766 392 774T355 791T322 808T289 816Q250 816 252 763H211Z" />
<glyph unicode="&#x129;" glyph-name="itilde" horiz-adv-x="191" d="M126 503V0H66V503H126ZM207 585Q205 604 208 622T221 653T246 675T285 684Q307 684 324 677T357 660T386 643T416 635Q452 635 452 687H496Q500 648 482 618T419 588Q397 588 380 595T347
612T317 629T286 637Q250 637 251 585H207Z" />
<glyph unicode="&#x12a;" glyph-name="Imacron" horiz-adv-x="212" d="M138 695V0H73V695H138ZM239 828H485V782H239V828Z" />
<glyph unicode="&#x12b;" glyph-name="imacron" horiz-adv-x="191" d="M7 660H190V615H7V660ZM126 503V0H66V503H126Z" />
<glyph unicode="&#x12c;" glyph-name="Ibreve" horiz-adv-x="212" d="M138 695V0H73V695H138ZM361 746Q329 746 306 755T267 781T243 818T234 862H282Q284 829 305 811T361 792Q399 792 419 810T441 862H489Q488 839 480 818T456 781T417 756T361 746Z" />
<glyph unicode="&#x12d;" glyph-name="ibreve" horiz-adv-x="191" d="M126 503V0H66V503H126ZM353 567Q321 567 298 577T260 603T238 641T229 687H276Q278 652 298 633T353 613Q390 613 409 632T431 687H478Q477 663 470 642T447 604T408 577T353 567Z" />
<glyph unicode="&#x12e;" glyph-name="Iogonek" horiz-adv-x="212" d="M138 695V0H73V695H138ZM362 -189Q311 -189 285 -167T259 -107Q259 -69 282 -42T336 0H391Q359 -17 338 -42T316 -99Q316 -146 370 -146Q386 -146 396 -144T414 -139V-179Q408 -182 396 -185T362
-189Z" />
<glyph unicode="&#x12f;" glyph-name="iogonek" horiz-adv-x="191" d="M96 597Q76 597 65 609T53 639Q53 656 64 669T96 683Q116 683 127 670T139 639Q139 622 128 610T96 597ZM126 503V0H66V503H126ZM352 -189Q301 -189 275 -167T249 -107Q249 -69 272 -42T326
0H381Q349 -17 328 -42T306 -99Q306 -146 360 -146Q376 -146 386 -144T404 -139V-179Q398 -182 386 -185T352 -189Z" />
<glyph unicode="&#x130;" glyph-name="Idot" horiz-adv-x="212" d="M138 695V0H73V695H138ZM361 769Q342 769 331 781T319 811Q319 828 330 840T361 853Q381 853 392 841T404 811Q404 794 393 782T361 769Z" />
<glyph unicode="&#x131;" glyph-name="dotlessi" horiz-adv-x="191" d="M126 503V0H66V503H126Z" />
<glyph unicode="&#x132;" glyph-name="IJ" horiz-adv-x="537" d="M467 695V131Q467 102 459 77T434 32T389 1T322 -10Q296 -10 271 -6T228 10V57Q245 50 266 46T309 42Q360 42 381 67T402 142V695H467ZM139 695V0H74V695H139Z" />
<glyph unicode="&#x133;" glyph-name="ij" horiz-adv-x="413" d="M96 597Q76 597 65 609T53 639Q53 656 64 669T96 683Q116 683 127 670T139 639Q139 622 128 610T96 597ZM126 503V0H66V503H126ZM317 597Q297 597 286 609T274 639Q274 656 285 669T317 683Q337
683 348 670T360 639Q360 622 349 610T317 597ZM348 -72Q348 -96 342 -118T321 -158T283 -185T227 -196Q204 -196 183 -190T147 -171V-124Q159 -133 177 -140T219 -148Q254 -148 271 -130T288 -85V503H348V-72Z" />
<glyph unicode="&#x134;" glyph-name="Jcircumflex" horiz-adv-x="328" d="M258 695V131Q258 102 250 77T224 32T178 1T111 -10Q85 -10 60 -5T19 10V57Q36 50 56 46T98 42Q150 42 171 68T193 142V695H258ZM222 828L141 754H92L185 866H259L353 754H303L222 828Z" />
<glyph unicode="&#x135;" glyph-name="jcircumflex" horiz-adv-x="190" d="M133 -72Q133 -96 127 -118T106 -158T68 -185T12 -196Q-11 -196 -32 -190T-68 -171V-124Q-56 -133 -38 -140T4 -148Q39 -148 56 -130T73 -85V503H133V-72ZM359 669L272 575H227L326 706H391L490
575H445L359 669Z" />
<glyph unicode="&#x136;" glyph-name="uni0136" horiz-adv-x="587" d="M138 695V0H73V695H138ZM239 353L573 0H493L165 345L489 695H555L239 353ZM339 -99Q339 -128 324 -152T293 -193H249Q262 -180 272 -165T291 -128Q275 -126 266 -116T257 -90Q257 -73 268
-62T296 -51Q314 -51 326 -62T339 -99Z" />
<glyph unicode="&#x137;" glyph-name="uni0137" horiz-adv-x="452" d="M126 725V0H66V725H126ZM213 261L446 0H372L146 252L369 503H431L213 261ZM273 -99Q273 -128 258 -152T227 -193H183Q196 -180 206 -165T225 -128Q209 -126 200 -116T191 -90Q191 -73 202
-62T230 -51Q248 -51 260 -62T273 -99Z" />
<glyph unicode="&#x139;" glyph-name="Lacute" horiz-adv-x="535" d="M498 0H73V695H138V49H498V0ZM404 866H485L387 750H333L404 866Z" />
<glyph unicode="&#x13a;" glyph-name="lacute" horiz-adv-x="192" d="M126 725V0H66V725H126ZM391 896H472L374 780H320L391 896Z" />
<glyph unicode="&#x13b;" glyph-name="uni013B" horiz-adv-x="535" d="M498 0H73V695H138V49H498V0ZM333 -99Q333 -128 318 -152T287 -193H243Q256 -180 266 -165T285 -128Q269 -126 260 -116T251 -90Q251 -73 262 -62T290 -51Q308 -51 320 -62T333 -99Z" />
<glyph unicode="&#x13c;" glyph-name="uni013C" horiz-adv-x="192" d="M126 725V0H66V725H126ZM393 -99Q393 -128 378 -152T347 -193H303Q316 -180 326 -165T345 -128Q329 -126 320 -116T311 -90Q311 -73 322 -62T350 -51Q368 -51 380 -62T393 -99Z" />
<glyph unicode="&#x13d;" glyph-name="Lcaron" horiz-adv-x="534" d="M498 0H73V695H138V49H498V0ZM252 798L277 951H338L290 798H252Z" />
<glyph unicode="&#x13e;" glyph-name="lcaron" horiz-adv-x="192" d="M126 725V0H66V725H126ZM429 572L454 725H515L467 572H429Z" />
<glyph unicode="&#x13f;" glyph-name="Ldot" horiz-adv-x="540" d="M498 0H73V695H138V49H498V0ZM453 291Q433 291 420 304T407 336Q407 356 420 368T453 381Q473 381 485 369T498 336Q498 317 486 304T453 291Z" />
<glyph unicode="&#x140;" glyph-name="ldot" horiz-adv-x="335" d="M126 725V0H66V725H126ZM259 271Q239 271 226 284T213 316Q213 336 226 348T259 361Q279 361 291 349T304 316Q304 297 292 284T259 271Z" />
<glyph unicode="&#x141;" glyph-name="Lslash" horiz-adv-x="546" d="M508 0H83V252L-3 201V254L83 305V695H148V343L371 475V422L148 290V49H508V0Z" />
<glyph unicode="&#x142;" glyph-name="lslash" horiz-adv-x="219" d="M3 287L80 353V725H140V405L219 473V422L140 354V0H80V302L3 236V287Z" />
<glyph unicode="&#x143;" glyph-name="Nacute" horiz-adv-x="680" d="M606 0H525L130 621V0H73V695H157L550 77V695H606V0ZM392 866H473L375 750H321L392 866Z" />
<glyph unicode="&#x144;" glyph-name="nacute" horiz-adv-x="541" d="M299 465Q264 465 237 456T189 430T153 392T126 346V0H66V503H122L124 400H126Q136 422 153 442T193 478T246 503T314 513Q391 513 435 473T480 353V0H419V350Q419 411 388 438T299 465ZM312
715H386L290 575H242L312 715Z" />
<glyph unicode="&#x145;" glyph-name="uni0145" horiz-adv-x="680" d="M606 0H525L130 621V0H73V695H157L550 77V695H606V0ZM368 -99Q368 -128 353 -152T322 -193H278Q291 -180 301 -165T320 -128Q304 -126 295 -116T286 -90Q286 -73 297 -62T325 -51Q343 -51
355 -62T368 -99Z" />
<glyph unicode="&#x146;" glyph-name="uni0146" horiz-adv-x="541" d="M299 465Q264 465 237 456T189 430T153 392T126 346V0H66V503H122L124 400H126Q136 422 153 442T193 478T246 503T314 513Q391 513 435 473T480 353V0H419V350Q419 411 388 438T299 465ZM312
-99Q312 -128 297 -152T266 -193H222Q235 -180 245 -165T264 -128Q248 -126 239 -116T230 -90Q230 -73 241 -62T269 -51Q287 -51 299 -62T312 -99Z" />
<glyph unicode="&#x147;" glyph-name="Ncaron" horiz-adv-x="680" d="M606 0H525L130 621V0H73V695H157L550 77V695H606V0ZM387 754H313L220 866H269L350 791L431 866H481L387 754Z" />
<glyph unicode="&#x148;" glyph-name="ncaron" horiz-adv-x="541" d="M299 465Q264 465 237 456T189 430T153 392T126 346V0H66V503H122L124 400H126Q136 422 153 442T193 478T246 503T314 513Q391 513 435 473T480 353V0H419V350Q419 411 388 438T299 465ZM302
575H237L138 706H183L270 613L356 706H401L302 575Z" />
<glyph unicode="&#x14a;" glyph-name="Eng" horiz-adv-x="681" d="M74 695H158L551 76V695H607V-41Q607 -74 599 -102T573 -150T527 -182T460 -194Q433 -194 411 -189T372 -176V-129Q409 -145 450 -145Q504 -145 527 -117T551 -36V0H526L130 623V0H74V695Z" />
<glyph unicode="&#x14b;" glyph-name="eng" horiz-adv-x="534" d="M314 513Q391 513 435 473T479 353V-72Q479 -96 472 -118T451 -158T413 -185T357 -196Q334 -196 312 -190T276 -169V-123Q288 -133 306 -140T348 -148Q385 -148 402 -129T419 -81V350Q419 410
388 437T299 465Q264 465 237 456T189 430T153 392T126 346V0H66V503H122L124 400H126Q136 422 153 442T193 478T246 503T314 513Z" />
<glyph unicode="&#x14c;" glyph-name="Omacron" horiz-adv-x="734" d="M367 -10Q297 -10 237 14T133 84T64 197T39 350Q39 436 64 502T133 613T237 681T367 704Q438 704 498 681T602 613T670 502T695 349Q695 264 671 197T602 84T498 14T367 -10ZM367 39Q423 39
470 57T552 112T606 208T626 347Q626 427 607 485T553 582T471 638T367 656Q311 656 264 638T182 582T128 486T108 347Q108 267 127 209T181 113T263 57T367 39ZM242 828H488V782H242V828Z" />
<glyph unicode="&#x14d;" glyph-name="omacron" horiz-adv-x="550" d="M274 -10Q223 -10 180 7T104 58T54 141T35 252Q35 314 53 362T104 444T179 495T274 513Q326 513 370 496T446 445T497 363T516 252Q516 190 498 141T447 59T370 8T274 -10ZM274 34Q312 34
345 47T402 86T440 154T454 252Q454 309 440 350T402 417T345 456T274 469Q236 469 204 457T147 418T110 350T96 252Q96 195 109 154T147 87T203 47T274 34ZM147 660H403V615H147V660Z" />
<glyph unicode="&#x14e;" glyph-name="Obreve" horiz-adv-x="734" d="M367 -10Q297 -10 237 14T133 84T64 197T39 350Q39 436 64 502T133 613T237 681T367 704Q438 704 498 681T602 613T670 502T695 349Q695 264 671 197T602 84T498 14T367 -10ZM367 39Q423 39
470 57T552 112T606 208T626 347Q626 427 607 485T553 582T471 638T367 656Q311 656 264 638T182 582T128 486T108 347Q108 267 127 209T181 113T263 57T367 39ZM364 746Q332 746 309 755T270 781T246 818T237 862H285Q287 829 308 811T364 792Q402 792 422 810T444
862H492Q491 839 483 818T459 781T420 756T364 746Z" />
<glyph unicode="&#x14f;" glyph-name="obreve" horiz-adv-x="550" d="M274 -10Q223 -10 180 7T104 58T54 141T35 252Q35 314 53 362T104 444T179 495T274 513Q326 513 370 496T446 445T497 363T516 252Q516 190 498 141T447 59T370 8T274 -10ZM274 34Q312 34 345
47T402 86T440 154T454 252Q454 309 440 350T402 417T345 456T274 469Q236 469 204 457T147 418T110 350T96 252Q96 195 109 154T147 87T203 47T274 34ZM274 567Q242 567 219 577T181 603T159 641T150 687H197Q199 652 219 633T274 613Q311 613 330 632T352 687H399Q398
663 391 642T368 604T329 577T274 567Z" />
<glyph unicode="&#x150;" glyph-name="Ohungarumlaut" horiz-adv-x="734" d="M367 -10Q297 -10 237 14T133 84T64 197T39 350Q39 436 64 502T133 613T237 681T367 704Q438 704 498 681T602 613T670 502T695 349Q695 264 671 197T602 84T498 14T367 -10ZM367 39Q423
39 470 57T552 112T606 208T626 347Q626 427 607 485T553 582T471 638T367 656Q311 656 264 638T182 582T128 486T108 347Q108 267 127 209T181 113T263 57T367 39ZM261 750L311 866H381L311 750H261ZM412 750L463 866H533L462 750H412Z" />
<glyph unicode="&#x151;" glyph-name="ohungarumlaut" horiz-adv-x="550" d="M274 -10Q223 -10 180 7T104 58T54 141T35 252Q35 314 53 362T104 444T179 495T274 513Q326 513 370 496T446 445T497 363T516 252Q516 190 498 141T447 59T370 8T274 -10ZM274 34Q312
34 345 47T402 86T440 154T454 252Q454 309 440 350T402 417T345 456T274 469Q236 469 204 457T147 418T110 350T96 252Q96 195 109 154T147 87T203 47T274 34ZM180 575L242 715H307L230 575H180ZM327 575L389 715H454L375 575H327Z" />
<glyph unicode="&#x152;" glyph-name="OE" horiz-adv-x="982" d="M39 359Q39 453 65 517T138 621T247 678T381 695H931V647H567V388H879V340H567V49H936V0H380Q306 0 244 22T136 90T65 202T39 359ZM502 49V647H381Q323 647 273 633T187 586T129 498T108 359Q108
279 129 221T188 125T277 68T391 49H502Z" />
<glyph unicode="&#x153;" glyph-name="oe" horiz-adv-x="925" d="M879 45Q870 37 855 27T817 9T767 -4T704 -10Q619 -10 565 24T484 125Q456 59 401 25T274 -10Q223 -10 180 7T104 58T53 141T35 252Q35 314 53 362T103 444T179 495T274 513Q347 513 402 478T484
377Q510 443 563 478T686 513Q736 513 777 496T845 444T883 358T884 238H516Q520 141 568 90T709 39Q768 39 811 56T879 91V45ZM684 469Q618 469 572 422T517 282H827Q832 330 823 365T794 423T746 457T684 469ZM274 34Q313 34 346 48T403 89T440 157T454 252Q454
306 441 347T403 415T346 455T274 469Q235 469 203 456T147 415T110 347T96 252Q96 198 109 157T146 89T202 48T274 34Z" />
<glyph unicode="&#x154;" glyph-name="Racute" horiz-adv-x="589" d="M73 695H296Q410 695 473 649T537 503Q537 458 525 424T491 366T439 326T371 303L562 0H489L302 295H138V0H73V695ZM138 647V343H284Q324 343 358 351T417 379T456 429T470 504Q470 579 424
613T296 647H138ZM328 866H409L311 750H257L328 866Z" />
<glyph unicode="&#x155;" glyph-name="racute" horiz-adv-x="315" d="M294 452Q235 447 192 418T126 326V0H66V503H119L124 385H126Q135 408 149 429T184 468T232 497T294 513V452V452ZM233 715H307L211 575H163L233 715Z" />
<glyph unicode="&#x156;" glyph-name="uni0156" horiz-adv-x="589" d="M73 695H296Q410 695 473 649T537 503Q537 458 525 424T491 366T439 326T371 303L562 0H489L302 295H138V0H73V695ZM138 647V343H284Q324 343 358 351T417 379T456 429T470 504Q470 579 424
613T296 647H138ZM334 -99Q334 -128 319 -152T288 -193H244Q257 -180 267 -165T286 -128Q270 -126 261 -116T252 -90Q252 -73 263 -62T291 -51Q309 -51 321 -62T334 -99Z" />
<glyph unicode="&#x157;" glyph-name="uni0157" horiz-adv-x="315" d="M294 452Q235 447 192 418T126 326V0H66V503H119L124 385H126Q135 408 149 429T184 468T232 497T294 513V452V452ZM391 -99Q391 -128 376 -152T345 -193H301Q314 -180 324 -165T343 -128Q327
-126 318 -116T309 -90Q309 -73 320 -62T348 -51Q366 -51 378 -62T391 -99Z" />
<glyph unicode="&#x158;" glyph-name="Rcaron" horiz-adv-x="589" d="M73 695H296Q410 695 473 649T537 503Q537 458 525 424T491 366T439 326T371 303L562 0H489L302 295H138V0H73V695ZM138 647V343H284Q324 343 358 351T417 379T456 429T470 504Q470 579 424
613T296 647H138ZM323 754H249L156 866H205L286 791L367 866H417L323 754Z" />
<glyph unicode="&#x159;" glyph-name="rcaron" horiz-adv-x="315" d="M294 452Q235 447 192 418T126 326V0H66V503H119L124 385H126Q135 408 149 429T184 468T232 497T294 513V452V452ZM478 575H413L314 706H359L446 613L532 706H577L478 575Z" />
<glyph unicode="&#x15a;" glyph-name="Sacute" horiz-adv-x="534" d="M256 -10Q210 -10 174 -4T110 12T64 33T35 55V109Q47 98 68 87T118 65T182 48T256 41Q295 41 328 49T386 74T424 118T438 182Q438 216 426 239T390 277T332 303T256 324Q217 334 178 347T108
382T58 437T38 520Q38 609 100 656T283 704Q355 704 398 691T465 661V608Q394 653 283 653Q189 653 145 620T100 522Q100 489 114 467T151 430T206 405T271 387Q309 377 350 365T425 332T481 275T503 185Q503 131 483 94T428 34T349 1T256 -10ZM308 866H389L291
750H237L308 866Z" />
<glyph unicode="&#x15b;" glyph-name="sacute" horiz-adv-x="441" d="M217 -10Q170 -10 137 -2T83 17T50 38T37 50V97Q40 94 54 85T91 66T145 47T217 39Q245 39 270 43T313 59T342 88T353 133Q353 159 343 176T313 203T268 220T211 232Q180 238 149 246T94 270T54
309T39 373Q39 445 90 479T231 513Q267 513 293 509T339 498T369 486T384 478V431Q380 433 368 438T337 450T292 460T233 465Q173 465 136 446T99 376Q99 352 108 337T134 313T173 299T221 288Q253 282 287 274T350 251T396 209T414 137Q414 94 397 66T352 21T289
-3T217 -10ZM269 715H343L247 575H199L269 715Z" />
<glyph unicode="&#x15c;" glyph-name="Scircumflex" horiz-adv-x="534" d="M256 -10Q210 -10 174 -4T110 12T64 33T35 55V109Q47 98 68 87T118 65T182 48T256 41Q295 41 328 49T386 74T424 118T438 182Q438 216 426 239T390 277T332 303T256 324Q217 334 178 347T108
382T58 437T38 520Q38 609 100 656T283 704Q355 704 398 691T465 661V608Q394 653 283 653Q189 653 145 620T100 522Q100 489 114 467T151 430T206 405T271 387Q309 377 350 365T425 332T481 275T503 185Q503 131 483 94T428 34T349 1T256 -10ZM266 828L185 754H136L229
866H303L397 754H347L266 828Z" />
<glyph unicode="&#x15d;" glyph-name="scircumflex" horiz-adv-x="441" d="M217 -10Q170 -10 137 -2T83 17T50 38T37 50V97Q40 94 54 85T91 66T145 47T217 39Q245 39 270 43T313 59T342 88T353 133Q353 159 343 176T313 203T268 220T211 232Q180 238 149 246T94
270T54 309T39 373Q39 445 90 479T231 513Q267 513 293 509T339 498T369 486T384 478V431Q380 433 368 438T337 450T292 460T233 465Q173 465 136 446T99 376Q99 352 108 337T134 313T173 299T221 288Q253 282 287 274T350 251T396 209T414 137Q414 94 397 66T352
21T289 -3T217 -10ZM226 669L139 575H94L193 706H258L357 575H312L226 669Z" />
<glyph unicode="&#x15e;" glyph-name="uni015E" horiz-adv-x="534" d="M256 -10Q210 -10 174 -4T110 12T64 33T35 55V109Q47 98 68 87T118 65T182 48T256 41Q295 41 328 49T386 74T424 118T438 182Q438 216 426 239T390 277T332 303T256 324Q217 334 178 347T108
382T58 437T38 520Q38 609 100 656T283 704Q355 704 398 691T465 661V608Q394 653 283 653Q189 653 145 620T100 522Q100 489 114 467T151 430T206 405T271 387Q309 377 350 365T425 332T481 275T503 185Q503 131 483 94T428 34T349 1T256 -10ZM322 -113Q322 -150
294 -168T222 -187Q197 -187 185 -182T168 -175V-141Q172 -143 186 -147T219 -152Q271 -152 271 -113Q271 -71 210 -71H198L225 3H264L246 -44Q288 -47 305 -66T322 -113Z" />
<glyph unicode="&#x15f;" glyph-name="uni015F" horiz-adv-x="441" d="M217 -10Q170 -10 137 -2T83 17T50 38T37 50V97Q40 94 54 85T91 66T145 47T217 39Q245 39 270 43T313 59T342 88T353 133Q353 159 343 176T313 203T268 220T211 232Q180 238 149 246T94 270T54
309T39 373Q39 445 90 479T231 513Q267 513 293 509T339 498T369 486T384 478V431Q380 433 368 438T337 450T292 460T233 465Q173 465 136 446T99 376Q99 352 108 337T134 313T173 299T221 288Q253 282 287 274T350 251T396 209T414 137Q414 94 397 66T352 21T289
-3T217 -10ZM540 -113Q540 -150 512 -168T440 -187Q415 -187 403 -182T386 -175V-141Q390 -143 404 -147T437 -152Q489 -152 489 -113Q489 -71 428 -71H416L443 3H482L464 -44Q506 -47 523 -66T540 -113Z" />
<glyph unicode="&#x160;" glyph-name="Scaron" horiz-adv-x="534" d="M256 -10Q210 -10 174 -4T110 12T64 33T35 55V109Q47 98 68 87T118 65T182 48T256 41Q295 41 328 49T386 74T424 118T438 182Q438 216 426 239T390 277T332 303T256 324Q217 334 178 347T108
382T58 437T38 520Q38 609 100 656T283 704Q355 704 398 691T465 661V608Q394 653 283 653Q189 653 145 620T100 522Q100 489 114 467T151 430T206 405T271 387Q309 377 350 365T425 332T481 275T503 185Q503 131 483 94T428 34T349 1T256 -10ZM302 754H228L135
866H184L265 791L346 866H396L302 754Z" />
<glyph unicode="&#x161;" glyph-name="scaron" horiz-adv-x="441" d="M217 -10Q170 -10 137 -2T83 17T50 38T37 50V97Q40 94 54 85T91 66T145 47T217 39Q245 39 270 43T313 59T342 88T353 133Q353 159 343 176T313 203T268 220T211 232Q180 238 149 246T94 270T54
309T39 373Q39 445 90 479T231 513Q267 513 293 509T339 498T369 486T384 478V431Q380 433 368 438T337 450T292 460T233 465Q173 465 136 446T99 376Q99 352 108 337T134 313T173 299T221 288Q253 282 287 274T350 251T396 209T414 137Q414 94 397 66T352 21T289
-3T217 -10ZM258 575H193L94 706H139L226 613L312 706H357L258 575Z" />
<glyph unicode="&#x162;" glyph-name="Tcommaaccent" horiz-adv-x="559" d="M312 647V0H247V647H19V695H541V647H312ZM321 -99Q321 -128 306 -152T275 -193H231Q244 -180 254 -165T273 -128Q257 -126 248 -116T239 -90Q239 -73 250 -62T278 -51Q296 -51 308 -62T321 -99Z" />
<glyph unicode="&#x163;" glyph-name="tcommaaccent" horiz-adv-x="328" d="M293 7Q282 0 264 -5T220 -10Q150 -10 118 24T86 112V458H21V503H86V609H147V503H296V458H147V120Q147 80 165 60T232 39Q249 39 265 43T293 55V7V7ZM479 -99Q479 -128 464 -152T433
-193H389Q402 -180 412 -165T431 -128Q415 -126 406 -116T397 -90Q397 -73 408 -62T436 -51Q454 -51 466 -62T479 -99Z" />
<glyph unicode="&#x164;" glyph-name="Tcaron" horiz-adv-x="559" d="M312 647V0H247V647H19V695H541V647H312ZM314 754H240L147 866H196L277 791L358 866H408L314 754Z" />
<glyph unicode="&#x165;" glyph-name="tcaron" horiz-adv-x="328" d="M293 7Q282 0 264 -5T220 -10Q150 -10 118 24T86 112V458H21V503H86V609H147V503H296V458H147V120Q147 80 165 60T232 39Q249 39 265 43T293 55V7V7ZM229 572L254 725H315L267 572H229Z" />
<glyph unicode="&#x166;" glyph-name="Tbar" horiz-adv-x="559" d="M63 408H247V647H19V695H541V647H312V408H484V362H312V0H247V362H63V408Z" />
<glyph unicode="&#x167;" glyph-name="tbar" horiz-adv-x="328" d="M293 7Q282 0 264 -5T220 -10Q150 -10 118 24T86 112V290H23V332H86V458H21V503H86V609H147V503H296V458H147V332H298V290H147V120Q147 80 165 60T232 39Q249 39 265 43T293 55V7Z" />
<glyph unicode="&#x168;" glyph-name="Utilde" horiz-adv-x="646" d="M59 695H124V239Q124 137 179 89T326 41Q369 41 406 53T472 89T515 151T531 240V695L587 696V243Q587 181 567 134T511 55T428 7T324 -10Q267 -10 219 5T135 52T79 130T59 239V695ZM178 764Q176
783 179 801T191 832T216 854T254 863Q278 863 297 856T334 839T368 822T401 814Q438 814 438 866H479Q481 847 478 829T465 798T440 776T403 767Q379 767 359 775T322 792T289 809T256 817Q217 817 219 764H178Z" />
<glyph unicode="&#x169;" glyph-name="utilde" horiz-adv-x="527" d="M401 102Q381 56 337 23T221 -10Q147 -10 104 31T61 155V503H122V155Q122 123 130 101T154 66T191 46T237 40Q303 40 340 73T401 158V503H462V0H408L403 102H401V102ZM120 585Q118 604 121
622T134 653T159 675T198 684Q220 684 237 677T270 660T299 643T329 635Q365 635 365 687H409Q413 648 395 618T332 588Q310 588 293 595T260 612T230 629T199 637Q163 637 164 585H120Z" />
<glyph unicode="&#x16a;" glyph-name="Umacron" horiz-adv-x="646" d="M59 695H124V239Q124 137 179 89T326 41Q369 41 406 53T472 89T515 151T531 240V695L587 696V243Q587 181 567 134T511 55T428 7T324 -10Q267 -10 219 5T135 52T79 130T59 239V695ZM206 829H452V783H206V829Z"
/>
<glyph unicode="&#x16b;" glyph-name="umacron" horiz-adv-x="527" d="M401 102Q381 56 337 23T221 -10Q147 -10 104 31T61 155V503H122V155Q122 123 130 101T154 66T191 46T237 40Q303 40 340 73T401 158V503H462V0H408L403 102H401V102ZM139 660H395V615H139V660Z" />
<glyph unicode="&#x16c;" glyph-name="Ubreve" horiz-adv-x="646" d="M59 695H124V239Q124 137 179 89T326 41Q369 41 406 53T472 89T515 151T531 240V695L587 696V243Q587 181 567 134T511 55T428 7T324 -10Q267 -10 219 5T135 52T79 130T59 239V695ZM328 747Q296
747 273 756T234 782T210 819T201 863H249Q251 830 272 812T328 793Q366 793 386 811T408 863H456Q455 840 447 819T423 782T384 757T328 747Z" />
<glyph unicode="&#x16d;" glyph-name="ubreve" horiz-adv-x="527" d="M401 102Q381 56 337 23T221 -10Q147 -10 104 31T61 155V503H122V155Q122 123 130 101T154 66T191 46T237 40Q303 40 340 73T401 158V503H462V0H408L403 102H401V102ZM266 567Q234 567 211
577T173 603T151 641T142 687H189Q191 652 211 633T266 613Q303 613 322 632T344 687H391Q390 663 383 642T360 604T321 577T266 567Z" />
<glyph unicode="&#x16e;" glyph-name="Uring" horiz-adv-x="646" d="M59 695H124V239Q124 137 179 89T326 41Q369 41 406 53T472 89T515 151T531 240V695L587 696V243Q587 181 567 134T511 55T428 7T324 -10Q267 -10 219 5T135 52T79 130T59 239V695ZM332 701Q291
701 265 727T238 795Q238 836 264 862T332 888Q374 888 401 862T428 795Q428 753 401 727T332 701ZM332 735Q357 735 373 751T389 795Q389 821 373 837T332 853Q308 853 293 837T277 795Q277 768 292 752T332 735Z" />
<glyph unicode="&#x16f;" glyph-name="uring" horiz-adv-x="527" d="M401 102Q381 56 337 23T221 -10Q147 -10 104 31T61 155V503H122V155Q122 123 130 101T154 66T191 46T237 40Q303 40 340 73T401 158V503H462V0H408L403 102H401V102ZM266 570Q225 570 199 596T172
664Q172 705 198 731T266 757Q308 757 335 731T362 664Q362 622 335 596T266 570ZM266 604Q291 604 307 620T323 664Q323 690 307 706T266 722Q242 722 227 706T211 664Q211 637 226 621T266 604Z" />
<glyph unicode="&#x170;" glyph-name="Uhungarumlaut" horiz-adv-x="646" d="M59 695H124V239Q124 137 179 89T326 41Q369 41 406 53T472 89T515 151T531 240V695L587 696V243Q587 181 567 134T511 55T428 7T324 -10Q267 -10 219 5T135 52T79 130T59 239V695ZM225
751L275 867H345L275 751H225ZM376 751L427 867H497L426 751H376Z" />
<glyph unicode="&#x171;" glyph-name="uhungarumlaut" horiz-adv-x="527" d="M401 102Q381 56 337 23T221 -10Q147 -10 104 31T61 155V503H122V155Q122 123 130 101T154 66T191 46T237 40Q303 40 340 73T401 158V503H462V0H408L403 102H401V102ZM171 575L233 715H298L221
575H171ZM318 575L380 715H445L366 575H318Z" />
<glyph unicode="&#x172;" glyph-name="Uogonek" horiz-adv-x="646" d="M59 695H124V239Q124 137 179 89T326 41Q369 41 406 53T472 89T515 151T531 240V695L587 696V243Q587 181 567 134T511 55T428 7T324 -10Q267 -10 219 5T135 52T79 130T59 239V695ZM397 -189Q346
-189 320 -167T294 -107Q294 -69 317 -42T371 0H426Q394 -17 373 -42T351 -99Q351 -146 405 -146Q421 -146 431 -144T449 -139V-179Q443 -182 431 -185T397 -189Z" />
<glyph unicode="&#x173;" glyph-name="uogonek" horiz-adv-x="527" d="M401 102Q381 56 337 23T221 -10Q147 -10 104 31T61 155V503H122V155Q122 123 130 101T154 66T191 46T237 40Q303 40 340 73T401 158V503H462V0H408L403 102H401V102ZM432 -189Q381 -189 355
-167T329 -107Q329 -69 352 -42T406 0H461Q429 -17 408 -42T386 -99Q386 -146 440 -146Q456 -146 466 -144T484 -139V-179Q478 -182 466 -185T432 -189Z" />
<glyph unicode="&#x174;" glyph-name="Wcircumflex" horiz-adv-x="911" d="M720 0H633L456 597L280 0H191L20 695H87L243 56L431 695H491L678 63L833 695H890L720 0ZM460 828L379 754H330L423 866H497L591 754H541L460 828Z" />
<glyph unicode="&#x175;" glyph-name="wcircumflex" horiz-adv-x="722" d="M574 0H489L362 428L234 0H149L22 503H84L198 42L334 503H399L534 48L646 503H701L574 0ZM365 669L278 575H233L332 706H397L496 575H451L365 669Z" />
<glyph unicode="&#x176;" glyph-name="Ycircumflex" horiz-adv-x="565" d="M316 301V0H250V302L8 695H82L288 354L496 695H557L316 301ZM297 828L216 754H167L260 866H334L428 754H378L297 828Z" />
<glyph unicode="&#x177;" glyph-name="ycircumflex" horiz-adv-x="476" d="M279 6Q260 -42 242 -79T203 -143T155 -182T93 -196Q79 -196 69 -194T52 -189Q44 -186 38 -182V-136Q43 -141 57 -144T89 -148Q127 -148 153 -120T209 -28L2 503H68L241 50L419 503H475L279
6V6ZM242 669L155 575H110L209 706H274L373 575H328L242 669Z" />
<glyph unicode="&#x178;" glyph-name="Ydieresis" horiz-adv-x="565" d="M316 301V0H250V302L8 695H82L288 354L496 695H557L316 301ZM186 769Q166 769 155 781T144 811Q144 828 155 840T186 853Q205 853 216 841T228 811Q228 794 217 782T186 769ZM390 769Q371
769 359 781T347 811Q347 828 359 840T390 853Q410 853 421 841T432 811Q432 794 421 782T390 769Z" />
<glyph unicode="&#x179;" glyph-name="Zacute" horiz-adv-x="568" d="M534 0H34V46L460 647H44V695H533V649L106 49H534V0ZM330 866H411L313 750H259L330 866Z" />
<glyph unicode="&#x17a;" glyph-name="zacute" horiz-adv-x="423" d="M396 0H24V37L323 461H32V503H395V466L95 42H396V0ZM258 715H332L236 575H188L258 715Z" />
<glyph unicode="&#x17b;" glyph-name="Zdotaccent" horiz-adv-x="568" d="M534 0H34V46L460 647H44V695H533V649L106 49H534V0ZM289 769Q270 769 259 781T247 811Q247 828 258 840T289 853Q309 853 320 841T332 811Q332 794 321 782T289 769Z" />
<glyph unicode="&#x17c;" glyph-name="zdotaccent" horiz-adv-x="423" d="M396 0H24V37L323 461H32V503H395V466L95 42H396V0ZM215 597Q196 597 185 609T173 639Q173 656 184 668T215 681Q235 681 246 669T258 639Q258 622 247 610T215 597Z" />
<glyph unicode="&#x17d;" glyph-name="Zcaron" horiz-adv-x="568" d="M534 0H34V46L460 647H44V695H533V649L106 49H534V0ZM324 754H250L157 866H206L287 791L368 866H418L324 754Z" />
<glyph unicode="&#x17e;" glyph-name="zcaron" horiz-adv-x="423" d="M396 0H24V37L323 461H32V503H395V466L95 42H396V0ZM247 575H182L83 706H128L215 613L301 706H346L247 575Z" />
<glyph unicode="&#x192;" glyph-name="uni0192" horiz-adv-x="499" d="M190 4Q175 -88 134 -137T13 -187Q-10 -187 -26 -183T-55 -174V-127Q-46 -131 -28 -134T11 -138Q40 -138 60 -129T94 -100T117 -54T132 8L194 365H103L114 412H202L222 524Q239 619 281 667T401
715Q433 715 449 710T470 702V655Q461 659 443 661T406 664Q347 664 321 629T282 524L262 412H404L393 365H254L190 4V4Z" />
<glyph unicode="&#x218;" glyph-name="uni0218" horiz-adv-x="534" d="M256 -10Q210 -10 174 -4T110 12T64 33T35 55V109Q47 98 68 87T118 65T182 48T256 41Q295 41 328 49T386 74T424 118T438 182Q438 216 426 239T390 277T332 303T256 324Q217 334 178 347T108
382T58 437T38 520Q38 609 100 656T283 704Q355 704 398 691T465 661V608Q394 653 283 653Q189 653 145 620T100 522Q100 489 114 467T151 430T206 405T271 387Q309 377 350 365T425 332T481 275T503 185Q503 131 483 94T428 34T349 1T256 -10ZM296 -99Q296 -128
281 -152T250 -193H206Q219 -180 229 -165T248 -128Q232 -126 223 -116T214 -90Q214 -73 225 -62T253 -51Q271 -51 283 -62T296 -99Z" />
<glyph unicode="&#x219;" glyph-name="uni0219" horiz-adv-x="441" d="M217 -10Q170 -10 137 -2T83 17T50 38T37 50V97Q40 94 54 85T91 66T145 47T217 39Q245 39 270 43T313 59T342 88T353 133Q353 159 343 176T313 203T268 220T211 232Q180 238 149 246T94 270T54
309T39 373Q39 445 90 479T231 513Q267 513 293 509T339 498T369 486T384 478V431Q380 433 368 438T337 450T292 460T233 465Q173 465 136 446T99 376Q99 352 108 337T134 313T173 299T221 288Q253 282 287 274T350 251T396 209T414 137Q414 94 397 66T352 21T289
-3T217 -10ZM257 -99Q257 -128 242 -152T211 -193H167Q180 -180 190 -165T209 -128Q193 -126 184 -116T175 -90Q175 -73 186 -62T214 -51Q232 -51 244 -62T257 -99Z" />
<glyph unicode="&#x21a;" glyph-name="uni021A" horiz-adv-x="559" d="M312 647V0H247V647H19V695H541V647H312ZM321 -99Q321 -128 306 -152T275 -193H231Q244 -180 254 -165T273 -128Q257 -126 248 -116T239 -90Q239 -73 250 -62T278 -51Q296 -51 308 -62T321 -99Z" />
<glyph unicode="&#x21b;" glyph-name="uni021B" horiz-adv-x="328" d="M293 7Q282 0 264 -5T220 -10Q150 -10 118 24T86 112V458H21V503H86V609H147V503H296V458H147V120Q147 80 165 60T232 39Q249 39 265 43T293 55V7V7ZM479 -99Q479 -128 464 -152T433 -193H389Q402
-180 412 -165T431 -128Q415 -126 406 -116T397 -90Q397 -73 408 -62T436 -51Q454 -51 466 -62T479 -99Z" />
<glyph unicode="&#x237;" glyph-name="uni0237" horiz-adv-x="190" d="M133 -72Q133 -96 127 -118T106 -158T68 -185T12 -196Q-11 -196 -32 -190T-68 -171V-124Q-56 -133 -38 -140T4 -148Q39 -148 56 -130T73 -85V503H133V-72Z" />
<glyph unicode="&#x2bc;" glyph-name="uni02BC" horiz-adv-x="194" d="M144 649Q144 632 139 614T127 580T110 550T93 526H50Q63 542 75 565T92 617Q76 619 68 630T59 657Q59 674 70 685T101 697Q119 697 131 685T144 649Z" />
<glyph unicode="&#x2c6;" glyph-name="circumflex" horiz-adv-x="395" d="M198 669L111 575H66L165 706H230L329 575H284L198 669Z" />
<glyph unicode="&#x2c7;" glyph-name="caron" horiz-adv-x="395" d="M230 575H165L66 706H111L198 613L284 706H329L230 575Z" />
<glyph unicode="&#x2d8;" glyph-name="breve" horiz-adv-x="405" d="M202 567Q170 567 147 577T109 603T87 641T78 687H125Q127 652 147 633T202 613Q239 613 258 632T280 687H327Q326 663 319 642T296 604T257 577T202 567Z" />
<glyph unicode="&#x2d9;" glyph-name="dotaccent" horiz-adv-x="406" d="M202 597Q183 597 172 609T160 639Q160 656 171 668T202 681Q222 681 233 669T245 639Q245 622 234 610T202 597Z" />
<glyph unicode="&#x2da;" glyph-name="ring" horiz-adv-x="406" d="M202 570Q161 570 135 596T108 664Q108 705 134 731T202 757Q244 757 271 731T298 664Q298 622 271 596T202 570ZM202 604Q227 604 243 620T259 664Q259 690 243 706T202 722Q178 722 163 706T147
664Q147 637 162 621T202 604Z" />
<glyph unicode="&#x2db;" glyph-name="ogonek" horiz-adv-x="406" d="M215 -189Q164 -189 138 -167T112 -107Q112 -69 135 -42T189 0H244Q212 -17 191 -42T169 -99Q169 -146 223 -146Q239 -146 249 -144T267 -139V-179Q261 -182 249 -185T215 -189Z" />
<glyph unicode="&#x2dc;" glyph-name="tilde" horiz-adv-x="406" d="M59 585Q57 604 60 622T73 653T98 675T137 684Q159 684 176 677T209 660T238 643T268 635Q304 635 304 687H348Q352 648 334 618T271 588Q249 588 232 595T199 612T169 629T138 637Q102 637
103 585H59Z" />
<glyph unicode="&#x2dd;" glyph-name="hungarumlaut" horiz-adv-x="405" d="M80 575L142 715H207L130 575H80ZM227 575L289 715H354L275 575H227Z" />
<glyph unicode="&#x300;" glyph-name="gravecomb" horiz-adv-x="0" d="M-172 575L-268 715H-194L-125 575H-172Z" />
<glyph unicode="&#x301;" glyph-name="acutecomb" horiz-adv-x="0" d="M-206 715H-132L-228 575H-276L-206 715Z" />
<glyph unicode="&#x302;" glyph-name="circumflexcomb" horiz-adv-x="0" d="M-197 669L-284 575H-329L-230 706H-165L-66 575H-111L-197 669Z" />
<glyph unicode="&#x303;" glyph-name="tildecomb" horiz-adv-x="0" d="M-347 585Q-349 604 -346 622T-333 653T-308 675T-269 684Q-247 684 -230 677T-197 660T-168 643T-138 635Q-102 635 -102 687H-58Q-54 648 -72 618T-135 588Q-157 588 -174 595T-207 612T-237
629T-268 637Q-304 637 -303 585H-347Z" />
<glyph unicode="&#x304;" glyph-name="macroncomb" horiz-adv-x="0" d="M-331 660H-75V615H-331V660Z" />
<glyph unicode="&#x306;" glyph-name="brevecomb" horiz-adv-x="0" d="M-203 567Q-235 567 -258 577T-296 603T-318 641T-327 687H-280Q-278 652 -258 633T-203 613Q-166 613 -147 632T-125 687H-78Q-79 663 -86 642T-109 604T-148 577T-203 567Z" />
<glyph unicode="&#x308;" glyph-name="dieresiscomb" horiz-adv-x="0" d="M-299 597Q-317 597 -329 609T-341 639Q-341 656 -329 668T-299 681Q-279 681 -268 669T-256 639Q-256 622 -267 610T-299 597ZM-106 597Q-126 597 -137 609T-148 639Q-148 656 -137 668T-106
681Q-87 681 -76 669T-64 639Q-64 622 -75 610T-106 597Z" />
<glyph unicode="&#x30c;" glyph-name="caroncomb" horiz-adv-x="0" d="M-165 575H-230L-329 706H-284L-197 613L-111 706H-66L-165 575Z" />
<glyph unicode="&#x401;" glyph-name="uni0401" horiz-adv-x="552" d="M73 695H501V647H138V389H450V341H138V49H506V0H73V695ZM191 769Q171 769 160 781T149 811Q149 828 160 840T191 853Q210 853 221 841T233 811Q233 794 222 782T191 769ZM395 769Q376 769
364 781T352 811Q352 828 364 840T395 853Q415 853 426 841T437 811Q437 794 426 782T395 769Z" />
<glyph unicode="&#x402;" glyph-name="uni0402" horiz-adv-x="746" d="M312 647V394Q335 411 371 421Q412 433 461 433Q579 433 647 364T716 159Q716 22 648 -50T458 -122V-70Q557 -70 604 -9T651 159Q651 265 604 323T459 381Q371 381 312 340V0H247V647H19V695H541V647H312Z"
/>
<glyph unicode="&#x403;" glyph-name="uni0403" horiz-adv-x="491" d="M303 866H384L286 750H232L303 866ZM73 695H466V647H138V0H73V695Z" />
<glyph unicode="&#x404;" glyph-name="uni0404" horiz-adv-x="633" d="M588 55Q559 29 506 10T376 -10Q298 -10 235 14T128 85T60 197T36 347Q36 431 58 497T124 609T229 679T373 704Q447 704 501 687T587 644V590Q545 620 488 636T372 653Q245 653 179 582T107
374H459V326H106Q111 186 180 114T381 42Q438 42 492 58T588 110V55V55Z" />
<glyph unicode="&#x405;" glyph-name="uni0405" horiz-adv-x="532" d="M256 -10Q210 -10 174 -4T110 12T64 33T35 55V109Q47 98 68 87T118 65T182 48T256 41Q295 41 328 49T386 74T424 118T438 182Q438 216 426 239T390 277T332 303T256 324Q217 334 178 347T108
382T58 437T38 520Q38 609 100 656T283 704Q355 704 398 691T465 661V608Q394 653 283 653Q189 653 145 620T100 522Q100 489 114 467T151 430T206 405T271 387Q309 377 350 365T425 332T481 275T503 185Q503 131 483 94T428 34T349 1T256 -10Z" />
<glyph unicode="&#x406;" glyph-name="uni0406" horiz-adv-x="212" d="M138 695V0H73V695H138Z" />
<glyph unicode="&#x407;" glyph-name="uni0407" horiz-adv-x="212" d="M27 769Q7 769 -4 781T-16 811Q-16 828 -5 840T27 853Q46 853 57 841T69 811Q69 794 58 782T27 769ZM186 769Q167 769 155 781T143 811Q143 828 155 840T186 853Q206 853 217 841T229 811Q229
794 218 782T186 769ZM138 695V0H73V695H138Z" />
<glyph unicode="&#x408;" glyph-name="uni0408" horiz-adv-x="327" d="M512 695V131Q512 102 504 77T478 32T432 1T365 -10Q339 -10 314 -5T273 10V57Q290 50 310 46T352 42Q404 42 425 68T447 142V695H512Z" />
<glyph unicode="&#x409;" glyph-name="uni0409" horiz-adv-x="977" d="M939 213Q939 156 921 116T871 50T793 12T693 0H489V647H208Q203 497 198 381T179 189Q171 146 160 110T129 48T80 8T9 -4V58Q34 56 52 65T84 94T105 140T120 200Q134 278 139 403T148 695H554V412H705Q815
412 877 365T939 213ZM554 363V49H693Q733 49 766 57T822 85T859 134T872 210Q872 288 828 325T703 363H554Z" />
<glyph unicode="&#x40a;" glyph-name="uni040A" horiz-adv-x="1019" d="M981 207Q981 151 963 112T913 48T835 12T735 0H529V351H138V0H73V695H138V399H529V695H594V399H746Q857 399 919 353T981 207ZM594 351V49H734Q774 49 807 57T864 83T900 131T913 204Q913
279 870 315T745 351H594Z" />
<glyph unicode="&#x40b;" glyph-name="uni040B" horiz-adv-x="755" d="M312 647V394Q336 409 374 420Q417 433 477 433Q582 433 640 378T698 204V0H633V201Q633 250 622 284T590 339T540 371T474 381Q425 381 382 371Q343 361 312 341V0H247V647H19V695H541V647H312Z" />
<glyph unicode="&#x40c;" glyph-name="uni040C" horiz-adv-x="587" d="M138 695V0H73V695H138ZM239 353L573 0H493L165 345L489 695H555L239 353ZM339 866H420L322 750H268L339 866Z" />
<glyph unicode="&#x40e;" glyph-name="uni040E" horiz-adv-x="576" d="M310 735Q233 735 196 774T159 870H220Q220 822 244 800T310 777Q352 777 375 799T399 870H459Q459 813 423 774T310 735ZM342 187Q322 140 303 105T261 47T211 11T146 -1Q141 -1 136 -1T126
0V57Q131 56 135 56T145 56Q196 56 225 86T279 171L21 695H94L312 246L501 695H562L342 187V187Z" />
<glyph unicode="&#x40f;" glyph-name="uni040F" horiz-adv-x="675" d="M601 0H373L366 -175H316L309 0H74V695H139V49H536V695H601V0Z" />
<glyph unicode="&#x410;" glyph-name="uni0410" horiz-adv-x="625" d="M266 695H357L617 0H549L467 220H147L65 0H8L266 695ZM449 268L306 649L164 268H449Z" />
<glyph unicode="&#x411;" glyph-name="uni0411" horiz-adv-x="563" d="M73 695H480V647H138V406H289Q400 406 461 359T523 210Q523 154 505 114T455 49T377 12T277 0H73V695ZM138 357V49H277Q317 49 350 57T406 84T443 133T456 207Q456 283 412 320T287 357H138Z" />
<glyph unicode="&#x412;" glyph-name="uni0412" horiz-adv-x="590" d="M329 695H557Q668 695 725 656T783 526Q783 489 773 461T745 413T700 380T641 361Q723 352 764 314T806 198Q806 144 787 107T735 46T655 11T553 0H329V695ZM394 647V382H546Q624 382 671
415T718 523Q718 592 677 619T557 647H394ZM394 333V49H553Q595 49 629 56T687 81T725 127T739 196Q739 270 694 301T553 333H394Z" />
<glyph unicode="&#x413;" glyph-name="uni0413" horiz-adv-x="491" d="M73 695H466V647H138V0H73V695Z" />
<glyph unicode="&#x414;" glyph-name="uni0414" horiz-adv-x="692" d="M582 49H666V-175H616L600 0H74L59 -175H9V49H58Q92 74 112 125T143 256T159 445T167 695H582V49ZM517 49V647H221Q218 514 213 414T198 242T171 122T127 49H517Z" />
<glyph unicode="&#x415;" glyph-name="uni0415" horiz-adv-x="552" d="M73 695H501V647H138V389H450V341H138V49H506V0H73V695Z" />
<glyph unicode="&#x416;" glyph-name="uni0416" horiz-adv-x="919" d="M491 695V0H426V695H491ZM587 354L905 0H826L515 346L820 695H889L587 354ZM91 0H14L331 353L28 695H98L402 346L91 0Z" />
<glyph unicode="&#x417;" glyph-name="uni0417" horiz-adv-x="552" d="M158 333V381H250Q332 381 377 415T422 519Q422 591 380 622T259 653Q193 653 140 635T51 594V647Q81 668 133 686T260 704Q367 704 427 660T488 523Q488 455 450 416T341 362Q426 351 468
311T510 196Q510 141 490 102T436 38T355 2T256 -10Q177 -10 122 10T40 57V111Q81 78 133 60T252 41Q292 41 327 49T387 75T427 122T442 196Q442 268 397 300T261 333H158Z" />
<glyph unicode="&#x418;" glyph-name="uni0418" horiz-adv-x="703" d="M138 85L567 695H630V0H564V608L136 0H73V695H138V85Z" />
<glyph unicode="&#x419;" glyph-name="uni0419" horiz-adv-x="703" d="M349 735Q272 735 235 774T198 870H259Q259 821 283 799T349 777Q391 777 414 799T438 870H498Q498 813 462 774T349 735ZM138 85L567 695H630V0H564V608L136 0H73V695H138V85Z" />
<glyph unicode="&#x41a;" glyph-name="uni041A" horiz-adv-x="587" d="M138 695V0H73V695H138ZM239 353L573 0H493L165 345L489 695H555L239 353Z" />
<glyph unicode="&#x41b;" glyph-name="uni041B" horiz-adv-x="627" d="M120 200Q134 278 139 403T148 695H554V0H489V647H208Q203 497 198 381T179 189Q171 146 160 110T129 48T80 8T9 -4V58Q34 56 52 65T84 94T105 140T120 200Z" />
<glyph unicode="&#x41c;" glyph-name="uni041C" horiz-adv-x="812" d="M673 602L432 106H370L130 607V0H73V695H152L405 168L659 695H738V0H673V602Z" />
<glyph unicode="&#x41d;" glyph-name="uni041D" horiz-adv-x="675" d="M537 320H138V0H73V695H138V369H537V695H602V0H537V320Z" />
<glyph unicode="&#x41e;" glyph-name="uni041E" horiz-adv-x="734" d="M367 -10Q297 -10 237 14T133 84T64 197T39 350Q39 436 64 502T133 613T237 681T367 704Q438 704 498 681T602 613T670 502T695 349Q695 264 671 197T602 84T498 14T367 -10ZM367 39Q423 39
470 57T552 112T606 208T626 347Q626 427 607 485T553 582T471 638T367 656Q311 656 264 638T182 582T128 486T108 347Q108 267 127 209T181 113T263 57T367 39Z" />
<glyph unicode="&#x41f;" glyph-name="uni041F" horiz-adv-x="659" d="M73 695H585V0H520V647H138V0H73V695Z" />
<glyph unicode="&#x420;" glyph-name="uni0420" horiz-adv-x="557" d="M73 695H286Q399 695 462 648T525 499Q525 442 507 402T457 335T379 297T277 285H138V0H73V695ZM138 647V333H277Q361 333 410 371T460 498Q460 575 415 611T286 647H138Z" />
<glyph unicode="&#x421;" glyph-name="uni0421" horiz-adv-x="634" d="M374 -10Q297 -10 235 14T130 85T63 197T39 347Q39 431 61 497T126 609T231 679T373 704Q447 704 501 687T586 644V590Q545 620 491 636T377 653Q242 653 175 573T108 347Q108 201 174 121T378
41Q438 41 491 58T586 110V54Q557 29 504 10T374 -10Z" />
<glyph unicode="&#x422;" glyph-name="uni0422" horiz-adv-x="559" d="M312 647V0H247V647H19V695H541V647H312Z" />
<glyph unicode="&#x423;" glyph-name="uni0423" horiz-adv-x="576" d="M342 187Q322 140 303 105T261 47T211 11T146 -1Q141 -1 136 -1T126 0V57Q131 56 135 56T145 56Q196 56 225 86T279 171L21 695H94L312 246L501 695H562L342 187V187Z" />
<glyph unicode="&#x424;" glyph-name="uni0424" horiz-adv-x="761" d="M726 348Q726 283 702 234T636 152T537 101T413 81V-10H348V81Q281 83 224 100T125 150T60 232T36 346Q36 411 60 460T126 543T225 594T348 614V703H413V614Q480 612 537 595T637 544T702
462T726 348ZM103 348Q103 290 122 249T174 182T251 143T348 128V568Q296 565 251 552T173 513T122 446T103 348ZM658 346Q658 404 639 445T587 513T510 553T413 568V128Q465 131 510 144T588 183T639 249T658 346Z" />
<glyph unicode="&#x425;" glyph-name="uni0425" horiz-adv-x="585" d="M286 314L73 0H7L253 361L27 695H103L300 406L498 695H564L333 359L578 0H501L286 314Z" />
<glyph unicode="&#x426;" glyph-name="uni0426" horiz-adv-x="697" d="M585 49H670V-175H620L604 0H73V695H138V49H520V695H585V49Z" />
<glyph unicode="&#x427;" glyph-name="uni0427" horiz-adv-x="623" d="M547 0H482V317Q441 288 393 275T287 262Q237 262 196 276T124 319T78 395T61 506V695H126V509Q126 405 169 358T300 311Q351 311 397 322T482 363V695H547V0Z" />
<glyph unicode="&#x428;" glyph-name="uni0428" horiz-adv-x="889" d="M815 0H73V695H138V49H411V695H477V49H750V695H815V0Z" />
<glyph unicode="&#x429;" glyph-name="uni0429" horiz-adv-x="925" d="M815 49H899V-175H849L833 0H73V695H138V49H411V695H477V49H750V695H815V49Z" />
<glyph unicode="&#x42a;" glyph-name="uni042A" horiz-adv-x="686" d="M20 695H263V412H414Q524 412 586 365T648 213Q648 156 630 116T580 50T502 12T402 0H198V647H20V695ZM263 363V49H401Q441 49 474 57T531 85T568 134T581 210Q581 288 537 325T412 363H263Z" />
<glyph unicode="&#x42b;" glyph-name="uni042B" horiz-adv-x="767" d="M523 213Q523 156 505 116T455 50T377 12T277 0H73V695H138V412H289Q400 412 461 365T523 213ZM693 694V0H628V694H693ZM138 363V49H277Q317 49 350 57T406 85T443 134T456 210Q456 288 412
325T287 363H138Z" />
<glyph unicode="&#x42c;" glyph-name="uni042C" horiz-adv-x="561" d="M523 213Q523 156 505 116T455 50T377 12T277 0H73V695H138V412H289Q400 412 461 365T523 213ZM138 363V49H277Q317 49 350 57T406 85T443 134T456 210Q456 288 412 325T287 363H138Z" />
<glyph unicode="&#x42d;" glyph-name="uni042D" horiz-adv-x="637" d="M598 347Q598 263 575 197T507 85T400 15T259 -10Q181 -10 127 10T43 57V111Q86 76 140 59T255 42Q385 42 454 114T529 326H179V374H528Q522 511 456 582T263 653Q201 653 144 636T45 588V642Q78
668 131 686T263 704Q343 704 405 680T510 610T575 498T598 347Z" />
<glyph unicode="&#x42e;" glyph-name="uni042E" horiz-adv-x="918" d="M879 350Q879 264 856 198T791 85T693 14T570 -10Q506 -10 452 11T356 75T291 178T263 320H138V0H73V695H138V369H262Q265 450 289 512T355 617T451 682T570 704Q636 704 692 681T790 613T855
502T879 350ZM570 39Q622 39 666 57T742 113T792 209T810 347Q810 427 792 485T742 581T666 637T570 656Q518 656 474 638T398 581T348 485T330 347Q330 267 348 209T398 114T474 58T570 39Z" />
<glyph unicode="&#x42f;" glyph-name="uni042F" horiz-adv-x="595" d="M71 496Q71 548 88 585T137 647T214 683T313 695H521V0H456V289H304L98 0H18L238 300Q160 313 116 360T71 496ZM456 337V647H313Q234 647 186 612T138 495Q138 412 182 375T310 337H456Z" />
<glyph unicode="&#x430;" glyph-name="uni0430" horiz-adv-x="492" d="M381 0Q377 17 374 40T369 93Q361 76 348 58T314 24T265 0T199 -10Q126 -10 82 27T38 137Q38 214 99 252T292 290H368V347Q368 408 337 436T237 465Q186 465 142 448T70 407V453Q93 479 139
496T244 513Q333 513 380 475T428 355V88Q428 65 430 40T436 0H381ZM210 35Q250 35 280 50T329 86T358 131T368 171V251H297Q243 251 205 245T143 226T109 191T98 140Q98 88 127 62T210 35Z" />
<glyph unicode="&#x431;" glyph-name="uni0431" horiz-adv-x="557" d="M522 250Q522 188 504 140T453 58T376 8T280 -10Q228 -10 184 7T109 61T59 151T41 280Q41 337 44 395T60 507T99 606T173 680Q198 695 223 703T275 716T329 722T385 724Q419 726 443 732T484
747V695Q468 684 446 679T391 671Q331 668 284 664T195 636Q139 603 118 532T92 363Q115 437 166 473T291 509Q342 509 384 492T457 442T505 361T522 250ZM280 34Q319 34 352 48T409 89T446 156T460 250Q460 304 447 344T411 411T355 451T285 465Q246 465 213 452T156
412T117 345T103 252Q103 198 116 157T153 89T209 48T280 34Z" />
<glyph unicode="&#x432;" glyph-name="uni0432" horiz-adv-x="471" d="M66 503H244Q329 503 373 473T417 376Q417 332 394 304T330 265Q384 257 412 227T441 144Q441 105 427 78T387 33T325 8T245 0H66V503ZM126 460V283H243Q294 283 325 305T357 370Q357 421
328 440T245 460H126ZM126 240V44H248Q307 44 343 66T379 145Q379 196 346 218T247 240H126Z" />
<glyph unicode="&#x433;" glyph-name="uni0433" horiz-adv-x="402" d="M66 503H378V460H126V0H66V503Z" />
<glyph unicode="&#x434;" glyph-name="uni0434" horiz-adv-x="539" d="M452 44H526V-159H480L466 0H57L44 -159H-2V44H43Q58 52 68 67T87 102Q108 157 113 256T120 503H452V44ZM138 88Q128 63 111 44H392V460H174Q171 324 165 233T138 88Z" />
<glyph unicode="&#x435;" glyph-name="uni0435" horiz-adv-x="508" d="M463 46Q454 38 439 28T402 10T352 -4T289 -10Q167 -10 101 58T35 252Q35 313 53 361T102 444T177 495T271 513Q321 513 361 496T429 444T467 358T468 238H96Q100 140 150 90T294 39Q352 39
396 56T463 92V46ZM269 469Q201 469 153 422T97 282H411Q415 330 406 365T378 423T330 457T269 469Z" />
<glyph unicode="&#x436;" glyph-name="uni0436" horiz-adv-x="687" d="M373 503V0H313V503H373ZM89 0H17L226 257L19 503H84L293 250L89 0ZM460 259L668 0H595L393 250L604 503H666L460 259Z" />
<glyph unicode="&#x437;" glyph-name="uni0437" horiz-adv-x="441" d="M398 140Q398 100 382 72T338 25T273 -1T192 -10Q141 -10 99 0T32 29V76Q62 56 104 46T191 35Q223 35 250 41T297 59T328 92T339 143Q339 194 304 215T200 237H126V284H201Q255 284 288 307T321
375Q321 422 286 445T191 468Q146 468 109 457T42 426V473Q66 490 104 501T195 513Q285 513 330 479T376 381Q376 326 345 299T261 263Q325 258 361 229T398 140Z" />
<glyph unicode="&#x438;" glyph-name="uni0438" horiz-adv-x="553" d="M427 421L121 0H66V503H126V84L433 503H487V0H427V421Z" />
<glyph unicode="&#x439;" glyph-name="uni0439" horiz-adv-x="553" d="M278 559Q209 559 176 592T143 675H202Q202 597 278 597Q354 597 354 675H412Q412 626 379 593T278 559ZM427 421L121 0H66V503H126V84L433 503H487V0H427V421Z" />
<glyph unicode="&#x43a;" glyph-name="uni043A" horiz-adv-x="459" d="M126 503V0H66V503H126ZM215 259L446 0H372L146 251L375 503H439L215 259Z" />
<glyph unicode="&#x43b;" glyph-name="uni043B" horiz-adv-x="505" d="M97 127Q113 179 117 270T121 503H439V0H378V460H174Q173 342 169 255T147 108Q132 52 103 24T16 -1V50Q48 45 67 66T97 127Z" />
<glyph unicode="&#x43c;" glyph-name="uni043C" horiz-adv-x="650" d="M525 441L341 62H295L118 441V0H66V503H151L324 130L504 503H584V0H525V441Z" />
<glyph unicode="&#x43d;" glyph-name="uni043D" horiz-adv-x="533" d="M407 239H126V0H66V503H126V283H407V503H467V0H407V239Z" />
<glyph unicode="&#x43e;" glyph-name="uni043E" horiz-adv-x="550" d="M274 -10Q223 -10 180 7T104 58T54 141T35 252Q35 314 53 362T104 444T179 495T274 513Q326 513 370 496T446 445T497 363T516 252Q516 190 498 141T447 59T370 8T274 -10ZM274 34Q312 34
345 47T402 86T440 154T454 252Q454 309 440 350T402 417T345 456T274 469Q236 469 204 457T147 418T110 350T96 252Q96 195 109 154T147 87T203 47T274 34Z" />
<glyph unicode="&#x43f;" glyph-name="uni043F" horiz-adv-x="522" d="M66 503H457V0H396V460H126V0H66V503Z" />
<glyph unicode="&#x440;" glyph-name="uni0440" horiz-adv-x="567" d="M307 -10Q244 -10 198 21T126 107V-187H66V503H119L124 388Q149 446 195 479T310 513Q355 513 395 497T466 448T515 366T533 252Q533 187 515 138T466 56T394 7T307 -10ZM299 34Q374 34 422
88T471 252Q471 361 423 415T299 469Q262 469 230 456T175 416T139 348T125 252Q125 196 138 155T175 87T230 47T299 34Z" />
<glyph unicode="&#x441;" glyph-name="uni0441" horiz-adv-x="466" d="M286 -10Q229 -10 183 7T103 59T53 141T35 252Q35 313 53 361T104 444T184 495T290 513Q335 513 374 503T438 474V428Q408 447 369 456T291 465Q194 465 145 411T96 252Q96 148 145 94T286
39Q331 39 369 49T438 78V32Q412 13 376 2T286 -10Z" />
<glyph unicode="&#x442;" glyph-name="uni0442" horiz-adv-x="434" d="M247 460V0H186V460H16V503H418V460H247Z" />
<glyph unicode="&#x443;" glyph-name="uni0443" horiz-adv-x="476" d="M279 6Q260 -42 242 -79T203 -143T155 -182T93 -196Q79 -196 69 -194T52 -189Q44 -186 38 -182V-136Q43 -141 57 -144T89 -148Q127 -148 153 -120T209 -28L2 503H68L241 50L419 503H475L279 6V6Z" />
<glyph unicode="&#x444;" glyph-name="uni0444" horiz-adv-x="672" d="M637 252Q637 188 615 140T556 60T470 11T366 -8V-187H306V-8Q250 -6 201 11T115 61T57 141T35 252Q35 315 56 363T115 443T201 492T306 511V715H366V511Q421 509 470 492T557 442T615 363T637
252ZM575 252Q575 304 559 343T514 408T447 449T366 464V39Q410 41 448 55T514 96T559 161T575 252ZM96 252Q96 200 113 161T158 96T225 55T306 39V464Q262 462 224 448T158 408T113 342T96 252Z" />
<glyph unicode="&#x445;" glyph-name="uni0445" horiz-adv-x="447" d="M216 220L65 0H7L188 261L22 503H94L233 302L371 503H430L261 261L441 0H370L216 220Z" />
<glyph unicode="&#x446;" glyph-name="uni0446" horiz-adv-x="553" d="M466 44H540V-159H494L481 0H66V503H126V44H406V503H466V44Z" />
<glyph unicode="&#x447;" glyph-name="uni0447" horiz-adv-x="486" d="M420 0H360V230Q333 208 298 197T215 185Q138 185 93 226T48 360V503H109V360Q109 291 140 263T231 235Q267 235 300 243T360 272V503H420V0Z" />
<glyph unicode="&#x448;" glyph-name="uni0448" horiz-adv-x="736" d="M671 0H66V503H126V44H338V503H399V44H611V503H671V0Z" />
<glyph unicode="&#x449;" glyph-name="uni0449" horiz-adv-x="757" d="M671 44H744V-159H698L685 0H66V503H126V44H338V503H399V44H611V503H671V44Z" />
<glyph unicode="&#x44a;" glyph-name="uni044A" horiz-adv-x="535" d="M16 503H212V319H314Q404 319 454 282T504 164Q504 121 489 90T448 39T386 10T307 0H152V460H16V503ZM212 276V44H307Q367 44 405 71T443 160Q443 221 409 248T314 276H212Z" />
<glyph unicode="&#x44b;" glyph-name="uni044B" horiz-adv-x="630" d="M565 0H504V503H565V0ZM415 164Q415 121 400 90T359 39T297 10T218 0H66V503H126V319H225Q315 319 365 282T415 164ZM126 276V44H218Q278 44 316 71T354 160Q354 221 320 248T225 276H126Z" />
<glyph unicode="&#x44c;" glyph-name="uni044C" horiz-adv-x="450" d="M418 164Q418 121 404 90T363 39T300 10T221 0H66V503H126V319H229Q318 319 368 282T418 164ZM126 276V44H221Q281 44 319 71T357 160Q357 221 323 248T228 276H126Z" />
<glyph unicode="&#x44d;" glyph-name="uni044D" horiz-adv-x="470" d="M435 252Q435 190 417 142T366 59T287 8T183 -10Q138 -10 98 0T32 29V76Q62 58 102 49T183 39Q274 39 322 90T374 237H134V280H373Q366 369 319 417T186 465Q145 465 108 456T38 426V472Q88
513 189 513Q246 513 292 496T369 444T418 362T435 252Z" />
<glyph unicode="&#x44e;" glyph-name="uni044E" horiz-adv-x="728" d="M694 252Q694 190 677 141T628 59T554 8T462 -10Q414 -10 374 6T303 55T254 133T233 238H126V0H66V503H126V281H234Q238 336 257 379T306 452T376 497T462 513Q511 513 553 496T627 445T676
363T694 252ZM462 34Q499 34 530 48T583 89T619 157T632 252Q632 306 619 347T584 415T530 455T462 469Q426 469 395 456T342 415T307 347T294 252Q294 198 306 157T341 89T395 48T462 34Z" />
<glyph unicode="&#x44f;" glyph-name="uni044F" horiz-adv-x="464" d="M50 346Q50 387 64 416T105 465T167 494T246 503H399V0H338V195H225L87 0H19L168 209Q112 221 81 253T50 346ZM338 238V460H246Q187 460 149 434T110 349Q110 291 144 265T240 238H338Z" />
<glyph unicode="&#x451;" glyph-name="uni0451" horiz-adv-x="508" d="M463 46Q454 38 439 28T402 10T352 -4T289 -10Q167 -10 101 58T35 252Q35 313 53 361T102 444T177 495T271 513Q321 513 361 496T429 444T467 358T468 238H96Q100 140 150 90T294 39Q352 39
396 56T463 92V46ZM269 469Q201 469 153 422T97 282H411Q415 330 406 365T378 423T330 457T269 469ZM171 597Q153 597 141 609T129 639Q129 656 141 668T171 681Q191 681 202 669T214 639Q214 622 203 610T171 597ZM364 597Q344 597 333 609T322 639Q322 656 333
668T364 681Q383 681 394 669T406 639Q406 622 395 610T364 597Z" />
<glyph unicode="&#x452;" glyph-name="uni0452" horiz-adv-x="540" d="M479 -62Q479 -86 472 -109T451 -149T413 -176T357 -187Q334 -187 314 -181T277 -166V-109Q289 -118 307 -125T348 -133Q386 -133 402 -113T419 -63V350Q419 410 388 437T299 465Q264 465
237 456T189 430T153 392T126 346V0H66V570H-17V615H66V725H126V615H292V570H126V400H128Q138 422 154 442T193 478T247 503T314 513Q391 513 435 473T479 353V-62V-62Z" />
<glyph unicode="&#x453;" glyph-name="uni0453" horiz-adv-x="402" d="M66 503H378V460H126V0H66V503ZM251 715H325L229 575H181L251 715Z" />
<glyph unicode="&#x454;" glyph-name="uni0454" horiz-adv-x="469" d="M438 31Q412 14 375 2T286 -10Q229 -10 183 7T104 59T53 141T35 252Q35 376 100 444T282 513Q325 513 366 504T432 474V428Q401 447 362 456T285 465Q197 465 150 417T97 280H337V237H96Q100
142 149 91T286 39Q329 39 368 49T438 77V31V31Z" />
<glyph unicode="&#x455;" glyph-name="uni0455" horiz-adv-x="441" d="M217 -10Q170 -10 137 -2T83 17T50 38T37 50V97Q40 94 54 85T91 66T145 47T217 39Q245 39 270 43T313 59T342 88T353 133Q353 159 343 176T313 203T268 220T211 232Q180 238 149 246T94 270T54
309T39 373Q39 445 90 479T231 513Q267 513 293 509T339 498T369 486T384 478V431Q380 433 368 438T337 450T292 460T233 465Q173 465 136 446T99 376Q99 352 108 337T134 313T173 299T221 288Q253 282 287 274T350 251T396 209T414 137Q414 94 397 66T352 21T289
-3T217 -10Z" />
<glyph unicode="&#x456;" glyph-name="uni0456" horiz-adv-x="191" d="M96 597Q76 597 65 609T53 639Q53 656 64 669T96 683Q116 683 127 670T139 639Q139 622 128 610T96 597ZM126 503V0H66V503H126Z" />
<glyph unicode="&#x457;" glyph-name="uni0457" horiz-adv-x="191" d="M32 597Q14 597 2 609T-10 639Q-10 658 2 670T32 683Q52 683 63 671T75 639Q75 622 64 610T32 597ZM159 597Q139 597 128 609T116 639Q116 658 127 670T159 683Q178 683 189 671T201 639Q201
622 190 610T159 597ZM126 503V0H66V503H126Z" />
<glyph unicode="&#x458;" glyph-name="uni0458" horiz-adv-x="198" d="M102 597Q82 597 71 609T59 639Q59 656 70 669T102 683Q122 683 133 670T145 639Q145 622 134 610T102 597ZM133 -72Q133 -96 127 -118T106 -158T68 -185T12 -196Q-11 -196 -32 -190T-68 -171V-124Q-56
-133 -38 -140T4 -148Q39 -148 56 -130T73 -85V503H133V-72Z" />
<glyph unicode="&#x459;" glyph-name="uni0459" horiz-adv-x="762" d="M97 127Q113 179 117 270T121 503H439V319H540Q630 319 680 282T731 164Q731 121 716 90T675 39T612 10T533 0H378V460H174Q173 342 169 255T147 108Q132 52 103 24T16 -1V50Q48 45 67 66T97
127ZM533 44Q593 44 631 71T669 160Q669 222 635 249T540 276H439V44H533Z" />
<glyph unicode="&#x45a;" glyph-name="uni045A" horiz-adv-x="782" d="M751 154Q751 114 736 85T695 37T633 9T554 0H399V257H126V0H66V503H126V301H399V503H459V301H560Q650 301 700 266T751 154ZM459 257V44H554Q613 44 651 68T690 151Q690 208 656 232T560 257H459Z" />
<glyph unicode="&#x45b;" glyph-name="uni045B" horiz-adv-x="540" d="M126 0H66V573H-18V615H66V725H126V615H291V573H126V401H128Q138 423 154 443T193 479T247 504T314 513Q391 513 435 473T479 353V0H419V350Q419 411 388 438T299 465Q264 465 237 456T189
430T153 392T126 346V0Z" />
<glyph unicode="&#x45c;" glyph-name="uni045C" horiz-adv-x="459" d="M126 503V0H66V503H126ZM215 259L446 0H372L146 251L375 503H439L215 259ZM284 715H358L262 575H214L284 715Z" />
<glyph unicode="&#x45e;" glyph-name="uni045E" horiz-adv-x="476" d="M246 559Q177 559 144 592T111 675H169Q169 635 189 616T246 597Q321 597 321 675H380Q380 626 347 593T246 559ZM279 6Q260 -42 242 -79T203 -143T155 -182T93 -196Q79 -196 69 -194T52 -189Q44
-186 38 -182V-136Q43 -141 57 -144T89 -148Q127 -148 153 -120T209 -28L2 503H68L241 50L419 503H475L279 6V6Z" />
<glyph unicode="&#x45f;" glyph-name="uni045F" horiz-adv-x="548" d="M126 44H406V503H466V44H467V0H295L289 -159H243L237 0H66V503H126V44Z" />
<glyph unicode="&#x490;" glyph-name="uni0490" horiz-adv-x="493" d="M73 695H406L414 873H468V647H138V0H73V695Z" />
<glyph unicode="&#x491;" glyph-name="uni0491" horiz-adv-x="404" d="M66 503H325L333 662H380V460H126V0H66V503Z" />
<glyph unicode="&#x492;" glyph-name="uni0492" horiz-adv-x="518" d="M0 376H100V695H493V647H165V376H367V327H165V0H100V327H0V376Z" />
<glyph unicode="&#x493;" glyph-name="uni0493" horiz-adv-x="431" d="M9 279H95V503H407V460H155V279H307V235H155V0H95V235H9V279Z" />
<glyph unicode="&#x49a;" glyph-name="uni049A" horiz-adv-x="625" d="M239 353L526 49H603V-175H553L541 0H493L165 345L489 695H555L239 353ZM138 695V0H73V695H138Z" />
<glyph unicode="&#x49b;" glyph-name="uni049B" horiz-adv-x="485" d="M215 259L407 44H476V-159H430L421 0H372L146 251L375 503H439L215 259ZM126 503V0H66V503H126Z" />
<glyph unicode="&#x4a2;" glyph-name="uni04A2" horiz-adv-x="715" d="M537 320H138V0H73V695H138V369H537V695H602V49H689V-175H639L627 0H537V320Z" />
<glyph unicode="&#x4a3;" glyph-name="uni04A3" horiz-adv-x="555" d="M407 239H126V0H66V503H126V283H407V503H467V44H542V-159H496L487 0H407V239Z" />
<glyph unicode="&#x4ae;" glyph-name="uni04AE" horiz-adv-x="565" d="M316 301V0H250V302L8 695H82L288 354L496 695H557L316 301Z" />
<glyph unicode="&#x4af;" glyph-name="uni04AF" horiz-adv-x="465" d="M262 1V-187H202V-1L2 503H67L238 69L406 503H463L262 1Z" />
<glyph unicode="&#x4b0;" glyph-name="uni04B0" horiz-adv-x="565" d="M85 313H243L8 695H82L288 354L496 695H557L323 313H485V265H316V0H250V265H85V313Z" />
<glyph unicode="&#x4b1;" glyph-name="uni04B1" horiz-adv-x="465" d="M62 0H201L2 503H67L238 69L406 503H463L262 1V0H402V-42H262V-187H202V-42H62V0Z" />
<glyph unicode="&#x4ba;" glyph-name="uni04BA" horiz-adv-x="610" d="M67 695H132V378Q173 407 221 420T327 433Q377 433 418 419T490 376T536 300T553 189V0H488V186Q488 290 445 337T314 384Q263 384 217 373T132 332V0H67V695Z" />
<glyph unicode="&#x4bb;" glyph-name="uni04BB" horiz-adv-x="540" d="M126 0H66V725H126V401H128Q138 423 154 443T193 479T247 504T314 513Q391 513 435 473T479 353V0H419V350Q419 411 388 438T299 465Q264 465 237 456T189 430T153 392T126 346V0Z" />
<glyph unicode="&#x4d8;" glyph-name="uni04D8" horiz-adv-x="679" d="M640 347Q640 266 619 200T557 88T460 16T331 -10Q182 -10 111 77T39 340V376H570Q567 441 550 492T501 579T423 634T313 653Q237 653 182 634T84 584V639Q99 651 119 662T166 683T230 698T313
704Q393 704 454 679T556 608T619 495T640 347ZM331 39Q444 39 505 114T571 327H105Q106 250 120 196T161 107T231 56T331 39Z" />
<glyph unicode="&#x4d9;" glyph-name="uni04D9" horiz-adv-x="508" d="M45 457Q54 465 69 475T106 493T156 507T219 513Q341 513 407 445T473 251Q473 190 455 142T406 59T331 8T237 -10Q187 -10 147 7T79 59T41 145T40 265H412Q408 363 358 413T214 464Q156 464
112 447T45 411V457ZM239 34Q307 34 355 81T411 221H97Q93 173 102 138T130 80T178 46T239 34Z" />
<glyph unicode="&#x4e8;" glyph-name="uni04E8" horiz-adv-x="734" d="M367 -10Q296 -10 236 14T132 84T64 197T39 350Q39 436 63 502T132 613T236 681T367 704Q438 704 498 681T602 613T670 502T695 349Q695 264 671 197T602 84T498 14T367 -10ZM367 656Q312
656 266 639T185 587T130 499T106 373H628Q625 446 605 499T550 587T469 639T367 656ZM367 39Q422 39 468 56T549 108T605 197T629 325H105Q108 251 128 197T183 108T265 56T367 39Z" />
<glyph unicode="&#x4e9;" glyph-name="uni04E9" horiz-adv-x="550" d="M274 -10Q223 -10 180 7T104 58T53 141T35 252Q35 314 53 362T103 444T179 495T274 513Q325 513 369 496T446 445T497 363T516 252Q516 190 498 141T447 59T370 8T274 -10ZM274 469Q202 469
152 422T95 280H456Q452 327 437 362T397 421T342 457T274 469ZM274 34Q311 34 343 46T400 84T440 148T457 236H94Q99 135 149 85T274 34Z" />
<glyph unicode="&#x58f;" glyph-name="uni058F" horiz-adv-x="578" d="M214 306H397V409H214V452H397V483Q397 569 358 611T251 654Q188 654 150 611T112 480H47Q47 533 62 574T104 645T170 689T254 705Q300 705 338 690T403 647T446 577T462 484V452H549V409H462V306H549V262H462V0H397V262H214V306Z"
/>
<glyph unicode="&#xe3f;" glyph-name="baht" horiz-adv-x="591" d="M253 671V815H299V670L253 671ZM254 21H300V-127H254V21ZM74 695H302Q413 695 470 656T528 526Q528 489 518 461T490 413T445 380T386 361Q468 352 509 314T551 198Q551 144 532 107T480 46T400
11T298 0H74V695ZM139 647V382H291Q369 382 416 415T463 523Q463 592 422 619T302 647H139ZM139 333V49H298Q340 49 374 56T432 81T470 127T484 196Q484 270 439 301T298 333H139Z" />
</font>
</defs>
</svg>
