<?xml version="1.0" standalone="no"?> <!DOCTYPE svg PUBLIC "-//W3C//DTD SVG 1.0//EN" "http://www.w3.org/TR/2001/REC-SVG-20010904/DTD/svg10.dtd" > <svg xmlns="http://www.w3.org/2000/svg" width="100%" height="100%">
<defs >
<font id="YS" horiz-adv-x="551" ><font-face
    font-family="YS Text"
    units-per-em="1000"
    panose-1="0 0 0 0 0 0 0 0 0 0"
    ascent="928"
    descent="-244"
    alphabetic="0" />
<missing-glyph horiz-adv-x="200" />
<glyph unicode=" " glyph-name="space" horiz-adv-x="220" />
<glyph unicode="!" glyph-name="exclam" horiz-adv-x="267" d="M302 715L180 224H72L159 715H302ZM100 -9Q81 -9 65 -2T37 17T18 47T11 83Q11 121 37 147T100 174Q119 174 135 167T164 148T182 119T189 83Q189 64 182 47T163 18T135 -2T100 -9Z" />
<glyph unicode="&quot;" glyph-name="quotedbl" horiz-adv-x="459" d="M168 717H312L229 484H112L168 717ZM360 717H504L421 484H304L360 717Z" />
<glyph unicode="#" glyph-name="numbersign" horiz-adv-x="644" d="M355 185H239L182 0H68L125 185H25L50 299H159L201 437H105L130 552H237L287 717H401L351 552H467L517 717H631L581 552H686L661 437H546L504 299H605L580 185H469L413 0H299L355 185ZM390 299L432
437H315L273 299H390Z" />
<glyph unicode="$" glyph-name="dollar" horiz-adv-x="550" d="M501 217Q501 166 484 127T437 59T365 14T274 -8L244 -155H115L147 -2Q90 8 53 28T-11 72L17 179Q35 163 59 149T113 124T174 107T242 100Q301 100 331 126T361 200Q361 223 354 239T332 268T294
291T237 313Q207 324 179 337T129 372T94 424T81 502Q81 549 97 587T141 654T209 699T295 723L323 854H451L422 719Q468 711 499 696T549 667L523 559Q490 586 445 601T348 616Q283 616 251 592T219 520Q219 499 226 485T248 459T284 439T332 420Q365 408 395 394T449
358T487 302T501 217Z" />
<glyph unicode="%" glyph-name="percent" horiz-adv-x="650" d="M-4 -6L585 723H681L92 -6H-4ZM155 352Q131 352 109 360T71 385T45 428T35 492Q35 534 48 574T84 647T141 698T214 718Q238 718 259 710T297 685T323 641T333 577Q333 535 320 495T284 423T228 372T155
352ZM202 635Q184 635 171 623T149 590T136 545T131 495Q131 461 140 448T166 434Q184 434 197 446T219 479T232 525T237 575Q237 608 228 621T202 635ZM459 -5Q435 -5 413 3T375 28T349 71T339 135Q339 177 352 217T389 290T446 341T518 361Q542 361 564 353T602
328T629 285T639 221Q639 179 626 138T589 66T532 15T459 -5ZM507 278Q489 278 476 266T454 233T441 188T436 138Q436 104 445 90T471 76Q489 76 502 89T525 122T538 168T543 218Q543 251 533 264T507 278Z" />
<glyph unicode="&amp;" glyph-name="ampersand" horiz-adv-x="751" d="M614 0Q576 0 542 11T473 48Q431 21 381 6T271 -10Q216 -10 170 2T90 40T37 101T18 185Q18 224 30 255T65 311T119 354T186 385Q163 423 152 455T141 523Q141 563 154 600T196 665T265 709T362
726Q410 726 448 714T514 678T555 622T570 551Q570 514 557 484T519 429T461 384T387 348L460 258L493 219Q516 254 531 293T555 371L662 328Q652 283 631 235T574 141Q596 124 617 118T664 111Q671 111 680 111T697 114L675 12Q668 8 654 4T614 0ZM156 199Q156
148 192 124T286 100Q315 100 341 106T391 124Q374 141 358 161T323 205L243 308Q225 300 210 290T182 267T163 237T156 199ZM280 534Q280 502 291 477T324 425Q380 448 407 475T434 545Q434 581 415 603T361 626Q319 626 300 599T280 534Z" />
<glyph unicode="&apos;" glyph-name="quotesingle" horiz-adv-x="268" d="M168 717H312L229 484H112L168 717Z" />
<glyph unicode="(" glyph-name="parenleft" horiz-adv-x="405" d="M173 -139Q155 -109 137 -73T105 6T83 102T74 217Q76 378 138 517T325 756H477Q352 661 281 521T208 211Q208 151 216 101T237 7T268 -72T306 -139H173Z" />
<glyph unicode=")" glyph-name="parenright" horiz-adv-x="405" d="M260 756Q278 726 296 690T328 611T350 515T359 400Q357 239 295 100T108 -139H-44Q81 -44 152 96T225 406Q225 466 217 516T196 610T165 689T127 756H260Z" />
<glyph unicode="*" glyph-name="asterisk" horiz-adv-x="473" d="M322 323L281 448L200 345L116 435L221 514L99 558L157 669L261 594L266 725L388 703L349 580L474 616L489 491L360 490L431 379L322 323Z" />
<glyph unicode="+" glyph-name="plus" horiz-adv-x="550" d="M582 287L538 77H430L475 287H282L303 387H496L541 597H648L604 387H796L775 287H582Z" />
<glyph unicode="," glyph-name="comma" horiz-adv-x="271" d="M-25 -112Q2 -92 26 -64T66 5Q39 16 26 38T13 84Q13 122 37 147T101 173Q142 173 166 146T190 75Q190 45 179 17T150 -35T112 -78T72 -112H-25Z" />
<glyph unicode="-" glyph-name="hyphen" horiz-adv-x="351" d="M83 365H316L291 251H57L83 365Z" />
<glyph unicode="." glyph-name="period" horiz-adv-x="270" d="M101 -9Q63 -9 38 18T12 83Q12 121 37 147T101 174Q139 174 164 148T190 83Q190 45 165 18T101 -9Z" />
<glyph unicode="/" glyph-name="slash" horiz-adv-x="437" d="M-78 -120L419 756H549L52 -120H-78Z" />
<glyph unicode="0" glyph-name="zero" horiz-adv-x="550" d="M244 -10Q200 -10 161 3T92 47T45 125T27 244Q27 331 46 417T103 571T198 683T332 726Q379 726 418 713T486 668T530 585T546 459Q546 373 527 289T470 139T376 31T244 -10ZM166 222Q166 159 188 130T249
100Q291 100 321 136T370 229T398 351T407 477Q407 556 387 586T329 616Q289 616 259 581T208 488T177 361T166 222Z" />
<glyph unicode="1" glyph-name="one" horiz-adv-x="550" d="M343 0H201L321 564L85 417L114 558L368 717H496L343 0Z" />
<glyph unicode="2" glyph-name="two" horiz-adv-x="550" d="M447 0H-24L4 127Q118 191 191 243T307 341T366 426T383 508Q383 562 351 588T274 614Q222 614 180 593T98 535L125 666Q158 693 203 709T313 726Q364 726 405 712T476 672T521 609T537 524Q537 465
514 413T445 310T328 212T162 113H471L447 0Z" />
<glyph unicode="3" glyph-name="three" horiz-adv-x="550" d="M490 215Q490 168 472 127T420 56T334 8T217 -10Q137 -10 85 12T-2 61L24 171Q37 160 55 148T96 125T150 107T217 100Q251 100 275 110T315 137T338 176T346 223Q346 270 318 294T226 319H153L176
424H244Q316 424 347 452T379 526Q379 570 353 592T284 614Q233 614 187 595T105 549L131 670Q202 726 314 726Q362 726 400 713T466 677T508 621T523 548Q523 511 512 481T480 428T432 390T371 370Q423 356 456 319T490 215Z" />
<glyph unicode="4" glyph-name="four" horiz-adv-x="550" d="M423 156L390 0H249L282 156H-7L17 259L395 717H543L447 265H526L502 156H423ZM305 265L362 529L143 265H305Z" />
<glyph unicode="5" glyph-name="five" horiz-adv-x="550" d="M508 253Q508 195 488 147T431 64T340 10T220 -10Q139 -10 89 9T10 49L33 166Q46 155 63 144T103 123T154 107T216 100Q254 100 281 111T327 140T353 184T362 238Q362 294 335 321T257 348Q221 348
198 338T163 313H70L157 717H556L533 599H250L215 435Q232 444 256 450T310 456Q352 456 388 444T450 406T492 342T508 253Z" />
<glyph unicode="6" glyph-name="six" horiz-adv-x="550" d="M527 285Q527 222 506 168T448 75T358 13T244 -10Q139 -10 80 51T21 234Q21 322 41 410T107 568T224 683T399 727Q450 727 486 716T549 685L531 570Q462 616 390 616Q347 616 313 601T254 559T211 495T183
412Q215 447 253 465T340 484Q380 484 414 472T474 436T513 374T527 285ZM252 100Q279 100 303 113T344 149T372 203T382 271Q382 325 357 350T296 375Q265 375 241 362T199 326T173 273T164 207Q164 154 189 127T252 100Z" />
<glyph unicode="7" glyph-name="seven" horiz-adv-x="550" d="M166 0H15L407 601H84L110 717H591L574 636L166 0Z" />
<glyph unicode="8" glyph-name="eight" horiz-adv-x="550" d="M521 202Q521 156 501 117T445 50T361 6T256 -10Q205 -10 161 3T83 40T30 100T11 182Q11 254 56 307T185 380Q142 400 115 436T88 527Q88 572 107 608T158 671T235 711T329 726Q372 726 412 715T482
682T531 626T550 547Q550 485 510 437T400 368Q451 348 486 308T521 202ZM226 512Q226 467 251 447T310 426Q355 426 381 455T407 529Q407 552 400 568T381 595T354 610T323 615Q279 615 253 585T226 512ZM160 201Q160 175 168 156T191 125T223 106T262 100Q313
100 346 134T379 224Q379 250 371 269T348 300T316 319T278 325Q225 325 193 290T160 201Z" />
<glyph unicode="9" glyph-name="nine" horiz-adv-x="550" d="M554 461Q554 378 534 294T471 143T357 33T187 -10Q127 -10 87 2T19 31L41 144Q67 128 103 115T184 101Q228 101 263 116T324 159T368 225T397 310Q374 276 337 257T248 238Q207 238 170 250T105 289T61
354T44 448Q44 510 66 561T127 649T215 706T319 726Q368 726 410 712T485 666T535 584T554 461ZM319 615Q262 615 228 572T193 458Q193 407 217 376T285 344Q315 344 338 357T378 392T404 442T413 503Q413 551 390 583T319 615Z" />
<glyph unicode=":" glyph-name="colon" horiz-adv-x="272" d="M101 -9Q63 -9 38 18T12 83Q12 121 37 147T101 174Q139 174 164 148T190 83Q190 45 165 18T101 -9ZM173 321Q135 321 110 348T84 413Q84 451 109 477T173 504Q211 504 236 478T262 413Q262 375 237
348T173 321Z" />
<glyph unicode=";" glyph-name="semicolon" horiz-adv-x="272" d="M-25 -112Q2 -92 26 -64T66 5Q39 16 26 38T13 84Q13 122 37 147T101 173Q142 173 166 146T190 75Q190 45 179 17T150 -35T112 -78T72 -112H-25ZM172 321Q134 321 109 348T83 413Q83 451 108 477T172
504Q210 504 235 478T261 413Q261 375 236 348T172 321Z" />
<glyph unicode="&lt;" glyph-name="less" horiz-adv-x="550" d="M62 277L88 397L556 595L530 476L189 331L471 187L446 80L62 277Z" />
<glyph unicode="=" glyph-name="equal" horiz-adv-x="549" d="M305 397L327 497H820L798 397H305ZM259 177L279 277H772L752 177H259Z" />
<glyph unicode="&gt;" glyph-name="greater" horiz-adv-x="550" d="M45 199L388 344L107 488L130 595L514 397L489 277L20 80L45 199Z" />
<glyph unicode="?" glyph-name="question" horiz-adv-x="465" d="M487 539Q487 491 470 458T428 401T372 360T316 326T270 291T248 246L245 224H114L117 253Q122 295 140 323T183 371T235 405T286 437T324 475T340 531Q340 618 228 618Q199 618 168 612T113 595L133
703Q155 714 188 720T259 726Q370 726 428 677T487 539ZM168 -9Q150 -9 134 -2T105 18T86 47T79 83Q79 121 105 147T168 174Q187 174 203 167T232 148T251 119T258 83Q258 64 251 48T232 19T204 -1T168 -9Z" />
<glyph unicode="@" glyph-name="at" horiz-adv-x="1006" d="M739 -149Q724 -156 701 -163T647 -176T581 -185T507 -189Q411 -189 328 -161T182 -79T85 58T49 248Q49 354 86 442T190 593T348 691T549 726Q644 726 727 699T873 622T971 499T1007 336Q1007 277 992
223T945 126T869 59T762 34Q725 34 698 43T653 67T623 104T607 148Q581 91 537 63T439 34Q407 34 377 45T322 80T283 144T268 240Q268 290 284 337T329 420T398 479T487 501Q535 501 570 476T623 396L652 471H758L724 232Q718 182 731 151T786 120Q814 120 835
136T870 179T892 242T900 321Q900 399 874 459T801 559T689 621T548 642Q465 642 394 615T269 539T186 418T156 258Q156 167 182 99T255 -14T370 -82T519 -105Q602 -105 657 -91T739 -62V-149ZM394 235Q394 203 401 182T421 149T450 131T482 126Q511 126 534 139T572
176T596 230T605 295Q605 326 598 347T578 382T550 400T518 406Q487 406 464 391T425 352T402 297T394 235Z" />
<glyph unicode="A" glyph-name="A" horiz-adv-x="700" d="M361 717H534L633 0H491L468 174H188L90 0H-43L361 717ZM452 292L414 577L254 292H452Z" />
<glyph unicode="B" glyph-name="B" horiz-adv-x="658" d="M169 717H408Q523 717 578 674T634 551Q634 474 588 430T469 369Q538 353 574 313T611 207Q611 155 588 116T526 52T432 13T315 0H16L169 717ZM288 598L251 428H357Q385 428 408 433T449 450T477 479T487
522Q487 562 462 580T388 598H288ZM226 310L185 118H332Q394 118 429 140T465 217Q465 310 341 310H226Z" />
<glyph unicode="C" glyph-name="C" horiz-adv-x="654" d="M392 -10Q321 -10 259 11T151 74T78 177T51 318Q51 394 77 467T156 598T288 691T473 726Q544 726 593 712T667 681L641 563Q614 582 570 595T470 608Q397 608 346 584T263 519T216 429T201 327Q201 214
259 161T416 108Q459 108 507 118T593 151L568 32Q539 12 493 1T392 -10Z" />
<glyph unicode="D" glyph-name="D" horiz-adv-x="729" d="M169 717H402Q469 717 526 700T626 647T691 553T715 416Q715 333 688 258T607 125T474 34T291 0H16L169 717ZM288 598L185 118H306Q366 118 414 139T495 199T547 291T565 409Q565 462 553 498T518 557T463
588T389 598H288Z" />
<glyph unicode="E" glyph-name="E" horiz-adv-x="588" d="M169 717H631L605 598H288L252 429H518L493 312H227L185 118H508L482 0H16L169 717Z" />
<glyph unicode="F" glyph-name="F" horiz-adv-x="560" d="M169 717H624L599 598H288L247 408H508L483 291H222L160 0H16L169 717Z" />
<glyph unicode="G" glyph-name="G" horiz-adv-x="743" d="M729 307Q718 227 689 168T616 69T514 10T389 -10Q318 -10 256 12T149 76T77 179T51 320Q51 396 77 469T154 599T283 691T464 726Q510 726 547 719T614 702T665 678T700 653L674 534Q644 563 591 585T464
608Q392 608 342 584T260 520T215 430T201 328Q201 272 215 231T256 162T317 122T396 108Q470 108 517 147T580 271H367L394 389H740L729 307V307Z" />
<glyph unicode="H" glyph-name="H" horiz-adv-x="736" d="M531 298H224L160 0H16L169 717H313L249 416H556L621 717H763L611 0H467L531 298Z" />
<glyph unicode="I" glyph-name="I" horiz-adv-x="285" d="M313 717L160 0H16L169 717H313Z" />
<glyph unicode="J" glyph-name="J" horiz-adv-x="403" d="M440 717L328 196Q308 99 247 45T87 -10Q23 -10 -23 13L1 127Q40 108 80 108Q131 108 155 135T191 214L299 717H440Z" />
<glyph unicode="K" glyph-name="K" horiz-adv-x="661" d="M294 295H223L160 0H16L169 717H313L248 412H326L587 717H743L421 342L593 0H442L294 295Z" />
<glyph unicode="L" glyph-name="L" horiz-adv-x="554" d="M462 0H16L169 717H313L185 118H487L462 0Z" />
<glyph unicode="M" glyph-name="M" horiz-adv-x="875" d="M717 518L457 110H335L255 524L142 0H16L169 717H348L430 271L713 717H903L750 0H606L717 518Z" />
<glyph unicode="N" glyph-name="N" horiz-adv-x="737" d="M612 0H444L260 551L143 0H16L169 717H340L522 172L638 717H765L612 0Z" />
<glyph unicode="O" glyph-name="O" horiz-adv-x="755" d="M370 -10Q299 -10 241 13T140 80T75 184T51 323Q51 408 79 482T157 610T275 695T426 726Q497 726 556 703T657 636T722 532T746 394Q746 308 718 235T640 107T521 21T370 -10ZM201 325Q201 269 214 229T252
161T308 121T380 108Q430 108 470 130T538 191T581 281T596 391Q596 446 583 487T545 555T489 595T418 608Q368 608 328 586T259 525T216 435T201 325Z" />
<glyph unicode="P" glyph-name="P" horiz-adv-x="624" d="M169 717H389Q449 717 497 704T579 664T630 597T648 503Q647 444 625 397T561 318T464 268T339 251H214L160 0H16L169 717ZM288 598L239 368H362Q428 368 463 403T499 496Q499 556 464 577T372 598H288Z" />
<glyph unicode="Q" glyph-name="Q" horiz-adv-x="761" d="M659 -154Q553 -121 457 -86T294 -19Q237 8 192 39T115 111T68 203T51 323Q51 408 79 482T157 610T275 695T426 726Q497 726 556 703T657 636T722 532T746 394Q746 332 730 273T680 165T595 78T473 22Q533
5 592 -6T701 -24L659 -154ZM201 325Q201 269 214 229T252 161T308 121T380 108Q430 108 470 130T538 191T581 281T596 391Q596 446 583 487T545 555T489 595T418 608Q368 608 328 586T259 525T216 435T201 325Z" />
<glyph unicode="R" glyph-name="R" horiz-adv-x="661" d="M169 717H410Q531 717 593 668T656 519Q656 429 604 372T467 292L584 0H436L325 277H219L160 0H16L169 717ZM288 598L243 389H364Q435 389 472 418T510 506Q510 558 478 578T387 598H288Z" />
<glyph unicode="S" glyph-name="S" horiz-adv-x="612" d="M286 -10Q239 -10 197 -2T121 18T61 47T20 78L45 193Q63 176 91 161T152 134T221 115T292 108Q362 108 391 135T421 203Q421 226 412 241T386 267T343 288T286 308Q251 320 217 334T156 370T113 424T96
506Q96 557 115 597T171 666T258 710T373 726Q415 726 451 720T517 705T567 685T600 664L576 551Q544 577 489 592T374 608Q300 608 267 585T234 524Q234 501 244 486T274 460T318 441T372 422Q406 410 440 395T502 357T547 299T564 214Q564 158 543 116T485 46T397
4T286 -10Z" />
<glyph unicode="T" glyph-name="T" horiz-adv-x="612" d="M449 598L321 0H178L305 598H92L117 717H687L662 598H449Z" />
<glyph unicode="U" glyph-name="U" horiz-adv-x="680" d="M156 717H298L206 288Q196 241 202 207T226 151T272 119T335 108Q406 108 446 149T506 280L599 717H726L628 261Q600 129 528 60T326 -10Q263 -10 208 8T116 64T65 163T68 310L156 717Z" />
<glyph unicode="V" glyph-name="V" horiz-adv-x="686" d="M377 0H201L102 717H246L320 143L638 717H776L377 0Z" />
<glyph unicode="W" glyph-name="W" horiz-adv-x="986" d="M761 0H576L550 516L302 0H115L119 717H261L251 157L522 717H666L698 153L934 717H1065L761 0Z" />
<glyph unicode="X" glyph-name="X" horiz-adv-x="642" d="M316 261L106 0H-45L264 370L112 717H263L373 465L572 717H722L425 357L578 0H425L316 261Z" />
<glyph unicode="Y" glyph-name="Y" horiz-adv-x="611" d="M387 292L325 0H181L245 304L102 717H251L345 422L564 717H707L387 292Z" />
<glyph unicode="Z" glyph-name="Z" horiz-adv-x="622" d="M526 0H-18L5 106L461 598H107L132 717H663L641 610L186 118H552L526 0Z" />
<glyph unicode="[" glyph-name="bracketleft" horiz-adv-x="456" d="M206 756H528L506 652H314L166 -35H358L336 -139H13L206 756Z" />
<glyph unicode="\" glyph-name="backslash" horiz-adv-x="429" d="M106 756H227L347 -120H226L106 756Z" />
<glyph unicode="]" glyph-name="bracketright" horiz-adv-x="456" d="M281 -139H-41L-19 -35H173L321 652H129L151 756H474L281 -139Z" />
<glyph unicode="^" glyph-name="asciicircum" horiz-adv-x="438" d="M297 618L162 458H53L250 717H383L469 458H364L297 618Z" />
<glyph unicode="_" glyph-name="underscore" horiz-adv-x="404" d="M-66 -33H359L336 -137H-89L-66 -33Z" />
<glyph unicode="`" glyph-name="grave" horiz-adv-x="452" d="M318 588L187 746H335L417 588H318Z" />
<glyph unicode="a" glyph-name="a" horiz-adv-x="541" d="M309 0Q309 13 310 34T315 77Q304 61 290 46T256 18T212 -2T159 -10Q129 -10 102 -2T54 24T21 69T8 133Q8 222 77 266T278 311H362Q368 345 363 366T344 399T309 415T261 420Q219 420 175 412T93 386L116
495Q153 512 197 520T289 529Q341 529 385 517T459 478T500 405T496 294L451 84Q448 67 444 41T439 0H309ZM217 89Q246 89 267 101T303 131T326 166T337 195L345 231H265Q205 231 178 210T150 151Q150 118 169 104T217 89Z" />
<glyph unicode="b" glyph-name="b" horiz-adv-x="622" d="M594 309Q594 233 572 174T512 74T426 12T325 -10Q260 -10 220 20T162 101L135 0H6L160 717H298L241 455Q271 490 310 509T397 529Q440 529 476 515T538 474T579 405T594 309ZM306 100Q337 100 363 114T408
153T439 213T450 290Q450 359 420 389T342 420Q306 420 279 404T234 362T207 301T198 229Q198 164 229 132T306 100Z" />
<glyph unicode="c" glyph-name="c" horiz-adv-x="506" d="M294 -10Q238 -10 190 6T107 53T51 131T31 239Q31 301 53 354T115 446T211 507T335 529Q391 529 430 517T492 487L468 383Q441 400 412 409T346 419Q303 419 271 406T217 370T185 316T174 247Q174 205
186 177T220 132T269 108T327 100Q388 100 440 126L415 14Q392 3 362 -3T294 -10Z" />
<glyph unicode="d" glyph-name="d" horiz-adv-x="621" d="M390 69Q360 33 320 12T229 -10Q190 -10 154 3T91 45T48 117T31 220Q31 286 51 343T107 441T191 505T297 529Q360 529 401 502T461 425L524 717H661L508 0H380L390 69ZM428 297Q428 358 398 388T320 419Q286
419 259 404T214 364T186 304T176 231Q176 195 185 170T209 129T244 106T287 99Q326 99 353 116T396 162T420 226T428 297Z" />
<glyph unicode="e" glyph-name="e" horiz-adv-x="565" d="M459 19Q436 9 400 0T307 -10Q244 -10 193 5T106 51T51 128T31 234Q31 296 52 350T111 443T202 506T321 529Q375 529 422 511T498 454T535 358T515 222H171Q178 157 218 129T329 100Q377 100 415 109T483
129L459 19ZM312 427Q260 427 227 396T180 317H405Q409 347 403 367T384 401T353 421T312 427Z" />
<glyph unicode="f" glyph-name="f" horiz-adv-x="412" d="M271 411L160 -127H20L133 411H73L96 519H156L158 529Q179 629 236 677T396 726Q422 726 448 724T488 717L464 609Q455 612 436 614T396 617Q352 617 329 598T295 529L293 519H436L414 411H271Z" />
<glyph unicode="g" glyph-name="g" horiz-adv-x="615" d="M519 100Q505 32 483 -20T423 -107T332 -160T202 -179Q160 -179 127 -174T69 -159T24 -139T-10 -117L14 -9Q42 -31 89 -50T202 -70Q239 -70 268 -62T318 -36T354 11T378 82Q352 55 316 39T232 22Q191 22
155 36T91 78T47 148T30 247Q31 308 51 360T106 449T189 508T292 529Q356 529 397 501T456 427L459 436Q461 445 464 456T470 479T477 501T484 519H614Q609 505 602 479T592 436L519 100ZM285 126Q321 126 346 142T388 185T411 242T420 305Q421 362 392 391T317
420Q284 420 258 406T214 369T187 315T177 249Q177 182 208 154T285 126Z" />
<glyph unicode="h" glyph-name="h" horiz-adv-x="591" d="M340 420Q296 420 268 401T221 358L144 0H6L162 725H299L258 530L235 441H237Q266 479 306 504T404 529Q442 529 474 516T527 477T555 411T551 317L483 0H344L413 317Q419 347 416 367T402 398T375 415T340 420Z" />
<glyph unicode="i" glyph-name="i" horiz-adv-x="258" d="M212 574Q178 574 154 599T130 659Q130 677 136 692T154 719T180 737T212 744Q229 744 244 738T270 720T288 693T295 659Q295 624 271 599T212 574ZM256 519L145 0H7L118 519H256Z" />
<glyph unicode="j" glyph-name="j" horiz-adv-x="272" d="M226 574Q192 574 168 599T143 659Q143 677 149 692T167 719T194 737T226 744Q243 744 258 738T284 720T302 693T309 659Q309 624 285 599T226 574ZM157 -9Q137 -96 84 -141T-59 -187Q-85 -187 -110 -183T-156
-166L-134 -62Q-120 -69 -103 -73T-64 -78Q-21 -78 -4 -56T22 9L132 519H270L157 -9Z" />
<glyph unicode="k" glyph-name="k" horiz-adv-x="546" d="M238 204H188L144 0H6L160 717H298L211 312H258L440 519H590L358 256L488 0H341L238 204Z" />
<glyph unicode="l" glyph-name="l" horiz-adv-x="258" d="M298 717L144 0H6L160 717H298Z" />
<glyph unicode="m" glyph-name="m" horiz-adv-x="890" d="M144 0H6L117 519H247L235 441H237Q261 479 301 504T395 529Q448 529 486 503T535 420Q567 478 614 503T713 529Q750 529 780 517T829 478T855 411T851 317L782 0H644L712 318Q718 347 716 366T704 398T681
415T650 420Q616 420 589 404T541 361L463 0H325L393 318Q399 347 397 366T386 398T363 415T332 420Q295 420 269 402T221 358L144 0Z" />
<glyph unicode="n" glyph-name="n" horiz-adv-x="591" d="M340 420Q296 420 268 401T221 358L144 0H6L117 519H247L235 441H237Q266 479 307 504T404 529Q442 529 474 516T527 477T555 411T551 317L483 0H344L413 317Q419 347 416 367T402 398T375 415T340 420Z" />
<glyph unicode="o" glyph-name="o" horiz-adv-x="593" d="M281 -10Q228 -10 183 6T103 54T50 131T31 234Q31 291 50 344T106 439T196 504T315 529Q368 529 413 513T493 465T546 388T565 284Q565 227 546 174T490 80T400 15T281 -10ZM174 235Q174 164 205 132T284
100Q318 100 344 115T387 156T414 215T423 283Q423 354 391 386T313 419Q278 419 252 404T209 363T183 304T174 235Z" />
<glyph unicode="p" glyph-name="p" horiz-adv-x="622" d="M334 -10Q271 -10 228 19T166 99L106 -177H-32L117 519H245L236 453Q266 488 306 508T399 529Q441 529 476 515T538 474T579 404T594 304Q594 233 573 175T516 76T433 13T334 -10ZM198 233Q198 166 228
133T307 100Q340 100 366 114T411 154T440 213T450 289Q450 358 420 389T342 420Q306 420 279 405T234 363T207 304T198 233Z" />
<glyph unicode="q" glyph-name="q" horiz-adv-x="625" d="M470 -177H333L383 60Q354 28 317 9T232 -10Q192 -10 156 4T92 46T48 118T31 221Q31 287 50 343T105 441T189 506T296 529Q362 529 404 500T464 418L469 436Q474 454 481 479T495 519H623Q618 505 612
479T602 436L470 -177ZM427 289Q427 355 398 387T320 419Q286 419 259 404T214 364T186 305T176 234Q176 163 208 131T287 99Q325 99 352 116T395 161T419 223T427 289Z" />
<glyph unicode="r" glyph-name="r" horiz-adv-x="394" d="M396 389Q335 400 291 383T215 329L144 0H6L117 519H245L230 414H232Q264 468 313 499T425 529L396 389V389Z" />
<glyph unicode="s" glyph-name="s" horiz-adv-x="475" d="M432 160Q432 78 377 34T219 -10Q178 -10 145 -4T85 13T39 35T8 58L31 164Q63 139 113 119T225 99Q270 99 287 112T305 145Q305 162 296 172T273 189T239 200T199 211Q173 218 148 228T103 255T71 297T58
361Q58 403 73 434T117 487T184 518T270 529Q304 529 333 524T386 511T427 494T454 477L432 373Q403 392 362 406T269 420Q229 420 207 410T185 375Q185 360 193 351T214 335T244 325T279 315Q307 307 334 298T383 271T418 228T432 160Z" />
<glyph unicode="t" glyph-name="t" horiz-adv-x="397" d="M313 16Q294 4 267 -3T206 -10Q118 -10 82 41T65 180L115 411H56L78 519H138L162 628H299L276 519H415L392 411H253L204 182Q194 137 209 119T259 100Q279 100 299 105T335 123L313 16V16Z" />
<glyph unicode="u" glyph-name="u" horiz-adv-x="584" d="M256 100Q294 100 320 117T367 161L443 519H582L470 0H342L352 78H349Q321 41 282 16T186 -10Q149 -10 118 3T68 42T42 109T46 204L112 519H251L186 210Q174 152 194 126T256 100Z" />
<glyph unicode="v" glyph-name="v" horiz-adv-x="527" d="M294 0H123L60 519H201L242 139L449 519H581L294 0Z" />
<glyph unicode="w" glyph-name="w" horiz-adv-x="821" d="M637 0H447L431 350L263 0H77L79 519H214L206 118L400 519H543L566 116L730 519H856L637 0Z" />
<glyph unicode="x" glyph-name="x" horiz-adv-x="527" d="M241 177L89 0H-51L188 274L76 519H222L296 360L427 519H568L349 262L470 0H324L241 177Z" />
<glyph unicode="y" glyph-name="y" horiz-adv-x="549" d="M296 -17Q248 -103 189 -145T40 -187Q13 -187 -12 -184T-55 -172L-29 -62Q6 -78 51 -78Q85 -78 110 -66T156 -31L67 519H207L256 138L458 519H589L296 -17V-17Z" />
<glyph unicode="z" glyph-name="z" horiz-adv-x="489" d="M402 0H-20L1 95L312 413H77L99 519H512L493 432L174 107H424L402 0Z" />
<glyph unicode="{" glyph-name="braceleft" horiz-adv-x="428" d="M312 -136Q291 -138 275 -139T241 -141Q159 -141 118 -108T77 -16Q77 16 85 42T104 92T122 137T131 185Q131 214 110 232T42 256L65 360Q100 362 123 369T161 389T184 418T195 455Q202 490 200
529T207 613Q220 678 274 717T421 756Q453 756 497 750L475 650Q461 654 449 655T425 656Q402 656 385 650T357 633T339 610T329 584Q325 566 324 549T323 514T321 478T316 441Q312 421 303 402T277 365T232 332T164 306Q219 289 239 260T259 190Q259 164 252 142T237
99T221 58T214 16Q214 -11 230 -26T285 -41Q294 -41 306 -40T332 -36L312 -136V-136Z" />
<glyph unicode="|" glyph-name="bar" horiz-adv-x="314" d="M229 756V-120H107V756H229Z" />
<glyph unicode="}" glyph-name="braceright" horiz-adv-x="428" d="M138 745Q159 747 175 748T209 750Q291 750 332 717T373 625Q373 593 365 567T346 517T328 472T319 424Q319 395 340 377T408 353L385 249Q350 247 327 240T289 220T266 191T255 154Q248 119
250 80T243 -4Q230 -69 176 -108T29 -147Q-3 -147 -47 -141L-25 -41Q-11 -45 1 -46T25 -47Q48 -47 65 -41T93 -24T111 -1T121 25Q125 43 126 60T127 95T129 131T134 168Q138 188 147 207T173 244T218 277T286 303Q231 320 211 349T191 419Q191 445 198 467T213
510T229 551T236 593Q236 620 220 635T165 650Q156 650 144 649T118 645L138 745V745Z" />
<glyph unicode="~" glyph-name="asciitilde" horiz-adv-x="624" d="M39 235Q37 277 49 313T85 376T145 418T226 434Q267 434 296 422T348 394T393 367T438 354Q469 354 486 375T506 442H606Q609 400 599 364T567 300T510 258T431 242Q388 242 359 255T306 283T262
311T217 324Q203 324 190 320T166 305T148 277T140 235H39V235Z" />
<glyph unicode="&#xa0;" glyph-name="uni00A0" horiz-adv-x="200" />
<glyph unicode="&#xa1;" glyph-name="exclamdown" horiz-adv-x="267" d="M-29 -195L93 296H201L114 -195H-29ZM173 529Q192 529 208 522T236 503T255 473T262 437Q262 399 236 373T173 346Q154 346 138 353T109 372T91 401T84 437Q84 456 91 473T110 502T138 522T173
529Z" />
<glyph unicode="&#xa2;" glyph-name="cent" horiz-adv-x="550" d="M334 655H460L432 521Q442 519 450 516Q490 504 512 487L488 383Q461 400 432 409T366 419Q323 419 291 406T237 370T205 316T194 247Q194 205 206 177T240 132T289 108T347 100Q408 100 460 126L435
14Q412 3 382 -3Q354 -9 320 -10L291 -148H164L197 10Q157 26 126 53Q91 85 71 131T51 239Q51 301 73 354T135 446T231 507Q267 521 307 526L334 655Z" />
<glyph unicode="&#xa3;" glyph-name="sterling" horiz-adv-x="550" d="M469 0H-6L11 74Q47 97 71 121T109 171T130 223T138 277H41L65 382H131Q129 401 128 420T126 462Q126 523 145 571T201 654T291 707T410 726Q468 726 506 715T561 693L538 587Q521 598 486
607T412 617Q334 617 302 576T269 467Q269 445 270 424T272 382H437L413 277H270Q265 236 246 193T179 109H493L469 0Z" />
<glyph unicode="&#xa4;" glyph-name="currency" horiz-adv-x="566" d="M294 136Q235 136 188 162L120 93L49 165L112 230Q97 254 88 282T79 344Q79 377 88 406T112 459L47 526L117 599L187 527Q211 539 238 546T294 553Q324 553 351 546T402 526L473 599L543 526L476
458Q508 409 508 344Q508 280 476 231L541 165L469 93L401 163Q378 150 351 143T294 136ZM295 239Q334 239 362 267T391 344Q391 394 363 422T295 450Q256 450 227 422T198 344Q198 295 227 267T295 239Z" />
<glyph unicode="&#xa5;" glyph-name="yen" horiz-adv-x="550" d="M301 127L274 0H136L163 127H12L32 219H182L195 277H45L64 369H189L84 717H229L303 441L498 717H630L378 369H501L483 277H333L320 219H471L451 127H301Z" />
<glyph unicode="&#xa6;" glyph-name="brokenbar" horiz-adv-x="314" d="M229 756V356H107V756H229ZM229 280V-120H107V280H229Z" />
<glyph unicode="&#xa7;" glyph-name="section" horiz-adv-x="573" d="M456 11Q456 -41 435 -80T376 -147T289 -187T183 -201Q109 -201 52 -182T-34 -139L-11 -33Q3 -44 24 -55T72 -75T129 -89T191 -95Q252 -95 286 -73T320 -11Q320 9 311 23T286 49T246 69T192
90Q159 102 130 117T79 152T44 198T31 261Q31 294 42 320T72 367T118 400T174 419Q148 440 135 467T122 531Q122 575 140 611T193 674T277 714T386 728Q424 728 456 723T515 710T560 693T590 675L568 568Q538 592 488 606T381 621Q315 621 286 602T257 549Q257
530 265 517T290 493T328 474T377 457Q411 446 442 431T496 394T532 345T546 281Q546 247 535 220T504 174T458 142T403 124Q456 86 456 11ZM161 283Q161 258 175 241T212 212T262 195T315 190Q368 190 392 209T416 259Q416 284 402 301T366 330T316 346T262 351Q209
351 185 333T161 283Z" />
<glyph unicode="&#xa8;" glyph-name="dieresis" horiz-adv-x="452" d="M205 577Q169 577 145 601T121 659Q121 693 145 716T205 740Q240 740 264 717T289 659Q289 642 283 627T265 601T238 584T205 577ZM433 577Q398 577 374 601T350 659Q350 693 374 716T433
740Q469 740 493 717T518 659Q518 625 494 601T433 577Z" />
<glyph unicode="&#xa9;" glyph-name="copyright" horiz-adv-x="902" d="M459 -104Q372 -104 298 -73T168 15T82 148T50 317Q50 408 81 484T168 616T297 703T459 734Q546 734 621 703T750 617T836 485T868 317Q868 225 837 148T751 15T621 -72T459 -104ZM459 -27Q532
-27 592 -2T694 69T760 178T783 317Q783 392 760 454T695 562T592 633T459 658Q386 658 326 633T224 563T158 455T134 317Q134 242 157 179T223 70T326 -1T459 -27ZM482 100Q431 100 390 114T320 157T276 225T260 315Q260 417 318 473T482 529Q524 529 552 521T598
502V406Q578 420 550 427T489 434Q374 434 374 315Q374 195 492 195Q523 195 550 202T598 226V130Q583 119 554 110T482 100Z" />
<glyph unicode="&#xaa;" glyph-name="ordfeminine" horiz-adv-x="479" d="M332 326Q332 336 333 354T337 393Q318 364 286 340T202 316Q176 316 152 323T109 347T79 386T68 443Q68 515 126 556T299 597H379Q389 650 363 668T286 686Q242 686 206 677T140 654L160
752Q189 766 229 775T320 785Q370 785 409 774T472 737T503 672T499 576L461 398Q459 392 457 382T454 362T451 342T450 326H332ZM253 402Q278 402 296 412T328 437T347 467T356 491L364 525H298Q244 525 220 506T195 455Q195 429 211 416T253 402Z" />
<glyph unicode="&#xab;" glyph-name="guillemotleft" horiz-adv-x="525" d="M391 262L461 62H333L259 272L398 474H536L391 262ZM171 262L242 62H113L39 272L178 474H317L171 262Z" />
<glyph unicode="&#xac;" glyph-name="logicalnot" horiz-adv-x="584" d="M495 87H387L430 287H44L66 387H559L539 296L495 87Z" />
<glyph unicode="&#xae;" glyph-name="registered" horiz-adv-x="902" d="M459 -104Q372 -104 298 -73T168 15T82 148T50 317Q50 408 81 484T168 616T297 703T459 734Q546 734 621 703T750 617T836 485T868 317Q868 225 837 148T751 15T621 -72T459 -104ZM459 -27Q532
-27 592 -2T694 69T760 178T783 317Q783 392 760 454T695 562T592 633T459 658Q386 658 326 633T224 563T158 455T134 317Q134 242 157 179T223 70T326 -1T459 -27ZM299 525H454Q543 525 587 493T632 390Q632 342 612 315T557 274L651 107H533L448 260H406V107H299V525ZM406
440V339H458Q491 339 507 350T524 389Q524 418 507 429T454 440H406Z" />
<glyph unicode="&#xaf;" glyph-name="overscore" horiz-adv-x="452" d="M164 694H489L468 599H143L164 694Z" />
<glyph unicode="&#xb0;" glyph-name="degree" horiz-adv-x="464" d="M231 406Q196 406 167 418T116 453T82 505T70 572Q70 608 82 638T115 690T166 724T231 736Q266 736 296 724T347 690T381 638T394 572Q394 536 382 506T348 453T296 419T231 406ZM231 494Q265
494 284 515T303 572Q303 607 284 628T231 649Q199 649 180 628T160 572Q160 537 179 516T231 494Z" />
<glyph unicode="&#xb1;" glyph-name="plusminus" horiz-adv-x="550" d="M585 302L552 146H444L478 302H284L306 402H499L541 597H648L607 402H799L778 302H585ZM220 0L242 100H735L713 0H220Z" />
<glyph unicode="&#xb2;" glyph-name="twosuperior" horiz-adv-x="366" d="M352 325H42L64 421Q128 458 170 487T238 540T273 587T283 632Q283 662 267 678T221 695Q187 695 163 684T119 659L138 751Q156 762 187 772T260 783Q332 783 371 748T411 652Q411 580
354 523T186 412H370L352 325Z" />
<glyph unicode="&#xb3;" glyph-name="threesuperior" horiz-adv-x="355" d="M373 457Q373 427 361 402T324 359T265 330T183 319Q134 319 102 331T49 357L68 443Q84 432 114 419T186 405Q221 405 239 421T257 464Q257 491 240 504T191 518H144L161 598H211Q245
598 263 611T281 649Q281 670 267 683T224 697Q192 697 169 688T124 667L143 755Q166 768 193 775T258 783Q329 783 365 749T402 667Q402 620 371 592T290 558Q325 550 349 526T373 457Z" />
<glyph unicode="&#xb4;" glyph-name="acute" horiz-adv-x="452" d="M320 746H468L310 588H208L320 746Z" />
<glyph unicode="&#xb6;" glyph-name="paragraph" horiz-adv-x="652" d="M77 475Q77 533 99 578T159 654T250 701T363 717H508L317 -183H207L304 272H290Q245 272 206 285T139 323T94 387T77 475ZM485 -183H375L567 717H677L485 -183Z" />
<glyph unicode="&#xb7;" glyph-name="middot" horiz-adv-x="269" d="M138 174Q100 174 75 201T49 266Q49 304 74 330T138 357Q176 357 201 331T227 266Q227 228 202 201T138 174Z" />
<glyph unicode="&#xb8;" glyph-name="cedilla" horiz-adv-x="452" d="M280 20L178 -187H38L175 20H280Z" />
<glyph unicode="&#xb9;" glyph-name="onesuperior" horiz-adv-x="291" d="M257 325H136L204 644L75 547L100 665L250 777H352L257 325Z" />
<glyph unicode="&#xba;" glyph-name="ordmasculine" horiz-adv-x="512" d="M297 316Q251 316 212 330T144 372T99 438T82 526Q82 579 101 626T153 708T233 764T336 785Q382 785 421 771T489 729T534 664T550 576Q550 523 532 476T479 393T399 337T297 316ZM211
526Q211 467 236 441T300 414Q328 414 351 426T389 460T413 511T422 573Q422 633 397 659T332 686Q303 686 281 673T243 639T219 588T211 526Z" />
<glyph unicode="&#xbb;" glyph-name="guillemotright" horiz-adv-x="525" d="M346 62H208L353 274L283 474H411L485 264L346 62ZM126 62H-12L133 274L63 474H191L265 264L126 62Z" />
<glyph unicode="&#xbc;" glyph-name="onequarter" horiz-adv-x="919" d="M252 265H131L199 584L70 487L95 605L245 717H347L252 265ZM98 0L755 717H872L216 0H98ZM799 91L780 1H665L684 91H490L507 167L760 453H876L817 173H873L856 91H799ZM701 173L733 324L600
173H701Z" />
<glyph unicode="&#xbd;" glyph-name="onehalf" horiz-adv-x="982" d="M98 0L755 717H872L216 0H98ZM894 1H584L606 97Q670 134 712 163T780 216T815 263T825 308Q825 338 809 354T763 371Q729 371 705 360T661 335L680 427Q698 438 729 448T802 459Q874 459 913
424T953 328Q953 256 896 199T728 88H912L894 1ZM252 265H131L199 584L70 487L95 605L245 717H347L252 265Z" />
<glyph unicode="&#xbe;" glyph-name="threequarters" horiz-adv-x="949" d="M368 397Q368 367 356 342T319 299T260 270T178 259Q129 259 97 271T44 297L63 383Q79 372 109 359T181 345Q216 345 234 361T252 404Q252 431 235 444T186 458H139L156 538H206Q240
538 258 551T276 589Q276 610 262 623T219 637Q187 637 164 628T119 607L138 695Q161 708 188 715T253 723Q324 723 360 689T397 607Q397 560 366 532T285 498Q320 490 344 466T368 397ZM127 0L784 717H901L245 0H127ZM829 91L810 1H695L714 91H520L537 167L790
453H906L847 173H903L886 91H829ZM731 173L763 324L630 173H731Z" />
<glyph unicode="&#xbf;" glyph-name="questiondown" horiz-adv-x="465" d="M4 -16Q4 32 21 65T63 122T119 163T175 197T221 232T243 277L246 299H377L374 270Q369 228 351 200T308 152T256 118T205 86T167 48T151 -8Q151 -95 263 -95Q292 -95 323 -89T378 -72L358
-180Q336 -191 303 -197T232 -203Q121 -203 63 -154T4 -16ZM323 532Q341 532 357 525T386 505T405 476T412 440Q412 402 386 376T323 349Q304 349 288 356T259 375T240 404T233 440Q233 459 240 475T259 504T287 524T323 532Z" />
<glyph unicode="&#xc0;" glyph-name="Agrave" horiz-adv-x="700" d="M361 717H534L633 0H491L468 174H188L90 0H-43L361 717ZM452 292L414 577L254 292H452ZM404 777L254 913H427L521 777H404Z" />
<glyph unicode="&#xc1;" glyph-name="Aacute" horiz-adv-x="700" d="M361 717H534L633 0H491L468 174H188L90 0H-43L361 717ZM452 292L414 577L254 292H452ZM492 913H664L508 777H390L492 913Z" />
<glyph unicode="&#xc2;" glyph-name="Acircumflex" horiz-adv-x="700" d="M361 717H534L633 0H491L468 174H188L90 0H-43L361 717ZM452 292L414 577L254 292H452ZM461 849L373 774H263L402 922H544L620 774H516L461 849Z" />
<glyph unicode="&#xc3;" glyph-name="Atilde" horiz-adv-x="700" d="M361 717H534L633 0H491L468 174H188L90 0H-43L361 717ZM452 292L414 577L254 292H452ZM242 771Q239 805 247 834T274 883T318 915T375 927Q400 927 419 921T454 906T485 891T518 884Q538 884
550 895T565 933H650Q651 858 618 818T525 777Q499 777 480 783T444 798T411 813T377 820Q357 820 343 809T327 771H242V771Z" />
<glyph unicode="&#xc4;" glyph-name="Adieresis" horiz-adv-x="700" d="M361 717H534L633 0H491L468 174H188L90 0H-43L361 717ZM452 292L414 577L254 292H452ZM328 776Q293 776 269 799T245 857Q245 892 269 915T328 939Q365 939 389 916T414 857Q414 823 390
800T328 776ZM571 776Q536 776 512 799T487 857Q487 892 511 915T571 939Q589 939 604 933T631 915T649 889T656 857Q656 840 650 826T632 800T605 783T571 776Z" />
<glyph unicode="&#xc5;" glyph-name="Aring" horiz-adv-x="700" d="M361 717H534L633 0H491L468 174H188L90 0H-43L361 717ZM452 292L414 577L254 292H452ZM465 758Q411 758 376 792T341 881Q341 909 351 932T378 973T419 1000T471 1010Q525 1010 560 975T595
886Q595 829 558 794T465 758ZM467 832Q490 832 504 846T518 884Q518 907 505 921T468 935Q445 935 432 921T419 883Q419 860 431 846T467 832Z" />
<glyph unicode="&#xc6;" glyph-name="AE" horiz-adv-x="991" d="M885 0H420L463 201H245L101 0H-41L476 717H1033L1008 601H690L653 428H920L895 313H629L587 115H911L885 0ZM487 317L554 632L328 317H487Z" />
<glyph unicode="&#xc7;" glyph-name="Ccedilla" horiz-adv-x="650" d="M392 -10Q321 -10 259 11T151 74T78 177T51 318Q51 394 77 467T156 598T288 691T473 726Q544 726 593 712T667 681L641 563Q614 582 570 595T470 608Q397 608 346 584T263 519T216 429T201
327Q201 214 259 161T416 108Q459 108 507 118T593 151L568 32Q539 12 493 1T392 -10ZM420 20L318 -187H178L315 20H420Z" />
<glyph unicode="&#xc8;" glyph-name="Egrave" horiz-adv-x="588" d="M169 717H631L605 598H288L252 429H518L493 312H227L185 118H508L482 0H16L169 717ZM371 777L221 913H394L488 777H371Z" />
<glyph unicode="&#xc9;" glyph-name="Eacute" horiz-adv-x="588" d="M169 717H631L605 598H288L252 429H518L493 312H227L185 118H508L482 0H16L169 717ZM417 913H589L433 777H315L417 913Z" />
<glyph unicode="&#xca;" glyph-name="Ecircumflex" horiz-adv-x="588" d="M169 717H631L605 598H288L252 429H518L493 312H227L185 118H508L482 0H16L169 717ZM424 849L336 774H226L365 922H507L583 774H479L424 849Z" />
<glyph unicode="&#xcb;" glyph-name="Edieresis" horiz-adv-x="588" d="M169 717H631L605 598H288L252 429H518L493 312H227L185 118H508L482 0H16L169 717ZM296 776Q261 776 237 799T213 857Q213 892 237 915T296 939Q333 939 357 916T382 857Q382 823 358 800T296
776ZM539 776Q504 776 480 799T455 857Q455 892 479 915T539 939Q557 939 572 933T599 915T617 889T624 857Q624 840 618 826T600 800T573 783T539 776Z" />
<glyph unicode="&#xcc;" glyph-name="Igrave" horiz-adv-x="286" d="M313 717L160 0H16L169 717H313ZM197 777L47 913H220L314 777H197Z" />
<glyph unicode="&#xcd;" glyph-name="Iacute" horiz-adv-x="286" d="M313 717L160 0H16L169 717H313ZM538 913H710L554 777H436L538 913Z" />
<glyph unicode="&#xce;" glyph-name="Icircumflex" horiz-adv-x="286" d="M313 717L160 0H16L169 717H313ZM258 849L170 774H60L199 922H341L417 774H313L258 849Z" />
<glyph unicode="&#xcf;" glyph-name="Idieresis" horiz-adv-x="286" d="M313 717L160 0H16L169 717H313ZM127 776Q92 776 68 799T44 857Q44 892 68 915T127 939Q164 939 188 916T213 857Q213 823 189 800T127 776ZM370 776Q335 776 311 799T286 857Q286 892 310
915T370 939Q388 939 403 933T430 915T448 889T455 857Q455 840 449 826T431 800T404 783T370 776Z" />
<glyph unicode="&#xd0;" glyph-name="Eth" horiz-adv-x="751" d="M127 416L191 717H424Q491 717 548 700T647 647T712 553T736 416Q736 333 709 258T629 125T496 34T312 0H38L106 317H26L48 416H127ZM249 317L206 118H328Q388 118 435 139T516 199T568 291T586
409Q586 462 574 498T540 557T484 588T410 598H309L270 416H446L426 317H249Z" />
<glyph unicode="&#xd1;" glyph-name="Ntilde" horiz-adv-x="737" d="M612 0H444L260 551L143 0H16L169 717H340L522 172L638 717H765L612 0ZM281 771Q278 805 286 834T313 883T357 915T414 927Q439 927 458 921T493 906T524 891T557 884Q577 884 589 895T604 933H689Q690
858 657 818T564 777Q538 777 519 783T483 798T450 813T416 820Q396 820 382 809T366 771H281V771Z" />
<glyph unicode="&#xd2;" glyph-name="Ograve" horiz-adv-x="755" d="M370 -10Q299 -10 241 13T140 80T75 184T51 323Q51 408 79 482T157 610T275 695T426 726Q497 726 556 703T657 636T722 532T746 394Q746 308 718 235T640 107T521 21T370 -10ZM201 325Q201 269
214 229T252 161T308 121T380 108Q430 108 470 130T538 191T581 281T596 391Q596 446 583 487T545 555T489 595T418 608Q368 608 328 586T259 525T216 435T201 325ZM425 777L275 913H448L542 777H425Z" />
<glyph unicode="&#xd3;" glyph-name="Oacute" horiz-adv-x="755" d="M370 -10Q299 -10 241 13T140 80T75 184T51 323Q51 408 79 482T157 610T275 695T426 726Q497 726 556 703T657 636T722 532T746 394Q746 308 718 235T640 107T521 21T370 -10ZM201 325Q201 269
214 229T252 161T308 121T380 108Q430 108 470 130T538 191T581 281T596 391Q596 446 583 487T545 555T489 595T418 608Q368 608 328 586T259 525T216 435T201 325ZM449 913H621L465 777H347L449 913Z" />
<glyph unicode="&#xd4;" glyph-name="Ocircumflex" horiz-adv-x="755" d="M370 -10Q299 -10 241 13T140 80T75 184T51 323Q51 408 79 482T157 610T275 695T426 726Q497 726 556 703T657 636T722 532T746 394Q746 308 718 235T640 107T521 21T370 -10ZM201 325Q201
269 214 229T252 161T308 121T380 108Q430 108 470 130T538 191T581 281T596 391Q596 446 583 487T545 555T489 595T418 608Q368 608 328 586T259 525T216 435T201 325ZM455 849L367 774H257L396 922H538L614 774H510L455 849Z" />
<glyph unicode="&#xd5;" glyph-name="Otilde" horiz-adv-x="755" d="M370 -10Q299 -10 241 13T140 80T75 184T51 323Q51 408 79 482T157 610T275 695T426 726Q497 726 556 703T657 636T722 532T746 394Q746 308 718 235T640 107T521 21T370 -10ZM201 325Q201 269
214 229T252 161T308 121T380 108Q430 108 470 130T538 191T581 281T596 391Q596 446 583 487T545 555T489 595T418 608Q368 608 328 586T259 525T216 435T201 325ZM253 771Q250 805 258 834T285 883T329 915T386 927Q411 927 430 921T465 906T496 891T529 884Q549
884 561 895T576 933H661Q662 858 629 818T536 777Q510 777 491 783T455 798T422 813T388 820Q368 820 354 809T338 771H253V771Z" />
<glyph unicode="&#xd6;" glyph-name="Odieresis" horiz-adv-x="755" d="M370 -10Q299 -10 241 13T140 80T75 184T51 323Q51 408 79 482T157 610T275 695T426 726Q497 726 556 703T657 636T722 532T746 394Q746 308 718 235T640 107T521 21T370 -10ZM201 325Q201
269 214 229T252 161T308 121T380 108Q430 108 470 130T538 191T581 281T596 391Q596 446 583 487T545 555T489 595T418 608Q368 608 328 586T259 525T216 435T201 325ZM333 776Q298 776 274 799T250 857Q250 892 274 915T333 939Q370 939 394 916T419 857Q419
823 395 800T333 776ZM576 776Q541 776 517 799T492 857Q492 892 516 915T576 939Q594 939 609 933T636 915T654 889T661 857Q661 840 655 826T637 800T610 783T576 776Z" />
<glyph unicode="&#xd7;" glyph-name="multiply" horiz-adv-x="550" d="M679 82L544 255L350 82L279 170L475 343L333 525L425 596L562 422L760 597L830 511L632 333L772 155L679 82Z" />
<glyph unicode="&#xd8;" glyph-name="Oslash" horiz-adv-x="754" d="M369 -10Q298 -10 239 13Q231 17 223 20L161 -70H49L147 72L139 80Q97 123 74 184T50 323Q50 408 78 482T156 610T274 695T425 726Q496 726 555 702Q565 698 575 693L639 786H750L650 641Q653
639 656 636Q698 593 721 532T745 394Q745 308 717 235T639 107T520 21T369 -10ZM200 325Q200 269 213 228Q220 208 229 191L502 588Q495 592 487 595Q455 608 417 608Q367 608 327 586T258 525T215 435T200 325ZM307 121Q340 108 379 108Q429 108 469 130T537
191T580 281T595 391Q595 446 581 487Q575 505 567 521L295 126L307 121Z" />
<glyph unicode="&#xd9;" glyph-name="Ugrave" horiz-adv-x="680" d="M156 717H298L206 288Q196 241 202 207T226 151T272 119T335 108Q406 108 446 149T506 280L599 717H726L628 261Q600 129 528 60T326 -10Q263 -10 208 8T116 64T65 163T68 310L156 717ZM395
777L245 913H418L512 777H395Z" />
<glyph unicode="&#xda;" glyph-name="Uacute" horiz-adv-x="680" d="M156 717H298L206 288Q196 241 202 207T226 151T272 119T335 108Q406 108 446 149T506 280L599 717H726L628 261Q600 129 528 60T326 -10Q263 -10 208 8T116 64T65 163T68 310L156 717ZM495
913H667L511 777H393L495 913Z" />
<glyph unicode="&#xdb;" glyph-name="Ucircumflex" horiz-adv-x="680" d="M156 717H298L206 288Q196 241 202 207T226 151T272 119T335 108Q406 108 446 149T506 280L599 717H726L628 261Q600 129 528 60T326 -10Q263 -10 208 8T116 64T65 163T68 310L156 717ZM467
849L379 774H269L408 922H550L626 774H522L467 849Z" />
<glyph unicode="&#xdc;" glyph-name="Udieresis" horiz-adv-x="680" d="M156 717H298L206 288Q196 241 202 207T226 151T272 119T335 108Q406 108 446 149T506 280L599 717H726L628 261Q600 129 528 60T326 -10Q263 -10 208 8T116 64T65 163T68 310L156 717ZM331
776Q296 776 272 799T248 857Q248 892 272 915T331 939Q368 939 392 916T417 857Q417 823 393 800T331 776ZM574 776Q539 776 515 799T490 857Q490 892 514 915T574 939Q592 939 607 933T634 915T652 889T659 857Q659 840 653 826T635 800T608 783T574 776Z" />
<glyph unicode="&#xdd;" glyph-name="Yacute" horiz-adv-x="611" d="M387 292L325 0H181L245 304L102 717H251L345 422L564 717H707L387 292ZM443 913H615L459 777H341L443 913Z" />
<glyph unicode="&#xde;" glyph-name="Thorn" horiz-adv-x="623" d="M187 128L160 0H16L169 717H313L287 594H370Q490 594 559 541T628 379Q628 320 605 274T542 195T445 145T320 128H187ZM262 478L212 242H343Q410 242 444 278T480 373Q480 433 446 455T354 478H262Z" />
<glyph unicode="&#xdf;" glyph-name="germandbls" horiz-adv-x="617" d="M570 152Q570 110 553 80T508 29T441 0T360 -10Q309 -10 277 1T224 28L246 131Q262 117 287 107T348 96Q393 96 411 112T430 151Q430 178 409 193T361 224T314 262T292 327Q292 357 303
379T332 417T370 448T408 477T437 510T449 553Q449 588 429 604T373 620Q322 620 291 584T245 476L143 0H5L106 476Q130 593 196 659T382 726Q479 726 534 682T590 562Q590 527 579 502T550 457T513 422T475 394T447 368T435 339Q435 325 445 315T470 295T502 274T535
247T560 208T570 152Z" />
<glyph unicode="&#xe0;" glyph-name="agrave" horiz-adv-x="542" d="M309 0Q309 13 310 34T315 77Q304 61 290 46T256 18T212 -2T159 -10Q129 -10 102 -2T54 24T21 69T8 133Q8 222 77 266T278 311H362Q368 345 363 366T344 399T309 415T261 420Q219 420 175 412T93
386L116 495Q153 512 197 520T289 529Q341 529 385 517T459 478T500 405T496 294L451 84Q448 67 444 41T439 0H309ZM217 89Q246 89 267 101T303 131T326 166T337 195L345 231H265Q205 231 178 210T150 151Q150 118 169 104T217 89ZM547 588L416 746H564L646 588H547Z"
/>
<glyph unicode="&#xe1;" glyph-name="aacute" horiz-adv-x="542" d="M309 0Q309 13 310 34T315 77Q304 61 290 46T256 18T212 -2T159 -10Q129 -10 102 -2T54 24T21 69T8 133Q8 222 77 266T278 311H362Q368 345 363 366T344 399T309 415T261 420Q219 420 175 412T93
386L116 495Q153 512 197 520T289 529Q341 529 385 517T459 478T500 405T496 294L451 84Q448 67 444 41T439 0H309ZM217 89Q246 89 267 101T303 131T326 166T337 195L345 231H265Q205 231 178 210T150 151Q150 118 169 104T217 89ZM371 746H519L361 588H259L371
746Z" />
<glyph unicode="&#xe2;" glyph-name="acircumflex" horiz-adv-x="542" d="M309 0Q309 13 310 34T315 77Q304 61 290 46T256 18T212 -2T159 -10Q129 -10 102 -2T54 24T21 69T8 133Q8 222 77 266T278 311H362Q368 345 363 366T344 399T309 415T261 420Q219 420 175
412T93 386L116 495Q153 512 197 520T289 529Q341 529 385 517T459 478T500 405T496 294L451 84Q448 67 444 41T439 0H309ZM217 89Q246 89 267 101T303 131T326 166T337 195L345 231H265Q205 231 178 210T150 151Q150 118 169 104T217 89ZM342 661L260 588H153L284
736H425L494 588H389L342 661Z" />
<glyph unicode="&#xe3;" glyph-name="atilde" horiz-adv-x="542" d="M309 0Q309 13 310 34T315 77Q304 61 290 46T256 18T212 -2T159 -10Q129 -10 102 -2T54 24T21 69T8 133Q8 222 77 266T278 311H362Q368 345 363 366T344 399T309 415T261 420Q219 420 175 412T93
386L116 495Q153 512 197 520T289 529Q341 529 385 517T459 478T500 405T496 294L451 84Q448 67 444 41T439 0H309ZM217 89Q246 89 267 101T303 131T326 166T337 195L345 231H265Q205 231 178 210T150 151Q150 118 169 104T217 89ZM150 587Q151 614 158 639T180
684T218 716T274 728Q297 728 314 722T345 707T372 693T400 686Q417 686 426 696T440 734H515Q514 707 508 682T487 636T450 604T395 592Q372 592 356 598T325 613T297 627T268 634Q251 634 241 625T225 587H150V587Z" />
<glyph unicode="&#xe4;" glyph-name="adieresis" horiz-adv-x="542" d="M309 0Q309 13 310 34T315 77Q304 61 290 46T256 18T212 -2T159 -10Q129 -10 102 -2T54 24T21 69T8 133Q8 222 77 266T278 311H362Q368 345 363 366T344 399T309 415T261 420Q219 420 175
412T93 386L116 495Q153 512 197 520T289 529Q341 529 385 517T459 478T500 405T496 294L451 84Q448 67 444 41T439 0H309ZM217 89Q246 89 267 101T303 131T326 166T337 195L345 231H265Q205 231 178 210T150 151Q150 118 169 104T217 89ZM214 577Q178 577 154
601T130 659Q130 693 154 716T214 740Q249 740 273 717T298 659Q298 642 292 627T274 601T247 584T214 577ZM442 577Q407 577 383 601T359 659Q359 693 383 716T442 740Q478 740 502 717T527 659Q527 625 503 601T442 577Z" />
<glyph unicode="&#xe5;" glyph-name="aring" horiz-adv-x="541" d="M309 0Q309 13 310 34T315 77Q304 61 290 46T256 18T212 -2T159 -10Q129 -10 102 -2T54 24T21 69T8 133Q8 222 77 266T278 311H362Q368 345 363 366T344 399T309 415T261 420Q219 420 175 412T93
386L116 495Q153 512 197 520T289 529Q341 529 385 517T459 478T500 405T496 294L451 84Q448 67 444 41T439 0H309ZM217 89Q246 89 267 101T303 131T326 166T337 195L345 231H265Q205 231 178 210T150 151Q150 118 169 104T217 89ZM352 569Q325 569 302 578T263
603T237 642T227 692Q227 720 237 743T264 784T306 811T358 821Q385 821 408 812T448 787T474 748T484 698Q484 670 474 647T445 606T403 579T352 569ZM354 645Q376 645 390 659T404 696Q404 718 392 732T356 746Q334 746 320 732T306 694Q306 672 319 659T354
645Z" />
<glyph unicode="&#xe6;" glyph-name="ae" horiz-adv-x="884" d="M783 19Q760 9 723 0T631 -10Q547 -10 487 19T394 105Q380 84 362 63T318 26T259 0T182 -10Q144 -10 113 -2T58 24T21 69T8 133Q8 222 77 266T278 311H362Q368 345 363 366T344 399T309 415T261
420Q219 420 175 412T93 386L116 495Q153 512 197 520T289 529Q346 529 391 514T463 460Q498 492 543 510T642 529Q695 529 742 511T818 455T854 360T834 225H494Q499 159 540 130T653 100Q700 100 738 109T806 129L783 19ZM636 420Q585 420 552 392T504 317H724Q731
372 705 396T636 420ZM217 89Q246 89 267 101T303 131T325 165T337 194L345 231H265Q205 231 178 210T150 151Q150 118 169 104T217 89Z" />
<glyph unicode="&#xe7;" glyph-name="ccedilla" horiz-adv-x="506" d="M294 -10Q238 -10 190 6T107 53T51 131T31 239Q31 301 53 354T115 446T211 507T335 529Q391 529 430 517T492 487L468 383Q441 400 412 409T346 419Q303 419 271 406T217 370T185 316T174
247Q174 205 186 177T220 132T269 108T327 100Q388 100 440 126L415 14Q392 3 362 -3T294 -10ZM319 20L217 -187H77L214 20H319Z" />
<glyph unicode="&#xe8;" glyph-name="egrave" horiz-adv-x="565" d="M459 19Q436 9 400 0T307 -10Q244 -10 193 5T106 51T51 128T31 234Q31 296 52 350T111 443T202 506T321 529Q375 529 422 511T498 454T535 358T515 222H171Q178 157 218 129T329 100Q377 100
415 109T483 129L459 19ZM312 427Q260 427 227 396T180 317H405Q409 347 403 367T384 401T353 421T312 427ZM560 588L429 746H577L659 588H560Z" />
<glyph unicode="&#xe9;" glyph-name="eacute" horiz-adv-x="565" d="M459 19Q436 9 400 0T307 -10Q244 -10 193 5T106 51T51 128T31 234Q31 296 52 350T111 443T202 506T321 529Q375 529 422 511T498 454T535 358T515 222H171Q178 157 218 129T329 100Q377 100
415 109T483 129L459 19ZM312 427Q260 427 227 396T180 317H405Q409 347 403 367T384 401T353 421T312 427ZM351 746H499L341 588H239L351 746Z" />
<glyph unicode="&#xea;" glyph-name="ecircumflex" horiz-adv-x="565" d="M459 19Q436 9 400 0T307 -10Q244 -10 193 5T106 51T51 128T31 234Q31 296 52 350T111 443T202 506T321 529Q375 529 422 511T498 454T535 358T515 222H171Q178 157 218 129T329 100Q377
100 415 109T483 129L459 19ZM312 427Q260 427 227 396T180 317H405Q409 347 403 367T384 401T353 421T312 427ZM355 661L273 588H166L297 736H438L507 588H402L355 661Z" />
<glyph unicode="&#xeb;" glyph-name="edieresis" horiz-adv-x="565" d="M459 19Q436 9 400 0T307 -10Q244 -10 193 5T106 51T51 128T31 234Q31 296 52 350T111 443T202 506T321 529Q375 529 422 511T498 454T535 358T515 222H171Q178 157 218 129T329 100Q377
100 415 109T483 129L459 19ZM312 427Q260 427 227 396T180 317H405Q409 347 403 367T384 401T353 421T312 427ZM225 577Q189 577 165 601T141 659Q141 693 165 716T225 740Q260 740 284 717T309 659Q309 642 303 627T285 601T258 584T225 577ZM453 577Q418 577
394 601T370 659Q370 693 394 716T453 740Q489 740 513 717T538 659Q538 625 514 601T453 577Z" />
<glyph unicode="&#xec;" glyph-name="igrave" horiz-adv-x="258" d="M256 519L145 0H7L118 519H256ZM158 588L27 746H175L257 588H158Z" />
<glyph unicode="&#xed;" glyph-name="iacute" horiz-adv-x="258" d="M256 519L145 0H7L118 519H256ZM499 746H647L489 588H387L499 746Z" />
<glyph unicode="&#xee;" glyph-name="icircumflex" horiz-adv-x="258" d="M256 519L145 0H7L118 519H256ZM468 661L386 588H279L410 736H551L620 588H515L468 661Z" />
<glyph unicode="&#xef;" glyph-name="idieresis" horiz-adv-x="258" d="M256 519L145 0H7L118 519H256ZM334 577Q298 577 274 601T250 659Q250 693 274 716T334 740Q369 740 393 717T418 659Q418 642 412 627T394 601T367 584T334 577ZM562 577Q527 577 503 601T479
659Q479 693 503 716T562 740Q598 740 622 717T647 659Q647 625 623 601T562 577Z" />
<glyph unicode="&#xf0;" glyph-name="eth" horiz-adv-x="596" d="M571 355Q571 269 548 202T483 87T387 15T268 -10Q220 -10 177 4T102 49T50 125T31 235Q31 304 52 357T107 446T187 501T283 520Q328 520 362 506T420 459Q399 538 350 591L193 535L172 597L293
640Q264 661 228 677T150 708L151 717H360Q390 703 417 684L534 726L555 664L472 634Q518 583 544 513T571 355ZM284 98Q318 98 345 114T390 160T418 232T428 327Q428 339 428 347T426 365Q411 391 381 404T316 417Q279 417 252 403T207 365T181 309T172 241Q172
201 182 174T207 130T243 106T284 98Z" />
<glyph unicode="&#xf1;" glyph-name="ntilde" horiz-adv-x="591" d="M340 420Q296 420 268 401T221 358L144 0H6L117 519H247L235 441H237Q266 479 307 504T404 529Q442 529 474 516T527 477T555 411T551 317L483 0H344L413 317Q419 347 416 367T402 398T375 415T340
420ZM185 587Q186 614 193 639T215 684T253 716T309 728Q332 728 349 722T380 707T407 693T435 686Q452 686 461 696T475 734H550Q549 707 543 682T522 636T485 604T430 592Q407 592 391 598T360 613T332 627T303 634Q286 634 276 625T260 587H185V587Z" />
<glyph unicode="&#xf2;" glyph-name="ograve" horiz-adv-x="593" d="M281 -10Q228 -10 183 6T103 54T50 131T31 234Q31 291 50 344T106 439T196 504T315 529Q368 529 413 513T493 465T546 388T565 284Q565 227 546 174T490 80T400 15T281 -10ZM174 235Q174 164
205 132T284 100Q318 100 344 115T387 156T414 215T423 283Q423 354 391 386T313 419Q278 419 252 404T209 363T183 304T174 235ZM566 588L435 746H583L665 588H566Z" />
<glyph unicode="&#xf3;" glyph-name="oacute" horiz-adv-x="593" d="M281 -10Q228 -10 183 6T103 54T50 131T31 234Q31 291 50 344T106 439T196 504T315 529Q368 529 413 513T493 465T546 388T565 284Q565 227 546 174T490 80T400 15T281 -10ZM174 235Q174 164
205 132T284 100Q318 100 344 115T387 156T414 215T423 283Q423 354 391 386T313 419Q278 419 252 404T209 363T183 304T174 235ZM359 746H507L349 588H247L359 746Z" />
<glyph unicode="&#xf4;" glyph-name="ocircumflex" horiz-adv-x="593" d="M281 -10Q228 -10 183 6T103 54T50 131T31 234Q31 291 50 344T106 439T196 504T315 529Q368 529 413 513T493 465T546 388T565 284Q565 227 546 174T490 80T400 15T281 -10ZM174 235Q174
164 205 132T284 100Q318 100 344 115T387 156T414 215T423 283Q423 354 391 386T313 419Q278 419 252 404T209 363T183 304T174 235ZM360 661L278 588H171L302 736H443L512 588H407L360 661Z" />
<glyph unicode="&#xf5;" glyph-name="otilde" horiz-adv-x="593" d="M281 -10Q228 -10 183 6T103 54T50 131T31 234Q31 291 50 344T106 439T196 504T315 529Q368 529 413 513T493 465T546 388T565 284Q565 227 546 174T490 80T400 15T281 -10ZM174 235Q174 164
205 132T284 100Q318 100 344 115T387 156T414 215T423 283Q423 354 391 386T313 419Q278 419 252 404T209 363T183 304T174 235ZM163 587Q164 614 171 639T193 684T231 716T287 728Q310 728 327 722T358 707T385 693T413 686Q430 686 439 696T453 734H528Q527
707 521 682T500 636T463 604T408 592Q385 592 369 598T338 613T310 627T281 634Q264 634 254 625T238 587H163V587Z" />
<glyph unicode="&#xf6;" glyph-name="odieresis" horiz-adv-x="593" d="M281 -10Q228 -10 183 6T103 54T50 131T31 234Q31 291 50 344T106 439T196 504T315 529Q368 529 413 513T493 465T546 388T565 284Q565 227 546 174T490 80T400 15T281 -10ZM174 235Q174
164 205 132T284 100Q318 100 344 115T387 156T414 215T423 283Q423 354 391 386T313 419Q278 419 252 404T209 363T183 304T174 235ZM221 577Q185 577 161 601T137 659Q137 693 161 716T221 740Q256 740 280 717T305 659Q305 642 299 627T281 601T254 584T221
577ZM449 577Q414 577 390 601T366 659Q366 693 390 716T449 740Q485 740 509 717T534 659Q534 625 510 601T449 577Z" />
<glyph unicode="&#xf7;" glyph-name="divide" horiz-adv-x="550" d="M574 460Q555 460 539 467T510 487T492 516T485 552Q485 571 491 587T510 616T538 636T574 643Q611 643 637 617T663 552Q663 533 656 517T637 488T609 468T574 460ZM284 287L306 387H798L777
287H284ZM505 31Q467 31 442 58T416 123Q416 161 441 187T505 214Q543 214 569 188T595 123Q595 85 569 58T505 31Z" />
<glyph unicode="&#xf8;" glyph-name="oslash" horiz-adv-x="593" d="M281 -10Q234 -10 190 4L139 -80H43L117 42Q77 74 54 122T31 234Q31 291 50 344T106 439T196 504T315 529Q362 529 406 515L457 599H554L479 476Q519 444 542 396T565 284Q565 227 546 174T490
80T400 15T281 -10ZM174 235Q174 189 188 158L345 415Q332 419 313 419Q278 419 252 404T209 363T183 304T174 235ZM423 283Q423 330 408 360L252 104Q265 100 284 100Q318 100 344 115T387 156T414 215T423 283Z" />
<glyph unicode="&#xf9;" glyph-name="ugrave" horiz-adv-x="584" d="M256 100Q294 100 320 117T367 161L443 519H582L470 0H342L352 78H349Q321 41 282 16T186 -10Q149 -10 118 3T68 42T42 109T46 204L112 519H251L186 210Q174 152 194 126T256 100ZM556 588L425
746H573L655 588H556Z" />
<glyph unicode="&#xfa;" glyph-name="uacute" horiz-adv-x="584" d="M256 100Q294 100 320 117T367 161L443 519H582L470 0H342L352 78H349Q321 41 282 16T186 -10Q149 -10 118 3T68 42T42 109T46 204L112 519H251L186 210Q174 152 194 126T256 100ZM403 746H551L393
588H291L403 746Z" />
<glyph unicode="&#xfb;" glyph-name="ucircumflex" horiz-adv-x="584" d="M256 100Q294 100 320 117T367 161L443 519H582L470 0H342L352 78H349Q321 41 282 16T186 -10Q149 -10 118 3T68 42T42 109T46 204L112 519H251L186 210Q174 152 194 126T256 100ZM373
661L291 588H184L315 736H456L525 588H420L373 661Z" />
<glyph unicode="&#xfc;" glyph-name="udieresis" horiz-adv-x="584" d="M256 100Q294 100 320 117T367 161L443 519H582L470 0H342L352 78H349Q321 41 282 16T186 -10Q149 -10 118 3T68 42T42 109T46 204L112 519H251L186 210Q174 152 194 126T256 100ZM252 577Q216
577 192 601T168 659Q168 693 192 716T252 740Q287 740 311 717T336 659Q336 642 330 627T312 601T285 584T252 577ZM480 577Q445 577 421 601T397 659Q397 693 421 716T480 740Q516 740 540 717T565 659Q565 625 541 601T480 577Z" />
<glyph unicode="&#xfd;" glyph-name="yacute" horiz-adv-x="549" d="M296 -17Q248 -103 189 -145T40 -187Q13 -187 -12 -184T-55 -172L-29 -62Q6 -78 51 -78Q85 -78 110 -66T156 -31L67 519H207L256 138L458 519H589L296 -17V-17ZM387 746H535L377 588H275L387 746Z" />
<glyph unicode="&#xfe;" glyph-name="thorn" horiz-adv-x="621" d="M333 -10Q269 -10 227 20T164 100L105 -177H-33L158 717H295L240 459Q270 491 309 510T397 529Q439 529 475 515T537 474T578 404T593 304Q593 233 572 175T515 76T432 13T333 -10ZM306 100Q339
100 365 114T410 154T438 213T448 289Q448 358 418 389T341 420Q305 420 278 405T233 363T206 304T197 233Q197 166 227 133T306 100Z" />
<glyph unicode="&#xff;" glyph-name="ydieresis" horiz-adv-x="549" d="M296 -17Q248 -103 189 -145T40 -187Q13 -187 -12 -184T-55 -172L-29 -62Q6 -78 51 -78Q85 -78 110 -66T156 -31L67 519H207L256 138L458 519H589L296 -17V-17ZM225 577Q189 577 165 601T141
659Q141 693 165 716T225 740Q260 740 284 717T309 659Q309 642 303 627T285 601T258 584T225 577ZM453 577Q418 577 394 601T370 659Q370 693 394 716T453 740Q489 740 513 717T538 659Q538 625 514 601T453 577Z" />
<glyph unicode="&#x100;" glyph-name="Amacron" horiz-adv-x="700" d="M361 717H534L633 0H491L468 174H188L90 0H-43L361 717ZM452 292L414 577L254 292H452ZM288 896H648L627 796H268L288 896Z" />
<glyph unicode="&#x101;" glyph-name="amacron" horiz-adv-x="542" d="M309 0Q309 13 310 34T315 77Q304 61 290 46T256 18T212 -2T159 -10Q129 -10 102 -2T54 24T21 69T8 133Q8 222 77 266T278 311H362Q368 345 363 366T344 399T309 415T261 420Q219 420 175
412T93 386L116 495Q153 512 197 520T289 529Q341 529 385 517T459 478T500 405T496 294L451 84Q448 67 444 41T439 0H309ZM217 89Q246 89 267 101T303 131T326 166T337 195L345 231H265Q205 231 178 210T150 151Q150 118 169 104T217 89ZM197 694H522L501 599H176L197
694Z" />
<glyph unicode="&#x102;" glyph-name="Abreve" horiz-adv-x="700" d="M361 717H534L633 0H491L468 174H188L90 0H-43L361 717ZM452 292L414 577L254 292H452ZM459 765Q415 765 384 778T333 813T306 864T305 927H412Q408 898 422 879T469 860Q501 860 520 878T544
927H650Q645 894 631 865T594 814T538 778T459 765Z" />
<glyph unicode="&#x103;" glyph-name="abreve" horiz-adv-x="542" d="M309 0Q309 13 310 34T315 77Q304 61 290 46T256 18T212 -2T159 -10Q129 -10 102 -2T54 24T21 69T8 133Q8 222 77 266T278 311H362Q368 345 363 366T344 399T309 415T261 420Q219 420 175 412T93
386L116 495Q153 512 197 520T289 529Q341 529 385 517T459 478T500 405T496 294L451 84Q448 67 444 41T439 0H309ZM217 89Q246 89 267 101T303 131T326 166T337 195L345 231H265Q205 231 178 210T150 151Q150 118 169 104T217 89ZM335 577Q292 577 261 589T211
623T186 672T187 731H287Q283 702 297 686T342 669Q403 669 412 731H514Q511 700 499 672T464 623T410 590T335 577Z" />
<glyph unicode="&#x104;" glyph-name="Aogonek" horiz-adv-x="700" d="M361 717H534L633 0Q590 -8 565 -26T539 -73Q539 -92 550 -101T580 -110Q589 -110 597 -108T610 -102L595 -177Q587 -181 569 -185T527 -189Q475 -189 448 -165T420 -99Q420 -61 440 -35T490
6L468 174H188L90 0H-43L361 717ZM452 292L414 577L254 292H452Z" />
<glyph unicode="&#x105;" glyph-name="aogonek" horiz-adv-x="541" d="M403 -177Q395 -181 377 -185T335 -189Q283 -189 256 -166T229 -107Q229 -65 253 -38T309 3Q309 17 310 37T315 77Q304 61 290 46T256 18T212 -2T159 -10Q129 -10 102 -2T54 24T21 69T8 133Q8
222 77 266T278 311H362Q368 345 363 366T344 399T309 415T261 420Q219 420 175 412T93 386L116 495Q153 512 197 520T289 529Q341 529 385 517T459 478T500 405T496 294L451 84Q448 67 444 41T439 0Q398 -10 373 -27T348 -73Q348 -92 359 -101T389 -110Q397 -110
405 -108T419 -102L403 -177ZM217 89Q246 89 267 101T303 131T326 166T337 195L345 231H265Q205 231 178 210T150 151Q150 118 169 104T217 89Z" />
<glyph unicode="&#x106;" glyph-name="Cacute" horiz-adv-x="654" d="M392 -10Q321 -10 259 11T151 74T78 177T51 318Q51 394 77 467T156 598T288 691T473 726Q544 726 593 712T667 681L641 563Q614 582 570 595T470 608Q397 608 346 584T263 519T216 429T201
327Q201 214 259 161T416 108Q459 108 507 118T593 151L568 32Q539 12 493 1T392 -10ZM500 913H672L516 777H398L500 913Z" />
<glyph unicode="&#x107;" glyph-name="cacute" horiz-adv-x="506" d="M294 -10Q238 -10 190 6T107 53T51 131T31 239Q31 301 53 354T115 446T211 507T335 529Q391 529 430 517T492 487L468 383Q441 400 412 409T346 419Q303 419 271 406T217 370T185 316T174 247Q174
205 186 177T220 132T269 108T327 100Q388 100 440 126L415 14Q392 3 362 -3T294 -10ZM392 746H540L382 588H280L392 746Z" />
<glyph unicode="&#x108;" glyph-name="Ccircumflex" horiz-adv-x="654" d="M392 -10Q321 -10 259 11T151 74T78 177T51 318Q51 394 77 467T156 598T288 691T473 726Q544 726 593 712T667 681L641 563Q614 582 570 595T470 608Q397 608 346 584T263 519T216 429T201
327Q201 214 259 161T416 108Q459 108 507 118T593 151L568 32Q539 12 493 1T392 -10ZM480 849L392 774H282L421 922H563L639 774H535L480 849Z" />
<glyph unicode="&#x109;" glyph-name="ccircumflex" horiz-adv-x="506" d="M294 -10Q238 -10 190 6T107 53T51 131T31 239Q31 301 53 354T115 446T211 507T335 529Q391 529 430 517T492 487L468 383Q441 400 412 409T346 419Q303 419 271 406T217 370T185 316T174
247Q174 205 186 177T220 132T269 108T327 100Q388 100 440 126L415 14Q392 3 362 -3T294 -10ZM345 661L263 588H156L287 736H428L497 588H392L345 661Z" />
<glyph unicode="&#x10a;" glyph-name="Cdotaccent" horiz-adv-x="650" d="M392 -10Q321 -10 259 11T151 74T78 177T51 318Q51 394 77 467T156 598T288 691T473 726Q544 726 593 712T667 681L641 563Q614 582 570 595T470 608Q397 608 346 584T263 519T216 429T201
327Q201 214 259 161T416 108Q459 108 507 118T593 151L568 32Q539 12 493 1T392 -10ZM461 776Q426 776 402 799T377 857Q377 892 401 915T461 939Q497 939 522 916T547 857Q547 823 522 800T461 776Z" />
<glyph unicode="&#x10b;" glyph-name="cdotaccent" horiz-adv-x="506" d="M294 -10Q238 -10 190 6T107 53T51 131T31 239Q31 301 53 354T115 446T211 507T335 529Q391 529 430 517T492 487L468 383Q441 400 412 409T346 419Q303 419 271 406T217 370T185 316T174
247Q174 205 186 177T220 132T269 108T327 100Q388 100 440 126L415 14Q392 3 362 -3T294 -10ZM339 577Q304 577 280 601T255 659Q255 693 279 716T339 740Q357 740 372 734T399 716T417 691T424 659Q424 642 418 627T400 601T373 584T339 577Z" />
<glyph unicode="&#x10c;" glyph-name="Ccaron" horiz-adv-x="654" d="M392 -10Q321 -10 259 11T151 74T78 177T51 318Q51 394 77 467T156 598T288 691T473 726Q544 726 593 712T667 681L641 563Q614 582 570 595T470 608Q397 608 346 584T263 519T216 429T201
327Q201 214 259 161T416 108Q459 108 507 118T593 151L568 32Q539 12 493 1T392 -10ZM542 774H400L323 922H427L484 848L570 922H680L542 774Z" />
<glyph unicode="&#x10d;" glyph-name="ccaron" horiz-adv-x="506" d="M294 -10Q238 -10 190 6T107 53T51 131T31 239Q31 301 53 354T115 446T211 507T335 529Q391 529 430 517T492 487L468 383Q441 400 412 409T346 419Q303 419 271 406T217 370T185 316T174 247Q174
205 186 177T220 132T269 108T327 100Q388 100 440 126L415 14Q392 3 362 -3T294 -10ZM406 588H265L196 736H300L349 664L429 736H537L406 588Z" />
<glyph unicode="&#x10e;" glyph-name="Dcaron" horiz-adv-x="729" d="M169 717H402Q469 717 526 700T626 647T691 553T715 416Q715 333 688 258T607 125T474 34T291 0H16L169 717ZM288 598L185 118H306Q366 118 414 139T495 199T547 291T565 409Q565 462 553 498T518
557T463 588T389 598H288ZM486 774H344L267 922H371L428 848L514 922H624L486 774Z" />
<glyph unicode="&#x10f;" glyph-name="dcaron" horiz-adv-x="621" d="M390 69Q360 33 320 12T229 -10Q190 -10 154 3T91 45T48 117T31 220Q31 286 51 343T107 441T191 505T297 529Q360 529 401 502T461 425L524 717H661L508 0H380L390 69ZM428 297Q428 358 398
388T320 419Q286 419 259 404T214 364T186 304T176 231Q176 195 185 170T209 129T244 106T287 99Q326 99 353 116T396 162T420 226T428 297ZM665 523L723 712H853L753 523H665Z" />
<glyph unicode="&#x110;" glyph-name="Dcroat" horiz-adv-x="745" d="M382 416L446 717H679Q746 717 803 700T902 647T967 553T991 416Q991 333 964 258T884 125T751 34T567 0H293L361 317H281L303 416H382ZM504 317L461 118H583Q643 118 690 139T771 199T823
291T841 409Q841 462 829 498T795 557T739 588T665 598H564L525 416H701L681 317H504Z" />
<glyph unicode="&#x111;" glyph-name="" horiz-adv-x="623" d="M390 69Q360 33 320 12T229 -10Q190 -10 154 3T91 45T48 117T31 220Q31 286 51 343T107 441T191 505T297 529Q360 529 401 502T461 425L492 569H345L363 652H510L524 717H661L647 652H714L696 569H629L508
0H380L390 69ZM428 297Q428 358 398 388T320 419Q286 419 259 404T214 364T186 304T176 231Q176 195 185 170T209 129T244 106T287 99Q326 99 353 116T396 162T420 226T428 297Z" />
<glyph unicode="&#x112;" glyph-name="Emacron" horiz-adv-x="588" d="M169 717H631L605 598H288L252 429H518L493 312H227L185 118H508L482 0H16L169 717ZM249 896H609L588 796H229L249 896Z" />
<glyph unicode="&#x113;" glyph-name="emacron" horiz-adv-x="565" d="M459 19Q436 9 400 0T307 -10Q244 -10 193 5T106 51T51 128T31 234Q31 296 52 350T111 443T202 506T321 529Q375 529 422 511T498 454T535 358T515 222H171Q178 157 218 129T329 100Q377 100
415 109T483 129L459 19ZM312 427Q260 427 227 396T180 317H405Q409 347 403 367T384 401T353 421T312 427ZM195 694H520L499 599H174L195 694Z" />
<glyph unicode="&#x114;" glyph-name="Ebreve" horiz-adv-x="588" d="M169 717H631L605 598H288L252 429H518L493 312H227L185 118H508L482 0H16L169 717ZM416 765Q372 765 341 778T290 813T263 864T262 927H369Q365 898 379 879T426 860Q458 860 477 878T501
927H607Q602 894 588 865T551 814T495 778T416 765Z" />
<glyph unicode="&#x115;" glyph-name="ebreve" horiz-adv-x="565" d="M459 19Q436 9 400 0T307 -10Q244 -10 193 5T106 51T51 128T31 234Q31 296 52 350T111 443T202 506T321 529Q375 529 422 511T498 454T535 358T515 222H171Q178 157 218 129T329 100Q377 100
415 109T483 129L459 19ZM312 427Q260 427 227 396T180 317H405Q409 347 403 367T384 401T353 421T312 427ZM342 577Q299 577 268 589T218 623T193 672T194 731H294Q290 702 304 686T349 669Q410 669 419 731H521Q518 700 506 672T471 623T417 590T342 577Z" />
<glyph unicode="&#x116;" glyph-name="Edotaccent" horiz-adv-x="588" d="M169 717H631L605 598H288L252 429H518L493 312H227L185 118H508L482 0H16L169 717ZM416 776Q381 776 357 799T332 857Q332 892 356 915T416 939Q452 939 477 916T502 857Q502 823 477
800T416 776Z" />
<glyph unicode="&#x117;" glyph-name="edotaccent" horiz-adv-x="565" d="M459 19Q436 9 400 0T307 -10Q244 -10 193 5T106 51T51 128T31 234Q31 296 52 350T111 443T202 506T321 529Q375 529 422 511T498 454T535 358T515 222H171Q178 157 218 129T329 100Q377
100 415 109T483 129L459 19ZM312 427Q260 427 227 396T180 317H405Q409 347 403 367T384 401T353 421T312 427ZM344 577Q309 577 285 601T260 659Q260 693 284 716T344 740Q362 740 377 734T404 716T422 691T429 659Q429 642 423 627T405 601T378 584T344 577Z"
/>
<glyph unicode="&#x118;" glyph-name="Eogonek" horiz-adv-x="588" d="M169 717H631L605 598H288L252 429H518L493 312H227L185 118H508L482 0H16L169 717ZM395 -189Q343 -189 316 -166T288 -107Q288 -85 298 -67T323 -36T357 -14T394 0H483Q451 -11 429 -28T407
-73Q407 -92 418 -101T448 -110Q457 -110 465 -108T478 -102L463 -177Q455 -181 437 -185T395 -189Z" />
<glyph unicode="&#x119;" glyph-name="eogonek" horiz-adv-x="565" d="M459 19Q436 9 400 0T307 -10Q244 -10 193 5T106 51T51 128T31 234Q31 296 52 350T111 443T202 506T321 529Q375 529 422 511T498 454T535 358T515 222H171Q178 157 218 129T329 100Q377 100
415 109T483 129L459 19ZM312 427Q260 427 227 396T180 317H405Q409 347 403 367T384 401T353 421T312 427ZM316 -189Q264 -189 237 -166T209 -107Q209 -85 219 -67T244 -36T278 -14T315 0H404Q372 -11 350 -28T328 -73Q328 -92 339 -101T369 -110Q378 -110 386
-108T399 -102L384 -177Q376 -181 358 -185T316 -189Z" />
<glyph unicode="&#x11a;" glyph-name="Ecaron" horiz-adv-x="588" d="M169 717H631L605 598H288L252 429H518L493 312H227L185 118H508L482 0H16L169 717ZM480 774H338L261 922H365L422 848L508 922H618L480 774Z" />
<glyph unicode="&#x11b;" glyph-name="ecaron" horiz-adv-x="565" d="M459 19Q436 9 400 0T307 -10Q244 -10 193 5T106 51T51 128T31 234Q31 296 52 350T111 443T202 506T321 529Q375 529 422 511T498 454T535 358T515 222H171Q178 157 218 129T329 100Q377 100
415 109T483 129L459 19ZM312 427Q260 427 227 396T180 317H405Q409 347 403 367T384 401T353 421T312 427ZM398 588H257L188 736H292L341 664L421 736H529L398 588Z" />
<glyph unicode="&#x11c;" glyph-name="Gcircumflex" horiz-adv-x="743" d="M729 307Q718 227 689 168T616 69T514 10T389 -10Q318 -10 256 12T149 76T77 179T51 320Q51 396 77 469T154 599T283 691T464 726Q510 726 547 719T614 702T665 678T700 653L674 534Q644
563 591 585T464 608Q392 608 342 584T260 520T215 430T201 328Q201 272 215 231T256 162T317 122T396 108Q470 108 517 147T580 271H367L394 389H740L729 307V307ZM462 849L374 774H264L403 922H545L621 774H517L462 849Z" />
<glyph unicode="&#x11d;" glyph-name="gcircumflex" horiz-adv-x="615" d="M519 100Q505 32 483 -20T423 -107T332 -160T202 -179Q160 -179 127 -174T69 -159T24 -139T-10 -117L14 -9Q42 -31 89 -50T202 -70Q239 -70 268 -62T318 -36T354 11T378 82Q352 55 316
39T232 22Q191 22 155 36T91 78T47 148T30 247Q31 308 51 360T106 449T189 508T292 529Q356 529 397 501T456 427L459 436Q461 445 464 456T470 479T477 501T484 519H614Q609 505 602 479T592 436L519 100ZM285 126Q321 126 346 142T388 185T411 242T420 305Q421
362 392 391T317 420Q284 420 258 406T214 369T187 315T177 249Q177 182 208 154T285 126ZM367 661L285 588H178L309 736H450L519 588H414L367 661Z" />
<glyph unicode="&#x11e;" glyph-name="Gbreve" horiz-adv-x="743" d="M729 307Q718 227 689 168T616 69T514 10T389 -10Q318 -10 256 12T149 76T77 179T51 320Q51 396 77 469T154 599T283 691T464 726Q510 726 547 719T614 702T665 678T700 653L674 534Q644 563
591 585T464 608Q392 608 342 584T260 520T215 430T201 328Q201 272 215 231T256 162T317 122T396 108Q470 108 517 147T580 271H367L394 389H740L729 307V307ZM471 765Q427 765 396 778T345 813T318 864T317 927H424Q420 898 434 879T481 860Q513 860 532 878T556
927H662Q657 894 643 865T606 814T550 778T471 765Z" />
<glyph unicode="&#x11f;" glyph-name="gbreve" horiz-adv-x="615" d="M519 100Q505 32 483 -20T423 -107T332 -160T202 -179Q160 -179 127 -174T69 -159T24 -139T-10 -117L14 -9Q42 -31 89 -50T202 -70Q239 -70 268 -62T318 -36T354 11T378 82Q352 55 316 39T232
22Q191 22 155 36T91 78T47 148T30 247Q31 308 51 360T106 449T189 508T292 529Q356 529 397 501T456 427L459 436Q461 445 464 456T470 479T477 501T484 519H614Q609 505 602 479T592 436L519 100ZM285 126Q321 126 346 142T388 185T411 242T420 305Q421 362 392
391T317 420Q284 420 258 406T214 369T187 315T177 249Q177 182 208 154T285 126ZM342 577Q299 577 268 589T218 623T193 672T194 731H294Q290 702 304 686T349 669Q410 669 419 731H521Q518 700 506 672T471 623T417 590T342 577Z" />
<glyph unicode="&#x120;" glyph-name="Gdotaccent" horiz-adv-x="743" d="M729 307Q718 227 689 168T616 69T514 10T389 -10Q318 -10 256 12T149 76T77 179T51 320Q51 396 77 469T154 599T283 691T464 726Q510 726 547 719T614 702T665 678T700 653L674 534Q644
563 591 585T464 608Q392 608 342 584T260 520T215 430T201 328Q201 272 215 231T256 162T317 122T396 108Q470 108 517 147T580 271H367L394 389H740L729 307V307ZM458 776Q423 776 399 799T374 857Q374 892 398 915T458 939Q494 939 519 916T544 857Q544 823
519 800T458 776Z" />
<glyph unicode="&#x121;" glyph-name="gdotaccent" horiz-adv-x="615" d="M519 100Q505 32 483 -20T423 -107T332 -160T202 -179Q160 -179 127 -174T69 -159T24 -139T-10 -117L14 -9Q42 -31 89 -50T202 -70Q239 -70 268 -62T318 -36T354 11T378 82Q352 55 316
39T232 22Q191 22 155 36T91 78T47 148T30 247Q31 308 51 360T106 449T189 508T292 529Q356 529 397 501T456 427L459 436Q461 445 464 456T470 479T477 501T484 519H614Q609 505 602 479T592 436L519 100ZM285 126Q321 126 346 142T388 185T411 242T420 305Q421
362 392 391T317 420Q284 420 258 406T214 369T187 315T177 249Q177 182 208 154T285 126ZM353 577Q318 577 294 601T269 659Q269 693 293 716T353 740Q371 740 386 734T413 716T431 691T438 659Q438 642 432 627T414 601T387 584T353 577Z" />
<glyph unicode="&#x122;" glyph-name="uni0122" horiz-adv-x="743" d="M729 307Q718 227 689 168T616 69T514 10T389 -10Q318 -10 256 12T149 76T77 179T51 320Q51 396 77 469T154 599T283 691T464 726Q510 726 547 719T614 702T665 678T700 653L674 534Q644 563
591 585T464 608Q392 608 342 584T260 520T215 430T201 328Q201 272 215 231T256 162T317 122T396 108Q470 108 517 147T580 271H367L394 389H740L729 307V307ZM432 -120Q432 -159 407 -190T352 -245H268Q291 -229 308 -213T337 -176Q316 -171 303 -154T289 -112Q289
-83 308 -64T359 -44Q389 -44 410 -63T432 -120Z" />
<glyph unicode="&#x123;" glyph-name="uni0123" horiz-adv-x="615" d="M519 100Q505 32 483 -20T423 -107T332 -160T202 -179Q160 -179 127 -174T69 -159T24 -139T-10 -117L14 -9Q42 -31 89 -50T202 -70Q239 -70 268 -62T318 -36T354 11T378 82Q352 55 316 39T232
22Q191 22 155 36T91 78T47 148T30 247Q31 308 51 360T106 449T189 508T292 529Q356 529 397 501T456 427L459 436Q461 445 464 456T470 479T477 501T484 519H614Q609 505 602 479T592 436L519 100ZM285 126Q321 126 346 142T388 185T411 242T420 305Q421 362 392
391T317 420Q284 420 258 406T214 369T187 315T177 249Q177 182 208 154T285 126ZM394 657Q394 628 375 609T324 589Q293 589 272 607T251 664Q251 704 275 735T330 789H414Q391 773 374 757T344 720Q366 715 380 699T394 657Z" />
<glyph unicode="&#x124;" glyph-name="Hcircumflex" horiz-adv-x="736" d="M531 298H224L160 0H16L169 717H313L249 416H556L621 717H763L611 0H467L531 298ZM489 849L401 774H291L430 922H572L648 774H544L489 849Z" />
<glyph unicode="&#x125;" glyph-name="hcircumflex" horiz-adv-x="591" d="M340 420Q296 420 268 401T221 358L144 0H6L162 725H299L258 530L235 441H237Q266 479 306 504T404 529Q442 529 474 516T527 477T555 411T551 317L483 0H344L413 317Q419 347 416 367T402
398T375 415T340 420ZM428 880L340 805H230L369 953H511L587 805H483L428 880Z" />
<glyph unicode="&#x126;" glyph-name="Hbar" horiz-adv-x="777" d="M545 298H238L174 0H30L138 507H42L65 609H160L183 717H327L304 609H611L635 717H777L754 609H847L825 507H732L625 0H481L545 298ZM570 416L589 507H282L263 416H570Z" />
<glyph unicode="&#x127;" glyph-name="hbar" horiz-adv-x="593" d="M342 420Q298 420 270 401T223 358L146 0H8L130 569H64L82 652H148L164 725H301L285 652H433L415 569H268L260 530L237 441H239Q268 479 308 504T406 529Q444 529 476 516T529 477T557 411T553
317L485 0H346L415 317Q421 347 418 367T404 398T377 415T342 420Z" />
<glyph unicode="&#x128;" glyph-name="Itilde" horiz-adv-x="286" d="M313 717L160 0H16L169 717H313ZM46 771Q43 805 51 834T78 883T122 915T179 927Q204 927 223 921T258 906T289 891T322 884Q342 884 354 895T369 933H454Q455 858 422 818T329 777Q303 777
284 783T248 798T215 813T181 820Q161 820 147 809T131 771H46V771Z" />
<glyph unicode="&#x129;" glyph-name="itilde" horiz-adv-x="258" d="M256 519L145 0H7L118 519H256ZM10 587Q11 614 18 639T40 684T78 716T134 728Q157 728 174 722T205 707T232 693T260 686Q277 686 286 696T300 734H375Q374 707 368 682T347 636T310 604T255
592Q232 592 216 598T185 613T157 627T128 634Q111 634 101 625T85 587H10V587Z" />
<glyph unicode="&#x12a;" glyph-name="Imacron" horiz-adv-x="286" d="M313 717L160 0H16L169 717H313ZM80 896H440L419 796H60L80 896Z" />
<glyph unicode="&#x12b;" glyph-name="imacron" horiz-adv-x="258" d="M256 519L145 0H7L118 519H256ZM306 949H631L610 854H285L306 949Z" />
<glyph unicode="&#x12c;" glyph-name="Ibreve" horiz-adv-x="286" d="M313 717L160 0H16L169 717H313ZM245 765Q201 765 170 778T119 813T92 864T91 927H198Q194 898 208 879T255 860Q287 860 306 878T330 927H436Q431 894 417 865T380 814T324 778T245 765Z" />
<glyph unicode="&#x12d;" glyph-name="ibreve" horiz-adv-x="258" d="M256 519L145 0H7L118 519H256ZM450 577Q407 577 376 589T326 623T301 672T302 731H402Q398 702 412 686T457 669Q518 669 527 731H629Q626 700 614 672T579 623T525 590T450 577Z" />
<glyph unicode="&#x12e;" glyph-name="Iogonek" horiz-adv-x="286" d="M119 -177Q111 -181 92 -185T50 -189Q-2 -189 -29 -166T-57 -102Q-57 -64 -38 -38T17 6L169 717H313L160 0Q115 -10 89 -27T63 -73Q63 -92 74 -101T104 -110Q113 -110 121 -108T134 -102L119
-177V-177Z" />
<glyph unicode="&#x12f;" glyph-name="iogonek" horiz-adv-x="258" d="M256 519L145 0Q99 -8 75 -26T50 -73Q50 -92 61 -101T91 -110Q100 -110 108 -108T121 -102L106 -177Q98 -181 80 -185T38 -189Q-15 -189 -42 -165T-69 -98Q-69 -74 -60 -55T-36 -21T-2 4Q3
7 9 9L118 519H256ZM212 574Q178 574 154 599T130 659Q130 677 136 692T154 719T180 737T212 744Q229 744 244 738T270 720T288 693T295 659Q295 624 271 599T212 574Z" />
<glyph unicode="&#x130;" glyph-name="Idot" horiz-adv-x="286" d="M313 717L160 0H16L169 717H313ZM256 776Q221 776 197 799T172 857Q172 892 196 915T256 939Q292 939 317 916T342 857Q342 823 317 800T256 776Z" />
<glyph unicode="&#x131;" glyph-name="dotlessi" horiz-adv-x="258" d="M256 519L145 0H7L118 519H256Z" />
<glyph unicode="&#x132;" glyph-name="IJ" horiz-adv-x="660" d="M313 717L160 0H16L169 717H313ZM697 717L585 196Q565 99 504 45T344 -10Q280 -10 234 13L258 127Q297 108 337 108Q388 108 412 135T448 214L556 717H697Z" />
<glyph unicode="&#x133;" glyph-name="ij" horiz-adv-x="513" d="M212 574Q178 574 154 599T130 659Q130 677 136 692T154 719T180 737T212 744Q229 744 244 738T270 720T288 693T295 659Q295 624 271 599T212 574ZM256 519L145 0H7L118 519H256ZM467 574Q433
574 409 599T384 659Q384 677 390 692T408 719T435 737T467 744Q484 744 499 738T525 720T543 693T550 659Q550 624 526 599T467 574ZM398 -9Q378 -96 325 -141T182 -187Q156 -187 131 -183T85 -166L107 -62Q121 -69 138 -73T177 -78Q220 -78 237 -56T263 9L373
519H511L398 -9Z" />
<glyph unicode="&#x134;" glyph-name="Jcircumflex" horiz-adv-x="403" d="M440 717L328 196Q308 99 247 45T87 -10Q23 -10 -23 13L1 127Q40 108 80 108Q131 108 155 135T191 214L299 717H440ZM644 849L556 774H446L585 922H727L803 774H699L644 849Z" />
<glyph unicode="&#x135;" glyph-name="jcircumflex" horiz-adv-x="272" d="M157 -9Q137 -96 84 -141T-59 -187Q-85 -187 -110 -183T-156 -166L-134 -62Q-120 -69 -103 -73T-64 -78Q-21 -78 -4 -56T22 9L132 519H270L157 -9ZM477 661L395 588H288L419 736H560L629
588H524L477 661Z" />
<glyph unicode="&#x136;" glyph-name="uni0136" horiz-adv-x="661" d="M294 295H223L160 0H16L169 717H313L248 412H326L587 717H743L421 342L593 0H442L294 295ZM355 -120Q355 -159 330 -190T275 -245H191Q214 -229 231 -213T260 -176Q239 -171 226 -154T212
-112Q212 -83 231 -64T282 -44Q312 -44 333 -63T355 -120Z" />
<glyph unicode="&#x137;" glyph-name="uni0137" horiz-adv-x="546" d="M238 204H188L144 0H6L160 717H298L211 312H258L440 519H590L358 256L488 0H341L238 204ZM298 -120Q298 -159 273 -190T218 -245H134Q157 -229 174 -213T203 -176Q182 -171 169 -154T155 -112Q155
-83 174 -64T225 -44Q255 -44 276 -63T298 -120Z" />
<glyph unicode="&#x139;" glyph-name="Lacute" horiz-adv-x="554" d="M462 0H16L169 717H313L185 118H487L462 0ZM537 913H709L553 777H435L537 913Z" />
<glyph unicode="&#x13a;" glyph-name="lacute" horiz-adv-x="258" d="M298 717L144 0H6L160 717H298ZM528 944H700L544 808H426L528 944Z" />
<glyph unicode="&#x13b;" glyph-name="uni013B" horiz-adv-x="554" d="M462 0H16L169 717H313L185 118H487L462 0ZM312 -120Q312 -159 287 -190T232 -245H148Q171 -229 188 -213T217 -176Q196 -171 183 -154T169 -112Q169 -83 188 -64T239 -44Q269 -44 290 -63T312 -120Z" />
<glyph unicode="&#x13c;" glyph-name="uni013C" horiz-adv-x="258" d="M298 717L144 0H6L160 717H298ZM123 -120Q123 -159 98 -190T43 -245H-41Q-18 -229 -1 -213T28 -176Q7 -171 -6 -154T-20 -112Q-20 -83 -1 -64T50 -44Q80 -44 101 -63T123 -120Z" />
<glyph unicode="&#x13d;" glyph-name="Lcaron" horiz-adv-x="554" d="M462 0H16L169 717H313L185 118H487L462 0ZM331 528L389 717H519L419 528H331Z" />
<glyph unicode="&#x13e;" glyph-name="lcaron" horiz-adv-x="258" d="M298 717L144 0H6L160 717H298ZM294 528L352 717H482L382 528H294Z" />
<glyph unicode="&#x13f;" glyph-name="Ldot" horiz-adv-x="589" d="M462 0H16L169 717H313L185 118H487L462 0ZM487 295Q449 295 424 322T398 387Q398 425 423 451T487 478Q525 478 550 452T576 387Q576 349 551 322T487 295Z" />
<glyph unicode="&#x140;" glyph-name="ldot" horiz-adv-x="454" d="M298 717L144 0H6L160 717H298ZM375 271Q337 271 312 298T286 363Q286 401 311 427T375 454Q413 454 438 428T464 363Q464 325 439 298T375 271Z" />
<glyph unicode="&#x141;" glyph-name="Lslash" horiz-adv-x="598" d="M506 0H60L108 227L13 179L35 292L133 341L213 717H357L294 422L481 517L459 404L269 308L229 118H531L506 0Z" />
<glyph unicode="&#x142;" glyph-name="lslash" horiz-adv-x="296" d="M17 311L106 368L181 717H319L266 470L353 526L328 414L242 359L165 0H27L82 257L-8 200L17 311Z" />
<glyph unicode="&#x143;" glyph-name="Nacute" horiz-adv-x="737" d="M612 0H444L260 551L143 0H16L169 717H340L522 172L638 717H765L612 0ZM516 913H688L532 777H414L516 913Z" />
<glyph unicode="&#x144;" glyph-name="nacute" horiz-adv-x="591" d="M340 420Q296 420 268 401T221 358L144 0H6L117 519H247L235 441H237Q266 479 307 504T404 529Q442 529 474 516T527 477T555 411T551 317L483 0H344L413 317Q419 347 416 367T402 398T375
415T340 420ZM412 746H560L402 588H300L412 746Z" />
<glyph unicode="&#x145;" glyph-name="uni0145" horiz-adv-x="737" d="M612 0H444L260 551L143 0H16L169 717H340L522 172L638 717H765L612 0ZM397 -120Q397 -159 372 -190T317 -245H233Q256 -229 273 -213T302 -176Q281 -171 268 -154T254 -112Q254 -83 273 -64T324
-44Q354 -44 375 -63T397 -120Z" />
<glyph unicode="&#x146;" glyph-name="uni0146" horiz-adv-x="591" d="M340 420Q296 420 268 401T221 358L144 0H6L117 519H247L235 441H237Q266 479 307 504T404 529Q442 529 474 516T527 477T555 411T551 317L483 0H344L413 317Q419 347 416 367T402 398T375
415T340 420ZM323 -120Q323 -159 298 -190T243 -245H159Q182 -229 199 -213T228 -176Q207 -171 194 -154T180 -112Q180 -83 199 -64T250 -44Q280 -44 301 -63T323 -120Z" />
<glyph unicode="&#x147;" glyph-name="Ncaron" horiz-adv-x="737" d="M612 0H444L260 551L143 0H16L169 717H340L522 172L638 717H765L612 0ZM546 774H404L327 922H431L488 848L574 922H684L546 774Z" />
<glyph unicode="&#x148;" glyph-name="ncaron" horiz-adv-x="591" d="M340 420Q296 420 268 401T221 358L144 0H6L117 519H247L235 441H237Q266 479 307 504T404 529Q442 529 474 516T527 477T555 411T551 317L483 0H344L413 317Q419 347 416 367T402 398T375
415T340 420ZM434 588H293L224 736H328L377 664L457 736H565L434 588Z" />
<glyph unicode="&#x14a;" glyph-name="Eng" horiz-adv-x="737" d="M169 717H340L522 171L638 717H765L609 -14Q590 -103 528 -152T372 -201Q308 -201 263 -177L286 -63Q320 -83 365 -83Q416 -83 444 -63T485 0H444L260 551L143 0H16L169 717Z" />
<glyph unicode="&#x14b;" glyph-name="eng" horiz-adv-x="591" d="M265 -187Q240 -187 214 -183T168 -166L191 -62Q204 -69 222 -73T260 -78Q302 -78 320 -56T347 9L413 317Q419 347 416 367T402 398T375 415T340 420Q296 420 268 401T221 358L144 0H6L117 519H247L235
441H237Q266 479 307 504T404 529Q442 529 474 516T527 477T555 411T551 317L481 -9Q462 -96 409 -141T265 -187Z" />
<glyph unicode="&#x14c;" glyph-name="Omacron" horiz-adv-x="755" d="M370 -10Q299 -10 241 13T140 80T75 184T51 323Q51 408 79 482T157 610T275 695T426 726Q497 726 556 703T657 636T722 532T746 394Q746 308 718 235T640 107T521 21T370 -10ZM201 325Q201
269 214 229T252 161T308 121T380 108Q430 108 470 130T538 191T581 281T596 391Q596 446 583 487T545 555T489 595T418 608Q368 608 328 586T259 525T216 435T201 325ZM282 896H642L621 796H262L282 896Z" />
<glyph unicode="&#x14d;" glyph-name="omacron" horiz-adv-x="593" d="M281 -10Q228 -10 183 6T103 54T50 131T31 234Q31 291 50 344T106 439T196 504T315 529Q368 529 413 513T493 465T546 388T565 284Q565 227 546 174T490 80T400 15T281 -10ZM174 235Q174 164
205 132T284 100Q318 100 344 115T387 156T414 215T423 283Q423 354 391 386T313 419Q278 419 252 404T209 363T183 304T174 235ZM187 694H512L491 599H166L187 694Z" />
<glyph unicode="&#x14e;" glyph-name="Obreve" horiz-adv-x="755" d="M370 -10Q299 -10 241 13T140 80T75 184T51 323Q51 408 79 482T157 610T275 695T426 726Q497 726 556 703T657 636T722 532T746 394Q746 308 718 235T640 107T521 21T370 -10ZM201 325Q201
269 214 229T252 161T308 121T380 108Q430 108 470 130T538 191T581 281T596 391Q596 446 583 487T545 555T489 595T418 608Q368 608 328 586T259 525T216 435T201 325ZM435 765Q391 765 360 778T309 813T282 864T281 927H388Q384 898 398 879T445 860Q477 860
496 878T520 927H626Q621 894 607 865T570 814T514 778T435 765Z" />
<glyph unicode="&#x14f;" glyph-name="obreve" horiz-adv-x="593" d="M281 -10Q228 -10 183 6T103 54T50 131T31 234Q31 291 50 344T106 439T196 504T315 529Q368 529 413 513T493 465T546 388T565 284Q565 227 546 174T490 80T400 15T281 -10ZM174 235Q174 164
205 132T284 100Q318 100 344 115T387 156T414 215T423 283Q423 354 391 386T313 419Q278 419 252 404T209 363T183 304T174 235ZM336 577Q293 577 262 589T212 623T187 672T188 731H288Q284 702 298 686T343 669Q404 669 413 731H515Q512 700 500 672T465 623T411
590T336 577Z" />
<glyph unicode="&#x150;" glyph-name="Ohungarumlaut" horiz-adv-x="755" d="M370 -10Q299 -10 241 13T140 80T75 184T51 323Q51 408 79 482T157 610T275 695T426 726Q497 726 556 703T657 636T722 532T746 394Q746 308 718 235T640 107T521 21T370 -10ZM201 325Q201
269 214 229T252 161T308 121T380 108Q430 108 470 130T538 191T581 281T596 391Q596 446 583 487T545 555T489 595T418 608Q368 608 328 586T259 525T216 435T201 325ZM265 777L338 913H482L363 777H265ZM458 777L532 913H675L556 777H458Z" />
<glyph unicode="&#x151;" glyph-name="ohungarumlaut" horiz-adv-x="593" d="M281 -10Q228 -10 183 6T103 54T50 131T31 234Q31 291 50 344T106 439T196 504T315 529Q368 529 413 513T493 465T546 388T565 284Q565 227 546 174T490 80T400 15T281 -10ZM174 235Q174
164 205 132T284 100Q318 100 344 115T387 156T414 215T423 283Q423 354 391 386T313 419Q278 419 252 404T209 363T183 304T174 235ZM177 588L267 746H394L275 588H177ZM346 588L437 746H564L446 588H346Z" />
<glyph unicode="&#x152;" glyph-name="OE" horiz-adv-x="1002" d="M51 300Q51 383 78 458T159 591T292 683T475 717H1045L1019 601H701L665 428H931L906 313H640L598 115H922L895 0H363Q295 0 238 17T140 70T75 163T51 300ZM455 116L558 602H459Q399 602 352 580T271
519T219 425T201 307Q201 254 213 218T247 159T303 126T377 116H455Z" />
<glyph unicode="&#x153;" glyph-name="oe" horiz-adv-x="956" d="M851 19Q828 9 791 0T699 -10Q626 -10 571 12T480 78Q445 37 395 14T281 -10Q228 -10 183 6T103 54T50 131T31 234Q31 291 50 344T106 439T196 504T315 529Q375 529 424 507T507 441Q544 482 596
505T712 529Q766 529 813 511T890 455T926 360T906 225H561Q566 159 607 130T721 100Q768 100 806 109T874 129L851 19ZM706 420Q655 420 621 392T572 317H796Q803 372 776 396T706 420ZM423 283Q423 354 391 386T313 419Q278 419 252 404T209 363T183 304T174
235Q174 164 205 132T284 100Q318 100 344 115T387 156T414 215T423 283Z" />
<glyph unicode="&#x154;" glyph-name="Racute" horiz-adv-x="661" d="M169 717H410Q531 717 593 668T656 519Q656 429 604 372T467 292L584 0H436L325 277H219L160 0H16L169 717ZM288 598L243 389H364Q435 389 472 418T510 506Q510 558 478 578T387 598H288ZM446
913H618L462 777H344L446 913Z" />
<glyph unicode="&#x155;" glyph-name="racute" horiz-adv-x="393" d="M396 389Q335 400 291 383T215 329L144 0H6L117 519H245L230 414H232Q264 468 313 499T425 529L396 389V389ZM332 746H480L322 588H220L332 746Z" />
<glyph unicode="&#x156;" glyph-name="uni0156" horiz-adv-x="661" d="M169 717H410Q531 717 593 668T656 519Q656 429 604 372T467 292L584 0H436L325 277H219L160 0H16L169 717ZM288 598L243 389H364Q435 389 472 418T510 506Q510 558 478 578T387 598H288ZM356
-120Q356 -159 331 -190T276 -245H192Q215 -229 232 -213T261 -176Q240 -171 227 -154T213 -112Q213 -83 232 -64T283 -44Q313 -44 334 -63T356 -120Z" />
<glyph unicode="&#x157;" glyph-name="uni0157" horiz-adv-x="393" d="M396 389Q335 400 291 383T215 329L144 0H6L117 519H245L230 414H232Q264 468 313 499T425 529L396 389V389ZM125 -120Q125 -159 100 -190T45 -245H-39Q-16 -229 1 -213T30 -176Q9 -171 -4
-154T-18 -112Q-18 -83 1 -64T52 -44Q82 -44 103 -63T125 -120Z" />
<glyph unicode="&#x158;" glyph-name="Rcaron" horiz-adv-x="661" d="M169 717H410Q531 717 593 668T656 519Q656 429 604 372T467 292L584 0H436L325 277H219L160 0H16L169 717ZM288 598L243 389H364Q435 389 472 418T510 506Q510 558 478 578T387 598H288ZM474
774H332L255 922H359L416 848L502 922H612L474 774Z" />
<glyph unicode="&#x159;" glyph-name="rcaron" horiz-adv-x="393" d="M396 389Q335 400 291 383T215 329L144 0H6L117 519H245L230 414H232Q264 468 313 499T425 529L396 389V389ZM605 588H464L395 736H499L548 664L628 736H736L605 588Z" />
<glyph unicode="&#x15a;" glyph-name="Sacute" horiz-adv-x="612" d="M286 -10Q239 -10 197 -2T121 18T61 47T20 78L45 193Q63 176 91 161T152 134T221 115T292 108Q362 108 391 135T421 203Q421 226 412 241T386 267T343 288T286 308Q251 320 217 334T156 370T113
424T96 506Q96 557 115 597T171 666T258 710T373 726Q415 726 451 720T517 705T567 685T600 664L576 551Q544 577 489 592T374 608Q300 608 267 585T234 524Q234 501 244 486T274 460T318 441T372 422Q406 410 440 395T502 357T547 299T564 214Q564 158 543 116T485
46T397 4T286 -10ZM411 913H583L427 777H309L411 913Z" />
<glyph unicode="&#x15b;" glyph-name="sacute" horiz-adv-x="475" d="M432 160Q432 78 377 34T219 -10Q178 -10 145 -4T85 13T39 35T8 58L31 164Q63 139 113 119T225 99Q270 99 287 112T305 145Q305 162 296 172T273 189T239 200T199 211Q173 218 148 228T103
255T71 297T58 361Q58 403 73 434T117 487T184 518T270 529Q304 529 333 524T386 511T427 494T454 477L432 373Q403 392 362 406T269 420Q229 420 207 410T185 375Q185 360 193 351T214 335T244 325T279 315Q307 307 334 298T383 271T418 228T432 160ZM332 746H480L322
588H220L332 746Z" />
<glyph unicode="&#x15c;" glyph-name="Scircumflex" horiz-adv-x="612" d="M286 -10Q239 -10 197 -2T121 18T61 47T20 78L45 193Q63 176 91 161T152 134T221 115T292 108Q362 108 391 135T421 203Q421 226 412 241T386 267T343 288T286 308Q251 320 217 334T156
370T113 424T96 506Q96 557 115 597T171 666T258 710T373 726Q415 726 451 720T517 705T567 685T600 664L576 551Q544 577 489 592T374 608Q300 608 267 585T234 524Q234 501 244 486T274 460T318 441T372 422Q406 410 440 395T502 357T547 299T564 214Q564 158
543 116T485 46T397 4T286 -10ZM646 849L558 774H448L587 922H729L805 774H701L646 849Z" />
<glyph unicode="&#x15d;" glyph-name="scircumflex" horiz-adv-x="475" d="M432 160Q432 78 377 34T219 -10Q178 -10 145 -4T85 13T39 35T8 58L31 164Q63 139 113 119T225 99Q270 99 287 112T305 145Q305 162 296 172T273 189T239 200T199 211Q173 218 148 228T103
255T71 297T58 361Q58 403 73 434T117 487T184 518T270 529Q304 529 333 524T386 511T427 494T454 477L432 373Q403 392 362 406T269 420Q229 420 207 410T185 375Q185 360 193 351T214 335T244 325T279 315Q307 307 334 298T383 271T418 228T432 160ZM563 661L481
588H374L505 736H646L715 588H610L563 661Z" />
<glyph unicode="&#x15e;" glyph-name="uni015E" horiz-adv-x="612" d="M286 -10Q239 -10 197 -2T121 18T61 47T20 78L45 193Q63 176 91 161T152 134T221 115T292 108Q362 108 391 135T421 203Q421 226 412 241T386 267T343 288T286 308Q251 320 217 334T156 370T113
424T96 506Q96 557 115 597T171 666T258 710T373 726Q415 726 451 720T517 705T567 685T600 664L576 551Q544 577 489 592T374 608Q300 608 267 585T234 524Q234 501 244 486T274 460T318 441T372 422Q406 410 440 395T502 357T547 299T564 214Q564 158 543 116T485
46T397 4T286 -10ZM356 20L254 -187H114L251 20H356Z" />
<glyph unicode="&#x15f;" glyph-name="uni015F" horiz-adv-x="475" d="M432 160Q432 78 377 34T219 -10Q178 -10 145 -4T85 13T39 35T8 58L31 164Q63 139 113 119T225 99Q270 99 287 112T305 145Q305 162 296 172T273 189T239 200T199 211Q173 218 148 228T103
255T71 297T58 361Q58 403 73 434T117 487T184 518T270 529Q304 529 333 524T386 511T427 494T454 477L432 373Q403 392 362 406T269 420Q229 420 207 410T185 375Q185 360 193 351T214 335T244 325T279 315Q307 307 334 298T383 271T418 228T432 160ZM531 20L429
-187H289L426 20H531Z" />
<glyph unicode="&#x160;" glyph-name="Scaron" horiz-adv-x="612" d="M286 -10Q239 -10 197 -2T121 18T61 47T20 78L45 193Q63 176 91 161T152 134T221 115T292 108Q362 108 391 135T421 203Q421 226 412 241T386 267T343 288T286 308Q251 320 217 334T156 370T113
424T96 506Q96 557 115 597T171 666T258 710T373 726Q415 726 451 720T517 705T567 685T600 664L576 551Q544 577 489 592T374 608Q300 608 267 585T234 524Q234 501 244 486T274 460T318 441T372 422Q406 410 440 395T502 357T547 299T564 214Q564 158 543 116T485
46T397 4T286 -10ZM451 774H309L232 922H336L393 848L479 922H589L451 774Z" />
<glyph unicode="&#x161;" glyph-name="scaron" horiz-adv-x="475" d="M432 160Q432 78 377 34T219 -10Q178 -10 145 -4T85 13T39 35T8 58L31 164Q63 139 113 119T225 99Q270 99 287 112T305 145Q305 162 296 172T273 189T239 200T199 211Q173 218 148 228T103
255T71 297T58 361Q58 403 73 434T117 487T184 518T270 529Q304 529 333 524T386 511T427 494T454 477L432 373Q403 392 362 406T269 420Q229 420 207 410T185 375Q185 360 193 351T214 335T244 325T279 315Q307 307 334 298T383 271T418 228T432 160ZM609 588H468L399
736H503L552 664L632 736H740L609 588Z" />
<glyph unicode="&#x162;" glyph-name="Tcommaaccent" horiz-adv-x="612" d="M449 598L321 0H178L305 598H92L117 717H687L662 598H449ZM299 -120Q299 -159 274 -190T219 -245H135Q158 -229 175 -213T204 -176Q183 -171 170 -154T156 -112Q156 -83 175 -64T226
-44Q256 -44 277 -63T299 -120Z" />
<glyph unicode="&#x163;" glyph-name="tcommaaccent" horiz-adv-x="397" d="M313 16Q294 4 267 -3T206 -10Q118 -10 82 41T65 180L115 411H56L78 519H138L162 628H299L276 519H415L392 411H253L204 182Q194 137 209 119T259 100Q279 100 299 105T335 123L313 16V16ZM469
-120Q469 -159 444 -190T389 -245H305Q328 -229 345 -213T374 -176Q353 -171 340 -154T326 -112Q326 -83 345 -64T396 -44Q426 -44 447 -63T469 -120Z" />
<glyph unicode="&#x164;" glyph-name="Tcaron" horiz-adv-x="612" d="M449 598L321 0H178L305 598H92L117 717H687L662 598H449ZM473 774H331L254 922H358L415 848L501 922H611L473 774Z" />
<glyph unicode="&#x165;" glyph-name="tcaron" horiz-adv-x="397" d="M313 16Q294 4 267 -3T206 -10Q118 -10 82 41T65 180L115 411H56L78 519H138L162 628H299L276 519H415L392 411H253L204 182Q194 137 209 119T259 100Q279 100 299 105T335 123L313 16V16ZM334
549L390 716H515L419 549H334Z" />
<glyph unicode="&#x166;" glyph-name="Tbar" horiz-adv-x="615" d="M120 435H274L309 598H96L121 717H691L666 598H453L418 435H572L550 334H396L325 0H182L253 334H98L120 435Z" />
<glyph unicode="&#x167;" glyph-name="tbar" horiz-adv-x="397" d="M313 16Q294 4 267 -3T206 -10Q118 -10 82 41T65 180L80 250H18L38 343H100L115 411H56L78 519H138L162 628H299L276 519H415L392 411H253L238 343H381L360 250H218L204 182Q194 137 209 119T259
100Q279 100 299 105T335 123L313 16Z" />
<glyph unicode="&#x168;" glyph-name="Utilde" horiz-adv-x="680" d="M156 717H298L206 288Q196 241 202 207T226 151T272 119T335 108Q406 108 446 149T506 280L599 717H726L628 261Q600 129 528 60T326 -10Q263 -10 208 8T116 64T65 163T68 310L156 717ZM255
771Q252 805 260 834T287 883T331 915T388 927Q413 927 432 921T467 906T498 891T531 884Q551 884 563 895T578 933H663Q664 858 631 818T538 777Q512 777 493 783T457 798T424 813T390 820Q370 820 356 809T340 771H255V771Z" />
<glyph unicode="&#x169;" glyph-name="utilde" horiz-adv-x="584" d="M256 100Q294 100 320 117T367 161L443 519H582L470 0H342L352 78H349Q321 41 282 16T186 -10Q149 -10 118 3T68 42T42 109T46 204L112 519H251L186 210Q174 152 194 126T256 100ZM178 587Q179
614 186 639T208 684T246 716T302 728Q325 728 342 722T373 707T400 693T428 686Q445 686 454 696T468 734H543Q542 707 536 682T515 636T478 604T423 592Q400 592 384 598T353 613T325 627T296 634Q279 634 269 625T253 587H178V587Z" />
<glyph unicode="&#x16a;" glyph-name="Umacron" horiz-adv-x="680" d="M156 717H298L206 288Q196 241 202 207T226 151T272 119T335 108Q406 108 446 149T506 280L599 717H726L628 261Q600 129 528 60T326 -10Q263 -10 208 8T116 64T65 163T68 310L156 717ZM295
896H655L634 796H275L295 896Z" />
<glyph unicode="&#x16b;" glyph-name="umacron" horiz-adv-x="584" d="M256 100Q294 100 320 117T367 161L443 519H582L470 0H342L352 78H349Q321 41 282 16T186 -10Q149 -10 118 3T68 42T42 109T46 204L112 519H251L186 210Q174 152 194 126T256 100ZM209 694H534L513
599H188L209 694Z" />
<glyph unicode="&#x16c;" glyph-name="Ubreve" horiz-adv-x="680" d="M156 717H298L206 288Q196 241 202 207T226 151T272 119T335 108Q406 108 446 149T506 280L599 717H726L628 261Q600 129 528 60T326 -10Q263 -10 208 8T116 64T65 163T68 310L156 717ZM453
765Q409 765 378 778T327 813T300 864T299 927H406Q402 898 416 879T463 860Q495 860 514 878T538 927H644Q639 894 625 865T588 814T532 778T453 765Z" />
<glyph unicode="&#x16d;" glyph-name="ubreve" horiz-adv-x="584" d="M256 100Q294 100 320 117T367 161L443 519H582L470 0H342L352 78H349Q321 41 282 16T186 -10Q149 -10 118 3T68 42T42 109T46 204L112 519H251L186 210Q174 152 194 126T256 100ZM354 577Q311
577 280 589T230 623T205 672T206 731H306Q302 702 316 686T361 669Q422 669 431 731H533Q530 700 518 672T483 623T429 590T354 577Z" />
<glyph unicode="&#x16e;" glyph-name="Uring" horiz-adv-x="680" d="M156 717H298L206 288Q196 241 202 207T226 151T272 119T335 108Q406 108 446 149T506 280L599 717H726L628 261Q600 129 528 60T326 -10Q263 -10 208 8T116 64T65 163T68 310L156 717ZM451
993Q397 993 362 1027T327 1116Q327 1144 337 1167T364 1208T405 1235T457 1245Q511 1245 546 1210T581 1121Q581 1064 544 1029T451 993ZM453 1067Q476 1067 490 1081T504 1119Q504 1142 491 1156T454 1170Q431 1170 418 1156T405 1118Q405 1095 417 1081T453
1067Z" />
<glyph unicode="&#x16f;" glyph-name="uring" horiz-adv-x="584" d="M256 100Q294 100 320 117T367 161L443 519H582L470 0H342L352 78H349Q321 41 282 16T186 -10Q149 -10 118 3T68 42T42 109T46 204L112 519H251L186 210Q174 152 194 126T256 100ZM356 569Q329
569 306 578T267 603T241 642T231 692Q231 720 241 743T268 784T310 811T362 821Q389 821 412 812T452 787T478 748T488 698Q488 670 478 647T449 606T407 579T356 569ZM358 645Q380 645 394 659T408 696Q408 718 396 732T360 746Q338 746 324 732T310 694Q310
672 323 659T358 645Z" />
<glyph unicode="&#x170;" glyph-name="Uhungarumlaut" horiz-adv-x="680" d="M156 717H298L206 288Q196 241 202 207T226 151T272 119T335 108Q406 108 446 149T506 280L599 717H726L628 261Q600 129 528 60T326 -10Q263 -10 208 8T116 64T65 163T68 310L156 717ZM302
777L375 913H519L400 777H302ZM495 777L569 913H712L593 777H495Z" />
<glyph unicode="&#x171;" glyph-name="uhungarumlaut" horiz-adv-x="584" d="M256 100Q294 100 320 117T367 161L443 519H582L470 0H342L352 78H349Q321 41 282 16T186 -10Q149 -10 118 3T68 42T42 109T46 204L112 519H251L186 210Q174 152 194 126T256 100ZM218
588L308 746H435L316 588H218ZM387 588L478 746H605L487 588H387Z" />
<glyph unicode="&#x172;" glyph-name="Uogonek" horiz-adv-x="680" d="M156 717H298L206 288Q196 241 202 207T226 151T272 119T335 108Q406 108 446 149T506 280L599 717H726L628 261Q600 129 528 60T326 -10Q263 -10 208 8T116 64T65 163T68 310L156 717ZM328
-189Q276 -189 249 -166T221 -107Q221 -85 231 -67T256 -36T290 -14T327 0H416Q384 -11 362 -28T340 -73Q340 -92 351 -101T381 -110Q390 -110 398 -108T411 -102L396 -177Q388 -181 370 -185T328 -189Z" />
<glyph unicode="&#x173;" glyph-name="uogonek" horiz-adv-x="584" d="M435 -177Q427 -181 409 -185T367 -189Q316 -189 288 -165T260 -99Q260 -61 284 -34T343 7L352 78H349Q321 41 282 16T186 -10Q149 -10 118 3T68 42T42 109T46 204L112 519H251L186 210Q174
152 194 126T256 100Q294 100 320 117T367 161L443 519H582L470 0Q427 -8 403 -26T379 -73Q379 -92 390 -101T420 -110Q429 -110 437 -108T450 -102L435 -177V-177Z" />
<glyph unicode="&#x174;" glyph-name="Wcircumflex" horiz-adv-x="986" d="M761 0H576L550 516L302 0H115L119 717H261L251 157L522 717H666L698 153L934 717H1065L761 0ZM606 849L518 774H408L547 922H689L765 774H661L606 849Z" />
<glyph unicode="&#x175;" glyph-name="wcircumflex" horiz-adv-x="821" d="M637 0H447L431 350L263 0H77L79 519H214L206 118L400 519H543L566 116L730 519H856L637 0ZM490 661L408 588H301L432 736H573L642 588H537L490 661Z" />
<glyph unicode="&#x176;" glyph-name="Ycircumflex" horiz-adv-x="611" d="M387 292L325 0H181L245 304L102 717H251L345 422L564 717H707L387 292ZM418 849L330 774H220L359 922H501L577 774H473L418 849Z" />
<glyph unicode="&#x177;" glyph-name="ycircumflex" horiz-adv-x="549" d="M296 -17Q248 -103 189 -145T40 -187Q13 -187 -12 -184T-55 -172L-29 -62Q6 -78 51 -78Q85 -78 110 -66T156 -31L67 519H207L256 138L458 519H589L296 -17V-17ZM345 661L263 588H156L287
736H428L497 588H392L345 661Z" />
<glyph unicode="&#x178;" glyph-name="Ydieresis" horiz-adv-x="611" d="M387 292L325 0H181L245 304L102 717H251L345 422L564 717H707L387 292ZM277 776Q242 776 218 799T194 857Q194 892 218 915T277 939Q314 939 338 916T363 857Q363 823 339 800T277 776ZM520
776Q485 776 461 799T436 857Q436 892 460 915T520 939Q538 939 553 933T580 915T598 889T605 857Q605 840 599 826T581 800T554 783T520 776Z" />
<glyph unicode="&#x179;" glyph-name="Zacute" horiz-adv-x="622" d="M526 0H-18L5 106L461 598H107L132 717H663L641 610L186 118H552L526 0ZM423 913H595L439 777H321L423 913Z" />
<glyph unicode="&#x17a;" glyph-name="zacute" horiz-adv-x="489" d="M402 0H-20L1 95L312 413H77L99 519H512L493 432L174 107H424L402 0ZM369 746H517L359 588H257L369 746Z" />
<glyph unicode="&#x17b;" glyph-name="Zdotaccent" horiz-adv-x="622" d="M526 0H-18L5 106L461 598H107L132 717H663L641 610L186 118H552L526 0ZM407 776Q372 776 348 799T323 857Q323 892 347 915T407 939Q443 939 468 916T493 857Q493 823 468 800T407 776Z" />
<glyph unicode="&#x17c;" glyph-name="zdotaccent" horiz-adv-x="489" d="M402 0H-20L1 95L312 413H77L99 519H512L493 432L174 107H424L402 0ZM570 577Q535 577 511 601T486 659Q486 693 510 716T570 740Q588 740 603 734T630 716T648 691T655 659Q655 642 649
627T631 601T604 584T570 577Z" />
<glyph unicode="&#x17d;" glyph-name="Zcaron" horiz-adv-x="622" d="M526 0H-18L5 106L461 598H107L132 717H663L641 610L186 118H552L526 0ZM473 774H331L254 922H358L415 848L501 922H611L473 774Z" />
<glyph unicode="&#x17e;" glyph-name="zcaron" horiz-adv-x="489" d="M402 0H-20L1 95L312 413H77L99 519H512L493 432L174 107H424L402 0ZM382 588H241L172 736H276L325 664L405 736H513L382 588Z" />
<glyph unicode="&#x192;" glyph-name="uni0192" horiz-adv-x="550" d="M199 33Q155 -84 88 -135T-75 -187Q-107 -187 -130 -182T-164 -172L-130 -64Q-122 -68 -108 -72T-72 -77Q-20 -77 9 -49T59 33L181 356H104L137 442H214L237 504Q260 565 288 607T350 675T426
714T515 726Q542 726 566 723T600 714L565 604Q557 608 542 611T506 614Q483 614 465 609T431 591T404 558T379 507L354 442H484L451 356H322L199 33V33Z" />
<glyph unicode="&#x218;" glyph-name="uni0218" horiz-adv-x="612" d="M286 -10Q239 -10 197 -2T121 18T61 47T20 78L45 193Q63 176 91 161T152 134T221 115T292 108Q362 108 391 135T421 203Q421 226 412 241T386 267T343 288T286 308Q251 320 217 334T156 370T113
424T96 506Q96 557 115 597T171 666T258 710T373 726Q415 726 451 720T517 705T567 685T600 664L576 551Q544 577 489 592T374 608Q300 608 267 585T234 524Q234 501 244 486T274 460T318 441T372 422Q406 410 440 395T502 357T547 299T564 214Q564 158 543 116T485
46T397 4T286 -10ZM324 -120Q324 -159 299 -190T244 -245H160Q183 -229 200 -213T229 -176Q208 -171 195 -154T181 -112Q181 -83 200 -64T251 -44Q281 -44 302 -63T324 -120Z" />
<glyph unicode="&#x219;" glyph-name="uni0219" horiz-adv-x="475" d="M432 160Q432 78 377 34T219 -10Q178 -10 145 -4T85 13T39 35T8 58L31 164Q63 139 113 119T225 99Q270 99 287 112T305 145Q305 162 296 172T273 189T239 200T199 211Q173 218 148 228T103
255T71 297T58 361Q58 403 73 434T117 487T184 518T270 529Q304 529 333 524T386 511T427 494T454 477L432 373Q403 392 362 406T269 420Q229 420 207 410T185 375Q185 360 193 351T214 335T244 325T279 315Q307 307 334 298T383 271T418 228T432 160ZM501 -120Q501
-159 476 -190T421 -245H337Q360 -229 377 -213T406 -176Q385 -171 372 -154T358 -112Q358 -83 377 -64T428 -44Q458 -44 479 -63T501 -120Z" />
<glyph unicode="&#x21a;" glyph-name="uni021A" horiz-adv-x="612" d="M449 598L321 0H178L305 598H92L117 717H687L662 598H449ZM299 -120Q299 -159 274 -190T219 -245H135Q158 -229 175 -213T204 -176Q183 -171 170 -154T156 -112Q156 -83 175 -64T226 -44Q256
-44 277 -63T299 -120Z" />
<glyph unicode="&#x21b;" glyph-name="uni021B" horiz-adv-x="397" d="M313 16Q294 4 267 -3T206 -10Q118 -10 82 41T65 180L115 411H56L78 519H138L162 628H299L276 519H415L392 411H253L204 182Q194 137 209 119T259 100Q279 100 299 105T335 123L313 16V16ZM469
-120Q469 -159 444 -190T389 -245H305Q328 -229 345 -213T374 -176Q353 -171 340 -154T326 -112Q326 -83 345 -64T396 -44Q426 -44 447 -63T469 -120Z" />
<glyph unicode="&#x237;" glyph-name="uni0237" horiz-adv-x="272" d="M157 -9Q137 -96 84 -141T-59 -187Q-85 -187 -110 -183T-156 -166L-134 -62Q-120 -69 -103 -73T-64 -78Q-21 -78 -4 -56T22 9L132 519H270L157 -9Z" />
<glyph unicode="&#x2bc;" glyph-name="uni02BC" horiz-adv-x="253" d="M87 457Q115 477 143 506T185 567Q160 576 146 596T132 643Q132 678 153 701T215 725Q252 725 275 699T299 631Q299 600 287 573T256 524T215 485T174 457H87Z" />
<glyph unicode="&#x2c6;" glyph-name="circumflex" horiz-adv-x="452" d="M321 661L239 588H132L263 736H404L473 588H368L321 661Z" />
<glyph unicode="&#x2c7;" glyph-name="caron" horiz-adv-x="452" d="M369 588H228L159 736H263L312 664L392 736H500L369 588Z" />
<glyph unicode="&#x2d8;" glyph-name="breve" horiz-adv-x="452" d="M313 577Q270 577 239 589T189 623T164 672T165 731H265Q261 702 275 686T320 669Q381 669 390 731H492Q489 700 477 672T442 623T388 590T313 577Z" />
<glyph unicode="&#x2d9;" glyph-name="dotaccent" horiz-adv-x="452" d="M321 577Q286 577 262 601T237 659Q237 693 261 716T321 740Q339 740 354 734T381 716T399 691T406 659Q406 642 400 627T382 601T355 584T321 577Z" />
<glyph unicode="&#x2da;" glyph-name="ring" horiz-adv-x="452" d="M329 569Q302 569 279 578T240 603T214 642T204 692Q204 720 214 743T241 784T283 811T335 821Q362 821 385 812T425 787T451 748T461 698Q461 670 451 647T422 606T380 579T329 569ZM331 645Q353
645 367 659T381 696Q381 718 369 732T333 746Q311 746 297 732T283 694Q283 672 296 659T331 645Z" />
<glyph unicode="&#x2db;" glyph-name="ogonek" horiz-adv-x="452" d="M222 -189Q170 -189 143 -166T115 -107Q115 -85 125 -67T150 -36T184 -14T221 0H310Q278 -11 256 -28T234 -73Q234 -92 245 -101T275 -110Q284 -110 292 -108T305 -102L290 -177Q282 -181 264
-185T222 -189Z" />
<glyph unicode="&#x2dc;" glyph-name="tilde" horiz-adv-x="452" d="M140 587Q141 614 148 639T170 684T208 716T264 728Q287 728 304 722T335 707T362 693T390 686Q407 686 416 696T430 734H505Q504 707 498 682T477 636T440 604T385 592Q362 592 346 598T315
613T287 627T258 634Q241 634 231 625T215 587H140V587Z" />
<glyph unicode="&#x2dd;" glyph-name="hungarumlaut" horiz-adv-x="452" d="M146 588L236 746H363L244 588H146ZM315 588L406 746H533L415 588H315Z" />
<glyph unicode="&#x300;" glyph-name="gravecomb" horiz-adv-x="0" d="M-134 588L-265 746H-117L-35 588H-134Z" />
<glyph unicode="&#x301;" glyph-name="acutecomb" horiz-adv-x="0" d="M-132 746H16L-142 588H-244L-132 746Z" />
<glyph unicode="&#x302;" glyph-name="circumflexcomb" horiz-adv-x="0" d="M-131 661L-213 588H-320L-189 736H-48L21 588H-84L-131 661Z" />
<glyph unicode="&#x303;" glyph-name="tildecomb" horiz-adv-x="0" d="M-312 587Q-311 614 -304 639T-282 684T-244 716T-188 728Q-165 728 -148 722T-117 707T-90 693T-62 686Q-45 686 -36 696T-22 734H53Q52 707 46 682T25 636T-12 604T-67 592Q-90 592 -106
598T-137 613T-165 627T-194 634Q-211 634 -221 625T-237 587H-312Z" />
<glyph unicode="&#x304;" glyph-name="macroncomb" horiz-adv-x="0" d="M-288 694H37L16 599H-309L-288 694Z" />
<glyph unicode="&#x306;" glyph-name="brevecomb" horiz-adv-x="0" d="M-139 577Q-182 577 -213 589T-263 623T-288 672T-287 731H-187Q-191 702 -177 686T-132 669Q-71 669 -62 731H40Q37 700 25 672T-10 623T-64 590T-139 577Z" />
<glyph unicode="&#x308;" glyph-name="dieresiscomb" horiz-adv-x="0" d="M-247 577Q-283 577 -307 601T-331 659Q-331 693 -307 716T-247 740Q-212 740 -188 717T-163 659Q-163 642 -169 627T-187 601T-214 584T-247 577ZM-19 577Q-54 577 -78 601T-102 659Q-102
693 -78 716T-19 740Q17 740 41 717T66 659Q66 625 42 601T-19 577Z" />
<glyph unicode="&#x30c;" glyph-name="caroncomb" horiz-adv-x="0" d="M-83 588H-224L-293 736H-189L-140 664L-60 736H48L-83 588Z" />
<glyph unicode="&#x401;" glyph-name="uni0401" horiz-adv-x="588" d="M591 843Q591 812 570 790T518 767Q487 767 466 789T444 843Q444 875 465 897T518 919Q549 919 570 897T591 843ZM379 843Q379 812 358 790T305 767Q275 767 254 789T233 843Q233 875 254
897T305 919Q336 919 357 897T379 843ZM169 717H631L605 598H288L252 429H518L493 312H227L185 118H508L482 0H16L169 717Z" />
<glyph unicode="&#x402;" glyph-name="uni0402" horiz-adv-x="814" d="M449 598L409 410Q430 424 463 435Q501 448 548 448Q601 448 641 432T709 386T749 317T763 228Q763 156 741 92T675 -21T564 -98T408 -126L431 -7Q478 -7 513 11T571 60T605 128T617 205Q617
232 611 255T592 295T558 321T506 331Q473 331 441 321Q411 311 384 296L321 0H178L305 598H92L117 717H687L662 598H449Z" />
<glyph unicode="&#x403;" glyph-name="uni0403" horiz-adv-x="529" d="M431 913H603L447 777H329L431 913ZM169 717H600L574 601H288L160 0H16L169 717Z" />
<glyph unicode="&#x404;" glyph-name="uni0404" horiz-adv-x="650" d="M392 -10Q321 -10 259 11T151 74T78 177T51 318Q51 394 77 467T156 598T288 691T473 726Q544 726 593 712T667 681L641 563Q614 582 570 595T470 608Q397 608 346 584T263 519T215 428Q214
424 213 421H514L491 303H201Q207 208 259 161Q318 108 416 108Q459 108 507 118T593 151L568 32Q539 12 493 1T392 -10Z" />
<glyph unicode="&#x405;" glyph-name="uni0405" horiz-adv-x="612" d="M286 -10Q239 -10 197 -2T121 18T61 47T20 78L45 193Q63 176 91 161T152 134T221 115T292 108Q362 108 391 135T421 203Q421 226 412 241T386 267T343 288T286 308Q251 320 217 334T156 370T113
424T96 506Q96 557 115 597T171 666T258 710T373 726Q415 726 451 720T517 705T567 685T600 664L576 551Q544 577 489 592T374 608Q300 608 267 585T234 524Q234 501 244 486T274 460T318 441T372 422Q406 410 440 395T502 357T547 299T564 214Q564 158 543 116T485
46T397 4T286 -10Z" />
<glyph unicode="&#x406;" glyph-name="uni0406" horiz-adv-x="285" d="M313 717L160 0H16L169 717H313Z" />
<glyph unicode="&#x407;" glyph-name="uni0407" horiz-adv-x="284" d="M138 776Q104 776 80 799T55 857Q55 892 79 915T138 939Q175 939 199 916T224 857Q224 823 200 800T138 776ZM368 776Q333 776 309 799T284 857Q284 892 308 915T368 939Q386 939 401 933T428
915T446 889T453 857Q453 840 447 826T429 800T402 783T368 776ZM313 717L160 0H16L169 717H313Z" />
<glyph unicode="&#x408;" glyph-name="uni0408" horiz-adv-x="405" d="M440 717L328 196Q308 99 247 45T87 -10Q23 -10 -23 13L1 127Q40 108 80 108Q131 108 155 135T191 214L299 717H440Z" />
<glyph unicode="&#x409;" glyph-name="uni0409" horiz-adv-x="1023" d="M991 251Q991 192 969 146T906 67T809 18T684 0H416L544 601H356Q323 455 295 343T230 154T139 37T2 -3Q-7 -3 -16 -3T-35 -1L-9 120H2Q28 120 47 128T82 151T108 186T129 231Q142 265 154
308T181 410T212 543T250 717H712L658 466H730Q851 466 921 413T991 251ZM634 351L584 115H705Q772 115 807 150T842 244Q842 275 833 295T807 328T766 346T713 351H634Z" />
<glyph unicode="&#x40a;" glyph-name="uni040A" horiz-adv-x="1072" d="M1040 246Q1040 187 1018 142T955 65T858 17T734 0H465L538 343H233L160 0H16L169 717H313L258 458H563L618 717H761L706 458H781Q901 458 970 405T1040 246ZM681 342L633 115H754Q820 115
855 149T891 239Q891 298 856 320T764 342H681Z" />
<glyph unicode="&#x40b;" glyph-name="uni040B" horiz-adv-x="825" d="M449 598L408 408Q430 422 464 434Q504 448 555 448Q608 448 650 433T720 385T756 305T753 191L716 0H572L610 192Q617 228 613 254T596 298T560 323T510 331Q475 331 443 320Q413 309 384
293L321 0H178L305 598H92L117 717H687L662 598H449Z" />
<glyph unicode="&#x40c;" glyph-name="uni040C" horiz-adv-x="661" d="M294 295H223L160 0H16L169 717H313L248 412H326L587 717H743L421 342L593 0H442L294 295ZM466 913H638L482 777H364L466 913Z" />
<glyph unicode="&#x40e;" glyph-name="uni040E" horiz-adv-x="636" d="M413 752Q366 752 332 764T278 799T251 850T252 914H373Q365 876 380 860T422 844Q451 843 470 859T498 914H622Q615 879 599 850T558 799T496 765T413 752ZM402 196Q373 149 345 112T285
49T216 8T129 -6Q99 -6 63 0L87 115Q105 112 120 112Q163 112 193 130T249 180L106 717H252L349 330L584 717H731L402 196Z" />
<glyph unicode="&#x40f;" glyph-name="uni040F" horiz-adv-x="719" d="M593 0H373L335 -171H213L242 0H16L171 717H314L185 116H475L603 717H746L593 0Z" />
<glyph unicode="&#x410;" glyph-name="uni0410" horiz-adv-x="700" d="M361 717H534L633 0H491L468 174H188L90 0H-43L361 717ZM452 292L414 577L254 292H452Z" />
<glyph unicode="&#x411;" glyph-name="uni0411" horiz-adv-x="634" d="M169 717H626L601 601H288L254 441H333Q459 441 525 391T591 240Q591 183 570 139T508 64T411 17T283 0H16L169 717ZM230 326L185 115H306Q378 115 410 146T443 231Q443 284 411 305T316 326H230Z" />
<glyph unicode="&#x412;" glyph-name="uni0412" horiz-adv-x="658" d="M169 717H408Q523 717 578 674T634 551Q634 474 588 430T469 369Q538 353 574 313T611 207Q611 155 588 116T526 52T432 13T315 0H16L169 717ZM288 598L251 428H357Q385 428 408 433T449 450T477
479T487 522Q487 562 462 580T388 598H288ZM226 310L185 118H332Q394 118 429 140T465 217Q465 310 341 310H226Z" />
<glyph unicode="&#x413;" glyph-name="uni0413" horiz-adv-x="529" d="M169 717H600L574 601H288L160 0H16L169 717Z" />
<glyph unicode="&#x414;" glyph-name="uni0414" horiz-adv-x="781" d="M627 108H721L661 -171H540L568 0H78L31 -171H-91L-31 108H30Q66 129 94 170T149 282T201 460T258 717H756L627 108ZM483 108L587 601H364Q341 500 321 422T281 284T239 181T191 108H483Z" />
<glyph unicode="&#x415;" glyph-name="uni0415" horiz-adv-x="588" d="M169 717H631L605 598H288L252 429H518L493 312H227L185 118H508L482 0H16L169 717Z" />
<glyph unicode="&#x416;" glyph-name="uni0416" horiz-adv-x="968" d="M424 303H380L126 0H-45L281 379L115 717H262L406 418H449L513 717H655L592 418H634L901 717H1058L729 350L905 0H755L603 303H567L503 0H359L424 303Z" />
<glyph unicode="&#x417;" glyph-name="uni0417" horiz-adv-x="606" d="M551 213Q551 159 528 117T465 47T368 5T247 -10Q200 -10 162 -4T94 13T43 36T6 60L32 176Q66 150 119 129T249 108Q332 108 369 139T406 219Q406 264 375 287T277 311H179L202 426H319Q373
426 408 447T444 516Q444 566 405 587T297 608Q245 608 198 600T115 576L140 695Q169 707 214 716T318 726Q449 726 519 676T590 535Q590 494 576 465T538 416T485 385T424 371Q489 355 520 315T551 213Z" />
<glyph unicode="&#x418;" glyph-name="uni0418" horiz-adv-x="766" d="M16 0L169 717H313L205 210L649 717H794L641 0H497L606 506L162 0H16Z" />
<glyph unicode="&#x419;" glyph-name="uni0419" horiz-adv-x="766" d="M489 752Q441 752 407 764T353 799T327 850T327 914H449Q441 876 455 860T498 844Q526 843 546 859T573 914H697Q690 879 675 850T634 799T572 765T489 752ZM16 0L169 717H313L205 210L649
717H794L641 0H497L606 506L162 0H16Z" />
<glyph unicode="&#x41a;" glyph-name="uni041A" horiz-adv-x="661" d="M294 295H223L160 0H16L169 717H313L248 412H326L587 717H743L421 342L593 0H442L294 295Z" />
<glyph unicode="&#x41b;" glyph-name="uni041B" horiz-adv-x="696" d="M129 231Q142 265 154 308T181 410T212 543T250 717H724L569 0H427L555 601H356Q323 455 295 343T230 154T139 37T2 -3Q-7 -3 -16 -3T-35 -1L-9 120H2Q28 120 47 128T82 151T108 186T129 231Z" />
<glyph unicode="&#x41c;" glyph-name="uni041C" horiz-adv-x="875" d="M717 518L457 110H335L255 524L142 0H16L169 717H348L430 271L713 717H903L750 0H606L717 518Z" />
<glyph unicode="&#x41d;" glyph-name="uni041D" horiz-adv-x="736" d="M531 298H224L160 0H16L169 717H313L249 416H556L621 717H763L611 0H467L531 298Z" />
<glyph unicode="&#x41e;" glyph-name="uni041E" horiz-adv-x="755" d="M370 -10Q299 -10 241 13T140 80T75 184T51 323Q51 408 79 482T157 610T275 695T426 726Q497 726 556 703T657 636T722 532T746 394Q746 308 718 235T640 107T521 21T370 -10ZM201 325Q201
269 214 229T252 161T308 121T380 108Q430 108 470 130T538 191T581 281T596 391Q596 446 583 487T545 555T489 595T418 608Q368 608 328 586T259 525T216 435T201 325Z" />
<glyph unicode="&#x41f;" glyph-name="uni041F" horiz-adv-x="718" d="M169 717H746L592 0H449L578 601H288L160 0H16L169 717Z" />
<glyph unicode="&#x420;" glyph-name="uni0420" horiz-adv-x="624" d="M169 717H389Q449 717 497 704T579 664T630 597T648 503Q647 444 625 397T561 318T464 268T339 251H214L160 0H16L169 717ZM288 598L239 368H362Q428 368 463 403T499 496Q499 556 464 577T372
598H288Z" />
<glyph unicode="&#x421;" glyph-name="uni0421" horiz-adv-x="650" d="M392 -10Q321 -10 259 11T151 74T78 177T51 318Q51 394 77 467T156 598T288 691T473 726Q544 726 593 712T667 681L641 563Q614 582 570 595T470 608Q397 608 346 584T263 519T216 429T201
327Q201 214 259 161T416 108Q459 108 507 118T593 151L568 32Q539 12 493 1T392 -10Z" />
<glyph unicode="&#x422;" glyph-name="uni0422" horiz-adv-x="612" d="M449 598L321 0H178L305 598H92L117 717H687L662 598H449Z" />
<glyph unicode="&#x423;" glyph-name="uni0423" horiz-adv-x="636" d="M402 196Q373 149 345 112T285 49T216 8T129 -6Q99 -6 63 0L87 115Q105 112 120 112Q163 112 193 130T249 180L106 717H252L349 330L584 717H731L402 196Z" />
<glyph unicode="&#x424;" glyph-name="uni0424" horiz-adv-x="825" d="M823 386Q823 318 796 263T719 168T600 106T447 82L427 -10H284L304 83Q249 87 202 104T120 151T65 224T45 324Q45 392 72 447T149 542T268 604T420 629L441 725H585L564 628Q619 623 666
606T748 559T803 486T823 386ZM678 380Q678 417 667 442T638 484T594 509T541 521L470 190Q516 192 554 206T620 244T663 302T678 380ZM189 330Q189 293 200 268T230 226T274 202T327 190L397 521Q350 519 312 505T247 467T204 408T189 330Z" />
<glyph unicode="&#x425;" glyph-name="uni0425" horiz-adv-x="642" d="M316 261L106 0H-45L264 370L112 717H263L373 465L572 717H722L425 357L578 0H425L316 261Z" />
<glyph unicode="&#x426;" glyph-name="uni0426" horiz-adv-x="771" d="M556 0H16L169 717H313L183 107H472L603 717H746L615 107H711L651 -171H530L556 0Z" />
<glyph unicode="&#x427;" glyph-name="uni0427" horiz-adv-x="694" d="M569 0H425L488 296Q415 256 314 256Q258 256 215 274T145 326T109 411T114 526L156 717H298L257 526Q250 494 250 466T260 418T293 387T353 375Q400 375 439 384T513 414L578 717H722L569 0Z" />
<glyph unicode="&#x428;" glyph-name="uni0428" horiz-adv-x="954" d="M829 0H16L169 717H313L183 107H374L505 717H648L517 107H709L839 717H982L829 0Z" />
<glyph unicode="&#x429;" glyph-name="uni0429" horiz-adv-x="1007" d="M852 107H947L887 -171H766L793 0H16L169 717H313L183 107H374L505 717H648L517 107H709L839 717H982L852 107Z" />
<glyph unicode="&#x42a;" glyph-name="uni042A" horiz-adv-x="735" d="M703 251Q703 191 681 145T618 66T521 17T397 0H128L255 598H91L115 717H425L371 466H443Q564 466 633 413T703 251ZM347 351L297 115H418Q485 115 520 150T555 244Q555 275 546 295T520 328T479
346T426 351H347Z" />
<glyph unicode="&#x42b;" glyph-name="uni042B" horiz-adv-x="877" d="M591 251Q591 191 569 145T506 66T409 17T285 0H16L169 717H313L259 466H331Q452 466 521 413T591 251ZM235 351L185 115H306Q373 115 408 150T443 244Q443 275 434 295T408 328T367 346T314
351H235ZM906 717L753 0H609L762 717H906Z" />
<glyph unicode="&#x42c;" glyph-name="uni042C" horiz-adv-x="623" d="M591 251Q591 191 569 145T506 66T409 17T285 0H16L169 717H313L259 466H331Q452 466 521 413T591 251ZM235 351L185 115H306Q373 115 408 150T443 244Q443 275 434 295T408 328T367 346T314
351H235Z" />
<glyph unicode="&#x42d;" glyph-name="uni042D" horiz-adv-x="657" d="M648 398Q648 322 622 249T544 119T412 26T224 -10Q140 -10 87 7T14 39L39 158Q65 139 112 124T224 108Q284 108 329 124T406 166T458 228T488 303H189L215 421H497Q489 518 431 563T278 608Q236
608 189 598T102 563L127 683Q157 701 204 713T310 726Q380 726 442 705T549 643T621 540T648 398Z" />
<glyph unicode="&#x42e;" glyph-name="uni042E" horiz-adv-x="1001" d="M991 394Q991 308 964 235T888 107T772 21T626 -10Q560 -10 506 11T411 73T346 170T318 298H224L160 0H16L169 717H313L249 416H326Q339 484 370 541T448 639T554 703T682 726Q751 726 808
703T905 636T968 532T991 394ZM467 325Q467 269 479 229T514 161T568 121T635 108Q683 108 721 130T786 191T827 281T841 391Q841 446 829 487T794 555T741 595T674 608Q626 608 588 586T523 525T482 435T467 325Z" />
<glyph unicode="&#x42f;" glyph-name="uni042F" horiz-adv-x="663" d="M112 477Q112 533 134 577T197 653T295 700T421 717H691L538 0H394L453 276H366L137 0H-29L234 309Q172 332 142 377T112 477ZM477 388L522 601H413Q339 601 299 572T258 484Q258 457 267
439T294 409T334 393T386 388H477Z" />
<glyph unicode="&#x430;" glyph-name="uni0430" horiz-adv-x="541" d="M309 0Q309 13 310 34T315 77Q304 61 290 46T256 18T212 -2T159 -10Q129 -10 102 -2T54 24T21 69T8 133Q8 222 77 266T278 311H362Q368 345 363 366T344 399T309 415T261 420Q219 420 175
412T93 386L116 495Q153 512 197 520T289 529Q341 529 385 517T459 478T500 405T496 294L451 84Q448 67 444 41T439 0H309ZM217 89Q246 89 267 101T303 131T326 166T337 195L345 231H265Q205 231 178 210T150 151Q150 118 169 104T217 89Z" />
<glyph unicode="&#x431;" glyph-name="uni0431" horiz-adv-x="593" d="M568 288Q568 220 546 165T484 71T393 11T281 -10Q170 -10 105 57T39 252Q39 319 52 382T93 499T160 598T253 672Q287 690 320 700T386 713T454 717T523 715Q565 713 590 718T632 732L602
612Q585 604 565 600T508 596Q480 597 453 598T398 599T344 589T288 562Q249 536 222 499T176 405Q206 453 253 478T360 503Q406 503 444 489T509 448T552 381T568 288ZM175 222Q175 157 207 129T284 100Q318 100 345 115T390 155T417 213T427 281Q427 346 398
374T324 403Q288 403 260 388T213 347T185 289T175 222Z" />
<glyph unicode="&#x432;" glyph-name="uni0432" horiz-adv-x="537" d="M117 519H325Q416 519 459 484T502 390Q502 341 475 311T402 268Q484 243 484 158Q484 85 422 43T251 0H6L117 519ZM231 418L208 312H273Q315 312 337 329T359 373Q359 418 293 418H231ZM188
218L163 101H256Q296 101 320 115T344 163Q344 194 323 206T257 218H188Z" />
<glyph unicode="&#x433;" glyph-name="uni0433" horiz-adv-x="462" d="M223 -10Q183 -10 146 -3T79 23T32 70T14 143Q14 186 27 215T65 264T121 296T191 315Q214 319 236 322T275 332T303 348T314 375Q314 399 291 409T222 420Q178 420 144 412T82 393L105 502Q126
512 159 520T245 529Q350 529 398 489T447 380Q447 338 433 309T393 259T336 228T270 210Q244 205 222 201T183 191T157 174T147 146Q147 120 172 110T238 99Q272 99 298 104T345 116T380 131T407 148L381 25Q358 13 321 2T223 -10Z" />
<glyph unicode="&#x434;" glyph-name="uni0434" horiz-adv-x="612" d="M582 413Q582 323 564 246T508 112T414 23T281 -10Q228 -10 183 6T103 54T50 131T31 234Q31 290 50 339T103 426T187 485T295 507Q355 507 393 484T451 423Q455 518 419 566T294 615Q251 615
212 609T146 588L170 697Q196 708 234 717T320 726Q394 726 444 703T525 639T569 541T582 413ZM420 266Q420 335 388 366T310 397Q276 397 251 385T208 350T183 299T174 235Q174 164 205 132T284 100Q318 100 343 113T386 148T411 201T420 266Z" />
<glyph unicode="&#x435;" glyph-name="uni0435" horiz-adv-x="565" d="M459 19Q436 9 400 0T307 -10Q244 -10 193 5T106 51T51 128T31 234Q31 296 52 350T111 443T202 506T321 529Q375 529 422 511T498 454T535 358T515 222H171Q178 157 218 129T329 100Q377 100
415 109T483 129L459 19ZM312 427Q260 427 227 396T180 317H405Q409 347 403 367T384 401T353 421T312 427Z" />
<glyph unicode="&#x436;" glyph-name="uni0436" horiz-adv-x="803" d="M321 202H285L118 0H-37L193 272L76 519H212L306 312H345L389 519H527L483 312H522L694 519H843L619 251L738 0H595L501 202H459L416 0H278L321 202Z" />
<glyph unicode="&#x437;" glyph-name="uni0437" horiz-adv-x="486" d="M429 149Q429 116 415 87T374 37T305 3T208 -10Q170 -10 139 -5T82 10T40 29T12 48L35 151Q47 140 65 131T104 113T150 101T199 96Q251 96 271 113T291 160Q291 188 271 202T207 216H131L152
313H239Q278 313 298 327T318 367Q318 400 290 411T218 424Q176 424 145 417T88 397L109 504Q132 515 166 522T249 529Q340 529 396 494T452 388Q452 340 424 307T338 264Q380 253 404 224T429 149Z" />
<glyph unicode="&#x438;" glyph-name="uni0438" horiz-adv-x="584" d="M256 100Q294 100 320 117T367 161L443 519H582L470 0H342L352 78H349Q321 41 282 16T186 -10Q149 -10 118 3T68 42T42 109T46 204L112 519H251L186 210Q174 152 194 126T256 100Z" />
<glyph unicode="&#x439;" glyph-name="uni0439" horiz-adv-x="584" d="M362 572Q318 572 287 584T238 616T213 664T213 724H325Q319 690 333 676T370 661Q396 661 413 675T438 724H551Q544 692 530 664T492 616T436 584T362 572ZM256 100Q294 100 320 117T367
161L443 519H582L470 0H342L352 78H349Q321 41 282 16T186 -10Q149 -10 118 3T68 42T42 109T46 204L112 519H251L186 210Q174 152 194 126T256 100Z" />
<glyph unicode="&#x43a;" glyph-name="uni043A" horiz-adv-x="541" d="M235 204H188L144 0H6L117 519H255L211 312H255L433 519H579L353 257L485 0H339L235 204Z" />
<glyph unicode="&#x43b;" glyph-name="uni043B" horiz-adv-x="573" d="M-6 121Q-1 119 3 119T11 119Q40 119 61 144T102 219T139 344T178 519H571L459 0H322L410 411H280Q258 314 235 238T180 108T108 26T9 -3Q-11 -3 -32 0L-6 121Z" />
<glyph unicode="&#x43c;" glyph-name="uni043C" horiz-adv-x="731" d="M556 345L358 43H261L201 340L129 0H6L117 519H290L351 211L551 519H729L618 0H482L556 345Z" />
<glyph unicode="&#x43d;" glyph-name="uni043D" horiz-adv-x="593" d="M387 210H189L144 0H6L117 519H255L212 319H411L454 519H591L481 0H342L387 210Z" />
<glyph unicode="&#x43e;" glyph-name="uni043E" horiz-adv-x="593" d="M281 -10Q228 -10 183 6T103 54T50 131T31 234Q31 291 50 344T106 439T196 504T315 529Q368 529 413 513T493 465T546 388T565 284Q565 227 546 174T490 80T400 15T281 -10ZM174 235Q174 164
205 132T284 100Q318 100 344 115T387 156T414 215T423 283Q423 354 391 386T313 419Q278 419 252 404T209 363T183 304T174 235Z" />
<glyph unicode="&#x43f;" glyph-name="uni043F" horiz-adv-x="591" d="M340 420Q296 420 268 401T221 358L144 0H6L117 519H247L235 441H237Q266 479 307 504T404 529Q442 529 474 516T527 477T555 411T551 317L483 0H344L413 317Q419 347 416 367T402 398T375
415T340 420Z" />
<glyph unicode="&#x440;" glyph-name="uni0440" horiz-adv-x="622" d="M334 -10Q271 -10 228 19T166 99L106 -177H-32L117 519H245L236 453Q266 488 306 508T399 529Q441 529 476 515T538 474T579 404T594 304Q594 233 573 175T516 76T433 13T334 -10ZM198 233Q198
166 228 133T307 100Q340 100 366 114T411 154T440 213T450 289Q450 358 420 389T342 420Q306 420 279 405T234 363T207 304T198 233Z" />
<glyph unicode="&#x441;" glyph-name="uni0441" horiz-adv-x="506" d="M294 -10Q238 -10 190 6T107 53T51 131T31 239Q31 301 53 354T115 446T211 507T335 529Q391 529 430 517T492 487L468 383Q441 400 412 409T346 419Q303 419 271 406T217 370T185 316T174
247Q174 205 186 177T220 132T269 108T327 100Q388 100 440 126L415 14Q392 3 362 -3T294 -10Z" />
<glyph unicode="&#x442;" glyph-name="uni0442" horiz-adv-x="890" d="M144 0H6L117 519H247L235 441H237Q261 479 301 504T395 529Q448 529 486 503T535 420Q567 478 614 503T713 529Q750 529 780 517T829 478T855 411T851 317L782 0H644L712 318Q718 347 716
366T704 398T681 415T650 420Q616 420 589 404T541 361L463 0H325L393 318Q399 347 397 366T386 398T363 415T332 420Q295 420 269 402T221 358L144 0Z" />
<glyph unicode="&#x443;" glyph-name="uni0443" horiz-adv-x="549" d="M296 -17Q248 -103 189 -145T40 -187Q13 -187 -12 -184T-55 -172L-29 -62Q6 -78 51 -78Q85 -78 110 -66T156 -31L67 519H207L256 138L458 519H589L296 -17V-17Z" />
<glyph unicode="&#x444;" glyph-name="uni0444" horiz-adv-x="764" d="M744 279Q744 219 720 169T650 80T540 18T396 -9L360 -177H222L258 -8Q207 -1 164 18T91 67T43 139T25 231Q25 291 49 342T119 431T228 493T373 522L417 727H554L510 520Q561 513 604 494T678
444T726 372T744 279ZM166 235Q166 175 198 140T281 95L350 418Q304 413 270 397T212 357T178 301T166 235ZM601 277Q601 337 570 372T487 417L418 95Q464 100 498 116T555 156T589 211T601 277Z" />
<glyph unicode="&#x445;" glyph-name="uni0445" horiz-adv-x="527" d="M241 177L89 0H-51L188 274L76 519H222L296 360L427 519H568L349 262L470 0H324L241 177Z" />
<glyph unicode="&#x446;" glyph-name="uni0446" horiz-adv-x="615" d="M256 100Q294 100 320 117T367 161L443 519H582L493 109H574L519 -148H400L423 0H342L352 78H349Q321 41 282 16T186 -10Q149 -10 118 3T68 42T42 109T46 204L112 519H251L186 210Q174 152
194 126T256 100Z" />
<glyph unicode="&#x447;" glyph-name="uni0447" horiz-adv-x="563" d="M450 0H311L355 203Q330 187 297 178T224 168Q182 168 149 180T95 219T69 286T75 383L105 519H243L214 384Q202 327 221 305T278 283Q304 283 330 289T378 312L423 519H560L450 0Z" />
<glyph unicode="&#x448;" glyph-name="uni0448" horiz-adv-x="878" d="M642 77Q617 40 578 15T483 -10Q430 -10 393 16T344 99Q312 42 264 16T166 -10Q129 -10 99 2T49 41T23 107T28 201L97 519H234L166 201Q160 172 163 153T175 121T198 104T229 99Q262 99 290
114T338 158L415 519H554L486 201Q480 172 482 153T493 121T516 104T547 99Q584 99 610 117T657 161L735 519H872L761 0H632L644 77H642V77Z" />
<glyph unicode="&#x449;" glyph-name="uni0449" horiz-adv-x="905" d="M642 77Q617 40 578 15T483 -10Q430 -10 393 16T344 99Q312 42 264 16T166 -10Q129 -10 99 2T49 41T23 107T28 201L97 519H234L166 201Q160 172 163 153T175 121T198 104T229 99Q262 99 290
114T338 158L415 519H554L486 201Q480 172 482 153T493 121T516 104T547 99Q584 99 610 117T657 161L735 519H872L784 109H864L809 -148H690L713 0H632L644 77H642Z" />
<glyph unicode="&#x44a;" glyph-name="uni044A" horiz-adv-x="617" d="M573 194Q573 144 553 108T498 47T420 12T329 0H95L183 411H50L73 519H344L310 361H374Q470 361 521 316T573 194ZM288 255L256 106H336Q377 106 403 125T430 186Q430 221 410 238T351 255H288Z" />
<glyph unicode="&#x44b;" glyph-name="uni044B" horiz-adv-x="748" d="M635 0H497L609 519H746L635 0ZM484 194Q484 144 464 108T409 47T331 12T240 0H6L117 519H255L221 361H285Q381 361 432 316T484 194ZM199 255L167 106H247Q288 106 314 125T341 186Q341 221
321 238T262 255H199Z" />
<glyph unicode="&#x44c;" glyph-name="uni044C" horiz-adv-x="528" d="M484 194Q484 144 464 108T409 47T331 12T240 0H6L117 519H255L221 361H285Q381 361 432 316T484 194ZM199 255L167 106H247Q288 106 314 125T341 186Q341 221 321 238T262 255H199Z" />
<glyph unicode="&#x44d;" glyph-name="uni044D" horiz-adv-x="508" d="M477 282Q477 218 456 165T396 72T303 12T182 -10Q121 -10 79 6T14 42L37 147Q66 124 98 112T172 100Q238 100 277 129T332 210H132L155 318H338Q328 375 292 397T203 420Q167 420 139 413T87
391L111 503Q131 514 164 521T236 529Q290 529 334 513T410 466T459 388T477 282Z" />
<glyph unicode="&#x44e;" glyph-name="uni044E" horiz-adv-x="814" d="M785 284Q785 227 766 174T710 80T621 15T503 -10Q453 -10 410 5T333 48T280 117T255 210H189L144 0H6L117 519H255L212 319H265Q277 363 301 401T359 467T438 512T537 529Q589 529 634 513T713
465T766 388T785 284ZM397 235Q397 164 428 132T506 100Q540 100 565 115T608 156T634 215T643 283Q643 354 611 386T533 419Q499 419 474 404T431 363T406 304T397 235Z" />
<glyph unicode="&#x44f;" glyph-name="uni044F" horiz-adv-x="540" d="M64 333Q64 376 81 410T130 469T206 506T304 519H537L426 0H288L324 169H265L132 0H-21L143 203Q106 221 85 254T64 333ZM347 274L377 414H292Q256 414 232 396T207 341Q207 308 229 291T291
274H347Z" />
<glyph unicode="&#x451;" glyph-name="uni0451" horiz-adv-x="565" d="M432 585Q402 585 381 607T359 661Q359 693 380 714T432 736Q464 736 485 715T506 661Q506 630 485 608T432 585ZM220 585Q190 585 169 607T147 661Q147 693 168 714T220 736Q251 736 272
715T294 661Q294 630 273 608T220 585ZM459 19Q436 9 400 0T307 -10Q244 -10 193 5T106 51T51 128T31 234Q31 296 52 350T111 443T202 506T321 529Q375 529 422 511T498 454T535 358T515 222H171Q178 157 218 129T329 100Q377 100 415 109T483 129L459 19ZM312
427Q260 427 227 396T180 317H405Q409 347 403 367T384 401T353 421T312 427Z" />
<glyph unicode="&#x452;" glyph-name="uni0452" horiz-adv-x="594" d="M481 -8Q462 -95 410 -140T272 -186Q249 -186 225 -182T183 -165L205 -60Q217 -67 233 -72T267 -77Q307 -77 322 -55T346 9L413 317Q419 347 416 367T402 398T375 415T340 420Q296 420 268
401T221 358L144 0H6L128 565H58L75 656H147L162 725H299L284 656H432L414 565H265L258 530L235 441H237Q266 479 306 504T404 529Q442 529 474 516T527 477T555 411T551 317L481 -8V-8Z" />
<glyph unicode="&#x453;" glyph-name="uni0453" horiz-adv-x="462" d="M223 -10Q183 -10 146 -3T79 23T32 70T14 143Q14 186 27 215T65 264T121 296T191 315Q214 319 236 322T275 332T303 348T314 375Q314 399 291 409T222 420Q178 420 144 412T82 393L105 502Q126
512 159 520T245 529Q350 529 398 489T447 380Q447 338 433 309T393 259T336 228T270 210Q244 205 222 201T183 191T157 174T147 146Q147 120 172 110T238 99Q272 99 298 104T345 116T380 131T407 148L381 25Q358 13 321 2T223 -10ZM350 746H498L340 588H238L350
746Z" />
<glyph unicode="&#x454;" glyph-name="uni0454" horiz-adv-x="506" d="M415 11Q392 1 363 -4T298 -10Q241 -10 192 6T107 53T51 131T31 239Q31 301 53 354T115 446T211 507T335 529Q391 529 430 517T492 487L468 383Q441 400 412 409T346 419Q281 419 241 391T185
315H384L362 207H177Q183 177 197 157T231 124T277 106T329 100Q357 100 384 105T438 123L415 11V11Z" />
<glyph unicode="&#x455;" glyph-name="uni0455" horiz-adv-x="475" d="M432 160Q432 78 377 34T219 -10Q178 -10 145 -4T85 13T39 35T8 58L31 164Q63 139 113 119T225 99Q270 99 287 112T305 145Q305 162 296 172T273 189T239 200T199 211Q173 218 148 228T103
255T71 297T58 361Q58 403 73 434T117 487T184 518T270 529Q304 529 333 524T386 511T427 494T454 477L432 373Q403 392 362 406T269 420Q229 420 207 410T185 375Q185 360 193 351T214 335T244 325T279 315Q307 307 334 298T383 271T418 228T432 160Z" />
<glyph unicode="&#x456;" glyph-name="uni0456" horiz-adv-x="258" d="M212 574Q178 574 154 599T130 659Q130 677 136 692T154 719T180 737T212 744Q229 744 244 738T270 720T288 693T295 659Q295 624 271 599T212 574ZM256 519L145 0H7L118 519H256Z" />
<glyph unicode="&#x457;" glyph-name="uni0457" horiz-adv-x="260" d="M311 578Q294 578 280 584T255 602T238 628T232 659Q232 694 255 718T311 742Q344 742 366 718T389 659Q389 643 383 629T367 603T342 585T311 578ZM121 578Q105 578 91 584T66 602T49 628T43
659Q43 694 66 718T121 742Q155 742 178 718T201 659Q201 643 195 629T178 603T153 585T121 578ZM256 519L145 0H7L118 519H256Z" />
<glyph unicode="&#x458;" glyph-name="uni0458" horiz-adv-x="273" d="M226 574Q192 574 168 599T143 659Q143 677 149 692T167 719T194 737T226 744Q243 744 258 738T284 720T302 693T309 659Q309 624 285 599T226 574ZM157 -9Q137 -96 84 -141T-59 -187Q-85
-187 -110 -183T-156 -166L-134 -62Q-120 -69 -103 -73T-64 -78Q-21 -78 -4 -56T22 9L132 519H270L157 -9Z" />
<glyph unicode="&#x459;" glyph-name="uni0459" horiz-adv-x="840" d="M796 194Q796 144 776 108T721 47T643 12T551 0H319L408 411H280Q258 314 235 238T180 108T108 26T9 -3Q-11 -3 -32 0L-6 121Q-1 119 3 119T11 119Q40 119 61 144T102 219T139 344T178 519H569L535
361H597Q693 361 744 317T796 194ZM512 255L480 106H559Q601 106 627 125T653 186Q653 255 573 255H512Z" />
<glyph unicode="&#x45a;" glyph-name="uni045A" horiz-adv-x="846" d="M802 188Q802 140 782 105T727 46T649 12T557 0H325L376 242H196L144 0H6L117 519H255L219 350H399L435 519H573L537 350H603Q698 350 750 307T802 188ZM514 244L485 106H564Q606 106 632
124T659 180Q659 213 638 228T579 244H514Z" />
<glyph unicode="&#x45b;" glyph-name="uni045B" horiz-adv-x="594" d="M340 420Q296 420 268 401T221 358L144 0H6L127 565H58L75 656H147L162 725H299L284 656H432L414 565H265L258 530L235 441H237Q266 479 306 504T404 529Q442 529 474 516T527 477T555 411T551
317L483 0H344L413 317Q419 347 416 367T402 398T375 415T340 420Z" />
<glyph unicode="&#x45c;" glyph-name="uni045C" horiz-adv-x="541" d="M235 204H188L144 0H6L117 519H255L211 312H255L433 519H579L353 257L485 0H339L235 204ZM392 746H540L382 588H280L392 746Z" />
<glyph unicode="&#x45e;" glyph-name="uni045E" horiz-adv-x="549" d="M296 -17Q248 -103 189 -145T40 -187Q13 -187 -12 -184T-55 -172L-29 -62Q6 -78 51 -78Q85 -78 110 -66T156 -31L67 519H207L256 138L458 519H589L296 -17ZM331 572Q287 572 256 584T207 616T182
664T182 724H294Q288 690 302 676T339 661Q365 661 382 675T407 724H520Q514 692 499 664T461 616T405 584T331 572Z" />
<glyph unicode="&#x45f;" glyph-name="uni045F" horiz-adv-x="584" d="M256 100Q294 100 320 117T367 161L443 519H582L470 0H342L352 78H349Q309 18 291 -35T271 -148H150Q158 -85 197 -33Q207 -20 218 -8Q203 -10 186 -10Q149 -10 118 3T68 42T42 109T46 204L112
519H251L186 210Q174 152 194 126T256 100Z" />
<glyph unicode="&#x490;" glyph-name="uni0490" horiz-adv-x="531" d="M169 717H470L505 879H626L583 601H288L160 0H16L169 717Z" />
<glyph unicode="&#x491;" glyph-name="uni0491" horiz-adv-x="401" d="M108 519H318L355 667H475L446 519H447L425 410H225L145 0H6L108 519Z" />
<glyph unicode="&#x492;" glyph-name="uni0492" horiz-adv-x="568" d="M48 414H135L200 717H631L605 601H319L279 414H442L421 308H256L191 0H47L112 308H27L48 414Z" />
<glyph unicode="&#x493;" glyph-name="uni0493" horiz-adv-x="427" d="M92 301L134 519H472L451 410H250L229 301H354L335 206H210L170 0H33L73 206H7L26 301H92Z" />
<glyph unicode="&#x49a;" glyph-name="uni049A" horiz-adv-x="676" d="M294 295H223L160 0H16L169 717H313L248 412H326L587 717H743L421 342L539 107H621L561 -171H440L467 0H442L294 295Z" />
<glyph unicode="&#x49b;" glyph-name="uni049B" horiz-adv-x="553" d="M235 204H188L144 0H6L117 519H255L211 312H255L433 519H579L353 257L429 109H513L458 -148H339L363 0H339L235 204Z" />
<glyph unicode="&#x4a2;" glyph-name="uni04A2" horiz-adv-x="789" d="M531 298H224L160 0H16L169 717H313L249 416H556L621 717H763L633 107H729L670 -171H549L575 0H467L531 298Z" />
<glyph unicode="&#x4a3;" glyph-name="uni04A3" horiz-adv-x="624" d="M387 210H189L144 0H6L117 519H255L212 319H411L454 519H591L504 109H583L529 -148H410L433 0H342L387 210Z" />
<glyph unicode="&#x4ae;" glyph-name="uni04AE" horiz-adv-x="611" d="M387 292L325 0H181L245 304L102 717H251L345 422L564 717H707L387 292Z" />
<glyph unicode="&#x4af;" glyph-name="uni04AF" horiz-adv-x="527" d="M281 -1L246 -177H107L142 -1L60 519H202L253 175L450 519H583L281 -1Z" />
<glyph unicode="&#x4b0;" glyph-name="uni04B0" horiz-adv-x="611" d="M105 328H236L102 717H251L345 422L564 717H707L414 328H537L516 222H372L325 0H181L227 222H85L105 328Z" />
<glyph unicode="&#x4b1;" glyph-name="uni04B1" horiz-adv-x="527" d="M4 0H142L60 519H202L253 175L450 519H583L281 0H419L400 -96H262L246 -177H107L123 -96H-15L4 0Z" />
<glyph unicode="&#x4ba;" glyph-name="uni04BA" horiz-adv-x="698" d="M169 717H313L250 421Q323 461 424 461Q480 461 523 443T593 391T629 306T624 191L582 0H440L481 191Q488 223 488 251T478 299T445 330T385 342Q338 342 299 333T225 303L160 0H16L169 717Z" />
<glyph unicode="&#x4bb;" glyph-name="uni04BB" horiz-adv-x="594" d="M340 420Q296 420 268 401T221 358L144 0H6L162 725H299L258 530L235 441H237Q266 479 306 504T404 529Q442 529 474 516T527 477T555 411T551 317L483 0H344L413 317Q419 347 416 367T402
398T375 415T340 420Z" />
<glyph unicode="&#x4d8;" glyph-name="uni04D8" horiz-adv-x="726" d="M708 398Q708 322 684 249T612 119T492 26T323 -10Q242 -10 186 18T99 94T60 206T66 344L79 410H558Q553 513 495 560T339 608Q297 608 250 598T162 563L187 683Q217 701 264 713T370 726Q440
726 502 705T610 643T682 540T708 398ZM333 108Q379 108 415 123T477 163T521 223T548 295H203Q198 253 202 219T223 160T266 122T333 108Z" />
<glyph unicode="&#x4d9;" glyph-name="uni04D9" horiz-adv-x="565" d="M108 500Q131 510 167 519T260 529Q323 529 374 514T461 468T516 391T536 285Q536 223 515 169T456 76T365 13T246 -10Q192 -10 145 8T69 65T32 161T52 297H396Q389 362 349 390T238 419Q190
419 152 410T84 390L108 500ZM255 92Q307 92 340 123T387 202H162Q158 172 164 152T183 118T214 98T255 92Z" />
<glyph unicode="&#x4e8;" glyph-name="uni04E8" horiz-adv-x="755" d="M370 -10Q299 -10 241 13T140 80T75 184T51 323Q51 408 79 482T157 610T275 695T426 726Q497 726 556 703T657 636T722 532T746 394Q746 308 718 235T640 107T521 21T370 -10ZM214 228Q228
188 252 161T308 121T380 108Q430 108 470 130T538 191T581 281Q584 292 586 303H201Q203 261 214 228ZM582 487Q569 528 545 555T489 595T418 608Q368 608 328 586T259 525T216 434Q214 427 211 419H595Q592 457 582 487Z" />
<glyph unicode="&#x4e9;" glyph-name="uni04E9" horiz-adv-x="593" d="M281 -10Q228 -10 183 6T103 54T50 131T31 234Q31 291 50 344T106 439T196 504T315 529Q368 529 413 513T493 465T546 388T565 284Q565 227 546 174T490 80T400 15T281 -10ZM313 422Q264 422
231 392T183 315H424Q416 371 385 396T313 422ZM284 97Q335 97 369 130T417 214H171Q176 153 208 125T284 97Z" />
<glyph unicode="&#x58f;" glyph-name="uni058F" horiz-adv-x="597" d="M213 312H365L376 363H224L245 463H397L404 496Q414 541 402 569T341 597Q290 597 266 569T230 495H70Q95 607 170 667T356 727Q481 727 533 665T563 494L556 463H617L596 363H535L525 312H585L564
212H504L459 0H299L344 212H192L213 312Z" />
<glyph unicode="&#xe3f;" glyph-name="baht" horiz-adv-x="669" d="M333 674L371 854H497L459 676L333 674ZM202 62L329 64L283 -155H156L202 62ZM169 717H408Q523 717 578 674T634 551Q634 474 588 430T469 369Q538 353 574 313T611 207Q611 155 588 116T526
52T432 13T315 0H16L169 717ZM288 598L251 428H357Q385 428 408 433T449 450T477 479T487 522Q487 562 462 580T388 598H288ZM226 310L185 118H332Q394 118 429 140T465 217Q465 310 341 310H226Z" />
</font>
</defs>
</svg>
