<?xml version="1.0" standalone="no"?> <!DOCTYPE svg PUBLIC "-//W3C//DTD SVG 1.0//EN" "http://www.w3.org/TR/2001/REC-SVG-20010904/DTD/svg10.dtd" > <svg xmlns="http://www.w3.org/2000/svg" width="100%" height="100%">
<defs >
<font id="YS" horiz-adv-x="523" ><font-face
    font-family="YS Text"
    units-per-em="1000"
    panose-1="0 0 0 0 0 0 0 0 0 0"
    ascent="928"
    descent="-244"
    alphabetic="0" />
<missing-glyph horiz-adv-x="208" />
<glyph unicode=" " glyph-name="space" horiz-adv-x="229" />
<glyph unicode="!" glyph-name="exclam" horiz-adv-x="234" d="M244 704L125 179H72L178 704H244ZM74 -5Q50 -5 35 10T20 47Q20 70 35 85T74 100Q97 100 112 85T127 47Q127 25 112 10T74 -5Z" />
<glyph unicode="&quot;" glyph-name="quotedbl" horiz-adv-x="390" d="M189 717H265L196 531H138L189 717ZM337 717H413L344 531H286L337 717Z" />
<glyph unicode="#" glyph-name="numbersign" horiz-adv-x="646" d="M386 216H221L155 0H98L164 216H30L41 268H179L241 469H110L121 520H256L316 717H373L313 520H478L538 717H595L535 520H672L660 469H520L458 268H591L580 216H443L377 0H320L386 216ZM401 268L463
469H298L236 268H401Z" />
<glyph unicode="$" glyph-name="dollar" horiz-adv-x="550" d="M243 -10L218 -131H157L183 -6Q148 -1 120 9T69 30T30 54T5 76L21 135Q35 120 57 105T109 78T173 57T250 49Q330 49 376 85T422 190Q422 221 413 243T385 281T340 309T280 335Q248 347 217 361T160
397T120 450T104 528Q104 574 121 610T168 672T242 712T336 726L360 840H421L396 722Q447 715 484 699T542 668L526 609Q491 634 442 650T338 667Q257 667 213 630T169 532Q169 501 180 480T209 444T252 418T304 396Q335 383 368 370T428 335T472 281T489 197Q489
100 425 45T245 -10H243Z" />
<glyph unicode="%" glyph-name="percent" horiz-adv-x="650" d="M18 -10L596 726H657L80 -10H18ZM169 363Q145 363 123 371T85 397T59 440T49 503Q49 546 61 585T96 655T149 704T217 722Q241 722 263 714T301 688T327 645T337 582Q337 539 325 500T290 430T237
381T169 363ZM212 672Q188 672 169 659T137 622T116 568T108 504Q108 454 127 434T174 414Q198 414 217 427T249 464T270 517T278 581Q278 632 259 652T212 672ZM455 -6Q431 -6 409 2T371 27T346 71T336 133Q336 176 348 216T383 286T436 335T504 353Q528 353 549
345T587 320T613 276T623 213Q623 170 611 131T577 61T523 12T455 -6ZM498 302Q474 302 455 289T423 252T402 198T394 135Q394 84 413 65T460 45Q484 45 503 58T536 95T557 148T565 212Q565 262 545 282T498 302Z" />
<glyph unicode="&amp;" glyph-name="ampersand" horiz-adv-x="753" d="M627 6Q586 6 551 18T481 59Q436 27 381 9T259 -10Q143 -10 85 40T26 175Q26 218 40 250T80 307T138 349T209 381Q185 415 169 451T153 532Q153 569 165 604T202 665T262 707T345 723Q426
723 472 680T519 562Q519 519 502 488T455 432T388 391T310 359L423 213Q441 190 457 171T490 136Q535 178 564 230T609 334L660 309Q642 257 611 202T531 100Q557 81 585 72T648 62Q657 62 669 63T691 68L682 14Q674 11 659 9T627 6ZM218 538Q218 496 236 464T276
403Q319 417 352 432T407 465T442 507T454 562Q454 607 427 636T344 665Q312 665 288 655T249 627T226 586T218 538ZM91 178Q91 116 136 83T266 49Q317 49 360 61T439 97Q420 115 401 137T361 185L243 336Q210 325 183 311T135 278T103 235T91 178Z" />
<glyph unicode="&apos;" glyph-name="quotesingle" horiz-adv-x="243" d="M189 717H265L196 531H138L189 717Z" />
<glyph unicode="(" glyph-name="parenleft" horiz-adv-x="326" d="M158 -139Q120 -79 96 2T71 187Q71 276 89 357T140 511T221 644T325 756H399Q344 709 296 648T212 514T156 356T135 179Q135 82 160 2T223 -139H158Z" />
<glyph unicode=")" glyph-name="parenright" horiz-adv-x="326" d="M186 756Q224 696 248 615T273 430Q273 341 255 260T204 106T123 -27T19 -139H-55Q0 -92 48 -31T132 103T188 261T209 438Q209 535 184 615T121 756H186Z" />
<glyph unicode="*" glyph-name="asterisk" horiz-adv-x="417" d="M308 368L254 504L158 394L115 439L228 534L96 591L125 646L246 568L260 713L322 703L286 562L426 594L435 533L290 523L364 396L308 368Z" />
<glyph unicode="+" glyph-name="plus" horiz-adv-x="550" d="M567 310L521 92H458L505 310H305L316 364H516L563 583H625L579 364H779L767 310H567Z" />
<glyph unicode="," glyph-name="comma" horiz-adv-x="223" d="M-3 -101Q26 -77 42 -52T64 -3Q45 1 34 14T23 47Q23 68 36 83T74 98Q97 98 112 82T127 38Q127 -1 104 -38T51 -101H-3Z" />
<glyph unicode="-" glyph-name="hyphen" horiz-adv-x="345" d="M73 333H307L295 271H60L73 333Z" />
<glyph unicode="." glyph-name="period" horiz-adv-x="225" d="M76 -5Q52 -5 37 10T22 47Q22 70 37 85T76 100Q100 100 114 85T129 47Q129 25 115 10T76 -5Z" />
<glyph unicode="/" glyph-name="slash" horiz-adv-x="370" d="M-78 -120L418 756H478L-18 -120H-78Z" />
<glyph unicode="0" glyph-name="zero" horiz-adv-x="550" d="M234 -10Q198 -10 163 2T100 43T55 122T38 247Q38 330 57 415T114 570T209 682T341 726Q377 726 412 714T475 672T520 593T537 468Q537 385 518 300T461 146T366 34T234 -10ZM106 242Q106 185 117 148T148
88T192 58T242 49Q281 49 313 67T370 118T414 192T445 281T464 378T470 474Q470 531 459 568T428 628T384 658T334 667Q295 667 263 649T205 598T161 524T130 435T112 338T106 242Z" />
<glyph unicode="1" glyph-name="one" horiz-adv-x="550" d="M287 0H220L354 630L117 467L134 545L383 717H439L287 0Z" />
<glyph unicode="2" glyph-name="two" horiz-adv-x="550" d="M446 0H5L21 72Q159 151 245 215T379 333T445 436T463 531Q463 595 424 631T317 668Q260 668 211 643T117 570L134 652Q169 687 214 706T325 726Q372 726 410 713T475 674T517 613T532 532Q532 471 509
415T435 303T303 187T104 61H460L446 0Z" />
<glyph unicode="3" glyph-name="three" horiz-adv-x="550" d="M484 212Q484 164 468 124T421 54T345 7T239 -10Q166 -10 114 14T32 69L45 133Q60 117 80 102T124 75T177 56T240 49Q327 49 371 93T416 212Q416 276 376 310T255 345H181L194 403H267Q318 403 353
414T411 444T444 489T455 544Q455 575 444 598T415 637T372 660T321 668Q261 668 219 644T142 585L158 661Q191 693 232 709T329 726Q368 726 402 715T463 682T505 628T520 552Q520 516 508 486T475 432T426 393T363 373Q417 358 450 319T484 212Z" />
<glyph unicode="4" glyph-name="four" horiz-adv-x="550" d="M408 176L371 0H306L343 176H13L25 227L438 717H523L421 236H521L508 176H408ZM356 236L441 641L99 236H356Z" />
<glyph unicode="5" glyph-name="five" horiz-adv-x="550" d="M493 241Q493 186 476 140T425 61T345 9T238 -10Q167 -10 116 14T35 68L49 132Q64 117 82 102T124 76T175 57T238 49Q283 49 318 63T377 101T414 161T427 238Q427 317 389 358T273 400Q228 400 197
387T148 356H97L174 717H534L523 655H224L175 432Q195 444 223 452T289 460Q332 460 369 446T434 405T477 336T493 241Z" />
<glyph unicode="6" glyph-name="six" horiz-adv-x="550" d="M517 265Q517 206 496 156T439 68T355 11T253 -10Q147 -10 88 52T29 245Q29 341 50 428T114 581T222 687T375 727Q429 727 466 717T533 691L525 625Q496 646 456 655T367 665Q311 665 268 643T192 581T138
487T106 368Q141 423 193 450T305 478Q351 478 390 464T457 422T501 355T517 265ZM254 50Q297 50 332 66T392 110T430 178T444 262Q444 299 433 328T401 378T353 408T296 419Q250 419 214 402T154 355T116 287T103 207Q103 135 144 93T254 50Z" />
<glyph unicode="7" glyph-name="seven" horiz-adv-x="550" d="M94 0H18L471 656H96L109 717H554L542 657L94 0Z" />
<glyph unicode="8" glyph-name="eight" horiz-adv-x="550" d="M494 209Q494 159 475 119T423 50T346 6T251 -10Q202 -10 161 3T91 41T45 102T28 183Q28 261 75 315T201 387Q159 406 134 442T108 532Q108 575 125 610T172 671T242 711T330 726Q369 726 405 716T468
684T511 631T527 554Q527 490 488 443T381 376Q429 356 461 316T494 209ZM174 528Q174 470 212 440T307 409Q340 409 368 418T416 446T448 489T460 547Q460 578 449 601T419 639T376 661T327 668Q295 668 267 658T219 630T186 585T174 528ZM97 191Q97 122 140 86T253
49Q292 49 324 61T379 96T414 149T427 215Q427 252 415 278T381 322T333 348T275 356Q235 356 203 344T147 309T110 257T97 191Z" />
<glyph unicode="9" glyph-name="nine" horiz-adv-x="550" d="M550 471Q550 376 529 289T465 136T357 30T203 -10Q149 -10 112 -1T46 26L54 91Q83 71 123 61T211 50Q267 50 311 72T387 135T440 229T472 348Q437 293 386 266T274 238Q227 238 189 252T122 294T78
361T62 451Q62 511 83 561T140 648T224 706T326 727Q431 727 490 665T550 471ZM324 666Q281 666 246 650T186 606T148 539T134 455Q134 417 146 388T178 339T225 309T282 298Q328 298 364 315T425 362T463 429T476 509Q476 581 435 623T324 666Z" />
<glyph unicode=":" glyph-name="colon" horiz-adv-x="230" d="M76 -5Q52 -5 37 10T22 47Q22 70 37 85T76 100Q100 100 114 85T129 47Q129 25 115 10T76 -5ZM159 379Q135 379 120 394T105 431Q105 454 120 469T159 484Q183 484 197 469T212 431Q212 409 198 394T159 379Z" />
<glyph unicode=";" glyph-name="semicolon" horiz-adv-x="230" d="M-3 -101Q26 -77 42 -52T64 -3Q45 1 34 14T23 47Q23 68 36 83T74 98Q97 98 112 82T127 38Q127 -1 104 -38T51 -101H-3ZM159 379Q135 379 120 394T105 431Q105 454 120 469T159 484Q183 484 197
469T212 431Q212 409 198 394T159 379Z" />
<glyph unicode="&lt;" glyph-name="less" horiz-adv-x="550" d="M70 301L86 374L532 565L518 500L131 333L448 166L435 110L70 301Z" />
<glyph unicode="=" glyph-name="equal" horiz-adv-x="549" d="M324 409L336 463H798L787 409H324ZM282 211L293 265H756L745 211H282Z" />
<glyph unicode="&gt;" glyph-name="greater" horiz-adv-x="550" d="M48 175L435 341L119 508L131 565L496 374L480 300L35 110L48 175Z" />
<glyph unicode="?" glyph-name="question" horiz-adv-x="442" d="M471 553Q471 498 451 462T400 401T333 356T263 317T206 269T176 200L172 179H116L118 199Q124 255 148 289T203 347T270 388T336 425T385 473T405 547Q405 572 398 593T373 631T327 657T256 667Q222
667 186 660T120 640L132 699Q161 713 198 719T270 726Q371 726 421 679T471 553ZM134 -5Q110 -5 95 10T80 47Q80 70 95 85T134 100Q157 100 172 85T187 47Q187 25 172 10T134 -5Z" />
<glyph unicode="@" glyph-name="at" horiz-adv-x="1002" d="M744 -121Q715 -135 653 -148T513 -161Q416 -161 332 -134T184 -55T85 76T49 256Q49 360 85 446T186 594T340 690T535 725Q627 725 708 699T849 625T944 506T979 347Q979 289 964 238T919 150T848 90T753
68Q690 68 659 98T619 170Q594 119 552 94T458 68Q426 68 397 78T344 112T307 172T293 262Q293 309 308 353T350 430T415 484T501 505Q554 505 589 478T639 396L668 478H712L675 250Q672 229 673 206T684 165T710 134T758 121Q789 121 818 135T869 178T905 246T918
339Q918 419 889 481T807 585T684 650T531 672Q442 672 365 643T232 561T143 432T110 263Q110 170 140 100T225 -16T353 -85T517 -108Q598 -108 658 -94T744 -66V-121ZM357 257Q357 218 367 192T393 149T430 126T471 119Q508 119 536 135T583 179T613 241T623 314Q623
350 614 376T589 419T552 444T507 452Q471 452 443 435T396 391T367 328T357 257Z" />
<glyph unicode="A" glyph-name="A" horiz-adv-x="660" d="M378 717H475L585 0H516L483 217H158L33 0H-34L378 717ZM473 279L415 663L194 279H473Z" />
<glyph unicode="B" glyph-name="B" horiz-adv-x="617" d="M183 717H369Q469 717 523 677T577 552Q577 472 531 429T411 371Q479 359 519 319T559 205Q559 154 540 116T485 52T400 13T292 0H30L183 717ZM240 655L185 400H319Q360 400 394 408T454 435T493 480T507
545Q507 607 468 631T359 655H240ZM172 338L113 62H302Q388 62 437 97T487 206Q487 275 442 306T313 338H172Z" />
<glyph unicode="C" glyph-name="C" horiz-adv-x="653" d="M359 -10Q296 -10 240 8T143 66T77 165T53 307Q53 395 81 471T160 604T284 693T444 726Q511 726 564 709T649 662L634 597Q598 631 547 647T439 664Q366 664 308 636T210 560T148 447T126 311Q126 240
144 191T195 111T271 66T365 52Q421 52 470 68T564 113L550 45Q520 22 470 6T359 -10Z" />
<glyph unicode="D" glyph-name="D" horiz-adv-x="708" d="M183 717H375Q437 717 492 702T588 652T653 562T677 425Q677 342 650 265T571 129T444 35T272 0H30L183 717ZM240 655L113 62H279Q357 62 418 92T520 172T582 287T604 422Q604 488 586 532T537 604T463
643T373 655H240Z" />
<glyph unicode="E" glyph-name="E" horiz-adv-x="579" d="M183 717H614L599 655H240L187 406H495L482 345H174L113 62H479L466 0H30L183 717Z" />
<glyph unicode="F" glyph-name="F" horiz-adv-x="557" d="M183 717H608L594 655H240L182 386H487L473 324H169L100 0H30L183 717Z" />
<glyph unicode="G" glyph-name="G" horiz-adv-x="723" d="M693 308Q680 224 650 164T576 66T477 9T358 -10Q292 -10 237 9T140 68T76 168T53 311Q53 398 79 474T156 606T277 694T437 726Q479 726 516 719T583 701T636 676T673 648L658 579Q625 613 566 638T432
664Q357 664 300 636T205 560T146 447T126 311Q126 240 144 191T194 111T269 66T363 52Q414 52 456 66T531 110T587 189T621 306H368L385 367H703L693 308V308Z" />
<glyph unicode="H" glyph-name="H" horiz-adv-x="707" d="M566 324H169L100 0H30L183 717H253L182 386H579L649 717H718L566 0H497L566 324Z" />
<glyph unicode="I" glyph-name="I" horiz-adv-x="241" d="M253 717L100 0H30L183 717H253Z" />
<glyph unicode="J" glyph-name="J" horiz-adv-x="357" d="M372 717L250 142Q243 111 230 84T194 35T141 2T69 -10Q42 -10 18 -5T-23 9L-10 68Q24 52 68 52Q122 52 147 79T184 161L302 717H372Z" />
<glyph unicode="K" glyph-name="K" horiz-adv-x="609" d="M266 332H171L100 0H30L183 717H253L184 393H278L593 717H674L327 360L539 0H462L266 332Z" />
<glyph unicode="L" glyph-name="L" horiz-adv-x="561" d="M458 0H30L183 717H253L113 62H472L458 0Z" />
<glyph unicode="M" glyph-name="M" horiz-adv-x="846" d="M767 614L425 109H356L227 624L95 0H30L183 717H270L404 179L766 717H858L706 0H637L767 614Z" />
<glyph unicode="N" glyph-name="N" horiz-adv-x="722" d="M581 0H491L232 641L96 0H30L183 717H271L531 73L668 717H733L581 0Z" />
<glyph unicode="O" glyph-name="O" horiz-adv-x="728" d="M350 -10Q282 -10 227 12T134 75T74 174T53 306Q53 399 81 476T159 608T273 695T413 726Q481 726 536 704T630 642T690 542T711 410Q711 317 683 240T605 108T490 21T350 -10ZM126 304Q126 183 186 118T353
52Q413 52 465 79T555 154T615 268T637 413Q637 534 577 599T411 664Q350 664 298 637T208 562T148 448T126 304Z" />
<glyph unicode="P" glyph-name="P" horiz-adv-x="593" d="M183 717H399Q446 717 485 706T551 672T594 614T610 531Q610 474 590 430T533 355T449 309T343 293H163L100 0H30L183 717ZM240 655L176 354H358Q397 354 430 365T487 399T524 453T538 527Q538 595 499
625T391 655H240Z" />
<glyph unicode="Q" glyph-name="Q" horiz-adv-x="728" d="M635 -131Q529 -108 439 -74T278 -12Q226 9 185 36T114 102T69 190T53 306Q53 399 81 476T159 608T273 695T413 726Q481 726 536 704T630 642T690 542T711 410Q711 327 687 256T620 131T517 44T384 3Q462
-22 527 -37T660 -63L635 -131ZM126 304Q126 183 186 118T353 52Q413 52 465 79T555 154T615 268T637 413Q637 534 577 599T411 664Q350 664 298 637T208 562T148 448T126 304Z" />
<glyph unicode="R" glyph-name="R" horiz-adv-x="620" d="M183 717H397Q498 717 556 672T615 531Q615 481 599 442T554 375T485 330T396 307L522 0H449L325 304H165L100 0H30L183 717ZM240 655L178 366H358Q397 366 431 376T490 407T529 458T543 528Q543 597 502
626T388 655H240Z" />
<glyph unicode="S" glyph-name="S" horiz-adv-x="574" d="M267 -10Q214 -10 172 -1T98 23T45 53T13 83L26 146Q41 129 64 113T118 83T188 61T271 52Q356 52 403 85T451 190Q451 221 441 243T410 281T360 309T294 335Q261 347 226 361T163 396T117 450T99 531Q99
622 165 674T349 726Q427 726 478 706T558 662L545 599Q508 628 458 646T348 664Q261 664 214 630T166 535Q166 503 179 482T213 446T261 420T317 399Q352 387 388 373T453 337T502 280T521 194Q521 96 454 43T267 -10Z" />
<glyph unicode="T" glyph-name="T" horiz-adv-x="575" d="M406 655L267 0H197L336 655H106L120 717H649L636 655H406Z" />
<glyph unicode="U" glyph-name="U" horiz-adv-x="678" d="M168 717H237L142 270Q130 214 139 173T172 105T234 65T316 52Q405 52 464 102T545 259L642 717H710L610 248Q583 121 507 56T313 -10Q254 -10 204 7T119 60T72 151T75 281L168 717Z" />
<glyph unicode="V" glyph-name="V" horiz-adv-x="654" d="M320 0H215L114 717H183L277 47L655 717H724L320 0Z" />
<glyph unicode="W" glyph-name="W" horiz-adv-x="952" d="M689 0H591L545 608L247 0H146L128 717H196L211 66L531 717H600L651 70L943 717H1012L689 0Z" />
<glyph unicode="X" glyph-name="X" horiz-adv-x="617" d="M319 317L46 0H-35L293 376L140 717H214L349 420L602 717H682L373 362L538 0H463L319 317Z" />
<glyph unicode="Y" glyph-name="Y" horiz-adv-x="597" d="M345 310L279 0H208L275 310L117 717H191L321 372L597 717H673L345 310Z" />
<glyph unicode="Z" glyph-name="Z" horiz-adv-x="601" d="M496 0H-8L4 52L542 655H141L155 717H648L637 664L98 62H510L496 0Z" />
<glyph unicode="[" glyph-name="bracketleft" horiz-adv-x="375" d="M204 756H454L441 701H255L89 -83H275L264 -139H14L204 756Z" />
<glyph unicode="\" glyph-name="backslash" horiz-adv-x="367" d="M100 756H159L282 -120H222L100 756Z" />
<glyph unicode="]" glyph-name="bracketright" horiz-adv-x="375" d="M198 -139H-52L-39 -84H147L313 700H127L138 756H388L198 -139Z" />
<glyph unicode="^" glyph-name="asciicircum" horiz-adv-x="443" d="M308 666L127 458H69L277 717H357L454 458H399L308 666Z" />
<glyph unicode="_" glyph-name="underscore" horiz-adv-x="383" d="M-65 -58H326L313 -115H-79L-65 -58Z" />
<glyph unicode="`" glyph-name="grave" horiz-adv-x="449" d="M337 588L214 746H302L391 588H337Z" />
<glyph unicode="a" glyph-name="a" horiz-adv-x="515" d="M337 0Q336 15 337 43T347 106Q335 85 319 64T281 27T232 0T171 -10Q142 -10 115 -2T67 24T33 69T20 135Q20 215 80 261T259 307H389L392 323Q401 364 395 392T371 438T325 464T262 472Q213 472 174 461T103
433L114 490Q141 506 181 517T276 529Q324 529 362 517T426 480T459 413T455 315L407 91Q402 70 399 43T397 0H337ZM183 44Q219 44 249 58T301 94T339 140T362 183L377 256H254Q165 256 125 224T85 139Q85 91 112 68T183 44Z" />
<glyph unicode="b" glyph-name="b" horiz-adv-x="588" d="M556 296Q556 233 538 178T485 80T402 14T294 -10Q226 -10 177 22T109 117L82 0H20L172 717H237L179 444Q210 482 252 505T351 529Q447 529 501 467T556 296ZM292 47Q339 47 376 68T438 123T476 203T489
297Q489 386 447 429T338 472Q292 472 256 452T193 398T153 317T139 219Q139 174 151 142T184 88T232 57T292 47Z" />
<glyph unicode="c" glyph-name="c" horiz-adv-x="484" d="M267 -10Q217 -10 174 4T100 47T50 121T32 227Q32 293 52 348T110 444T199 506T314 529Q362 529 398 518T461 487L448 431Q385 472 312 472Q260 472 220 454T153 403T113 326T99 231Q99 138 147 93T276
47Q308 47 342 54T408 77L396 17Q339 -10 267 -10Z" />
<glyph unicode="d" glyph-name="d" horiz-adv-x="589" d="M415 85Q383 43 339 17T235 -10Q190 -10 153 5T89 50T47 123T32 222Q32 285 50 340T103 438T186 504T295 529Q362 529 411 497T479 400L546 717H611L459 0H401L415 85ZM450 303Q450 348 438 380T405 432T356
462T297 472Q250 472 214 453T152 402T114 325T100 229Q100 182 111 148T143 92T190 58T249 47Q298 47 336 69T399 128T437 211T450 303Z" />
<glyph unicode="e" glyph-name="e" horiz-adv-x="534" d="M430 25Q410 14 372 2T277 -10Q161 -10 97 50T32 226Q32 296 53 352T111 448T197 508T301 529Q355 529 397 509T465 453T494 364T477 246H99V227Q99 139 145 93T282 47Q331 47 373 58T442 83L430 25ZM295
472Q225 472 175 428T107 302H429Q438 345 431 377T404 430T357 461T295 472Z" />
<glyph unicode="f" glyph-name="f" horiz-adv-x="347" d="M220 465L103 -127H38L155 465H89L100 519H166L169 535Q187 631 234 678T366 726Q383 726 401 724T431 718L419 661Q411 664 393 666T357 669Q302 669 275 638T234 535L231 519H379L369 465H220Z" />
<glyph unicode="g" glyph-name="g" horiz-adv-x="587" d="M470 53Q458 -4 437 -47T383 -119T303 -164T192 -179Q133 -179 82 -165T-2 -126L10 -68Q52 -97 98 -109T195 -122Q243 -122 278 -112T338 -79T379 -22T406 60L417 113Q385 71 341 46T237 21Q193 21 156
35T93 78T51 146T36 240Q36 299 54 351T107 443T189 506T298 529Q366 529 416 498T483 404L486 415Q493 449 501 477T514 519H574Q569 505 562 476T547 415L470 53ZM252 77Q301 77 338 98T400 153T437 229T450 315Q450 357 438 386T406 435T358 463T299 472Q253
472 217 455T155 407T117 335T104 246Q104 159 146 118T252 77Z" />
<glyph unicode="h" glyph-name="h" horiz-adv-x="564" d="M342 472Q308 472 281 462T231 436T192 397T159 349L85 0H20L172 717H237L194 515L171 416H173Q203 464 249 496T366 529Q451 529 490 476T508 326L439 0H374L443 327Q452 367 448 394T430 439T394 464T342 472Z" />
<glyph unicode="i" glyph-name="i" horiz-adv-x="214" d="M185 613Q165 613 152 627T139 659Q139 678 152 692T185 706Q205 706 218 692T232 659Q232 641 219 627T185 613ZM195 519L85 0H20L130 519H195Z" />
<glyph unicode="j" glyph-name="j" horiz-adv-x="221" d="M192 613Q172 613 159 627T146 659Q146 678 159 692T192 706Q212 706 225 692T239 659Q239 641 226 627T192 613ZM84 -43Q77 -75 66 -101T36 -147T-7 -176T-67 -187Q-92 -187 -113 -181T-150 -165L-138
-110Q-127 -117 -109 -123T-65 -130Q-26 -130 -9 -108T19 -37L137 519H202L84 -43Z" />
<glyph unicode="k" glyph-name="k" horiz-adv-x="470" d="M192 238H135L85 0H20L172 717H237L147 292H204L438 519H515L248 260L404 0H333L192 238Z" />
<glyph unicode="l" glyph-name="l" horiz-adv-x="214" d="M237 717L85 0H20L172 717H237Z" />
<glyph unicode="m" glyph-name="m" horiz-adv-x="868" d="M85 0H20L130 519H191L171 416H173Q202 464 245 496T352 529Q413 529 449 496T490 400Q520 455 567 492T683 529Q760 529 797 478T814 327L744 0H679L748 328Q757 368 753 395T737 440T704 464T658 472Q629
472 605 463T559 438T521 399T489 351L414 0H349L419 328Q428 368 425 395T408 440T375 464T328 472Q297 472 272 462T227 436T190 397T159 349L85 0Z" />
<glyph unicode="n" glyph-name="n" horiz-adv-x="564" d="M342 472Q308 472 281 462T231 436T192 397T159 349L85 0H20L130 519H191L171 416H173Q203 464 249 496T366 529Q451 529 490 476T508 326L439 0H374L443 327Q452 367 448 394T430 439T394 464T342 472Z" />
<glyph unicode="o" glyph-name="o" horiz-adv-x="547" d="M250 -10Q200 -10 160 6T92 53T48 127T32 224Q32 287 51 343T105 440T188 505T297 529Q346 529 386 513T456 466T500 392T516 295Q516 232 497 176T443 79T359 14T250 -10ZM99 226Q99 136 142 92T253 47Q297
47 333 65T394 116T434 194T448 292Q448 383 405 427T295 472Q251 472 215 454T153 402T113 324T99 226Z" />
<glyph unicode="p" glyph-name="p" horiz-adv-x="588" d="M294 -10Q227 -10 178 22T110 116L47 -177H-18L130 519H188L175 439Q206 480 250 504T351 529Q447 529 501 467T556 296Q556 233 538 178T485 80T402 14T294 -10ZM139 219Q139 174 151 142T184 88T232
57T292 47Q339 47 376 68T438 123T476 203T489 297Q489 386 447 429T338 472Q292 472 256 452T193 398T153 317T139 219Z" />
<glyph unicode="q" glyph-name="q" horiz-adv-x="589" d="M422 -177H357L411 79Q379 39 336 15T235 -10Q190 -10 153 5T89 50T47 123T32 222Q32 285 50 340T103 438T186 504T295 529Q364 529 413 496T481 394L486 415Q492 449 500 476T514 519H575Q570 505 563
476T547 415L422 -177ZM450 303Q450 348 438 380T405 432T356 462T297 472Q250 472 214 453T152 402T114 325T100 229Q100 182 111 148T143 92T190 58T249 47Q298 47 336 69T399 128T437 211T450 303Z" />
<glyph unicode="r" glyph-name="r" horiz-adv-x="340" d="M348 457Q286 460 236 430T156 331L85 0H20L130 519H188L168 400H170Q196 455 243 492T363 529L348 457V457Z" />
<glyph unicode="s" glyph-name="s" horiz-adv-x="461" d="M402 144Q402 69 354 30T215 -10Q176 -10 144 -4T87 13T42 35T10 58L23 116Q36 104 55 92T99 70T154 54T217 47Q285 47 312 73T340 137Q340 162 330 178T303 205T264 223T217 238Q190 246 163 256T115
281T80 320T67 380Q67 417 81 444T120 491T181 519T258 529Q320 529 360 514T425 482L413 424Q387 442 350 457T259 472Q197 472 164 451T130 386Q130 365 138 351T161 327T195 311T238 297Q265 289 294 280T347 255T386 212T402 144Z" />
<glyph unicode="t" glyph-name="t" horiz-adv-x="350" d="M249 2Q223 -10 184 -10Q109 -10 82 33T69 144L138 465H73L85 519H150L173 628H238L215 519H362L350 465H203L133 140Q123 95 137 71T196 47Q215 47 232 49T260 57L249 2V2Z" />
<glyph unicode="u" glyph-name="u" horiz-adv-x="552" d="M217 47Q250 47 276 57T324 84T361 124T392 170L467 519H532L422 0H364L381 105H379Q365 82 348 61T309 24T260 -1T198 -10Q116 -10 76 42T55 186L126 519H191L121 189Q113 151 117 125T135 81T170 55T217 47Z" />
<glyph unicode="v" glyph-name="v" horiz-adv-x="496" d="M243 0H141L67 519H133L199 36L470 519H538L243 0Z" />
<glyph unicode="w" glyph-name="w" horiz-adv-x="754" d="M542 0H443L413 434L198 0H102L86 519H153L164 53L392 519H468L502 46L713 519H779L542 0Z" />
<glyph unicode="x" glyph-name="x" horiz-adv-x="475" d="M228 218L39 0H-36L203 271L89 519H159L253 316L425 519H500L279 265L403 0H332L228 218Z" />
<glyph unicode="y" glyph-name="y" horiz-adv-x="501" d="M241 6Q214 -41 189 -77T136 -137T79 -174T11 -187Q-4 -187 -17 -185T-42 -178L-29 -120Q-20 -125 -7 -127T22 -130Q62 -130 91 -104T157 -21L66 519H135L208 62L471 519H538L241 6V6Z" />
<glyph unicode="z" glyph-name="z" horiz-adv-x="449" d="M356 0H-19L-10 43L362 462H84L96 519H461L452 476L79 57H368L356 0Z" />
<glyph unicode="{" glyph-name="braceleft" horiz-adv-x="387" d="M274 -135Q236 -141 205 -141Q142 -141 110 -114T78 -36Q78 -5 89 27T113 91T137 153T148 209Q148 238 128 258T56 283L67 336Q113 340 141 354T184 390T203 437T208 490Q208 517 206 548T207
609Q215 679 258 718T382 757Q419 757 457 750L446 697Q427 702 411 703T379 705Q323 705 298 676T268 606Q265 578 267 550T270 495Q270 469 266 442T248 389T209 342T142 307Q180 293 195 269T210 210Q210 180 199 150T175 90T151 30T140 -29Q140 -57 160 -72T224
-88Q238 -88 253 -87T285 -83L274 -135V-135Z" />
<glyph unicode="|" glyph-name="bar" horiz-adv-x="281" d="M175 756V-120H112V756H175Z" />
<glyph unicode="}" glyph-name="braceright" horiz-adv-x="387" d="M128 752Q166 758 197 758Q260 758 292 731T324 653Q324 622 313 590T289 526T265 464T254 408Q254 379 274 359T346 334L335 281Q289 277 261 263T218 227T199 180T194 127Q194 100 196 69T195
8Q187 -62 144 -101T20 -140Q-17 -140 -55 -133L-44 -80Q-25 -85 -9 -86T23 -88Q79 -88 104 -59T134 11Q137 39 135 67T132 122Q132 148 136 175T154 228T193 275T260 310Q222 324 207 348T192 407Q192 437 203 467T227 527T251 587T262 646Q262 674 242 689T178
705Q164 705 149 704T117 700L128 752V752Z" />
<glyph unicode="~" glyph-name="asciitilde" horiz-adv-x="602" d="M36 251Q39 282 50 311T80 363T129 400T197 414Q239 414 268 399T321 365T367 332T418 316Q455 316 478 341T510 420H569Q567 390 557 361T528 308T479 271T411 257Q370 257 341 272T287 306T240
339T189 355Q153 355 129 331T96 251H36V251Z" />
<glyph unicode="&#xa0;" glyph-name="uni00A0" horiz-adv-x="208" />
<glyph unicode="&#xa1;" glyph-name="exclamdown" horiz-adv-x="234" d="M-14 -180L105 345H158L52 -180H-14ZM156 529Q180 529 195 514T210 477Q210 454 195 439T156 424Q133 424 118 439T103 477Q103 499 118 514T156 529Z" />
<glyph unicode="&#xa2;" glyph-name="cent" horiz-adv-x="550" d="M304 -10Q291 -10 278 -9L251 -140H195L224 0L211 4Q168 18 137 47T87 121T69 227Q69 293 89 348T147 444T236 506Q282 526 337 529L362 644H417L392 526Q415 524 435 518Q472 507 498 487L485
431Q422 472 349 472Q297 472 257 454T190 403T150 326T136 231Q136 138 184 93T313 47Q345 47 379 54T445 77L433 17Q376 -10 304 -10Z" />
<glyph unicode="&#xa3;" glyph-name="sterling" horiz-adv-x="550" d="M463 0H6L14 40Q86 84 123 141T160 284V290H59L71 346H157Q155 373 153 401T150 464Q150 521 166 569T216 652T300 706T420 726Q472 726 509 715T565 688L552 630Q531 646 496 656T416 667Q362
667 325 652T263 610T229 547T218 468Q218 433 220 404T225 346H405L393 290H227Q226 216 197 161T104 58H476L463 0Z" />
<glyph unicode="&#xa4;" glyph-name="currency" horiz-adv-x="568" d="M294 139Q258 139 227 150T169 180L100 111L62 149L131 219Q111 245 101 276T90 343Q90 379 100 410T131 467L62 536L100 575L169 505Q195 525 226 536T294 547Q329 547 360 537T418 506L488
576L525 537L456 468Q476 442 487 411T498 343Q498 307 487 276T456 219L525 149L487 111L417 180Q391 161 360 150T294 139ZM294 193Q323 193 349 203T394 233T424 281T435 343Q435 377 424 405T394 452T349 482T294 493Q265 493 240 483T195 453T165 405T154
343Q154 309 165 281T195 234T239 204T294 193Z" />
<glyph unicode="&#xa5;" glyph-name="yen" horiz-adv-x="550" d="M277 161L243 0H177L212 161H42L54 213H223L244 312H75L86 364H240L105 717H176L295 399L550 717H622L338 364H489L479 312H309L288 213H457L446 161H277Z" />
<glyph unicode="&#xa6;" glyph-name="brokenbar" horiz-adv-x="281" d="M175 756V356H112V756H175ZM175 280V-120H112V280H175Z" />
<glyph unicode="&#xa7;" glyph-name="section" horiz-adv-x="571" d="M429 -1Q429 -46 410 -80T358 -139T280 -175T181 -187Q137 -187 101 -180T36 -162T-10 -139T-38 -116L-26 -58Q-15 -69 4 -82T51 -106T111 -124T184 -131Q265 -131 313 -98T361 -7Q361 18 351
36T323 67T277 91T216 112Q184 122 153 135T98 168T59 214T44 276Q44 341 92 380T220 427Q186 449 167 479T148 551Q148 588 163 620T209 676T285 713T390 727Q459 727 506 711T579 681L566 622Q534 645 485 658T381 671Q296 671 256 641T215 558Q215 508 250 483T351
439Q383 430 415 417T472 383T514 336T530 270Q530 209 485 170T354 122Q389 101 409 72T429 -1ZM112 287Q112 255 129 232T174 193T239 170T315 163Q393 163 428 190T463 261Q463 293 446 316T401 355T336 378T261 386Q183 386 148 358T112 287Z" />
<glyph unicode="&#xa8;" glyph-name="dieresis" horiz-adv-x="449" d="M215 613Q194 613 182 626T170 659Q170 678 182 691T215 705Q237 705 249 692T262 659Q262 640 250 627T215 613ZM416 613Q395 613 383 626T370 659Q370 678 382 691T416 705Q437 705 449
692T462 659Q462 640 450 627T416 613Z" />
<glyph unicode="&#xa9;" glyph-name="copyright" horiz-adv-x="902" d="M458 -96Q371 -96 296 -66T166 20T79 151T47 317Q47 406 78 481T165 610T296 695T458 726Q545 726 620 696T751 611T837 481T869 317Q869 227 838 151T751 20T621 -65T458 -96ZM458 -47Q537
-47 603 -20T716 55T790 171T816 317Q816 395 790 461T717 575T603 651T458 678Q379 678 313 651T200 576T127 461T100 317Q100 238 126 171T200 56T313 -20T458 -47ZM474 100Q378 100 323 157T267 315Q267 417 320 473T473 529Q515 529 545 519T594 495V441Q572
458 540 466T473 475Q328 475 328 315Q328 236 366 195T478 153Q510 153 540 163T594 193V136Q577 122 548 111T474 100Z" />
<glyph unicode="&#xaa;" glyph-name="ordfeminine" horiz-adv-x="449" d="M353 328Q351 341 353 365T361 417Q351 399 337 382T305 350T263 328T211 319Q186 319 162 326T120 349T90 387T78 444Q78 515 131 555T288 595H399L402 607Q409 643 404 668T384 708T344
730T288 737Q246 737 212 727T151 702L160 753Q184 767 218 777T301 787Q343 787 377 777T433 744T463 686T460 600L417 406Q412 389 410 365T408 328H353ZM222 368Q258 368 286 383T333 421T364 465T379 503L389 549H283Q207 549 173 522T138 449Q138 407 162
388T222 368Z" />
<glyph unicode="&#xab;" glyph-name="guillemotleft" horiz-adv-x="491" d="M312 259L409 69H346L246 264L425 459H496L312 259ZM112 260L209 69H145L45 264L224 459H296L112 260Z" />
<glyph unicode="&#xac;" glyph-name="logicalnot" horiz-adv-x="590" d="M495 110H432L478 318H57L68 372H551L545 345L495 110Z" />
<glyph unicode="&#xae;" glyph-name="registered" horiz-adv-x="902" d="M458 -96Q371 -96 296 -66T166 20T79 151T47 317Q47 406 78 481T165 610T296 695T458 726Q545 726 620 696T751 611T837 481T869 317Q869 227 838 151T751 20T621 -65T458 -96ZM458 -47Q537
-47 603 -20T716 55T790 171T816 317Q816 395 790 461T717 575T603 651T458 678Q379 678 313 651T200 576T127 461T100 317Q100 238 126 171T200 56T313 -20T458 -47ZM324 524H466Q539 524 578 496T617 404Q617 353 592 323T525 282L630 107H562L462 273H385V107H324V524ZM385
470V327H461Q504 327 529 343T555 402Q555 439 533 454T466 470H385Z" />
<glyph unicode="&#xaf;" glyph-name="overscore" horiz-adv-x="449" d="M180 679H457L446 626H169L180 679Z" />
<glyph unicode="&#xb0;" glyph-name="degree" horiz-adv-x="456" d="M237 419Q204 419 176 430T128 463T96 512T84 573Q84 607 95 635T127 683T176 714T237 726Q270 726 298 715T347 683T379 635T391 573Q391 540 380 512T348 463T299 431T237 419ZM237 468Q285
468 312 496T339 573Q339 620 312 649T237 678Q191 678 164 649T137 573Q137 525 164 497T237 468Z" />
<glyph unicode="&#xb1;" glyph-name="plusminus" horiz-adv-x="550" d="M569 310L529 123H466L506 310H306L317 364H517L563 583H626L581 364H781L769 310H569ZM240 0L250 54H714L703 0H240Z" />
<glyph unicode="&#xb2;" glyph-name="twosuperior" horiz-adv-x="349" d="M332 325H47L60 383Q141 429 192 466T273 534T313 592T324 648Q324 688 302 710T238 733Q203 733 176 720T125 685L138 745Q157 760 184 771T251 783Q313 783 350 748T387 653Q387 615
372 582T326 515T245 448T127 375H343L332 325Z" />
<glyph unicode="&#xb3;" glyph-name="threesuperior" horiz-adv-x="341" d="M349 457Q349 396 306 358T189 319Q138 319 105 334T55 367L66 416Q84 399 113 383T189 367Q239 367 263 392T287 457Q287 497 263 516T197 536H148L158 583H207Q260 583 286 605T313
663Q313 698 289 716T232 734Q198 734 175 723T128 694L141 751Q163 766 187 774T244 783Q301 783 337 752T373 669Q373 622 344 593T269 558Q304 550 326 526T349 457Z" />
<glyph unicode="&#xb4;" glyph-name="acute" horiz-adv-x="449" d="M364 746H454L305 588H247L364 746Z" />
<glyph unicode="&#xb6;" glyph-name="paragraph" horiz-adv-x="610" d="M83 474Q83 531 104 576T164 652T257 700T376 717H486L294 -187H232L330 279H298Q201 279 142 329T83 474ZM430 -187H368L561 717H622L430 -187Z" />
<glyph unicode="&#xb7;" glyph-name="middot" horiz-adv-x="219" d="M110 210Q86 210 71 225T56 262Q56 285 71 300T110 315Q134 315 148 300T163 262Q163 240 149 225T110 210Z" />
<glyph unicode="&#xb8;" glyph-name="cedilla" horiz-adv-x="449" d="M270 16L168 -187H86L216 16H270Z" />
<glyph unicode="&#xb9;" glyph-name="onesuperior" horiz-adv-x="245" d="M199 325H139L220 704L85 610L99 675L244 776H295L199 325Z" />
<glyph unicode="&#xba;" glyph-name="ordmasculine" horiz-adv-x="477" d="M277 319Q234 319 199 333T138 375T100 440T86 525Q86 579 102 627T149 710T222 766T317 787Q360 787 395 773T456 732T494 667T508 582Q508 528 492 480T445 396T372 340T277 319ZM147
526Q147 447 184 409T278 371Q316 371 347 386T400 430T434 496T446 580Q446 659 409 697T314 736Q276 736 246 720T193 676T159 610T147 526Z" />
<glyph unicode="&#xbb;" glyph-name="guillemotright" horiz-adv-x="492" d="M272 69H200L384 269L288 459H351L452 264L272 69ZM70 69H-1L183 268L86 459H150L250 264L70 69Z" />
<glyph unicode="&#xbc;" glyph-name="onequarter" horiz-adv-x="856" d="M199 265H139L220 644L85 550L99 615L244 716H295L199 265ZM89 0L736 717H799L153 0H89ZM719 106L697 1H637L660 106H447L456 150L724 453H791L729 155H791L780 106H719ZM670 155L720 387L514
155H670Z" />
<glyph unicode="&#xbd;" glyph-name="onehalf" horiz-adv-x="918" d="M89 0L736 717H799L153 0H89ZM826 1H541L554 59Q635 105 686 142T767 210T807 268T818 324Q818 364 796 386T732 409Q697 409 670 396T619 361L632 421Q651 436 678 447T745 459Q807 459 844
424T881 329Q881 291 866 258T820 191T739 124T621 51H837L826 1ZM199 265H139L220 644L85 550L99 615L244 716H295L199 265Z" />
<glyph unicode="&#xbe;" glyph-name="threequarters" horiz-adv-x="921" d="M345 397Q345 336 302 298T185 259Q134 259 101 274T51 307L62 356Q80 339 109 323T185 307Q235 307 259 332T283 397Q283 437 259 456T193 476H144L154 523H203Q256 523 282 545T309
603Q309 638 285 656T228 674Q194 674 171 663T124 634L137 691Q159 706 183 714T240 723Q297 723 333 692T369 609Q369 562 340 533T265 498Q300 490 322 466T345 397ZM156 0L803 717H866L220 0H156ZM781 106L759 1H699L722 106H509L518 150L786 453H853L791 155H853L842
106H781ZM732 155L782 387L576 155H732Z" />
<glyph unicode="&#xbf;" glyph-name="questiondown" horiz-adv-x="442" d="M-10 -30Q-10 25 10 61T61 122T128 167T198 206T255 254T285 323L289 344H345L343 324Q337 268 313 234T258 176T191 135T125 98T76 50T56 -24Q56 -49 63 -70T88 -108T134 -134T205 -144Q239
-144 275 -137T341 -117L329 -176Q300 -190 263 -196T191 -203Q90 -203 40 -156T-10 -30ZM327 528Q351 528 366 513T381 476Q381 453 366 438T327 423Q304 423 289 438T274 476Q274 498 289 513T327 528Z" />
<glyph unicode="&#xc0;" glyph-name="Agrave" horiz-adv-x="660" d="M378 717H475L585 0H516L483 217H158L33 0H-34L378 717ZM473 279L415 663L194 279H473ZM667 773L538 909H632L728 773H667Z" />
<glyph unicode="&#xc1;" glyph-name="Aacute" horiz-adv-x="660" d="M378 717H475L585 0H516L483 217H158L33 0H-34L378 717ZM473 279L415 663L194 279H473ZM514 909H612L460 773H393L514 909Z" />
<glyph unicode="&#xc2;" glyph-name="Acircumflex" horiz-adv-x="660" d="M378 717H475L585 0H516L483 217H158L33 0H-34L378 717ZM473 279L415 663L194 279H473ZM446 862L332 763H274L416 911H492L571 763H516L446 862Z" />
<glyph unicode="&#xc3;" glyph-name="Atilde" horiz-adv-x="660" d="M378 717H475L585 0H516L483 217H158L33 0H-34L378 717ZM473 279L415 663L194 279H473ZM252 789Q251 846 280 879T359 912Q386 912 405 903T440 883T473 862T510 853Q556 853 562 916H610Q611
859 585 826T509 792Q483 792 465 801T430 822T397 842T358 852Q335 852 319 837T300 789H252V789Z" />
<glyph unicode="&#xc4;" glyph-name="Adieresis" horiz-adv-x="660" d="M378 717H475L585 0H516L483 217H158L33 0H-34L378 717ZM473 279L415 663L194 279H473ZM321 797Q300 797 288 810T275 841Q275 861 287 874T321 888Q343 888 355 875T368 841Q368 823 356
810T321 797ZM546 797Q525 797 513 810T500 841Q500 861 512 874T546 888Q567 888 580 875T593 841Q593 823 580 810T546 797Z" />
<glyph unicode="&#xc5;" glyph-name="Aring" horiz-adv-x="660" d="M378 717H475L585 0H516L483 217H158L33 0H-34L378 717ZM473 279L415 663L194 279H473ZM437 752Q389 752 358 782T327 861Q327 909 358 939T437 970Q485 970 516 940T548 861Q548 813 517 783T437
752ZM437 796Q466 796 484 814T502 861Q502 890 484 908T437 927Q409 927 391 909T373 861Q373 832 391 814T437 796Z" />
<glyph unicode="&#xc6;" glyph-name="AE" horiz-adv-x="960" d="M847 0H412L464 244H222L36 0H-37L511 717H995L981 655H621L568 406H877L864 345H555L494 62H860L847 0ZM477 306L558 683L270 306H477Z" />
<glyph unicode="&#xc7;" glyph-name="Ccedilla" horiz-adv-x="653" d="M359 -10Q296 -10 240 8T143 66T77 165T53 307Q53 395 81 471T160 604T284 693T444 726Q511 726 564 709T649 662L634 597Q598 631 547 647T439 664Q366 664 308 636T210 560T148 447T126
311Q126 240 144 191T195 111T271 66T365 52Q421 52 470 68T564 113L550 45Q520 22 470 6T359 -10ZM382 16L280 -187H198L328 16H382Z" />
<glyph unicode="&#xc8;" glyph-name="Egrave" horiz-adv-x="579" d="M183 717H614L599 655H240L187 406H495L482 345H174L113 62H479L466 0H30L183 717ZM655 773L526 909H620L716 773H655Z" />
<glyph unicode="&#xc9;" glyph-name="Eacute" horiz-adv-x="579" d="M183 717H614L599 655H240L187 406H495L482 345H174L113 62H479L466 0H30L183 717ZM473 909H571L419 773H352L473 909Z" />
<glyph unicode="&#xca;" glyph-name="Ecircumflex" horiz-adv-x="579" d="M183 717H614L599 655H240L187 406H495L482 345H174L113 62H479L466 0H30L183 717ZM429 862L315 763H257L399 911H475L554 763H499L429 862Z" />
<glyph unicode="&#xcb;" glyph-name="Edieresis" horiz-adv-x="579" d="M183 717H614L599 655H240L187 406H495L482 345H174L113 62H479L466 0H30L183 717ZM303 797Q282 797 270 810T257 841Q257 861 269 874T303 888Q325 888 337 875T350 841Q350 823 338 810T303
797ZM528 797Q507 797 495 810T482 841Q482 861 494 874T528 888Q549 888 562 875T575 841Q575 823 562 810T528 797Z" />
<glyph unicode="&#xcc;" glyph-name="Igrave" horiz-adv-x="241" d="M253 717L100 0H30L183 717H253ZM193 773L64 909H158L254 773H193Z" />
<glyph unicode="&#xcd;" glyph-name="Iacute" horiz-adv-x="241" d="M253 717L100 0H30L183 717H253ZM571 909H669L517 773H450L571 909Z" />
<glyph unicode="&#xce;" glyph-name="Icircumflex" horiz-adv-x="241" d="M253 717L100 0H30L183 717H253ZM238 862L124 763H66L208 911H284L363 763H308L238 862Z" />
<glyph unicode="&#xcf;" glyph-name="Idieresis" horiz-adv-x="241" d="M253 717L100 0H30L183 717H253ZM113 797Q92 797 80 810T67 841Q67 861 79 874T113 888Q135 888 147 875T160 841Q160 823 148 810T113 797ZM338 797Q317 797 305 810T292 841Q292 861 304
874T338 888Q359 888 372 875T385 841Q385 823 372 810T338 797Z" />
<glyph unicode="&#xd0;" glyph-name="Eth" horiz-adv-x="739" d="M146 393L215 717H407Q469 717 524 702T620 652T685 562T709 425Q709 342 682 265T603 129T476 35T304 0H62L134 338H30L43 393H146ZM203 338L144 62H310Q388 62 449 92T551 172T613 287T635 422Q635
488 617 532T568 604T495 643T405 655H271L215 393H442L430 338H203Z" />
<glyph unicode="&#xd1;" glyph-name="Ntilde" horiz-adv-x="722" d="M581 0H491L232 641L96 0H30L183 717H271L531 73L668 717H733L581 0ZM305 789Q304 846 333 879T412 912Q439 912 458 903T493 883T526 862T563 853Q609 853 615 916H663Q664 859 638 826T562
792Q536 792 518 801T483 822T450 842T411 852Q388 852 372 837T353 789H305V789Z" />
<glyph unicode="&#xd2;" glyph-name="Ograve" horiz-adv-x="728" d="M350 -10Q282 -10 227 12T134 75T74 174T53 306Q53 399 81 476T159 608T273 695T413 726Q481 726 536 704T630 642T690 542T711 410Q711 317 683 240T605 108T490 21T350 -10ZM126 304Q126 183
186 118T353 52Q413 52 465 79T555 154T615 268T637 413Q637 534 577 599T411 664Q350 664 298 637T208 562T148 448T126 304ZM448 773L319 909H413L509 773H448Z" />
<glyph unicode="&#xd3;" glyph-name="Oacute" horiz-adv-x="728" d="M350 -10Q282 -10 227 12T134 75T74 174T53 306Q53 399 81 476T159 608T273 695T413 726Q481 726 536 704T630 642T690 542T711 410Q711 317 683 240T605 108T490 21T350 -10ZM126 304Q126 183
186 118T353 52Q413 52 465 79T555 154T615 268T637 413Q637 534 577 599T411 664Q350 664 298 637T208 562T148 448T126 304ZM496 909H594L442 773H375L496 909Z" />
<glyph unicode="&#xd4;" glyph-name="Ocircumflex" horiz-adv-x="728" d="M350 -10Q282 -10 227 12T134 75T74 174T53 306Q53 399 81 476T159 608T273 695T413 726Q481 726 536 704T630 642T690 542T711 410Q711 317 683 240T605 108T490 21T350 -10ZM126 304Q126
183 186 118T353 52Q413 52 465 79T555 154T615 268T637 413Q637 534 577 599T411 664Q350 664 298 637T208 562T148 448T126 304ZM444 862L330 763H272L414 911H490L569 763H514L444 862Z" />
<glyph unicode="&#xd5;" glyph-name="Otilde" horiz-adv-x="728" d="M350 -10Q282 -10 227 12T134 75T74 174T53 306Q53 399 81 476T159 608T273 695T413 726Q481 726 536 704T630 642T690 542T711 410Q711 317 683 240T605 108T490 21T350 -10ZM126 304Q126 183
186 118T353 52Q413 52 465 79T555 154T615 268T637 413Q637 534 577 599T411 664Q350 664 298 637T208 562T148 448T126 304ZM259 789Q258 846 287 879T366 912Q393 912 412 903T447 883T480 862T517 853Q563 853 569 916H617Q618 859 592 826T516 792Q490 792
472 801T437 822T404 842T365 852Q342 852 326 837T307 789H259V789Z" />
<glyph unicode="&#xd6;" glyph-name="Odieresis" horiz-adv-x="728" d="M350 -10Q282 -10 227 12T134 75T74 174T53 306Q53 399 81 476T159 608T273 695T413 726Q481 726 536 704T630 642T690 542T711 410Q711 317 683 240T605 108T490 21T350 -10ZM126 304Q126
183 186 118T353 52Q413 52 465 79T555 154T615 268T637 413Q637 534 577 599T411 664Q350 664 298 637T208 562T148 448T126 304ZM324 797Q303 797 291 810T278 841Q278 861 290 874T324 888Q346 888 358 875T371 841Q371 823 359 810T324 797ZM549 797Q528 797
516 810T503 841Q503 861 515 874T549 888Q570 888 583 875T596 841Q596 823 583 810T549 797Z" />
<glyph unicode="&#xd7;" glyph-name="multiply" horiz-adv-x="550" d="M414 115L273 299L64 116L30 157L242 341L96 531L143 565L286 381L499 566L533 526L318 338L462 151L414 115Z" />
<glyph unicode="&#xd8;" glyph-name="Oslash" horiz-adv-x="728" d="M350 -10Q282 -10 227 12Q198 23 174 39L89 -70H19L132 76Q94 116 74 174Q53 233 53 306Q53 399 81 476T159 608T273 695T413 726Q481 726 536 704Q568 691 595 671L684 786H754L636 635Q670
596 690 542Q711 483 711 410Q711 317 683 240T605 108T490 21T350 -10ZM126 304Q126 195 175 131L554 619Q498 664 411 664Q350 664 298 637T208 562T148 448T126 304ZM353 52Q413 52 465 79T555 154T615 268T637 413Q637 516 593 579L215 92Q270 52 353 52Z"
/>
<glyph unicode="&#xd9;" glyph-name="Ugrave" horiz-adv-x="678" d="M168 717H237L142 270Q130 214 139 173T172 105T234 65T316 52Q405 52 464 102T545 259L642 717H710L610 248Q583 121 507 56T313 -10Q254 -10 204 7T119 60T72 151T75 281L168 717ZM429 773L300
909H394L490 773H429Z" />
<glyph unicode="&#xda;" glyph-name="Uacute" horiz-adv-x="678" d="M168 717H237L142 270Q130 214 139 173T172 105T234 65T316 52Q405 52 464 102T545 259L642 717H710L610 248Q583 121 507 56T313 -10Q254 -10 204 7T119 60T72 151T75 281L168 717ZM515 909H613L461
773H394L515 909Z" />
<glyph unicode="&#xdb;" glyph-name="Ucircumflex" horiz-adv-x="678" d="M168 717H237L142 270Q130 214 139 173T172 105T234 65T316 52Q405 52 464 102T545 259L642 717H710L610 248Q583 121 507 56T313 -10Q254 -10 204 7T119 60T72 151T75 281L168 717ZM462
862L348 763H290L432 911H508L587 763H532L462 862Z" />
<glyph unicode="&#xdc;" glyph-name="Udieresis" horiz-adv-x="678" d="M168 717H237L142 270Q130 214 139 173T172 105T234 65T316 52Q405 52 464 102T545 259L642 717H710L610 248Q583 121 507 56T313 -10Q254 -10 204 7T119 60T72 151T75 281L168 717ZM336
797Q315 797 303 810T290 841Q290 861 302 874T336 888Q358 888 370 875T383 841Q383 823 371 810T336 797ZM561 797Q540 797 528 810T515 841Q515 861 527 874T561 888Q582 888 595 875T608 841Q608 823 595 810T561 797Z" />
<glyph unicode="&#xdd;" glyph-name="Yacute" horiz-adv-x="597" d="M345 310L279 0H208L275 310L117 717H191L321 372L597 717H673L345 310ZM472 909H570L418 773H351L472 909Z" />
<glyph unicode="&#xde;" glyph-name="Thorn" horiz-adv-x="569" d="M133 154L100 0H30L183 717H253L223 577H366Q413 577 452 566T518 532T561 474T577 392Q577 335 557 291T500 216T416 170T310 154H133ZM210 516L146 214H324Q363 214 396 225T453 259T490 313T504
388Q504 456 466 486T358 516H210Z" />
<glyph unicode="&#xdf;" glyph-name="germandbls" horiz-adv-x="574" d="M532 140Q532 71 481 31T341 -10Q284 -10 249 4T198 33L210 90Q230 74 262 61T345 47Q408 47 436 71T465 130Q465 156 452 173T419 203T376 226T333 250T300 282T287 331Q287 363 301 384T336
423T381 454T426 485T461 523T475 576Q475 622 445 645T362 669Q291 669 248 624T184 481L81 0H16L118 481Q143 599 206 662T369 726Q451 726 496 686T541 579Q541 542 527 515T493 468T448 432T403 402T368 373T354 339Q354 320 367 308T400 286T443 265T486 239T519
200T532 140Z" />
<glyph unicode="&#xe0;" glyph-name="agrave" horiz-adv-x="515" d="M337 0Q336 15 337 43T347 106Q335 85 319 64T281 27T232 0T171 -10Q142 -10 115 -2T67 24T33 69T20 135Q20 215 80 261T259 307H389L392 323Q401 364 395 392T371 438T325 464T262 472Q213
472 174 461T103 433L114 490Q141 506 181 517T276 529Q324 529 362 517T426 480T459 413T455 315L407 91Q402 70 399 43T397 0H337ZM183 44Q219 44 249 58T301 94T339 140T362 183L377 256H254Q165 256 125 224T85 139Q85 91 112 68T183 44ZM555 588L432 746H520L609
588H555Z" />
<glyph unicode="&#xe1;" glyph-name="aacute" horiz-adv-x="515" d="M337 0Q336 15 337 43T347 106Q335 85 319 64T281 27T232 0T171 -10Q142 -10 115 -2T67 24T33 69T20 135Q20 215 80 261T259 307H389L392 323Q401 364 395 392T371 438T325 464T262 472Q213
472 174 461T103 433L114 490Q141 506 181 517T276 529Q324 529 362 517T426 480T459 413T455 315L407 91Q402 70 399 43T397 0H337ZM183 44Q219 44 249 58T301 94T339 140T362 183L377 256H254Q165 256 125 224T85 139Q85 91 112 68T183 44ZM388 746H478L329 588H271L388
746Z" />
<glyph unicode="&#xe2;" glyph-name="acircumflex" horiz-adv-x="515" d="M337 0Q336 15 337 43T347 106Q335 85 319 64T281 27T232 0T171 -10Q142 -10 115 -2T67 24T33 69T20 135Q20 215 80 261T259 307H389L392 323Q401 364 395 392T371 438T325 464T262 472Q213
472 174 461T103 433L114 490Q141 506 181 517T276 529Q324 529 362 517T426 480T459 413T455 315L407 91Q402 70 399 43T397 0H337ZM183 44Q219 44 249 58T301 94T339 140T362 183L377 256H254Q165 256 125 224T85 139Q85 91 112 68T183 44ZM581 687L464 588H408L549
736H625L705 588H649L581 687Z" />
<glyph unicode="&#xe3;" glyph-name="atilde" horiz-adv-x="515" d="M337 0Q336 15 337 43T347 106Q335 85 319 64T281 27T232 0T171 -10Q142 -10 115 -2T67 24T33 69T20 135Q20 215 80 261T259 307H389L392 323Q401 364 395 392T371 438T325 464T262 472Q213
472 174 461T103 433L114 490Q141 506 181 517T276 529Q324 529 362 517T426 480T459 413T455 315L407 91Q402 70 399 43T397 0H337ZM183 44Q219 44 249 58T301 94T339 140T362 183L377 256H254Q165 256 125 224T85 139Q85 91 112 68T183 44ZM403 601Q403 623 409
644T427 681T459 706T504 716Q529 716 547 708T580 689T611 670T645 661Q669 661 679 676T691 720H740Q740 698 735 678T718 641T689 614T644 604Q620 604 603 612T570 631T539 650T502 659Q453 659 452 601H403V601Z" />
<glyph unicode="&#xe4;" glyph-name="adieresis" horiz-adv-x="515" d="M337 0Q336 15 337 43T347 106Q335 85 319 64T281 27T232 0T171 -10Q142 -10 115 -2T67 24T33 69T20 135Q20 215 80 261T259 307H389L392 323Q401 364 395 392T371 438T325 464T262 472Q213
472 174 461T103 433L114 490Q141 506 181 517T276 529Q324 529 362 517T426 480T459 413T455 315L407 91Q402 70 399 43T397 0H337ZM183 44Q219 44 249 58T301 94T339 140T362 183L377 256H254Q165 256 125 224T85 139Q85 91 112 68T183 44ZM217 613Q196 613 184
626T172 659Q172 678 184 691T217 705Q239 705 251 692T264 659Q264 640 252 627T217 613ZM418 613Q397 613 385 626T372 659Q372 678 384 691T418 705Q439 705 451 692T464 659Q464 640 452 627T418 613Z" />
<glyph unicode="&#xe5;" glyph-name="aring" horiz-adv-x="515" d="M337 0Q336 15 337 43T347 106Q335 85 319 64T281 27T232 0T171 -10Q142 -10 115 -2T67 24T33 69T20 135Q20 215 80 261T259 307H389L392 323Q401 364 395 392T371 438T325 464T262 472Q213 472
174 461T103 433L114 490Q141 506 181 517T276 529Q324 529 362 517T426 480T459 413T455 315L407 91Q402 70 399 43T397 0H337ZM183 44Q219 44 249 58T301 94T339 140T362 183L377 256H254Q165 256 125 224T85 139Q85 91 112 68T183 44ZM338 571Q291 571 260 601T228
680Q228 728 259 758T338 789Q386 789 418 759T450 680Q450 632 418 602T338 571ZM338 615Q366 615 385 633T404 680Q404 709 385 727T338 746Q311 746 293 728T275 680Q275 651 292 633T338 615Z" />
<glyph unicode="&#xe6;" glyph-name="ae" horiz-adv-x="864" d="M770 25Q751 14 714 2T621 -10Q530 -10 473 30T396 149Q385 125 368 97T324 45T260 6T173 -10Q143 -10 116 -2T67 24T33 69T20 134Q20 215 80 261T259 307H388L392 323Q401 364 395 392T371 438T325
464T262 472Q213 472 174 461T103 433L114 490Q141 506 181 517T276 529Q341 529 387 505T447 426Q482 476 532 502T641 529Q692 529 732 509T796 453T824 364T808 246H447V227Q447 139 492 93T626 47Q674 47 716 58T783 83L770 25ZM185 44Q222 44 252 58T303 93T339
138T361 181L377 256H254Q165 256 125 224T85 138Q85 90 112 67T185 44ZM636 472Q568 472 520 428T454 302H760Q768 345 761 377T737 430T693 461T636 472Z" />
<glyph unicode="&#xe7;" glyph-name="ccedilla" horiz-adv-x="484" d="M267 -10Q217 -10 174 4T100 47T50 121T32 227Q32 293 52 348T110 444T199 506T314 529Q362 529 398 518T461 487L448 431Q385 472 312 472Q260 472 220 454T153 403T113 326T99 231Q99 138
147 93T276 47Q308 47 342 54T408 77L396 17Q339 -10 267 -10ZM278 16L176 -187H94L224 16H278Z" />
<glyph unicode="&#xe8;" glyph-name="egrave" horiz-adv-x="534" d="M430 25Q410 14 372 2T277 -10Q161 -10 97 50T32 226Q32 296 53 352T111 448T197 508T301 529Q355 529 397 509T465 453T494 364T477 246H99V227Q99 139 145 93T282 47Q331 47 373 58T442 83L430
25ZM295 472Q225 472 175 428T107 302H429Q438 345 431 377T404 430T357 461T295 472ZM571 588L448 746H536L625 588H571Z" />
<glyph unicode="&#xe9;" glyph-name="eacute" horiz-adv-x="534" d="M430 25Q410 14 372 2T277 -10Q161 -10 97 50T32 226Q32 296 53 352T111 448T197 508T301 529Q355 529 397 509T465 453T494 364T477 246H99V227Q99 139 145 93T282 47Q331 47 373 58T442 83L430
25ZM295 472Q225 472 175 428T107 302H429Q438 345 431 377T404 430T357 461T295 472ZM376 746H466L317 588H259L376 746Z" />
<glyph unicode="&#xea;" glyph-name="ecircumflex" horiz-adv-x="534" d="M430 25Q410 14 372 2T277 -10Q161 -10 97 50T32 226Q32 296 53 352T111 448T197 508T301 529Q355 529 397 509T465 453T494 364T477 246H99V227Q99 139 145 93T282 47Q331 47 373 58T442
83L430 25ZM295 472Q225 472 175 428T107 302H429Q438 345 431 377T404 430T357 461T295 472ZM331 687L214 588H158L299 736H375L455 588H399L331 687Z" />
<glyph unicode="&#xeb;" glyph-name="edieresis" horiz-adv-x="534" d="M430 25Q410 14 372 2T277 -10Q161 -10 97 50T32 226Q32 296 53 352T111 448T197 508T301 529Q355 529 397 509T465 453T494 364T477 246H99V227Q99 139 145 93T282 47Q331 47 373 58T442
83L430 25ZM295 472Q225 472 175 428T107 302H429Q438 345 431 377T404 430T357 461T295 472ZM470 613Q449 613 437 626T425 659Q425 678 437 691T470 705Q492 705 504 692T517 659Q517 640 505 627T470 613ZM671 613Q650 613 638 626T625 659Q625 678 637 691T671
705Q692 705 704 692T717 659Q717 640 705 627T671 613Z" />
<glyph unicode="&#xec;" glyph-name="igrave" horiz-adv-x="214" d="M195 519L85 0H20L130 519H195ZM148 588L25 746H113L202 588H148Z" />
<glyph unicode="&#xed;" glyph-name="iacute" horiz-adv-x="214" d="M195 519L85 0H20L130 519H195ZM512 746H602L453 588H395L512 746Z" />
<glyph unicode="&#xee;" glyph-name="icircumflex" horiz-adv-x="214" d="M195 519L85 0H20L130 519H195ZM191 687L74 588H18L159 736H235L315 588H259L191 687Z" />
<glyph unicode="&#xef;" glyph-name="idieresis" horiz-adv-x="214" d="M195 519L85 0H20L130 519H195ZM77 613Q56 613 44 626T32 659Q32 678 44 691T77 705Q99 705 111 692T124 659Q124 640 112 627T77 613ZM278 613Q257 613 245 626T232 659Q232 678 244 691T278
705Q299 705 311 692T324 659Q324 640 312 627T278 613Z" />
<glyph unicode="&#xf0;" glyph-name="eth" horiz-adv-x="560" d="M533 353Q533 269 512 202T453 88T364 16T252 -9Q205 -9 165 5T96 48T49 122T32 226Q32 294 52 348T109 440T193 498T297 519Q345 519 387 503T457 445Q443 496 421 536T370 609L205 559L194 600L334
643Q308 665 279 681T218 708L220 717H307Q330 709 353 696T399 663L527 703L537 660L435 629Q477 581 505 513T533 353ZM254 48Q302 48 341 68T407 127T450 222T466 349Q466 355 466 361T465 374Q446 421 402 442T305 464Q255 464 217 447T153 398T113 323T99
228Q99 180 111 146T145 90T194 58T254 48Z" />
<glyph unicode="&#xf1;" glyph-name="ntilde" horiz-adv-x="564" d="M342 472Q308 472 281 462T231 436T192 397T159 349L85 0H20L130 519H191L171 416H173Q203 464 249 496T366 529Q451 529 490 476T508 326L439 0H374L443 327Q452 367 448 394T430 439T394 464T342
472ZM184 601Q184 623 190 644T208 681T240 706T285 716Q310 716 328 708T361 689T392 670T426 661Q450 661 460 676T472 720H521Q521 698 516 678T499 641T470 614T425 604Q401 604 384 612T351 631T320 650T283 659Q234 659 233 601H184V601Z" />
<glyph unicode="&#xf2;" glyph-name="ograve" horiz-adv-x="547" d="M250 -10Q200 -10 160 6T92 53T48 127T32 224Q32 287 51 343T105 440T188 505T297 529Q346 529 386 513T456 466T500 392T516 295Q516 232 497 176T443 79T359 14T250 -10ZM99 226Q99 136 142
92T253 47Q297 47 333 65T394 116T434 194T448 292Q448 383 405 427T295 472Q251 472 215 454T153 402T113 324T99 226ZM585 588L462 746H550L639 588H585Z" />
<glyph unicode="&#xf3;" glyph-name="oacute" horiz-adv-x="547" d="M250 -10Q200 -10 160 6T92 53T48 127T32 224Q32 287 51 343T105 440T188 505T297 529Q346 529 386 513T456 466T500 392T516 295Q516 232 497 176T443 79T359 14T250 -10ZM99 226Q99 136 142
92T253 47Q297 47 333 65T394 116T434 194T448 292Q448 383 405 427T295 472Q251 472 215 454T153 402T113 324T99 226ZM376 746H466L317 588H259L376 746Z" />
<glyph unicode="&#xf4;" glyph-name="ocircumflex" horiz-adv-x="547" d="M250 -10Q200 -10 160 6T92 53T48 127T32 224Q32 287 51 343T105 440T188 505T297 529Q346 529 386 513T456 466T500 392T516 295Q516 232 497 176T443 79T359 14T250 -10ZM99 226Q99 136
142 92T253 47Q297 47 333 65T394 116T434 194T448 292Q448 383 405 427T295 472Q251 472 215 454T153 402T113 324T99 226ZM580 687L463 588H407L548 736H624L704 588H648L580 687Z" />
<glyph unicode="&#xf5;" glyph-name="otilde" horiz-adv-x="547" d="M250 -10Q200 -10 160 6T92 53T48 127T32 224Q32 287 51 343T105 440T188 505T297 529Q346 529 386 513T456 466T500 392T516 295Q516 232 497 176T443 79T359 14T250 -10ZM99 226Q99 136 142
92T253 47Q297 47 333 65T394 116T434 194T448 292Q448 383 405 427T295 472Q251 472 215 454T153 402T113 324T99 226ZM405 601Q405 623 411 644T429 681T461 706T506 716Q531 716 549 708T582 689T613 670T647 661Q671 661 681 676T693 720H742Q742 698 737 678T720
641T691 614T646 604Q622 604 605 612T572 631T541 650T504 659Q455 659 454 601H405V601Z" />
<glyph unicode="&#xf6;" glyph-name="odieresis" horiz-adv-x="547" d="M250 -10Q200 -10 160 6T92 53T48 127T32 224Q32 287 51 343T105 440T188 505T297 529Q346 529 386 513T456 466T500 392T516 295Q516 232 497 176T443 79T359 14T250 -10ZM99 226Q99 136
142 92T253 47Q297 47 333 65T394 116T434 194T448 292Q448 383 405 427T295 472Q251 472 215 454T153 402T113 324T99 226ZM467 613Q446 613 434 626T422 659Q422 678 434 691T467 705Q489 705 501 692T514 659Q514 640 502 627T467 613ZM668 613Q647 613 635
626T622 659Q622 678 634 691T668 705Q689 705 701 692T714 659Q714 640 702 627T668 613Z" />
<glyph unicode="&#xf7;" glyph-name="divide" horiz-adv-x="550" d="M581 490Q557 490 542 505T527 543Q527 566 542 581T581 596Q604 596 619 581T634 543Q634 521 619 506T581 490ZM305 310L316 364H779L767 310H305ZM496 79Q472 79 457 94T442 131Q442 154
457 169T496 184Q519 184 534 169T549 131Q549 110 534 95T496 79Z" />
<glyph unicode="&#xf8;" glyph-name="oslash" horiz-adv-x="547" d="M250 -10Q187 -10 140 16L77 -76H15L98 47Q66 77 49 122T32 224Q32 287 51 343T105 440T188 505T297 529Q359 529 408 503L470 595H533L450 472Q482 441 499 397T516 295Q516 232 497 176T443
79T359 14T250 -10ZM99 226Q99 146 135 101L373 453Q341 472 295 472Q251 472 215 454T153 402T113 324T99 226ZM448 292Q448 334 439 364T413 418L174 66Q206 47 253 47Q297 47 333 65T394 116T434 194T448 292Z" />
<glyph unicode="&#xf9;" glyph-name="ugrave" horiz-adv-x="552" d="M217 47Q250 47 276 57T324 84T361 124T392 170L467 519H532L422 0H364L381 105H379Q365 82 348 61T309 24T260 -1T198 -10Q116 -10 76 42T55 186L126 519H191L121 189Q113 151 117 125T135
81T170 55T217 47ZM577 588L454 746H542L631 588H577Z" />
<glyph unicode="&#xfa;" glyph-name="uacute" horiz-adv-x="552" d="M217 47Q250 47 276 57T324 84T361 124T392 170L467 519H532L422 0H364L381 105H379Q365 82 348 61T309 24T260 -1T198 -10Q116 -10 76 42T55 186L126 519H191L121 189Q113 151 117 125T135
81T170 55T217 47ZM415 746H505L356 588H298L415 746Z" />
<glyph unicode="&#xfb;" glyph-name="ucircumflex" horiz-adv-x="552" d="M217 47Q250 47 276 57T324 84T361 124T392 170L467 519H532L422 0H364L381 105H379Q365 82 348 61T309 24T260 -1T198 -10Q116 -10 76 42T55 186L126 519H191L121 189Q113 151 117 125T135
81T170 55T217 47ZM358 687L241 588H185L326 736H402L482 588H426L358 687Z" />
<glyph unicode="&#xfc;" glyph-name="udieresis" horiz-adv-x="552" d="M217 47Q250 47 276 57T324 84T361 124T392 170L467 519H532L422 0H364L381 105H379Q365 82 348 61T309 24T260 -1T198 -10Q116 -10 76 42T55 186L126 519H191L121 189Q113 151 117 125T135
81T170 55T217 47ZM243 613Q222 613 210 626T198 659Q198 678 210 691T243 705Q265 705 277 692T290 659Q290 640 278 627T243 613ZM444 613Q423 613 411 626T398 659Q398 678 410 691T444 705Q465 705 477 692T490 659Q490 640 478 627T444 613Z" />
<glyph unicode="&#xfd;" glyph-name="yacute" horiz-adv-x="501" d="M241 6Q214 -41 189 -77T136 -137T79 -174T11 -187Q-4 -187 -17 -185T-42 -178L-29 -120Q-20 -125 -7 -127T22 -130Q62 -130 91 -104T157 -21L66 519H135L208 62L471 519H538L241 6V6ZM389 746H479L330
588H272L389 746Z" />
<glyph unicode="&#xfe;" glyph-name="thorn" horiz-adv-x="588" d="M294 -10Q227 -10 178 22T110 115L47 -177H-18L172 717H237L178 444Q209 482 252 505T351 529Q447 529 501 467T556 296Q556 233 538 178T485 80T402 14T294 -10ZM292 47Q339 47 376 68T438 123T476
203T489 297Q489 386 447 429T338 472Q292 472 256 452T193 398T153 317T139 219Q139 174 151 142T184 88T232 57T292 47Z" />
<glyph unicode="&#xff;" glyph-name="ydieresis" horiz-adv-x="501" d="M241 6Q214 -41 189 -77T136 -137T79 -174T11 -187Q-4 -187 -17 -185T-42 -178L-29 -120Q-20 -125 -7 -127T22 -130Q62 -130 91 -104T157 -21L66 519H135L208 62L471 519H538L241 6V6ZM467
613Q446 613 434 626T422 659Q422 678 434 691T467 705Q489 705 501 692T514 659Q514 640 502 627T467 613ZM668 613Q647 613 635 626T622 659Q622 678 634 691T668 705Q689 705 701 692T714 659Q714 640 702 627T668 613Z" />
<glyph unicode="&#x100;" glyph-name="Amacron" horiz-adv-x="660" d="M378 717H475L585 0H516L483 217H158L33 0H-34L378 717ZM473 279L415 663L194 279H473ZM287 870H591L580 816H275L287 870Z" />
<glyph unicode="&#x101;" glyph-name="amacron" horiz-adv-x="515" d="M337 0Q336 15 337 43T347 106Q335 85 319 64T281 27T232 0T171 -10Q142 -10 115 -2T67 24T33 69T20 135Q20 215 80 261T259 307H389L392 323Q401 364 395 392T371 438T325 464T262 472Q213
472 174 461T103 433L114 490Q141 506 181 517T276 529Q324 529 362 517T426 480T459 413T455 315L407 91Q402 70 399 43T397 0H337ZM183 44Q219 44 249 58T301 94T339 140T362 183L377 256H254Q165 256 125 224T85 139Q85 91 112 68T183 44ZM187 679H464L453 626H176L187
679Z" />
<glyph unicode="&#x102;" glyph-name="Abreve" horiz-adv-x="660" d="M378 717H475L585 0H516L483 217H158L33 0H-34L378 717ZM473 279L415 663L194 279H473ZM441 760Q403 760 375 772T331 804T308 850T307 907H372Q364 862 383 837T445 811Q483 811 509 835T547
907H612Q606 877 594 851T561 804T511 772T441 760Z" />
<glyph unicode="&#x103;" glyph-name="abreve" horiz-adv-x="515" d="M337 0Q336 15 337 43T347 106Q335 85 319 64T281 27T232 0T171 -10Q142 -10 115 -2T67 24T33 69T20 135Q20 215 80 261T259 307H389L392 323Q401 364 395 392T371 438T325 464T262 472Q213
472 174 461T103 433L114 490Q141 506 181 517T276 529Q324 529 362 517T426 480T459 413T455 315L407 91Q402 70 399 43T397 0H337ZM183 44Q219 44 249 58T301 94T339 140T362 183L377 256H254Q165 256 125 224T85 139Q85 91 112 68T183 44ZM564 584Q528 584 502
595T460 626T439 670T440 723H503Q494 681 512 658T568 635Q603 635 631 656T669 723H732Q726 694 713 669T678 625T629 595T564 584Z" />
<glyph unicode="&#x104;" glyph-name="Aogonek" horiz-adv-x="660" d="M378 717H475L585 0Q565 -6 547 -15T515 -35T493 -61T484 -94Q484 -117 500 -130T544 -143Q557 -143 567 -141T588 -135L579 -181Q571 -185 556 -188T521 -192Q476 -192 451 -170T425 -109Q425
-67 451 -38T515 6L483 217H158L33 0H-34L378 717ZM473 279L415 663L194 279H473Z" />
<glyph unicode="&#x105;" glyph-name="aogonek" horiz-adv-x="515" d="M392 -181Q383 -185 369 -188T334 -192Q289 -192 264 -170T238 -109Q238 -64 268 -35T337 7Q336 24 338 50T347 106Q335 85 319 64T281 27T232 0T171 -10Q142 -10 115 -2T67 24T33 69T20 135Q20
215 80 261T259 307H389L392 323Q401 364 395 392T371 438T325 464T262 472Q213 472 174 461T103 433L114 490Q141 506 181 517T276 529Q324 529 362 517T426 480T459 413T455 315L407 91Q402 70 399 43T397 0Q378 -6 360 -15T328 -35T306 -61T297 -94Q297 -117
312 -130T357 -143Q379 -143 401 -135L392 -181ZM183 44Q219 44 249 58T301 94T339 140T362 183L377 256H254Q165 256 125 224T85 139Q85 91 112 68T183 44Z" />
<glyph unicode="&#x106;" glyph-name="Cacute" horiz-adv-x="653" d="M359 -10Q296 -10 240 8T143 66T77 165T53 307Q53 395 81 471T160 604T284 693T444 726Q511 726 564 709T649 662L634 597Q598 631 547 647T439 664Q366 664 308 636T210 560T148 447T126 311Q126
240 144 191T195 111T271 66T365 52Q421 52 470 68T564 113L550 45Q520 22 470 6T359 -10ZM536 909H634L482 773H415L536 909Z" />
<glyph unicode="&#x107;" glyph-name="cacute" horiz-adv-x="484" d="M267 -10Q217 -10 174 4T100 47T50 121T32 227Q32 293 52 348T110 444T199 506T314 529Q362 529 398 518T461 487L448 431Q385 472 312 472Q260 472 220 454T153 403T113 326T99 231Q99 138
147 93T276 47Q308 47 342 54T408 77L396 17Q339 -10 267 -10ZM386 746H476L327 588H269L386 746Z" />
<glyph unicode="&#x108;" glyph-name="Ccircumflex" horiz-adv-x="653" d="M359 -10Q296 -10 240 8T143 66T77 165T53 307Q53 395 81 471T160 604T284 693T444 726Q511 726 564 709T649 662L634 597Q598 631 547 647T439 664Q366 664 308 636T210 560T148 447T126
311Q126 240 144 191T195 111T271 66T365 52Q421 52 470 68T564 113L550 45Q520 22 470 6T359 -10ZM470 862L356 763H298L440 911H516L595 763H540L470 862Z" />
<glyph unicode="&#x109;" glyph-name="ccircumflex" horiz-adv-x="484" d="M267 -10Q217 -10 174 4T100 47T50 121T32 227Q32 293 52 348T110 444T199 506T314 529Q362 529 398 518T461 487L448 431Q385 472 312 472Q260 472 220 454T153 403T113 326T99 231Q99
138 147 93T276 47Q308 47 342 54T408 77L396 17Q339 -10 267 -10ZM337 687L220 588H164L305 736H381L461 588H405L337 687Z" />
<glyph unicode="&#x10a;" glyph-name="Cdotaccent" horiz-adv-x="653" d="M359 -10Q296 -10 240 8T143 66T77 165T53 307Q53 395 81 471T160 604T284 693T444 726Q511 726 564 709T649 662L634 597Q598 631 547 647T439 664Q366 664 308 636T210 560T148 447T126
311Q126 240 144 191T195 111T271 66T365 52Q421 52 470 68T564 113L550 45Q520 22 470 6T359 -10ZM425 797Q405 797 392 810T379 841Q379 861 392 874T425 888Q447 888 459 875T472 841Q472 823 460 810T425 797Z" />
<glyph unicode="&#x10b;" glyph-name="cdotaccent" horiz-adv-x="484" d="M267 -10Q217 -10 174 4T100 47T50 121T32 227Q32 293 52 348T110 444T199 506T314 529Q362 529 398 518T461 487L448 431Q385 472 312 472Q260 472 220 454T153 403T113 326T99 231Q99
138 147 93T276 47Q308 47 342 54T408 77L396 17Q339 -10 267 -10ZM327 613Q306 613 294 626T281 659Q281 678 293 691T327 705Q349 705 361 692T374 659Q374 640 362 627T327 613Z" />
<glyph unicode="&#x10c;" glyph-name="Ccaron" horiz-adv-x="653" d="M359 -10Q296 -10 240 8T143 66T77 165T53 307Q53 395 81 471T160 604T284 693T444 726Q511 726 564 709T649 662L634 597Q598 631 547 647T439 664Q366 664 308 636T210 560T148 447T126 311Q126
240 144 191T195 111T271 66T365 52Q421 52 470 68T564 113L550 45Q520 22 470 6T359 -10ZM495 763H419L340 911H395L466 812L579 911H637L495 763Z" />
<glyph unicode="&#x10d;" glyph-name="ccaron" horiz-adv-x="484" d="M267 -10Q217 -10 174 4T100 47T50 121T32 227Q32 293 52 348T110 444T199 506T314 529Q362 529 398 518T461 487L448 431Q385 472 312 472Q260 472 220 454T153 403T113 326T99 231Q99 138
147 93T276 47Q308 47 342 54T408 77L396 17Q339 -10 267 -10ZM356 588H281L201 736H257L326 636L441 736H498L356 588Z" />
<glyph unicode="&#x10e;" glyph-name="Dcaron" horiz-adv-x="708" d="M183 717H375Q437 717 492 702T588 652T653 562T677 425Q677 342 650 265T571 129T444 35T272 0H30L183 717ZM240 655L113 62H279Q357 62 418 92T520 172T582 287T604 422Q604 488 586 532T537
604T463 643T373 655H240ZM446 763H370L291 911H346L417 812L530 911H588L446 763Z" />
<glyph unicode="&#x10f;" glyph-name="dcaron" horiz-adv-x="589" d="M415 85Q383 43 339 17T235 -10Q190 -10 153 5T89 50T47 123T32 222Q32 285 50 340T103 438T186 504T295 529Q362 529 411 497T479 400L546 717H611L459 0H401L415 85ZM450 303Q450 348 438
380T405 432T356 462T297 472Q250 472 214 453T152 402T114 325T100 229Q100 182 111 148T143 92T190 58T249 47Q298 47 336 69T399 128T437 211T450 303ZM599 530L663 719H740L646 530H599Z" />
<glyph unicode="&#x110;" glyph-name="Dcroat" horiz-adv-x="739" d="M146 393L215 717H407Q469 717 524 702T620 652T685 562T709 425Q709 342 682 265T603 129T476 35T304 0H62L134 338H30L43 393H146ZM203 338L144 62H310Q388 62 449 92T551 172T613 287T635
422Q635 488 617 532T568 604T495 643T405 655H271L215 393H442L430 338H203Z" />
<glyph unicode="&#x111;" glyph-name="" horiz-adv-x="588" d="M415 85Q383 43 339 17T235 -10Q190 -10 153 5T89 50T47 123T32 222Q32 285 50 340T103 438T186 504T295 529Q362 529 411 497T479 400L518 584H336L347 634H528L546 717H611L593 634H666L655 584H583L459
0H401L415 85ZM450 303Q450 348 438 380T405 432T356 462T297 472Q250 472 214 453T152 402T114 325T100 229Q100 182 111 148T143 92T190 58T249 47Q298 47 336 69T399 128T437 211T450 303Z" />
<glyph unicode="&#x112;" glyph-name="Emacron" horiz-adv-x="579" d="M183 717H614L599 655H240L187 406H495L482 345H174L113 62H479L466 0H30L183 717ZM276 870H580L569 816H264L276 870Z" />
<glyph unicode="&#x113;" glyph-name="emacron" horiz-adv-x="534" d="M430 25Q410 14 372 2T277 -10Q161 -10 97 50T32 226Q32 296 53 352T111 448T197 508T301 529Q355 529 397 509T465 453T494 364T477 246H99V227Q99 139 145 93T282 47Q331 47 373 58T442
83L430 25ZM295 472Q225 472 175 428T107 302H429Q438 345 431 377T404 430T357 461T295 472ZM185 679H462L451 626H174L185 679Z" />
<glyph unicode="&#x114;" glyph-name="Ebreve" horiz-adv-x="579" d="M183 717H614L599 655H240L187 406H495L482 345H174L113 62H479L466 0H30L183 717ZM413 760Q375 760 347 772T303 804T280 850T279 907H344Q336 862 355 837T417 811Q455 811 481 835T519 907H584Q578
877 566 851T533 804T483 772T413 760Z" />
<glyph unicode="&#x115;" glyph-name="ebreve" horiz-adv-x="534" d="M430 25Q410 14 372 2T277 -10Q161 -10 97 50T32 226Q32 296 53 352T111 448T197 508T301 529Q355 529 397 509T465 453T494 364T477 246H99V227Q99 139 145 93T282 47Q331 47 373 58T442 83L430
25ZM295 472Q225 472 175 428T107 302H429Q438 345 431 377T404 430T357 461T295 472ZM318 584Q282 584 256 595T214 626T193 670T194 723H257Q248 681 266 658T322 635Q357 635 385 656T423 723H486Q480 694 467 669T432 625T383 595T318 584Z" />
<glyph unicode="&#x116;" glyph-name="Edotaccent" horiz-adv-x="579" d="M183 717H614L599 655H240L187 406H495L482 345H174L113 62H479L466 0H30L183 717ZM413 797Q393 797 380 810T367 841Q367 861 380 874T413 888Q435 888 447 875T460 841Q460 823 448 810T413
797Z" />
<glyph unicode="&#x117;" glyph-name="edotaccent" horiz-adv-x="534" d="M430 25Q410 14 372 2T277 -10Q161 -10 97 50T32 226Q32 296 53 352T111 448T197 508T301 529Q355 529 397 509T465 453T494 364T477 246H99V227Q99 139 145 93T282 47Q331 47 373 58T442
83L430 25ZM295 472Q225 472 175 428T107 302H429Q438 345 431 377T404 430T357 461T295 472ZM569 613Q548 613 536 626T523 659Q523 678 535 691T569 705Q591 705 603 692T616 659Q616 640 604 627T569 613Z" />
<glyph unicode="&#x118;" glyph-name="Eogonek" horiz-adv-x="579" d="M183 717H614L599 655H240L187 406H495L482 345H174L113 62H479L466 0H30L183 717ZM401 -192Q356 -192 331 -170T305 -109Q305 -88 313 -71T335 -40T366 -16T403 0H465Q445 -6 427 -15T396
-35T374 -61T365 -94Q365 -117 380 -130T424 -143Q437 -143 447 -141T469 -135L459 -181Q451 -185 436 -188T401 -192Z" />
<glyph unicode="&#x119;" glyph-name="eogonek" horiz-adv-x="534" d="M430 25Q410 14 372 2T277 -10Q161 -10 97 50T32 226Q32 296 53 352T111 448T197 508T301 529Q355 529 397 509T465 453T494 364T477 246H99V227Q99 139 145 93T282 47Q331 47 373 58T442
83L430 25ZM295 472Q225 472 175 428T107 302H429Q438 345 431 377T404 430T357 461T295 472ZM302 -192Q257 -192 232 -170T206 -109Q206 -88 214 -71T236 -40T267 -16T304 0H366Q346 -6 328 -15T297 -35T275 -61T266 -94Q266 -117 281 -130T325 -143Q338 -143
348 -141T370 -135L360 -181Q352 -185 337 -188T302 -192Z" />
<glyph unicode="&#x11a;" glyph-name="Ecaron" horiz-adv-x="579" d="M183 717H614L599 655H240L187 406H495L482 345H174L113 62H479L466 0H30L183 717ZM450 763H374L295 911H350L421 812L534 911H592L450 763Z" />
<glyph unicode="&#x11b;" glyph-name="ecaron" horiz-adv-x="534" d="M430 25Q410 14 372 2T277 -10Q161 -10 97 50T32 226Q32 296 53 352T111 448T197 508T301 529Q355 529 397 509T465 453T494 364T477 246H99V227Q99 139 145 93T282 47Q331 47 373 58T442 83L430
25ZM295 472Q225 472 175 428T107 302H429Q438 345 431 377T404 430T357 461T295 472ZM348 588H273L193 736H249L318 636L433 736H490L348 588Z" />
<glyph unicode="&#x11c;" glyph-name="Gcircumflex" horiz-adv-x="723" d="M693 308Q680 224 650 164T576 66T477 9T358 -10Q292 -10 237 9T140 68T76 168T53 311Q53 398 79 474T156 606T277 694T437 726Q479 726 516 719T583 701T636 676T673 648L658 579Q625
613 566 638T432 664Q357 664 300 636T205 560T146 447T126 311Q126 240 144 191T194 111T269 66T363 52Q414 52 456 66T531 110T587 189T621 306H368L385 367H703L693 308V308ZM462 862L348 763H290L432 911H508L587 763H532L462 862Z" />
<glyph unicode="&#x11d;" glyph-name="gcircumflex" horiz-adv-x="587" d="M470 53Q458 -4 437 -47T383 -119T303 -164T192 -179Q133 -179 82 -165T-2 -126L10 -68Q52 -97 98 -109T195 -122Q243 -122 278 -112T338 -79T379 -22T406 60L417 113Q385 71 341 46T237
21Q193 21 156 35T93 78T51 146T36 240Q36 299 54 351T107 443T189 506T298 529Q366 529 416 498T483 404L486 415Q493 449 501 477T514 519H574Q569 505 562 476T547 415L470 53ZM252 77Q301 77 338 98T400 153T437 229T450 315Q450 357 438 386T406 435T358 463T299
472Q253 472 217 455T155 407T117 335T104 246Q104 159 146 118T252 77ZM370 687L253 588H197L338 736H414L494 588H438L370 687Z" />
<glyph unicode="&#x11e;" glyph-name="Gbreve" horiz-adv-x="723" d="M693 308Q680 224 650 164T576 66T477 9T358 -10Q292 -10 237 9T140 68T76 168T53 311Q53 398 79 474T156 606T277 694T437 726Q479 726 516 719T583 701T636 676T673 648L658 579Q625 613
566 638T432 664Q357 664 300 636T205 560T146 447T126 311Q126 240 144 191T194 111T269 66T363 52Q414 52 456 66T531 110T587 189T621 306H368L385 367H703L693 308V308ZM450 760Q412 760 384 772T340 804T317 850T316 907H381Q373 862 392 837T454 811Q492
811 518 835T556 907H621Q615 877 603 851T570 804T520 772T450 760Z" />
<glyph unicode="&#x11f;" glyph-name="gbreve" horiz-adv-x="587" d="M470 53Q458 -4 437 -47T383 -119T303 -164T192 -179Q133 -179 82 -165T-2 -126L10 -68Q52 -97 98 -109T195 -122Q243 -122 278 -112T338 -79T379 -22T406 60L417 113Q385 71 341 46T237 21Q193
21 156 35T93 78T51 146T36 240Q36 299 54 351T107 443T189 506T298 529Q366 529 416 498T483 404L486 415Q493 449 501 477T514 519H574Q569 505 562 476T547 415L470 53ZM252 77Q301 77 338 98T400 153T437 229T450 315Q450 357 438 386T406 435T358 463T299
472Q253 472 217 455T155 407T117 335T104 246Q104 159 146 118T252 77ZM342 584Q306 584 280 595T238 626T217 670T218 723H281Q272 681 290 658T346 635Q381 635 409 656T447 723H510Q504 694 491 669T456 625T407 595T342 584Z" />
<glyph unicode="&#x120;" glyph-name="Gdotaccent" horiz-adv-x="723" d="M693 308Q680 224 650 164T576 66T477 9T358 -10Q292 -10 237 9T140 68T76 168T53 311Q53 398 79 474T156 606T277 694T437 726Q479 726 516 719T583 701T636 676T673 648L658 579Q625
613 566 638T432 664Q357 664 300 636T205 560T146 447T126 311Q126 240 144 191T194 111T269 66T363 52Q414 52 456 66T531 110T587 189T621 306H368L385 367H703L693 308V308ZM443 797Q423 797 410 810T397 841Q397 861 410 874T443 888Q465 888 477 875T490
841Q490 823 478 810T443 797Z" />
<glyph unicode="&#x121;" glyph-name="gdotaccent" horiz-adv-x="587" d="M470 53Q458 -4 437 -47T383 -119T303 -164T192 -179Q133 -179 82 -165T-2 -126L10 -68Q52 -97 98 -109T195 -122Q243 -122 278 -112T338 -79T379 -22T406 60L417 113Q385 71 341 46T237
21Q193 21 156 35T93 78T51 146T36 240Q36 299 54 351T107 443T189 506T298 529Q366 529 416 498T483 404L486 415Q493 449 501 477T514 519H574Q569 505 562 476T547 415L470 53ZM252 77Q301 77 338 98T400 153T437 229T450 315Q450 357 438 386T406 435T358 463T299
472Q253 472 217 455T155 407T117 335T104 246Q104 159 146 118T252 77ZM352 613Q331 613 319 626T306 659Q306 678 318 691T352 705Q374 705 386 692T399 659Q399 640 387 627T352 613Z" />
<glyph unicode="&#x122;" glyph-name="uni0122" horiz-adv-x="723" d="M693 308Q680 224 650 164T576 66T477 9T358 -10Q292 -10 237 9T140 68T76 168T53 311Q53 398 79 474T156 606T277 694T437 726Q479 726 516 719T583 701T636 676T673 648L658 579Q625 613
566 638T432 664Q357 664 300 636T205 560T146 447T126 311Q126 240 144 191T194 111T269 66T363 52Q414 52 456 66T531 110T587 189T621 306H368L385 367H703L693 308V308ZM396 -104Q396 -122 389 -139T371 -171T346 -199T316 -222H265Q291 -206 309 -185T340
-138Q322 -136 313 -124T303 -96Q303 -76 316 -64T349 -51Q369 -51 382 -64T396 -104Z" />
<glyph unicode="&#x123;" glyph-name="uni0123" horiz-adv-x="587" d="M470 53Q458 -4 437 -47T383 -119T303 -164T192 -179Q133 -179 82 -165T-2 -126L10 -68Q52 -97 98 -109T195 -122Q243 -122 278 -112T338 -79T379 -22T406 60L417 113Q385 71 341 46T237 21Q193
21 156 35T93 78T51 146T36 240Q36 299 54 351T107 443T189 506T298 529Q366 529 416 498T483 404L486 415Q493 449 501 477T514 519H574Q569 505 562 476T547 415L470 53ZM252 77Q301 77 338 98T400 153T437 229T450 315Q450 357 438 386T406 435T358 463T299
472Q253 472 217 455T155 407T117 335T104 246Q104 159 146 118T252 77ZM380 641Q380 621 367 608T334 595Q314 595 301 608T287 648Q287 666 294 683T312 715T337 743T367 766H418Q367 735 343 682Q361 680 370 668T380 641Z" />
<glyph unicode="&#x124;" glyph-name="Hcircumflex" horiz-adv-x="707" d="M566 324H169L100 0H30L183 717H253L182 386H579L649 717H718L566 0H497L566 324ZM477 862L363 763H305L447 911H523L602 763H547L477 862Z" />
<glyph unicode="&#x125;" glyph-name="hcircumflex" horiz-adv-x="564" d="M342 472Q308 472 281 462T231 436T192 397T159 349L85 0H20L172 717H237L194 515L171 416H173Q203 464 249 496T366 529Q451 529 490 476T508 326L439 0H374L443 327Q452 367 448 394T430
439T394 464T342 472ZM653 893L539 794H481L623 942H699L778 794H723L653 893Z" />
<glyph unicode="&#x126;" glyph-name="Hbar" horiz-adv-x="742" d="M582 324H185L116 0H46L157 521H45L58 579H169L199 717H269L239 579H636L665 717H734L705 579H816L804 521H692L582 0H513L582 324ZM595 386L623 521H227L198 386H595Z" />
<glyph unicode="&#x127;" glyph-name="hbar" horiz-adv-x="564" d="M342 472Q308 472 281 462T231 436T192 397T159 349L85 0H20L144 584H71L83 634H154L172 717H237L219 634H401L390 584H208L194 515L171 416H173Q203 464 249 496T366 529Q451 529 490 476T508
326L439 0H374L443 327Q452 367 448 394T430 439T394 464T342 472Z" />
<glyph unicode="&#x128;" glyph-name="Itilde" horiz-adv-x="241" d="M253 717L100 0H30L183 717H253ZM57 789Q56 846 85 879T164 912Q191 912 210 903T245 883T278 862T315 853Q361 853 367 916H415Q416 859 390 826T314 792Q288 792 270 801T235 822T202 842T163
852Q140 852 124 837T105 789H57V789Z" />
<glyph unicode="&#x129;" glyph-name="itilde" horiz-adv-x="214" d="M195 519L85 0H20L130 519H195ZM8 601Q8 623 14 644T32 681T64 706T109 716Q134 716 152 708T185 689T216 670T250 661Q274 661 284 676T296 720H345Q345 698 340 678T323 641T294 614T249
604Q225 604 208 612T175 631T144 650T107 659Q58 659 57 601H8V601Z" />
<glyph unicode="&#x12a;" glyph-name="Imacron" horiz-adv-x="241" d="M253 717L100 0H30L183 717H253ZM85 870H389L378 816H73L85 870Z" />
<glyph unicode="&#x12b;" glyph-name="imacron" horiz-adv-x="214" d="M195 519L85 0H20L130 519H195ZM45 678H322L311 625H34L45 678Z" />
<glyph unicode="&#x12c;" glyph-name="Ibreve" horiz-adv-x="241" d="M253 717L100 0H30L183 717H253ZM224 760Q186 760 158 772T114 804T91 850T90 907H155Q147 862 166 837T228 811Q266 811 292 835T330 907H395Q389 877 377 851T344 804T294 772T224 760Z" />
<glyph unicode="&#x12d;" glyph-name="ibreve" horiz-adv-x="214" d="M195 519L85 0H20L130 519H195ZM175 584Q139 584 113 595T71 626T50 670T51 723H114Q105 681 123 658T179 635Q214 635 242 656T280 723H343Q337 694 324 669T289 625T240 595T175 584Z" />
<glyph unicode="&#x12e;" glyph-name="Iogonek" horiz-adv-x="241" d="M94 -181Q86 -185 71 -188T37 -192Q-8 -192 -33 -169T-59 -106Q-59 -63 -33 -35T32 8L183 717H253L100 0Q80 -6 62 -15T30 -35T8 -61T-1 -94Q-1 -143 60 -143Q72 -143 82 -141T104 -135L94
-181V-181Z" />
<glyph unicode="&#x12f;" glyph-name="iogonek" horiz-adv-x="214" d="M195 519L85 0Q66 -6 48 -15T16 -35T-6 -61T-15 -94Q-15 -117 0 -130T45 -143Q67 -143 89 -135L80 -181Q71 -185 56 -188T22 -192Q-23 -192 -48 -170T-74 -109Q-74 -61 -43 -30Q-16 -3 22
10L130 519H195ZM185 613Q165 613 152 627T139 659Q139 678 152 692T185 706Q205 706 218 692T232 659Q232 641 219 627T185 613Z" />
<glyph unicode="&#x130;" glyph-name="Idot" horiz-adv-x="241" d="M253 717L100 0H30L183 717H253ZM233 797Q213 797 200 810T187 841Q187 861 200 874T233 888Q255 888 267 875T280 841Q280 823 268 810T233 797Z" />
<glyph unicode="&#x131;" glyph-name="dotlessi" horiz-adv-x="214" d="M195 519L85 0H20L130 519H195Z" />
<glyph unicode="&#x132;" glyph-name="IJ" horiz-adv-x="560" d="M253 717L100 0H30L183 717H253ZM575 717L453 142Q446 111 433 84T397 35T344 2T272 -10Q245 -10 221 -5T180 9L193 68Q227 52 271 52Q325 52 350 79T387 161L505 717H575Z" />
<glyph unicode="&#x133;" glyph-name="ij" horiz-adv-x="429" d="M440 613Q420 613 407 627T394 659Q394 678 407 692T440 706Q460 706 473 692T487 659Q487 641 474 627T440 613ZM450 519L340 0H275L385 519H450ZM401 613Q381 613 368 627T355 659Q355 678 368
692T401 706Q421 706 434 692T448 659Q448 641 435 627T401 613ZM293 -43Q286 -75 275 -101T245 -147T202 -176T142 -187Q117 -187 96 -181T59 -165L71 -110Q82 -117 100 -123T144 -130Q183 -130 200 -108T228 -37L346 519H411L293 -43Z" />
<glyph unicode="&#x134;" glyph-name="Jcircumflex" horiz-adv-x="357" d="M372 717L250 142Q243 111 230 84T194 35T141 2T69 -10Q42 -10 18 -5T-23 9L-10 68Q24 52 68 52Q122 52 147 79T184 161L302 717H372ZM618 862L504 763H446L588 911H664L743 763H688L618 862Z" />
<glyph unicode="&#x135;" glyph-name="jcircumflex" horiz-adv-x="221" d="M84 -43Q77 -75 66 -101T36 -147T-7 -176T-67 -187Q-92 -187 -113 -181T-150 -165L-138 -110Q-127 -117 -109 -123T-65 -130Q-26 -130 -9 -108T19 -37L137 519H202L84 -43ZM198 687L81
588H25L166 736H242L322 588H266L198 687Z" />
<glyph unicode="&#x136;" glyph-name="uni0136" horiz-adv-x="609" d="M266 332H171L100 0H30L183 717H253L184 393H278L593 717H674L327 360L539 0H462L266 332ZM303 -104Q303 -122 296 -139T278 -171T253 -199T223 -222H172Q198 -206 216 -185T247 -138Q229
-136 220 -124T210 -96Q210 -76 223 -64T256 -51Q276 -51 289 -64T303 -104Z" />
<glyph unicode="&#x137;" glyph-name="uni0137" horiz-adv-x="470" d="M192 238H135L85 0H20L172 717H237L147 292H204L438 519H515L248 260L404 0H333L192 238ZM503 -104Q503 -122 496 -139T478 -171T453 -199T423 -222H372Q398 -206 416 -185T447 -138Q429 -136
420 -124T410 -96Q410 -76 423 -64T456 -51Q476 -51 489 -64T503 -104Z" />
<glyph unicode="&#x139;" glyph-name="Lacute" horiz-adv-x="561" d="M458 0H30L183 717H253L113 62H472L458 0ZM571 909H669L517 773H450L571 909Z" />
<glyph unicode="&#x13a;" glyph-name="lacute" horiz-adv-x="214" d="M237 717L85 0H20L172 717H237ZM306 940H404L252 804H185L306 940Z" />
<glyph unicode="&#x13b;" glyph-name="uni013B" horiz-adv-x="561" d="M458 0H30L183 717H253L113 62H472L458 0ZM296 -104Q296 -122 289 -139T271 -171T246 -199T216 -222H165Q191 -206 209 -185T240 -138Q222 -136 213 -124T203 -96Q203 -76 216 -64T249 -51Q269
-51 282 -64T296 -104Z" />
<glyph unicode="&#x13c;" glyph-name="uni013C" horiz-adv-x="214" d="M237 717L85 0H20L172 717H237ZM79 -104Q79 -122 72 -139T54 -171T29 -199T-1 -222H-52Q-26 -206 -8 -185T23 -138Q5 -136 -4 -124T-14 -96Q-14 -76 -1 -64T32 -51Q52 -51 65 -64T79 -104Z" />
<glyph unicode="&#x13d;" glyph-name="Lcaron" horiz-adv-x="561" d="M458 0H30L183 717H253L113 62H472L458 0ZM313 528L377 717H454L360 528H313Z" />
<glyph unicode="&#x13e;" glyph-name="lcaron" horiz-adv-x="214" d="M237 717L85 0H20L172 717H237ZM250 528L314 717H391L297 528H250Z" />
<glyph unicode="&#x13f;" glyph-name="Ldot" horiz-adv-x="573" d="M458 0H30L183 717H253L113 62H472L458 0ZM496 299Q472 299 457 314T442 351Q442 374 457 389T496 404Q520 404 534 389T549 351Q549 329 535 314T496 299Z" />
<glyph unicode="&#x140;" glyph-name="ldot" horiz-adv-x="354" d="M237 717L85 0H20L172 717H237ZM292 278Q268 278 253 293T238 330Q238 353 253 368T292 383Q316 383 330 368T345 330Q345 308 331 293T292 278Z" />
<glyph unicode="&#x141;" glyph-name="Lslash" horiz-adv-x="637" d="M531 0H103L158 260L44 202L59 272L173 330L256 717H326L252 369L490 490L475 420L237 299L186 62H545L531 0Z" />
<glyph unicode="&#x142;" glyph-name="lslash" horiz-adv-x="239" d="M5 289L115 368L189 717H254L191 423L301 501L288 437L178 358L102 0H37L101 304L-8 226L5 289Z" />
<glyph unicode="&#x143;" glyph-name="Nacute" horiz-adv-x="722" d="M581 0H491L232 641L96 0H30L183 717H271L531 73L668 717H733L581 0ZM541 909H639L487 773H420L541 909Z" />
<glyph unicode="&#x144;" glyph-name="nacute" horiz-adv-x="564" d="M342 472Q308 472 281 462T231 436T192 397T159 349L85 0H20L130 519H191L171 416H173Q203 464 249 496T366 529Q451 529 490 476T508 326L439 0H374L443 327Q452 367 448 394T430 439T394
464T342 472ZM440 746H530L381 588H323L440 746Z" />
<glyph unicode="&#x145;" glyph-name="uni0145" horiz-adv-x="722" d="M581 0H491L232 641L96 0H30L183 717H271L531 73L668 717H733L581 0ZM348 -104Q348 -122 341 -139T323 -171T298 -199T268 -222H217Q243 -206 261 -185T292 -138Q274 -136 265 -124T255 -96Q255
-76 268 -64T301 -51Q321 -51 334 -64T348 -104Z" />
<glyph unicode="&#x146;" glyph-name="uni0146" horiz-adv-x="564" d="M342 472Q308 472 281 462T231 436T192 397T159 349L85 0H20L130 519H191L171 416H173Q203 464 249 496T366 529Q451 529 490 476T508 326L439 0H374L443 327Q452 367 448 394T430 439T394
464T342 472ZM508 -104Q508 -122 501 -139T483 -171T458 -199T428 -222H377Q403 -206 421 -185T452 -138Q434 -136 425 -124T415 -96Q415 -76 428 -64T461 -51Q481 -51 494 -64T508 -104Z" />
<glyph unicode="&#x147;" glyph-name="Ncaron" horiz-adv-x="722" d="M581 0H491L232 641L96 0H30L183 717H271L531 73L668 717H733L581 0ZM507 763H431L352 911H407L478 812L591 911H649L507 763Z" />
<glyph unicode="&#x148;" glyph-name="ncaron" horiz-adv-x="564" d="M342 472Q308 472 281 462T231 436T192 397T159 349L85 0H20L130 519H191L171 416H173Q203 464 249 496T366 529Q451 529 490 476T508 326L439 0H374L443 327Q452 367 448 394T430 439T394
464T342 472ZM387 588H312L232 736H288L357 636L472 736H529L387 588Z" />
<glyph unicode="&#x14a;" glyph-name="Eng" horiz-adv-x="722" d="M183 717H271L532 73L668 717H733L571 -47Q564 -79 551 -106T515 -155T463 -188T392 -200Q364 -200 340 -195T298 -179L311 -121Q328 -129 347 -133T390 -138Q444 -138 471 -110T510 -29L516 0H491L232
641L96 0H30L183 717Z" />
<glyph unicode="&#x14b;" glyph-name="eng" horiz-adv-x="564" d="M281 -187Q255 -187 234 -181T197 -165L210 -110Q221 -117 238 -123T282 -130Q321 -130 338 -108T367 -37L443 327Q452 367 448 394T430 439T394 464T342 472Q308 472 281 462T231 436T192 397T159
349L85 0H20L130 519H191L171 416H173Q203 464 249 496T366 529Q451 529 490 476T508 326L431 -43Q424 -75 413 -101T384 -147T341 -176T281 -187Z" />
<glyph unicode="&#x14c;" glyph-name="Omacron" horiz-adv-x="728" d="M350 -10Q282 -10 227 12T134 75T74 174T53 306Q53 399 81 476T159 608T273 695T413 726Q481 726 536 704T630 642T690 542T711 410Q711 317 683 240T605 108T490 21T350 -10ZM126 304Q126
183 186 118T353 52Q413 52 465 79T555 154T615 268T637 413Q637 534 577 599T411 664Q350 664 298 637T208 562T148 448T126 304ZM291 870H595L584 816H279L291 870Z" />
<glyph unicode="&#x14d;" glyph-name="omacron" horiz-adv-x="547" d="M250 -10Q200 -10 160 6T92 53T48 127T32 224Q32 287 51 343T105 440T188 505T297 529Q346 529 386 513T456 466T500 392T516 295Q516 232 497 176T443 79T359 14T250 -10ZM99 226Q99 136
142 92T253 47Q297 47 333 65T394 116T434 194T448 292Q448 383 405 427T295 472Q251 472 215 454T153 402T113 324T99 226ZM432 679H709L698 626H421L432 679Z" />
<glyph unicode="&#x14e;" glyph-name="Obreve" horiz-adv-x="728" d="M350 -10Q282 -10 227 12T134 75T74 174T53 306Q53 399 81 476T159 608T273 695T413 726Q481 726 536 704T630 642T690 542T711 410Q711 317 683 240T605 108T490 21T350 -10ZM126 304Q126
183 186 118T353 52Q413 52 465 79T555 154T615 268T637 413Q637 534 577 599T411 664Q350 664 298 637T208 562T148 448T126 304ZM434 760Q396 760 368 772T324 804T301 850T300 907H365Q357 862 376 837T438 811Q476 811 502 835T540 907H605Q599 877 587 851T554
804T504 772T434 760Z" />
<glyph unicode="&#x14f;" glyph-name="obreve" horiz-adv-x="547" d="M250 -10Q200 -10 160 6T92 53T48 127T32 224Q32 287 51 343T105 440T188 505T297 529Q346 529 386 513T456 466T500 392T516 295Q516 232 497 176T443 79T359 14T250 -10ZM99 226Q99 136 142
92T253 47Q297 47 333 65T394 116T434 194T448 292Q448 383 405 427T295 472Q251 472 215 454T153 402T113 324T99 226ZM325 584Q289 584 263 595T221 626T200 670T201 723H264Q255 681 273 658T329 635Q364 635 392 656T430 723H493Q487 694 474 669T439 625T390
595T325 584Z" />
<glyph unicode="&#x150;" glyph-name="Ohungarumlaut" horiz-adv-x="728" d="M350 -10Q282 -10 227 12T134 75T74 174T53 306Q53 399 81 476T159 608T273 695T413 726Q481 726 536 704T630 642T690 542T711 410Q711 317 683 240T605 108T490 21T350 -10ZM126 304Q126
183 186 118T353 52Q413 52 465 79T555 154T615 268T637 413Q637 534 577 599T411 664Q350 664 298 637T208 562T148 448T126 304ZM277 773L370 909H454L337 773H277ZM462 773L554 909H639L521 773H462Z" />
<glyph unicode="&#x151;" glyph-name="ohungarumlaut" horiz-adv-x="547" d="M250 -10Q200 -10 160 6T92 53T48 127T32 224Q32 287 51 343T105 440T188 505T297 529Q346 529 386 513T456 466T500 392T516 295Q516 232 497 176T443 79T359 14T250 -10ZM99 226Q99
136 142 92T253 47Q297 47 333 65T394 116T434 194T448 292Q448 383 405 427T295 472Q251 472 215 454T153 402T113 324T99 226ZM186 588L276 746H352L239 588H186ZM342 588L433 746H509L395 588H342Z" />
<glyph unicode="&#x152;" glyph-name="OE" horiz-adv-x="990" d="M53 296Q53 379 80 455T158 589T285 682T458 717H1026L1011 655H651L598 406H907L894 345H585L525 62H891L877 0H355Q293 0 238 16T142 67T77 158T53 296ZM455 61L582 655H451Q373 655 313 626T211
547T148 433T126 299Q126 233 144 188T193 114T267 74T357 61H455Z" />
<glyph unicode="&#x153;" glyph-name="oe" horiz-adv-x="948" d="M844 25Q824 14 786 2T690 -10Q605 -10 549 25T469 129Q436 66 380 28T250 -10Q200 -10 160 6T92 53T48 127T32 224Q32 287 51 343T105 440T188 505T297 529Q369 529 419 493T492 392Q527 458 585
493T715 529Q769 529 811 509T879 453T908 364T891 246H512V227Q512 139 559 93T696 47Q745 47 788 58T856 83L844 25ZM448 292Q448 383 405 427T295 472Q251 472 215 454T153 402T113 324T99 226Q99 136 142 92T253 47Q297 47 333 65T394 116T434 194T448 292ZM709
472Q639 472 588 428T520 302H843Q852 345 845 377T818 430T771 461T709 472Z" />
<glyph unicode="&#x154;" glyph-name="Racute" horiz-adv-x="620" d="M183 717H397Q498 717 556 672T615 531Q615 481 599 442T554 375T485 330T396 307L522 0H449L325 304H165L100 0H30L183 717ZM240 655L178 366H358Q397 366 431 376T490 407T529 458T543 528Q543
597 502 626T388 655H240ZM463 909H561L409 773H342L463 909Z" />
<glyph unicode="&#x155;" glyph-name="racute" horiz-adv-x="338" d="M348 457Q286 460 236 430T156 331L85 0H20L130 519H188L168 400H170Q196 455 243 492T363 529L348 457V457ZM593 746H683L534 588H476L593 746Z" />
<glyph unicode="&#x156;" glyph-name="uni0156" horiz-adv-x="620" d="M183 717H397Q498 717 556 672T615 531Q615 481 599 442T554 375T485 330T396 307L522 0H449L325 304H165L100 0H30L183 717ZM240 655L178 366H358Q397 366 431 376T490 407T529 458T543 528Q543
597 502 626T388 655H240ZM309 -104Q309 -122 302 -139T284 -171T259 -199T229 -222H178Q204 -206 222 -185T253 -138Q235 -136 226 -124T216 -96Q216 -76 229 -64T262 -51Q282 -51 295 -64T309 -104Z" />
<glyph unicode="&#x157;" glyph-name="uni0157" horiz-adv-x="338" d="M348 457Q286 460 236 430T156 331L85 0H20L130 519H188L168 400H170Q196 455 243 492T363 529L348 457V457ZM78 -104Q78 -122 71 -139T53 -171T28 -199T-2 -222H-53Q-27 -206 -9 -185T22
-138Q4 -136 -5 -124T-15 -96Q-15 -76 -2 -64T31 -51Q51 -51 64 -64T78 -104Z" />
<glyph unicode="&#x158;" glyph-name="Rcaron" horiz-adv-x="620" d="M183 717H397Q498 717 556 672T615 531Q615 481 599 442T554 375T485 330T396 307L522 0H449L325 304H165L100 0H30L183 717ZM240 655L178 366H358Q397 366 431 376T490 407T529 458T543 528Q543
597 502 626T388 655H240ZM433 763H357L278 911H333L404 812L517 911H575L433 763Z" />
<glyph unicode="&#x159;" glyph-name="rcaron" horiz-adv-x="338" d="M348 457Q286 460 236 430T156 331L85 0H20L130 519H188L168 400H170Q196 455 243 492T363 529L348 457V457ZM554 588H479L399 736H455L524 636L639 736H696L554 588Z" />
<glyph unicode="&#x15a;" glyph-name="Sacute" horiz-adv-x="574" d="M267 -10Q214 -10 172 -1T98 23T45 53T13 83L26 146Q41 129 64 113T118 83T188 61T271 52Q356 52 403 85T451 190Q451 221 441 243T410 281T360 309T294 335Q261 347 226 361T163 396T117 450T99
531Q99 622 165 674T349 726Q427 726 478 706T558 662L545 599Q508 628 458 646T348 664Q261 664 214 630T166 535Q166 503 179 482T213 446T261 420T317 399Q352 387 388 373T453 337T502 280T521 194Q521 96 454 43T267 -10ZM683 909H781L629 773H562L683 909Z"
/>
<glyph unicode="&#x15b;" glyph-name="sacute" horiz-adv-x="461" d="M402 144Q402 69 354 30T215 -10Q176 -10 144 -4T87 13T42 35T10 58L23 116Q36 104 55 92T99 70T154 54T217 47Q285 47 312 73T340 137Q340 162 330 178T303 205T264 223T217 238Q190 246 163
256T115 281T80 320T67 380Q67 417 81 444T120 491T181 519T258 529Q320 529 360 514T425 482L413 424Q387 442 350 457T259 472Q197 472 164 451T130 386Q130 365 138 351T161 327T195 311T238 297Q265 289 294 280T347 255T386 212T402 144ZM609 746H699L550
588H492L609 746Z" />
<glyph unicode="&#x15c;" glyph-name="Scircumflex" horiz-adv-x="574" d="M267 -10Q214 -10 172 -1T98 23T45 53T13 83L26 146Q41 129 64 113T118 83T188 61T271 52Q356 52 403 85T451 190Q451 221 441 243T410 281T360 309T294 335Q261 347 226 361T163 396T117
450T99 531Q99 622 165 674T349 726Q427 726 478 706T558 662L545 599Q508 628 458 646T348 664Q261 664 214 630T166 535Q166 503 179 482T213 446T261 420T317 399Q352 387 388 373T453 337T502 280T521 194Q521 96 454 43T267 -10ZM631 862L517 763H459L601
911H677L756 763H701L631 862Z" />
<glyph unicode="&#x15d;" glyph-name="scircumflex" horiz-adv-x="461" d="M402 144Q402 69 354 30T215 -10Q176 -10 144 -4T87 13T42 35T10 58L23 116Q36 104 55 92T99 70T154 54T217 47Q285 47 312 73T340 137Q340 162 330 178T303 205T264 223T217 238Q190
246 163 256T115 281T80 320T67 380Q67 417 81 444T120 491T181 519T258 529Q320 529 360 514T425 482L413 424Q387 442 350 457T259 472Q197 472 164 451T130 386Q130 365 138 351T161 327T195 311T238 297Q265 289 294 280T347 255T386 212T402 144ZM554 687L437
588H381L522 736H598L678 588H622L554 687Z" />
<glyph unicode="&#x15e;" glyph-name="uni015E" horiz-adv-x="574" d="M267 -10Q214 -10 172 -1T98 23T45 53T13 83L26 146Q41 129 64 113T118 83T188 61T271 52Q356 52 403 85T451 190Q451 221 441 243T410 281T360 309T294 335Q261 347 226 361T163 396T117
450T99 531Q99 622 165 674T349 726Q427 726 478 706T558 662L545 599Q508 628 458 646T348 664Q261 664 214 630T166 535Q166 503 179 482T213 446T261 420T317 399Q352 387 388 373T453 337T502 280T521 194Q521 96 454 43T267 -10ZM304 16L202 -187H120L250
16H304Z" />
<glyph unicode="&#x15f;" glyph-name="uni015F" horiz-adv-x="461" d="M402 144Q402 69 354 30T215 -10Q176 -10 144 -4T87 13T42 35T10 58L23 116Q36 104 55 92T99 70T154 54T217 47Q285 47 312 73T340 137Q340 162 330 178T303 205T264 223T217 238Q190 246
163 256T115 281T80 320T67 380Q67 417 81 444T120 491T181 519T258 529Q320 529 360 514T425 482L413 424Q387 442 350 457T259 472Q197 472 164 451T130 386Q130 365 138 351T161 327T195 311T238 297Q265 289 294 280T347 255T386 212T402 144ZM502 16L400 -187H318L448
16H502Z" />
<glyph unicode="&#x160;" glyph-name="Scaron" horiz-adv-x="574" d="M267 -10Q214 -10 172 -1T98 23T45 53T13 83L26 146Q41 129 64 113T118 83T188 61T271 52Q356 52 403 85T451 190Q451 221 441 243T410 281T360 309T294 335Q261 347 226 361T163 396T117 450T99
531Q99 622 165 674T349 726Q427 726 478 706T558 662L545 599Q508 628 458 646T348 664Q261 664 214 630T166 535Q166 503 179 482T213 446T261 420T317 399Q352 387 388 373T453 337T502 280T521 194Q521 96 454 43T267 -10ZM407 763H331L252 911H307L378 812L491
911H549L407 763Z" />
<glyph unicode="&#x161;" glyph-name="scaron" horiz-adv-x="461" d="M402 144Q402 69 354 30T215 -10Q176 -10 144 -4T87 13T42 35T10 58L23 116Q36 104 55 92T99 70T154 54T217 47Q285 47 312 73T340 137Q340 162 330 178T303 205T264 223T217 238Q190 246 163
256T115 281T80 320T67 380Q67 417 81 444T120 491T181 519T258 529Q320 529 360 514T425 482L413 424Q387 442 350 457T259 472Q197 472 164 451T130 386Q130 365 138 351T161 327T195 311T238 297Q265 289 294 280T347 255T386 212T402 144ZM578 588H503L423
736H479L548 636L663 736H720L578 588Z" />
<glyph unicode="&#x162;" glyph-name="Tcommaaccent" horiz-adv-x="575" d="M406 655L267 0H197L336 655H106L120 717H649L636 655H406ZM260 -104Q260 -122 253 -139T235 -171T210 -199T180 -222H129Q155 -206 173 -185T204 -138Q186 -136 177 -124T167 -96Q167
-76 180 -64T213 -51Q233 -51 246 -64T260 -104Z" />
<glyph unicode="&#x163;" glyph-name="tcommaaccent" horiz-adv-x="350" d="M249 2Q223 -10 184 -10Q109 -10 82 33T69 144L138 465H73L85 519H150L173 628H238L215 519H362L350 465H203L133 140Q123 95 137 71T196 47Q215 47 232 49T260 57L249 2V2ZM434 -104Q434
-122 427 -139T409 -171T384 -199T354 -222H303Q329 -206 347 -185T378 -138Q360 -136 351 -124T341 -96Q341 -76 354 -64T387 -51Q407 -51 420 -64T434 -104Z" />
<glyph unicode="&#x164;" glyph-name="Tcaron" horiz-adv-x="575" d="M406 655L267 0H197L336 655H106L120 717H649L636 655H406ZM426 763H350L271 911H326L397 812L510 911H568L426 763Z" />
<glyph unicode="&#x165;" glyph-name="tcaron" horiz-adv-x="350" d="M249 2Q223 -10 184 -10Q109 -10 82 33T69 144L138 465H73L85 519H150L173 628H238L215 519H362L350 465H203L133 140Q123 95 137 71T196 47Q215 47 232 49T260 57L249 2V2ZM317 549L379 716H453L362
549H317Z" />
<glyph unicode="&#x166;" glyph-name="Tbar" horiz-adv-x="590" d="M119 421H301L351 655H121L135 717H664L651 655H421L371 421H555L542 363H359L282 0H212L289 363H106L119 421Z" />
<glyph unicode="&#x167;" glyph-name="tbar" horiz-adv-x="349" d="M248 2Q222 -10 183 -10Q108 -10 81 33T68 144L98 286H36L48 343H111L137 465H72L84 519H149L172 628H237L214 519H361L349 465H202L176 343H328L316 286H163L132 140Q122 95 136 71T195 47Q214
47 231 49T259 57L248 2Z" />
<glyph unicode="&#x168;" glyph-name="Utilde" horiz-adv-x="678" d="M168 717H237L142 270Q130 214 139 173T172 105T234 65T316 52Q405 52 464 102T545 259L642 717H710L610 248Q583 121 507 56T313 -10Q254 -10 204 7T119 60T72 151T75 281L168 717ZM273 789Q272
846 301 879T380 912Q407 912 426 903T461 883T494 862T531 853Q577 853 583 916H631Q632 859 606 826T530 792Q504 792 486 801T451 822T418 842T379 852Q356 852 340 837T321 789H273V789Z" />
<glyph unicode="&#x169;" glyph-name="utilde" horiz-adv-x="552" d="M217 47Q250 47 276 57T324 84T361 124T392 170L467 519H532L422 0H364L381 105H379Q365 82 348 61T309 24T260 -1T198 -10Q116 -10 76 42T55 186L126 519H191L121 189Q113 151 117 125T135
81T170 55T217 47ZM179 601Q179 623 185 644T203 681T235 706T280 716Q305 716 323 708T356 689T387 670T421 661Q445 661 455 676T467 720H516Q516 698 511 678T494 641T465 614T420 604Q396 604 379 612T346 631T315 650T278 659Q229 659 228 601H179V601Z" />
<glyph unicode="&#x16a;" glyph-name="Umacron" horiz-adv-x="678" d="M168 717H237L142 270Q130 214 139 173T172 105T234 65T316 52Q405 52 464 102T545 259L642 717H710L610 248Q583 121 507 56T313 -10Q254 -10 204 7T119 60T72 151T75 281L168 717ZM309 870H613L602
816H297L309 870Z" />
<glyph unicode="&#x16b;" glyph-name="umacron" horiz-adv-x="552" d="M217 47Q250 47 276 57T324 84T361 124T392 170L467 519H532L422 0H364L381 105H379Q365 82 348 61T309 24T260 -1T198 -10Q116 -10 76 42T55 186L126 519H191L121 189Q113 151 117 125T135
81T170 55T217 47ZM211 679H488L477 626H200L211 679Z" />
<glyph unicode="&#x16c;" glyph-name="Ubreve" horiz-adv-x="678" d="M168 717H237L142 270Q130 214 139 173T172 105T234 65T316 52Q405 52 464 102T545 259L642 717H710L610 248Q583 121 507 56T313 -10Q254 -10 204 7T119 60T72 151T75 281L168 717ZM441 760Q403
760 375 772T331 804T308 850T307 907H372Q364 862 383 837T445 811Q483 811 509 835T547 907H612Q606 877 594 851T561 804T511 772T441 760Z" />
<glyph unicode="&#x16d;" glyph-name="ubreve" horiz-adv-x="552" d="M217 47Q250 47 276 57T324 84T361 124T392 170L467 519H532L422 0H364L381 105H379Q365 82 348 61T309 24T260 -1T198 -10Q116 -10 76 42T55 186L126 519H191L121 189Q113 151 117 125T135
81T170 55T217 47ZM336 584Q300 584 274 595T232 626T211 670T212 723H275Q266 681 284 658T340 635Q375 635 403 656T441 723H504Q498 694 485 669T450 625T401 595T336 584Z" />
<glyph unicode="&#x16e;" glyph-name="Uring" horiz-adv-x="678" d="M168 717H237L142 270Q130 214 139 173T172 105T234 65T316 52Q405 52 464 102T545 259L642 717H710L610 248Q583 121 507 56T313 -10Q254 -10 204 7T119 60T72 151T75 281L168 717ZM449 987Q401
987 370 1017T339 1096Q339 1144 370 1174T449 1205Q497 1205 528 1175T560 1096Q560 1048 529 1018T449 987ZM449 1031Q478 1031 496 1049T514 1096Q514 1125 496 1143T449 1162Q421 1162 403 1144T385 1096Q385 1067 403 1049T449 1031Z" />
<glyph unicode="&#x16f;" glyph-name="uring" horiz-adv-x="552" d="M217 47Q250 47 276 57T324 84T361 124T392 170L467 519H532L422 0H364L381 105H379Q365 82 348 61T309 24T260 -1T198 -10Q116 -10 76 42T55 186L126 519H191L121 189Q113 151 117 125T135
81T170 55T217 47ZM339 571Q292 571 261 601T229 680Q229 728 260 758T339 789Q387 789 419 759T451 680Q451 632 419 602T339 571ZM339 615Q367 615 386 633T405 680Q405 709 386 727T339 746Q312 746 294 728T276 680Q276 651 293 633T339 615Z" />
<glyph unicode="&#x170;" glyph-name="Uhungarumlaut" horiz-adv-x="678" d="M168 717H237L142 270Q130 214 139 173T172 105T234 65T316 52Q405 52 464 102T545 259L642 717H710L610 248Q583 121 507 56T313 -10Q254 -10 204 7T119 60T72 151T75 281L168 717ZM310
773L403 909H487L370 773H310ZM495 773L587 909H672L554 773H495Z" />
<glyph unicode="&#x171;" glyph-name="uhungarumlaut" horiz-adv-x="552" d="M217 47Q250 47 276 57T324 84T361 124T392 170L467 519H532L422 0H364L381 105H379Q365 82 348 61T309 24T260 -1T198 -10Q116 -10 76 42T55 186L126 519H191L121 189Q113 151 117
125T135 81T170 55T217 47ZM226 588L316 746H392L279 588H226ZM382 588L473 746H549L435 588H382Z" />
<glyph unicode="&#x172;" glyph-name="Uogonek" horiz-adv-x="678" d="M168 717H237L142 270Q130 214 139 173T172 105T234 65T316 52Q405 52 464 102T545 259L642 717H710L610 248Q583 121 507 56T313 -10Q254 -10 204 7T119 60T72 151T75 281L168 717ZM335 -192Q290
-192 265 -170T239 -109Q239 -88 247 -71T269 -40T300 -16T337 0H399Q379 -6 361 -15T330 -35T308 -61T299 -94Q299 -117 314 -130T358 -143Q371 -143 381 -141T403 -135L393 -181Q385 -185 370 -188T335 -192Z" />
<glyph unicode="&#x173;" glyph-name="uogonek" horiz-adv-x="552" d="M416 -181Q408 -185 393 -188T359 -192Q314 -192 289 -170T263 -109Q263 -64 293 -34T366 10L381 105H379Q365 82 348 61T309 24T260 -1T198 -10Q116 -10 76 42T55 186L126 519H191L121 189Q113
151 117 125T135 81T170 55T217 47Q250 47 276 57T324 84T361 124T392 170L467 519H532L422 0Q402 -6 384 -15T353 -35T331 -61T322 -94Q322 -117 337 -130T382 -143Q404 -143 426 -135L416 -181V-181Z" />
<glyph unicode="&#x174;" glyph-name="Wcircumflex" horiz-adv-x="952" d="M689 0H591L545 608L247 0H146L128 717H196L211 66L531 717H600L651 70L943 717H1012L689 0ZM589 862L475 763H417L559 911H635L714 763H659L589 862Z" />
<glyph unicode="&#x175;" glyph-name="wcircumflex" horiz-adv-x="754" d="M542 0H443L413 434L198 0H102L86 519H153L164 53L392 519H468L502 46L713 519H779L542 0ZM459 687L342 588H286L427 736H503L583 588H527L459 687Z" />
<glyph unicode="&#x176;" glyph-name="Ycircumflex" horiz-adv-x="597" d="M345 310L279 0H208L275 310L117 717H191L321 372L597 717H673L345 310ZM416 862L302 763H244L386 911H462L541 763H486L416 862Z" />
<glyph unicode="&#x177;" glyph-name="ycircumflex" horiz-adv-x="501" d="M241 6Q214 -41 189 -77T136 -137T79 -174T11 -187Q-4 -187 -17 -185T-42 -178L-29 -120Q-20 -125 -7 -127T22 -130Q62 -130 91 -104T157 -21L66 519H135L208 62L471 519H538L241 6V6ZM579
687L462 588H406L547 736H623L703 588H647L579 687Z" />
<glyph unicode="&#x178;" glyph-name="Ydieresis" horiz-adv-x="597" d="M345 310L279 0H208L275 310L117 717H191L321 372L597 717H673L345 310ZM539 797Q518 797 506 810T493 841Q493 861 505 874T539 888Q561 888 573 875T586 841Q586 823 574 810T539 797ZM764
797Q743 797 731 810T718 841Q718 861 730 874T764 888Q785 888 798 875T811 841Q811 823 798 810T764 797Z" />
<glyph unicode="&#x179;" glyph-name="Zacute" horiz-adv-x="601" d="M496 0H-8L4 52L542 655H141L155 717H648L637 664L98 62H510L496 0ZM466 909H564L412 773H345L466 909Z" />
<glyph unicode="&#x17a;" glyph-name="zacute" horiz-adv-x="449" d="M356 0H-19L-10 43L362 462H84L96 519H461L452 476L79 57H368L356 0ZM619 746H709L560 588H502L619 746Z" />
<glyph unicode="&#x17b;" glyph-name="Zdotaccent" horiz-adv-x="601" d="M496 0H-8L4 52L542 655H141L155 717H648L637 664L98 62H510L496 0ZM409 797Q389 797 376 810T363 841Q363 861 376 874T409 888Q431 888 443 875T456 841Q456 823 444 810T409 797Z" />
<glyph unicode="&#x17c;" glyph-name="zdotaccent" horiz-adv-x="449" d="M356 0H-19L-10 43L362 462H84L96 519H461L452 476L79 57H368L356 0ZM542 613Q521 613 509 626T496 659Q496 678 508 691T542 705Q564 705 576 692T589 659Q589 640 577 627T542 613Z" />
<glyph unicode="&#x17d;" glyph-name="Zcaron" horiz-adv-x="601" d="M496 0H-8L4 52L542 655H141L155 717H648L637 664L98 62H510L496 0ZM444 763H368L289 911H344L415 812L528 911H586L444 763Z" />
<glyph unicode="&#x17e;" glyph-name="zcaron" horiz-adv-x="449" d="M356 0H-19L-10 43L362 462H84L96 519H461L452 476L79 57H368L356 0ZM574 588H499L419 736H475L544 636L659 736H716L574 588Z" />
<glyph unicode="&#x192;" glyph-name="uni0192" horiz-adv-x="550" d="M162 10Q144 -37 123 -74T75 -136T15 -174T-61 -187Q-86 -187 -104 -183T-131 -173L-120 -120Q-112 -125 -96 -129T-58 -133Q-27 -133 -4 -123T38 -94T71 -48T99 14L237 371H146L169 425H258L298
529Q317 577 338 614T385 676T445 713T520 726Q542 726 562 722T591 713L579 658Q571 662 555 665T517 669Q455 669 423 634T364 529L324 425H463L441 371H303L162 10V10Z" />
<glyph unicode="&#x218;" glyph-name="uni0218" horiz-adv-x="574" d="M267 -10Q214 -10 172 -1T98 23T45 53T13 83L26 146Q41 129 64 113T118 83T188 61T271 52Q356 52 403 85T451 190Q451 221 441 243T410 281T360 309T294 335Q261 347 226 361T163 396T117
450T99 531Q99 622 165 674T349 726Q427 726 478 706T558 662L545 599Q508 628 458 646T348 664Q261 664 214 630T166 535Q166 503 179 482T213 446T261 420T317 399Q352 387 388 373T453 337T502 280T521 194Q521 96 454 43T267 -10ZM287 -104Q287 -122 280 -139T262
-171T237 -199T207 -222H156Q182 -206 200 -185T231 -138Q213 -136 204 -124T194 -96Q194 -76 207 -64T240 -51Q260 -51 273 -64T287 -104Z" />
<glyph unicode="&#x219;" glyph-name="uni0219" horiz-adv-x="461" d="M402 144Q402 69 354 30T215 -10Q176 -10 144 -4T87 13T42 35T10 58L23 116Q36 104 55 92T99 70T154 54T217 47Q285 47 312 73T340 137Q340 162 330 178T303 205T264 223T217 238Q190 246
163 256T115 281T80 320T67 380Q67 417 81 444T120 491T181 519T258 529Q320 529 360 514T425 482L413 424Q387 442 350 457T259 472Q197 472 164 451T130 386Q130 365 138 351T161 327T195 311T238 297Q265 289 294 280T347 255T386 212T402 144ZM484 -104Q484
-122 477 -139T459 -171T434 -199T404 -222H353Q379 -206 397 -185T428 -138Q410 -136 401 -124T391 -96Q391 -76 404 -64T437 -51Q457 -51 470 -64T484 -104Z" />
<glyph unicode="&#x21a;" glyph-name="uni021A" horiz-adv-x="575" d="M406 655L267 0H197L336 655H106L120 717H649L636 655H406ZM260 -104Q260 -122 253 -139T235 -171T210 -199T180 -222H129Q155 -206 173 -185T204 -138Q186 -136 177 -124T167 -96Q167 -76
180 -64T213 -51Q233 -51 246 -64T260 -104Z" />
<glyph unicode="&#x21b;" glyph-name="uni021B" horiz-adv-x="350" d="M249 2Q223 -10 184 -10Q109 -10 82 33T69 144L138 465H73L85 519H150L173 628H238L215 519H362L350 465H203L133 140Q123 95 137 71T196 47Q215 47 232 49T260 57L249 2V2ZM434 -104Q434
-122 427 -139T409 -171T384 -199T354 -222H303Q329 -206 347 -185T378 -138Q360 -136 351 -124T341 -96Q341 -76 354 -64T387 -51Q407 -51 420 -64T434 -104Z" />
<glyph unicode="&#x237;" glyph-name="uni0237" horiz-adv-x="221" d="M84 -43Q77 -75 66 -101T36 -147T-7 -176T-67 -187Q-92 -187 -113 -181T-150 -165L-138 -110Q-127 -117 -109 -123T-65 -130Q-26 -130 -9 -108T19 -37L137 519H202L84 -43Z" />
<glyph unicode="&#x2bc;" glyph-name="uni02BC" horiz-adv-x="230" d="M123 534Q152 557 166 579T187 622Q170 626 159 639T147 671Q147 691 160 705T197 720Q219 720 234 705T249 662Q249 625 227 593T175 534H123Z" />
<glyph unicode="&#x2c6;" glyph-name="circumflex" horiz-adv-x="449" d="M328 687L211 588H155L296 736H372L452 588H396L328 687Z" />
<glyph unicode="&#x2c7;" glyph-name="caron" horiz-adv-x="449" d="M330 588H255L175 736H231L300 636L415 736H472L330 588Z" />
<glyph unicode="&#x2d8;" glyph-name="breve" horiz-adv-x="449" d="M313 584Q277 584 251 595T209 626T188 670T189 723H252Q243 681 261 658T317 635Q352 635 380 656T418 723H481Q475 694 462 669T427 625T378 595T313 584Z" />
<glyph unicode="&#x2d9;" glyph-name="dotaccent" horiz-adv-x="449" d="M321 613Q300 613 288 626T275 659Q275 678 287 691T321 705Q343 705 355 692T368 659Q368 640 356 627T321 613Z" />
<glyph unicode="&#x2da;" glyph-name="ring" horiz-adv-x="449" d="M330 571Q283 571 252 601T220 680Q220 728 251 758T330 789Q378 789 410 759T442 680Q442 632 410 602T330 571ZM330 615Q358 615 377 633T396 680Q396 709 377 727T330 746Q303 746 285 728T267
680Q267 651 284 633T330 615Z" />
<glyph unicode="&#x2db;" glyph-name="ogonek" horiz-adv-x="449" d="M205 -192Q160 -192 135 -170T109 -109Q109 -88 117 -71T139 -40T170 -16T207 0H269Q249 -6 231 -15T200 -35T178 -61T169 -94Q169 -117 184 -130T228 -143Q241 -143 251 -141T273 -135L263
-181Q255 -185 240 -188T205 -192Z" />
<glyph unicode="&#x2dc;" glyph-name="tilde" horiz-adv-x="449" d="M153 601Q153 623 159 644T177 681T209 706T254 716Q279 716 297 708T330 689T361 670T395 661Q419 661 429 676T441 720H490Q490 698 485 678T468 641T439 614T394 604Q370 604 353 612T320
631T289 650T252 659Q203 659 202 601H153V601Z" />
<glyph unicode="&#x2dd;" glyph-name="hungarumlaut" horiz-adv-x="449" d="M174 588L264 746H340L227 588H174ZM330 588L421 746H497L383 588H330Z" />
<glyph unicode="&#x300;" glyph-name="gravecomb" horiz-adv-x="0" d="M-112 588L-235 746H-147L-58 588H-112Z" />
<glyph unicode="&#x301;" glyph-name="acutecomb" horiz-adv-x="0" d="M-85 746H5L-144 588H-202L-85 746Z" />
<glyph unicode="&#x302;" glyph-name="circumflexcomb" horiz-adv-x="0" d="M-121 687L-238 588H-294L-153 736H-77L3 588H-53L-121 687Z" />
<glyph unicode="&#x303;" glyph-name="tildecomb" horiz-adv-x="0" d="M-296 601Q-296 623 -290 644T-272 681T-240 706T-195 716Q-170 716 -152 708T-119 689T-88 670T-54 661Q-30 661 -20 676T-8 720H41Q41 698 36 678T19 641T-10 614T-55 604Q-79 604 -96 612T-129
631T-160 650T-197 659Q-246 659 -247 601H-296Z" />
<glyph unicode="&#x304;" glyph-name="macroncomb" horiz-adv-x="0" d="M-269 679H8L-3 626H-280L-269 679Z" />
<glyph unicode="&#x306;" glyph-name="brevecomb" horiz-adv-x="0" d="M-136 584Q-172 584 -198 595T-240 626T-261 670T-260 723H-197Q-206 681 -188 658T-132 635Q-97 635 -69 656T-31 723H32Q26 694 13 669T-22 625T-71 595T-136 584Z" />
<glyph unicode="&#x308;" glyph-name="dieresiscomb" horiz-adv-x="0" d="M-234 613Q-255 613 -267 626T-279 659Q-279 678 -267 691T-234 705Q-212 705 -200 692T-187 659Q-187 640 -199 627T-234 613ZM-33 613Q-54 613 -66 626T-79 659Q-79 678 -67 691T-33
705Q-12 705 0 692T13 659Q13 640 1 627T-33 613Z" />
<glyph unicode="&#x30c;" glyph-name="caroncomb" horiz-adv-x="0" d="M-119 588H-194L-274 736H-218L-149 636L-34 736H23L-119 588Z" />
<glyph unicode="&#x401;" glyph-name="uni0401" horiz-adv-x="579" d="M542 827Q542 807 531 794T497 780Q476 780 464 793T451 827Q451 846 463 859T497 873Q519 873 530 860T542 827ZM361 827Q361 807 349 794T316 780Q294 780 282 793T270 827Q270 846 282
859T316 873Q337 873 349 860T361 827ZM183 717H614L599 655H240L187 406H495L482 345H174L113 62H479L466 0H30L183 717Z" />
<glyph unicode="&#x402;" glyph-name="uni0402" horiz-adv-x="791" d="M406 655L353 404Q378 419 416 432Q456 446 501 446Q556 446 596 430T664 384T704 315T718 227Q718 153 697 89T635 -23T531 -98T385 -126L397 -63Q460 -63 506 -40T583 23T629 116T645 228Q645
262 636 290T609 340T561 372T491 384Q449 384 411 372T339 338L267 0H197L336 655H106L120 717H649L636 655H406Z" />
<glyph unicode="&#x403;" glyph-name="uni0403" d="M460 909H558L406 773H339L460 909ZM183 717H577L564 655H240L100 0H30L183 717Z" />
<glyph unicode="&#x404;" glyph-name="uni0404" horiz-adv-x="653" d="M359 -10Q296 -10 240 8T143 66T77 165T53 307Q53 395 81 471T160 604T284 693T444 726Q511 726 564 709T649 662L634 597Q598 631 547 647T439 664Q366 664 308 636T210 560T147 447Q139
422 134 396H489L476 333H126Q126 322 126 311Q126 240 144 191T195 111T271 66T365 52Q421 52 470 68T564 113L550 45Q520 22 470 6T359 -10Z" />
<glyph unicode="&#x405;" glyph-name="uni0405" horiz-adv-x="574" d="M267 -10Q214 -10 172 -1T98 23T45 53T13 83L26 146Q41 129 64 113T118 83T188 61T271 52Q356 52 403 85T451 190Q451 221 441 243T410 281T360 309T294 335Q261 347 226 361T163 396T117
450T99 531Q99 622 165 674T349 726Q427 726 478 706T558 662L545 599Q508 628 458 646T348 664Q261 664 214 630T166 535Q166 503 179 482T213 446T261 420T317 399Q352 387 388 373T453 337T502 280T521 194Q521 96 454 43T267 -10Z" />
<glyph unicode="&#x406;" glyph-name="uni0406" horiz-adv-x="241" d="M253 717L100 0H30L183 717H253Z" />
<glyph unicode="&#x407;" glyph-name="uni0407" horiz-adv-x="244" d="M143 797Q123 797 111 810T98 841Q98 861 110 874T143 888Q165 888 177 875T190 841Q190 823 178 810T143 797ZM327 797Q307 797 294 810T281 841Q281 861 294 874T327 888Q349 888 361 875T374
841Q374 823 362 810T327 797ZM253 717L100 0H30L183 717H253Z" />
<glyph unicode="&#x408;" glyph-name="uni0408" horiz-adv-x="361" d="M372 717L250 142Q243 111 230 84T194 35T141 2T69 -10Q42 -10 18 -5T-23 9L-10 68Q24 52 68 52Q122 52 147 79T184 161L302 717H372Z" />
<glyph unicode="&#x409;" glyph-name="uni0409" horiz-adv-x="998" d="M951 235Q951 178 931 134T876 60T792 15T689 0H445L584 655H311Q276 500 248 387T194 200Q177 150 158 112T112 48T50 8T-34 -4L-21 62Q9 61 32 71T72 100T103 148T129 211Q156 288 188 414T259
717H667L605 424H735Q783 424 823 413T891 378T935 319T951 235ZM592 363L528 60H699Q738 60 771 71T827 104T864 158T878 231Q878 301 839 332T727 363H592Z" />
<glyph unicode="&#x40a;" glyph-name="uni040A" horiz-adv-x="1036" d="M989 235Q989 177 969 133T914 60T832 15T730 0H482L560 364H178L100 0H30L183 717H253L190 424H573L636 717H705L642 424H779Q826 424 864 413T931 378T974 319T989 235ZM629 363L565 60H737Q776
60 809 71T866 104T903 158T917 231Q917 302 878 332T770 363H629Z" />
<glyph unicode="&#x40b;" glyph-name="uni040B" horiz-adv-x="797" d="M406 655L353 404Q378 421 418 433Q461 446 509 446Q561 446 603 432T673 386T711 307T708 191L672 0H600L638 192Q648 246 643 283T619 342T570 374T499 384Q410 384 339 338L267 0H197L336
655H106L120 717H649L636 655H406Z" />
<glyph unicode="&#x40c;" glyph-name="uni040C" horiz-adv-x="609" d="M266 332H171L100 0H30L183 717H253L184 393H278L593 717H674L327 360L539 0H462L266 332ZM481 909H579L427 773H360L481 909Z" />
<glyph unicode="&#x40e;" glyph-name="uni040E" horiz-adv-x="619" d="M344 168Q314 121 286 87T226 32T158 3T75 0L87 62Q146 52 187 81T268 167L130 717H202L318 243L611 717H684L344 168ZM405 758Q366 758 338 769T292 800T269 844T269 897H332Q327 876 330
860T344 832T371 815T407 809Q446 809 473 829T508 897H573Q563 837 522 798T405 758Z" />
<glyph unicode="&#x40f;" glyph-name="uni040F" horiz-adv-x="692" d="M550 0H325L289 -170H225L254 0H30L182 717H253L113 61H493L633 717H702L550 0Z" />
<glyph unicode="&#x410;" glyph-name="uni0410" horiz-adv-x="660" d="M378 717H475L585 0H516L483 217H158L33 0H-34L378 717ZM473 279L415 663L194 279H473Z" />
<glyph unicode="&#x411;" glyph-name="uni0411" horiz-adv-x="591" d="M183 717H586L574 655H240L189 419H326Q373 419 412 408T478 374T521 317T537 235Q537 179 517 135T460 61T376 16T270 0H30L183 717ZM176 357L113 60H285Q324 60 357 71T413 104T450 158T464
231Q464 299 426 328T318 357H176Z" />
<glyph unicode="&#x412;" glyph-name="uni0412" horiz-adv-x="617" d="M183 717H369Q469 717 523 677T577 552Q577 472 531 429T411 371Q479 359 519 319T559 205Q559 154 540 116T485 52T400 13T292 0H30L183 717ZM240 655L185 400H319Q360 400 394 408T454 435T493
480T507 545Q507 607 468 631T359 655H240ZM172 338L113 62H302Q388 62 437 97T487 206Q487 275 442 306T313 338H172Z" />
<glyph unicode="&#x413;" glyph-name="uni0413" d="M183 717H577L564 655H240L100 0H30L183 717Z" />
<glyph unicode="&#x414;" glyph-name="uni0414" horiz-adv-x="722" d="M562 61H652L602 -170H539L567 0H18L-27 -170H-89L-40 61H28Q71 89 101 138T158 266T211 455T270 717H702L562 61ZM492 61L618 655H322Q292 523 268 425T221 257T173 139T116 61H492Z" />
<glyph unicode="&#x415;" glyph-name="uni0415" horiz-adv-x="579" d="M183 717H614L599 655H240L187 406H495L482 345H174L113 62H479L466 0H30L183 717Z" />
<glyph unicode="&#x416;" glyph-name="uni0416" horiz-adv-x="917" d="M434 332H363L44 0H-46L317 376L139 717H214L380 393H447L516 717H586L517 393H585L899 717H982L635 359L846 0H769L573 332H504L434 0H364L434 332Z" />
<glyph unicode="&#x417;" glyph-name="uni0417" horiz-adv-x="581" d="M508 209Q508 161 491 121T441 52T359 6T245 -10Q156 -10 100 15T12 70L27 132Q43 116 63 102T109 76T169 59T246 52Q302 52 339 65T397 101T428 152T437 211Q436 274 398 306T278 339H177L191
401H299Q387 401 431 440T476 539Q476 603 433 633T313 664Q259 664 211 653T129 623L144 687Q171 701 216 713T322 726Q371 726 412 715T482 681T528 625T545 547Q545 511 533 481T499 427T448 389T386 368Q441 354 474 316T508 209Z" />
<glyph unicode="&#x418;" glyph-name="uni0418" horiz-adv-x="731" d="M100 1V0H30L183 717H253L121 98L669 717H743L591 0H520L651 616L105 0L100 1Z" />
<glyph unicode="&#x419;" glyph-name="uni0419" horiz-adv-x="731" d="M465 758Q426 758 398 769T352 800T329 844T328 897H391Q386 876 389 860T403 832T430 815T466 809Q505 809 532 829T567 897H632Q622 837 581 798T465 758ZM100 1V0H30L183 717H253L121 98L669
717H743L591 0H520L651 616L105 0L100 1Z" />
<glyph unicode="&#x41a;" glyph-name="uni041A" horiz-adv-x="609" d="M266 332H171L100 0H30L183 717H253L184 393H278L593 717H674L327 360L539 0H462L266 332Z" />
<glyph unicode="&#x41b;" glyph-name="uni041B" horiz-adv-x="665" d="M129 211Q156 288 188 414T259 717H677L525 0H455L594 655H311Q276 500 248 387T194 200Q177 150 158 112T112 48T50 8T-34 -4L-21 62Q9 61 32 71T72 100T103 148T129 211Z" />
<glyph unicode="&#x41c;" glyph-name="uni041C" horiz-adv-x="846" d="M767 614L425 109H356L227 624L95 0H30L183 717H270L404 179L766 717H858L706 0H637L767 614Z" />
<glyph unicode="&#x41d;" glyph-name="uni041D" horiz-adv-x="707" d="M566 324H169L100 0H30L183 717H253L182 386H579L649 717H718L566 0H497L566 324Z" />
<glyph unicode="&#x41e;" glyph-name="uni041E" horiz-adv-x="728" d="M350 -10Q282 -10 227 12T134 75T74 174T53 306Q53 399 81 476T159 608T273 695T413 726Q481 726 536 704T630 642T690 542T711 410Q711 317 683 240T605 108T490 21T350 -10ZM126 304Q126
183 186 118T353 52Q413 52 465 79T555 154T615 268T637 413Q637 534 577 599T411 664Q350 664 298 637T208 562T148 448T126 304Z" />
<glyph unicode="&#x41f;" glyph-name="uni041F" horiz-adv-x="691" d="M183 717H702L550 0H480L620 655H240L100 0H30L183 717Z" />
<glyph unicode="&#x420;" glyph-name="uni0420" horiz-adv-x="593" d="M183 717H399Q446 717 485 706T551 672T594 614T610 531Q610 474 590 430T533 355T449 309T343 293H163L100 0H30L183 717ZM240 655L176 354H358Q397 354 430 365T487 399T524 453T538 527Q538
595 499 625T391 655H240Z" />
<glyph unicode="&#x421;" glyph-name="uni0421" horiz-adv-x="653" d="M359 -10Q296 -10 240 8T143 66T77 165T53 307Q53 395 81 471T160 604T284 693T444 726Q511 726 564 709T649 662L634 597Q598 631 547 647T439 664Q366 664 308 636T210 560T148 447T126
311Q126 240 144 191T195 111T271 66T365 52Q421 52 470 68T564 113L550 45Q520 22 470 6T359 -10Z" />
<glyph unicode="&#x422;" glyph-name="uni0422" horiz-adv-x="575" d="M406 655L267 0H197L336 655H106L120 717H649L636 655H406Z" />
<glyph unicode="&#x423;" glyph-name="uni0423" horiz-adv-x="619" d="M344 168Q314 121 286 87T226 32T158 3T75 0L87 62Q146 52 187 81T268 167L130 717H202L318 243L611 717H684L344 168V168Z" />
<glyph unicode="&#x424;" glyph-name="uni0424" horiz-adv-x="773" d="M756 389Q756 321 729 266T652 171T533 109T381 86L361 -10H292L312 87Q259 90 213 107T131 154T76 228T55 330Q55 397 82 452T159 548T277 610T428 633L448 725H517L497 633Q550 629 597
612T679 565T735 490T756 389ZM126 334Q126 285 142 251T187 194T251 159T325 144L416 576Q352 574 299 557T208 509T148 434T126 334ZM685 385Q685 434 668 468T624 525T560 559T485 574L393 143Q457 144 511 161T603 210T663 285T685 385Z" />
<glyph unicode="&#x425;" glyph-name="uni0425" horiz-adv-x="617" d="M319 317L46 0H-35L293 376L140 717H214L349 420L602 717H682L373 362L538 0H463L319 317Z" />
<glyph unicode="&#x426;" glyph-name="uni0426" horiz-adv-x="723" d="M563 61H654L605 -170H541L568 0H30L183 717H253L113 61H493L633 717H702L563 61Z" />
<glyph unicode="&#x427;" glyph-name="uni0427" horiz-adv-x="651" d="M510 0H440L507 315Q465 293 420 282T320 270Q267 270 226 286T158 334T123 415T128 527L169 717H238L198 527Q176 425 213 378T328 331Q384 331 431 344T521 383L592 717H662L510 0Z" />
<glyph unicode="&#x428;" glyph-name="uni0428" horiz-adv-x="923" d="M782 0H30L183 717H253L113 61H383L523 717H594L455 61H726L865 717H934L782 0Z" />
<glyph unicode="&#x429;" glyph-name="uni0429" horiz-adv-x="955" d="M795 61H884L835 -170H772L799 0H30L183 717H253L113 61H383L523 717H594L455 61H726L865 717H934L795 61Z" />
<glyph unicode="&#x42a;" glyph-name="uni042A" horiz-adv-x="702" d="M121 717H371L308 424H439Q487 424 527 413T595 378T639 319T655 235Q655 178 635 134T580 60T497 15T394 0H148L288 655H108L121 717ZM295 363L231 60H403Q442 60 475 71T531 104T568 158T582
231Q582 301 543 332T431 363H295Z" />
<glyph unicode="&#x42b;" glyph-name="uni042B" horiz-adv-x="799" d="M537 235Q537 178 517 134T462 60T379 15T276 0H30L183 717H253L190 424H321Q369 424 409 413T477 378T521 319T537 235ZM177 363L113 60H285Q324 60 357 71T413 104T450 158T464 231Q464
301 425 332T313 363H177ZM813 717L660 0H590L743 717H813Z" />
<glyph unicode="&#x42c;" glyph-name="uni042C" horiz-adv-x="584" d="M537 235Q537 178 517 134T462 60T379 15T276 0H30L183 717H253L190 424H321Q369 424 409 413T477 378T521 319T537 235ZM177 363L113 60H285Q324 60 357 71T413 104T450 158T464 231Q464
301 425 332T313 363H177Z" />
<glyph unicode="&#x42d;" glyph-name="uni042D" horiz-adv-x="645" d="M627 405Q626 319 600 244T524 112T402 23T236 -10Q162 -10 106 8T16 55L31 119Q69 86 124 69T241 52Q310 52 363 74T455 134T517 225T549 336H187L201 395H554V401Q554 473 536 523T484 605T406
650T309 664Q200 664 109 603L124 672Q156 696 204 711T317 726Q383 726 439 707T538 649T604 550T627 405Z" />
<glyph unicode="&#x42e;" glyph-name="uni042E" horiz-adv-x="954" d="M937 410Q937 317 909 240T833 108T721 21T583 -10Q516 -10 463 12T371 75T313 174T292 306V325H169L100 0H30L183 717H253L182 386H298Q309 462 340 525T418 632T522 701T645 726Q712 726
766 704T858 642T916 542T937 410ZM365 304Q365 183 423 118T585 52Q644 52 694 79T782 154T841 268T863 413Q863 534 805 599T643 664Q584 664 534 637T446 562T387 448T365 304Z" />
<glyph unicode="&#x42f;" glyph-name="uni042F" horiz-adv-x="627" d="M130 491Q130 545 149 587T205 658T292 702T405 717H639L486 0H416L479 298H376Q351 298 327 301L67 0H-17L258 315Q130 358 130 491ZM492 359L555 655H397Q306 655 254 614T201 494Q201 424
244 392T367 359H492Z" />
<glyph unicode="&#x430;" glyph-name="uni0430" horiz-adv-x="515" d="M337 0Q336 15 337 43T347 106Q335 85 319 64T281 27T232 0T171 -10Q142 -10 115 -2T67 24T33 69T20 135Q20 215 80 261T259 307H389L392 323Q401 364 395 392T371 438T325 464T262 472Q213
472 174 461T103 433L114 490Q141 506 181 517T276 529Q324 529 362 517T426 480T459 413T455 315L407 91Q402 70 399 43T397 0H337ZM183 44Q219 44 249 58T301 94T339 140T362 183L377 256H254Q165 256 125 224T85 139Q85 91 112 68T183 44Z" />
<glyph unicode="&#x431;" glyph-name="uni0431" horiz-adv-x="567" d="M537 310Q537 240 516 182T457 81T369 14T259 -10Q211 -10 172 4T104 48T60 120T44 222Q44 285 53 352T86 482T149 595T249 678Q283 696 314 705T375 717T430 721T483 723Q524 725 548 730T590
747L578 686Q559 675 537 672T477 666Q451 664 427 664T378 660T327 649T270 624Q210 593 172 530T107 367Q142 446 201 485T338 524Q380 524 416 511T480 472T522 406T537 310ZM108 215Q108 134 151 91T261 47Q305 47 343 65T409 117T453 198T469 302Q469 387
430 427T325 468Q281 468 242 450T173 399T126 319T108 215Z" />
<glyph unicode="&#x432;" glyph-name="uni0432" horiz-adv-x="507" d="M130 519H297Q371 519 413 492T455 402Q455 347 425 315T345 271Q383 263 410 236T438 154Q438 73 379 37T221 0H20L130 519ZM184 465L148 295H260Q315 295 352 320T389 394Q389 433 363 449T288
465H184ZM137 244L97 55H236Q302 55 336 80T371 156Q371 206 339 225T251 244H137Z" />
<glyph unicode="&#x433;" glyph-name="uni0433" horiz-adv-x="443" d="M203 -10Q172 -10 141 -3T85 21T43 65T27 131Q27 178 46 207T95 253T161 280T233 296Q259 301 281 307T319 323T345 351T354 395Q354 417 346 432T322 456T287 469T241 473Q197 473 164 463T106
440L116 499Q136 510 167 519T247 529Q333 529 376 495T420 399Q420 357 404 329T362 283T302 255T236 239Q206 233 180 226T135 208T105 179T94 133Q94 110 103 94T129 67T167 51T213 46Q243 46 267 51T311 64T345 80T371 96L359 32Q350 26 338 19T307 6T263 -5T203
-10Z" />
<glyph unicode="&#x434;" glyph-name="uni0434" horiz-adv-x="575" d="M526 425Q526 211 454 101T250 -10Q200 -10 160 6T92 53T48 127T32 224Q32 282 50 332T103 420T185 479T291 501Q358 501 401 471T465 388Q469 461 458 514T424 600T364 650T280 666Q256 666
234 663T194 656T162 647T144 639L157 697Q168 703 202 714T283 726Q406 726 466 653T526 425ZM443 283Q443 365 400 405T290 445Q247 445 212 429T151 383T113 313T99 226Q99 136 142 92T253 47Q296 47 331 64T391 113T429 188T443 283Z" />
<glyph unicode="&#x435;" glyph-name="uni0435" horiz-adv-x="534" d="M430 25Q410 14 372 2T277 -10Q161 -10 97 50T32 226Q32 296 53 352T111 448T197 508T301 529Q355 529 397 509T465 453T494 364T477 246H99V227Q99 139 145 93T282 47Q331 47 373 58T442
83L430 25ZM295 472Q225 472 175 428T107 302H429Q438 345 431 377T404 430T357 461T295 472Z" />
<glyph unicode="&#x436;" glyph-name="uni0436" horiz-adv-x="730" d="M329 232H271L47 0H-35L230 273L84 519H151L286 289H341L390 519H456L407 289H465L685 519H762L508 255L651 0H580L450 232H395L345 0H280L329 232Z" />
<glyph unicode="&#x437;" glyph-name="uni0437" horiz-adv-x="452" d="M379 149Q379 116 367 87T331 37T270 3T181 -10Q118 -10 73 7T3 47L14 104Q40 81 82 64T181 47Q252 47 283 75T315 153Q314 200 287 220T201 241H131L142 295H221Q285 295 315 322T345 389Q345
431 313 451T220 473Q185 473 150 466T89 444L100 501Q123 512 157 520T233 529Q311 529 357 495T404 394Q404 340 375 307T296 266Q333 255 356 227T379 149Z" />
<glyph unicode="&#x438;" glyph-name="uni0438" horiz-adv-x="552" d="M217 47Q250 47 276 57T324 84T361 124T392 170L467 519H532L422 0H364L381 105H379Q365 82 348 61T309 24T260 -1T198 -10Q116 -10 76 42T55 186L126 519H191L121 189Q113 151 117 125T135
81T170 55T217 47Z" />
<glyph unicode="&#x439;" glyph-name="uni0439" horiz-adv-x="552" d="M339 580Q303 580 278 590T236 618T215 659T212 709H273Q267 669 286 650T341 630Q376 630 400 647T432 709H494Q485 652 447 616T339 580ZM217 47Q250 47 276 57T324 84T361 124T392 170L467
519H532L422 0H364L381 105H379Q365 82 348 61T309 24T260 -1T198 -10Q116 -10 76 42T55 186L126 519H191L121 189Q113 151 117 125T135 81T170 55T217 47Z" />
<glyph unicode="&#x43a;" glyph-name="uni043A" horiz-adv-x="487" d="M192 236H135L85 0H20L130 519H195L146 290H204L438 519H516L248 259L404 0H332L192 236Z" />
<glyph unicode="&#x43b;" glyph-name="uni043B" horiz-adv-x="533" d="M-13 64Q22 60 48 85T96 166T140 309T188 519H513L403 0H338L437 465H238Q213 349 190 260T137 112T68 24T-27 -1L-13 64V64Z" />
<glyph unicode="&#x43c;" glyph-name="uni043C" horiz-adv-x="689" d="M589 443L324 64H273L176 444L82 0H20L130 519H219L315 141L579 519H671L560 0H495L589 443Z" />
<glyph unicode="&#x43d;" glyph-name="uni043D" horiz-adv-x="558" d="M414 242H136L85 0H20L130 519H195L148 296H426L473 519H538L428 0H363L414 242Z" />
<glyph unicode="&#x43e;" glyph-name="uni043E" horiz-adv-x="547" d="M250 -10Q200 -10 160 6T92 53T48 127T32 224Q32 287 51 343T105 440T188 505T297 529Q346 529 386 513T456 466T500 392T516 295Q516 232 497 176T443 79T359 14T250 -10ZM99 226Q99 136
142 92T253 47Q297 47 333 65T394 116T434 194T448 292Q448 383 405 427T295 472Q251 472 215 454T153 402T113 324T99 226Z" />
<glyph unicode="&#x43f;" glyph-name="uni043F" horiz-adv-x="564" d="M342 472Q308 472 281 462T231 436T192 397T159 349L85 0H20L130 519H191L171 416H173Q203 464 249 496T366 529Q451 529 490 476T508 326L439 0H374L443 327Q452 367 448 394T430 439T394
464T342 472Z" />
<glyph unicode="&#x440;" glyph-name="uni0440" horiz-adv-x="588" d="M294 -10Q227 -10 178 22T110 116L47 -177H-18L130 519H188L175 439Q206 480 250 504T351 529Q447 529 501 467T556 296Q556 233 538 178T485 80T402 14T294 -10ZM139 219Q139 174 151 142T184
88T232 57T292 47Q339 47 376 68T438 123T476 203T489 297Q489 386 447 429T338 472Q292 472 256 452T193 398T153 317T139 219Z" />
<glyph unicode="&#x441;" glyph-name="uni0441" horiz-adv-x="484" d="M267 -10Q217 -10 174 4T100 47T50 121T32 227Q32 293 52 348T110 444T199 506T314 529Q362 529 398 518T461 487L448 431Q385 472 312 472Q260 472 220 454T153 403T113 326T99 231Q99 138
147 93T276 47Q308 47 342 54T408 77L396 17Q339 -10 267 -10Z" />
<glyph unicode="&#x442;" glyph-name="uni0442" horiz-adv-x="868" d="M85 0H20L130 519H191L171 416H173Q202 464 245 496T352 529Q413 529 449 496T490 400Q520 455 567 492T683 529Q760 529 797 478T814 327L744 0H679L748 328Q757 368 753 395T737 440T704
464T658 472Q629 472 605 463T559 438T521 399T489 351L414 0H349L419 328Q428 368 425 395T408 440T375 464T328 472Q297 472 272 462T227 436T190 397T159 349L85 0Z" />
<glyph unicode="&#x443;" glyph-name="uni0443" horiz-adv-x="501" d="M241 6Q214 -41 189 -77T136 -137T79 -174T11 -187Q-4 -187 -17 -185T-42 -178L-29 -120Q-20 -125 -7 -127T22 -130Q62 -130 91 -104T157 -21L66 519H135L208 62L471 519H538L241 6V6Z" />
<glyph unicode="&#x444;" glyph-name="uni0444" horiz-adv-x="690" d="M660 288Q660 223 635 169T564 75T456 14T321 -8L285 -177H221L257 -8Q215 -5 175 11T102 56T50 129T30 229Q30 294 56 348T127 443T235 505T371 527L413 727H478L435 526Q477 523 517 507T589
461T640 388T660 288ZM97 234Q97 187 112 154T152 98T207 63T269 48L359 472Q305 471 258 454T174 406T118 332T97 234ZM593 285Q593 331 578 365T539 421T484 456T423 471L333 47Q386 48 433 65T516 113T572 187T593 285Z" />
<glyph unicode="&#x445;" glyph-name="uni0445" horiz-adv-x="475" d="M228 218L39 0H-36L203 271L89 519H159L253 316L425 519H500L279 265L403 0H332L228 218Z" />
<glyph unicode="&#x446;" glyph-name="uni0446" horiz-adv-x="578" d="M217 47Q250 47 276 57T324 84T361 124T392 170L467 519H532L433 54H519L476 -148H420L443 0H364L381 105H379Q365 82 348 61T309 24T260 -1T198 -10Q116 -10 76 42T55 186L126 519H191L121
189Q113 151 117 125T135 81T170 55T217 47Z" />
<glyph unicode="&#x447;" glyph-name="uni0447" horiz-adv-x="509" d="M379 0H313L362 227Q333 210 299 201T227 191Q138 191 99 237T81 380L111 519H175L146 376Q138 340 141 316T157 276T188 254T233 247Q268 247 304 255T374 284L424 519H488L379 0Z" />
<glyph unicode="&#x448;" glyph-name="uni0448" horiz-adv-x="869" d="M689 104Q660 55 617 23T510 -10Q449 -10 413 23T372 119Q343 64 296 27T180 -10Q103 -10 66 41T48 192L118 519H184L114 191Q105 151 108 124T125 79T158 54T204 46Q233 46 258 55T303 81T341
119T373 166L448 519H513L443 191Q434 151 438 124T454 79T487 54T534 46Q565 46 590 56T635 83T671 122T702 170L778 519H842L732 0H670L691 104H689V104Z" />
<glyph unicode="&#x449;" glyph-name="uni0449" horiz-adv-x="888" d="M689 104Q660 55 617 23T510 -10Q449 -10 413 23T372 119Q343 64 296 27T180 -10Q103 -10 66 41T48 192L118 519H184L114 191Q105 151 108 124T125 79T158 54T204 46Q233 46 258 55T303 81T341
119T373 166L448 519H513L443 191Q434 151 438 124T454 79T487 54T534 46Q565 46 590 56T635 83T671 122T702 170L778 519H842L743 54H829L786 -148H729L752 0H670L691 104H689Z" />
<glyph unicode="&#x44a;" glyph-name="uni044A" horiz-adv-x="545" d="M490 185Q490 140 473 106T427 48T357 12T269 0H95L193 465H58L69 519H270L230 329H320Q398 329 444 294T490 185ZM218 275L171 54H281Q344 54 383 86T422 178Q422 230 393 252T309 275H218Z" />
<glyph unicode="&#x44b;" glyph-name="uni044B" horiz-adv-x="652" d="M523 0H458L568 519H633L523 0ZM415 185Q415 140 398 106T352 48T282 12T194 0H20L130 519H195L155 329H245Q323 329 369 294T415 185ZM143 275L96 54H206Q269 54 308 86T347 178Q347 230
318 252T234 275H143Z" />
<glyph unicode="&#x44c;" glyph-name="uni044C" horiz-adv-x="470" d="M415 185Q415 140 398 106T352 48T282 12T194 0H20L130 519H195L155 329H245Q323 329 369 294T415 185ZM143 275L96 54H206Q269 54 308 86T347 178Q347 230 318 252T234 275H143Z" />
<glyph unicode="&#x44d;" glyph-name="uni044D" horiz-adv-x="473" d="M441 291Q441 225 420 170T362 75T272 13T156 -10Q110 -10 73 1T9 32L22 89Q54 67 87 57T159 47Q205 47 241 61T305 100T348 161T371 240H123L136 294H374Q371 472 203 472Q168 472 139 465T80
444L93 503Q147 529 211 529Q261 529 303 515T376 471T424 397T441 291Z" />
<glyph unicode="&#x44e;" glyph-name="uni044E" horiz-adv-x="747" d="M713 295Q713 232 694 176T641 79T558 14T450 -10Q402 -10 362 6T294 53T251 127T235 224V241H136L85 0H20L130 519H195L148 298H242Q252 348 274 390T329 463T404 511T497 529Q546 529 585
513T653 466T697 392T713 295ZM302 226Q302 181 313 148T345 92T392 58T453 47Q496 47 531 65T592 116T632 194T646 292Q646 338 635 371T603 427T556 461T495 472Q451 472 416 454T355 402T316 324T302 226Z" />
<glyph unicode="&#x44f;" glyph-name="uni044F" horiz-adv-x="500" d="M84 348Q84 390 100 422T144 475T211 508T297 519H481L371 0H306L350 206H253L74 0H-3L188 217Q139 231 112 263T84 348ZM362 260L405 465H289Q228 465 190 437T151 352Q151 304 181 282T266
260H362Z" />
<glyph unicode="&#x451;" glyph-name="uni0451" horiz-adv-x="534" d="M397 629Q376 629 364 642T351 675Q351 694 363 707T397 721Q419 721 431 708T443 675Q443 656 431 643T397 629ZM217 629Q196 629 184 642T171 675Q171 694 183 707T217 721Q239 721 251
708T263 675Q263 656 251 643T217 629ZM430 25Q410 14 372 2T277 -10Q161 -10 97 50T32 226Q32 296 53 352T111 448T197 508T301 529Q355 529 397 509T465 453T494 364T477 246H99V227Q99 139 145 93T282 47Q331 47 373 58T442 83L430 25ZM295 472Q225 472 175
428T107 302H429Q438 345 431 377T404 430T357 461T295 472Z" />
<glyph unicode="&#x452;" glyph-name="uni0452" horiz-adv-x="571" d="M429 -43Q422 -75 411 -101T382 -147T339 -176T279 -187Q254 -187 233 -181T196 -165L208 -110Q219 -117 237 -123T281 -130Q320 -130 337 -108T365 -37L443 327Q451 367 447 394T430 439T394
464T342 472Q308 472 281 462T231 436T192 397T159 349L85 0H20L144 584H44L54 634H154L172 717H237L219 634H372L363 584H209L194 515L171 416H173Q203 464 249 496T366 529Q451 529 490 476T508 326L429 -43V-43Z" />
<glyph unicode="&#x453;" glyph-name="uni0453" horiz-adv-x="443" d="M203 -10Q172 -10 141 -3T85 21T43 65T27 131Q27 178 46 207T95 253T161 280T233 296Q259 301 281 307T319 323T345 351T354 395Q354 417 346 432T322 456T287 469T241 473Q197 473 164 463T106
440L116 499Q136 510 167 519T247 529Q333 529 376 495T420 399Q420 357 404 329T362 283T302 255T236 239Q206 233 180 226T135 208T105 179T94 133Q94 110 103 94T129 67T167 51T213 46Q243 46 267 51T311 64T345 80T371 96L359 32Q350 26 338 19T307 6T263 -5T203
-10ZM373 746H463L314 588H256L373 746Z" />
<glyph unicode="&#x454;" glyph-name="uni0454" horiz-adv-x="484" d="M396 17Q339 -10 267 -10Q217 -10 174 4T100 47T50 121T32 227Q32 293 52 348T110 444T199 506T314 529Q362 529 398 518T461 487L448 431Q385 472 312 472Q268 472 234 459T173 423T129 367T105
295H357L345 238H99V231Q99 138 147 93T276 47Q308 47 342 54T408 77L396 17V17Z" />
<glyph unicode="&#x455;" glyph-name="uni0455" horiz-adv-x="461" d="M402 144Q402 69 354 30T215 -10Q176 -10 144 -4T87 13T42 35T10 58L23 116Q36 104 55 92T99 70T154 54T217 47Q285 47 312 73T340 137Q340 162 330 178T303 205T264 223T217 238Q190 246
163 256T115 281T80 320T67 380Q67 417 81 444T120 491T181 519T258 529Q320 529 360 514T425 482L413 424Q387 442 350 457T259 472Q197 472 164 451T130 386Q130 365 138 351T161 327T195 311T238 297Q265 289 294 280T347 255T386 212T402 144Z" />
<glyph unicode="&#x456;" glyph-name="uni0456" horiz-adv-x="214" d="M185 613Q165 613 152 627T139 659Q139 678 152 692T185 706Q205 706 218 692T232 659Q232 641 219 627T185 613ZM195 519L85 0H20L130 519H195Z" />
<glyph unicode="&#x457;" glyph-name="uni0457" horiz-adv-x="219" d="M250 616Q228 616 216 630T204 662Q204 682 216 695T250 708Q271 708 283 695T296 662Q296 644 284 630T250 616ZM119 616Q98 616 85 630T72 662Q72 682 85 695T119 708Q140 708 152 695T164
662Q164 644 152 630T119 616ZM195 519L85 0H20L130 519H195Z" />
<glyph unicode="&#x458;" glyph-name="uni0458" horiz-adv-x="224" d="M192 613Q172 613 159 627T146 659Q146 678 159 692T192 706Q212 706 225 692T239 659Q239 641 226 627T192 613ZM84 -43Q77 -75 66 -101T36 -147T-7 -176T-67 -187Q-92 -187 -113 -181T-150
-165L-138 -110Q-127 -117 -109 -123T-65 -130Q-26 -130 -9 -108T19 -37L137 519H202L84 -43Z" />
<glyph unicode="&#x459;" glyph-name="uni0459" horiz-adv-x="781" d="M726 185Q726 140 709 106T663 48T593 12T505 0H331L430 465H238Q213 349 190 260T137 112T68 24T-27 -1L-13 64Q22 60 48 85T96 166T140 309T188 519H507L466 329H555Q634 329 680 294T726
185ZM455 275L408 54H516Q579 54 618 86T658 178Q658 230 629 252T544 275H455Z" />
<glyph unicode="&#x45a;" glyph-name="uni045A" horiz-adv-x="802" d="M748 177Q748 134 732 101T686 46T616 12T527 0H353L408 261H140L85 0H20L130 519H195L152 315H419L462 519H528L485 315H577Q656 315 702 281T748 177ZM473 260L429 54H538Q601 54 640 84T680
170Q680 218 651 239T566 260H473Z" />
<glyph unicode="&#x45b;" glyph-name="uni045B" horiz-adv-x="571" d="M342 472Q308 472 281 462T231 436T192 397T159 349L85 0H20L144 584H44L54 634H154L172 717H237L219 634H372L363 584H208L194 515L171 416H173Q203 464 249 496T366 529Q451 529 490 476T508
326L439 0H374L443 327Q452 367 448 394T430 439T394 464T342 472Z" />
<glyph unicode="&#x45c;" glyph-name="uni045C" horiz-adv-x="487" d="M192 236H135L85 0H20L130 519H195L146 290H204L438 519H516L248 259L404 0H332L192 236ZM390 746H480L331 588H273L390 746Z" />
<glyph unicode="&#x45e;" glyph-name="uni045E" horiz-adv-x="501" d="M241 6Q214 -41 189 -77T136 -137T79 -174T11 -187Q-4 -187 -17 -185T-42 -178L-29 -120Q-20 -125 -7 -127T22 -130Q62 -130 91 -104T157 -21L66 519H135L208 62L471 519H538L241 6ZM303 580Q267
580 242 590T200 618T179 659T176 709H237Q231 669 250 650T305 630Q340 630 364 647T396 709H458Q449 652 411 616T303 580Z" />
<glyph unicode="&#x45f;" glyph-name="uni045F" horiz-adv-x="557" d="M217 47Q250 47 276 57T324 84T361 124T392 170L467 519H532L422 0H364L381 105H379Q372 94 365 83Q352 64 339 45Q319 16 302 -14T272 -78T255 -148H193Q197 -110 210 -80T243 -22Q251 -11
259 -1Q232 -10 198 -10Q116 -10 76 42T55 186L126 519H191L121 189Q113 151 117 125T135 81T170 55T217 47Z" />
<glyph unicode="&#x490;" glyph-name="uni0490" horiz-adv-x="528" d="M183 717H506L542 887H607L569 655H240L100 0H30L183 717Z" />
<glyph unicode="&#x491;" glyph-name="uni0491" horiz-adv-x="405" d="M122 519H357L395 667H452L422 519H423L411 462H177L87 0H20L122 519Z" />
<glyph unicode="&#x492;" glyph-name="uni0492" horiz-adv-x="561" d="M27 387H151L222 717H616L603 655H279L221 387H405L395 330H209L139 0H69L139 330H16L27 387Z" />
<glyph unicode="&#x493;" glyph-name="uni0493" horiz-adv-x="447" d="M119 288L164 519H465L454 462H219L185 288H341L332 238H175L129 0H63L109 238H25L34 288H119Z" />
<glyph unicode="&#x49a;" glyph-name="uni049A" horiz-adv-x="634" d="M266 332H171L100 0H30L183 717H253L184 393H278L593 717H674L327 360L503 61H570L522 -170H457L485 0H462L266 332Z" />
<glyph unicode="&#x49b;" glyph-name="uni049B" horiz-adv-x="500" d="M192 236H135L85 0H20L130 519H195L146 290H204L438 519H516L248 259L371 54H435L392 -148H336L359 0H332L192 236Z" />
<glyph unicode="&#x4a2;" glyph-name="uni04A2" horiz-adv-x="739" d="M566 324H169L100 0H30L183 717H253L182 386H579L649 717H718L579 61H669L621 -170H556L584 0H497L566 324Z" />
<glyph unicode="&#x4a3;" glyph-name="uni04A3" horiz-adv-x="584" d="M414 242H136L85 0H20L130 519H195L148 296H426L473 519H538L439 54H525L482 -148H426L449 0H363L414 242Z" />
<glyph unicode="&#x4ae;" glyph-name="uni04AE" horiz-adv-x="597" d="M345 310L279 0H208L275 310L117 717H191L321 372L597 717H673L345 310Z" />
<glyph unicode="&#x4af;" glyph-name="uni04AF" horiz-adv-x="497" d="M236 -1L202 -177H135L170 -2L68 519H137L220 80L473 519H542L236 -1Z" />
<glyph unicode="&#x4b0;" glyph-name="uni04B0" horiz-adv-x="597" d="M109 323H270L117 717H191L321 372L597 717H673L355 323H515L504 266H335L279 0H208L265 266H98L109 323Z" />
<glyph unicode="&#x4b1;" glyph-name="uni04B1" horiz-adv-x="497" d="M29 0H169L68 519H137L220 80L473 519H542L236 0H378L367 -54H226L202 -177H135L159 -54H18L29 0Z" />
<glyph unicode="&#x4ba;" glyph-name="uni04BA" horiz-adv-x="653" d="M181 717H251L184 402Q226 424 271 435T371 447Q424 447 465 431T533 383T568 302T563 190L522 0H453L493 190Q515 292 478 339T363 386Q307 386 260 373T170 334L99 0H29L181 717Z" />
<glyph unicode="&#x4bb;" glyph-name="uni04BB" horiz-adv-x="571" d="M342 472Q308 472 281 462T231 436T192 397T159 349L85 0H20L172 717H237L194 515L171 416H173Q203 464 249 496T366 529Q451 529 490 476T508 326L439 0H374L443 327Q452 367 448 394T430
439T394 464T342 472Z" />
<glyph unicode="&#x4d8;" glyph-name="uni04D8" horiz-adv-x="707" d="M669 405Q668 319 643 244T572 112T460 23T311 -10Q232 -10 181 18T102 96T69 211T77 351L85 387H597V401Q597 473 579 523T527 605T449 650T352 664Q243 664 152 603L167 672Q199 696 247
711T359 726Q425 726 482 707T581 649T646 550T669 405ZM314 52Q373 52 420 73T501 130T558 216T590 323H144Q135 266 139 216T164 130T221 73T314 52Z" />
<glyph unicode="&#x4d9;" glyph-name="uni04D9" horiz-adv-x="529" d="M99 494Q119 505 157 517T252 529Q368 529 432 469T497 293Q497 223 476 167T418 71T332 11T228 -10Q174 -10 132 10T64 66T35 155T52 273H430V292Q430 380 384 426T247 472Q198 472 156 461T87
436L99 494ZM234 47Q304 47 354 91T422 217H100Q91 174 98 142T125 89T172 58T234 47Z" />
<glyph unicode="&#x4e8;" glyph-name="uni04E8" horiz-adv-x="728" d="M350 -10Q282 -10 227 12T134 75T74 174T53 306Q53 399 81 476T159 608T273 695T413 726Q481 726 536 704T630 642T690 542T711 410Q711 317 683 240T605 108T490 21T350 -10ZM126 304Q126
183 186 118T353 52Q413 52 465 79T555 154T615 268Q625 297 630 328H126Q126 316 126 304ZM637 413Q637 534 577 599T411 664Q350 664 298 637T208 562T147 448Q138 421 133 392H637V413Z" />
<glyph unicode="&#x4e9;" glyph-name="uni04E9" horiz-adv-x="547" d="M250 -10Q200 -10 160 6T92 53T48 127T32 224Q32 287 51 343T105 440T188 505T297 529Q346 529 386 513T456 466T500 392T516 295Q516 232 497 176T443 79T359 14T250 -10ZM99 226Q99 136
142 92T253 47Q292 47 324 61T381 101T422 162T445 242H99V226ZM295 472Q221 472 172 424T106 296H448Q446 386 404 429T295 472Z" />
<glyph unicode="&#x58f;" glyph-name="uni058F" horiz-adv-x="594" d="M214 317H400L420 413H235L246 467H432L440 506Q457 587 427 626T329 665Q262 665 220 623T160 504H89Q110 607 173 667T339 727Q390 727 427 711T486 666T514 595T511 504L503 467H591L579
413H492L471 317H559L547 263H460L404 0H333L389 263H203L214 317Z" />
<glyph unicode="&#xe3f;" glyph-name="baht" horiz-adv-x="617" d="M356 691L387 840H448L416 690L356 691ZM222 22H283L251 -131H190L222 22ZM183 717H369Q469 717 523 677T577 552Q577 472 531 429T411 371Q479 359 519 319T559 205Q559 154 540 116T485 52T400
13T292 0H30L183 717ZM240 655L185 400H319Q360 400 394 408T454 435T493 480T507 545Q507 607 468 631T359 655H240ZM172 338L113 62H302Q388 62 437 97T487 206Q487 275 442 306T313 338H172Z" />
</font>
</defs>
</svg>
