<?xml version="1.0" standalone="no"?> <!DOCTYPE svg PUBLIC "-//W3C//DTD SVG 1.0//EN" "http://www.w3.org/TR/2001/REC-SVG-20010904/DTD/svg10.dtd" > <svg xmlns="http://www.w3.org/2000/svg" width="100%" height="100%">
<defs >
<font id="YS" horiz-adv-x="541" ><font-face
    font-family="YS Text"
    units-per-em="1000"
    panose-1="0 0 0 0 0 0 0 0 0 0"
    ascent="928"
    descent="-244"
    alphabetic="0" />
<missing-glyph horiz-adv-x="200" />
<glyph unicode=" " glyph-name="space" horiz-adv-x="220" />
<glyph unicode="!" glyph-name="exclam" horiz-adv-x="274" d="M182 717L173 191H102L94 717H182ZM137 -6Q110 -6 93 11T75 55Q75 81 92 99T137 117Q164 117 181 99T199 55Q199 29 182 12T137 -6Z" />
<glyph unicode="&quot;" glyph-name="quotedbl" horiz-adv-x="397" d="M77 717H173L163 510H87L77 717ZM224 717H320L310 510H234L224 717Z" />
<glyph unicode="#" glyph-name="numbersign" horiz-adv-x="678" d="M380 207H230L188 0H108L150 207H40V277H165L202 459H67V529H216L255 717H335L296 529H446L485 717H565L526 529H638V459H512L475 277H611V207H460L418 0H338L380 207ZM395 277L432 459H282L245
277H395Z" />
<glyph unicode="$" glyph-name="dollar" horiz-adv-x="550" d="M503 194Q503 144 489 108T449 48T389 11T315 -7V-140H230V-9Q157 -5 111 14T47 51V130Q59 121 80 110T129 90T190 75T259 69Q335 69 374 100T414 194Q414 225 405 245T377 278T330 302T263 323Q224
334 187 347T119 384T71 441T53 529Q53 609 97 659T230 722V846H315V725Q376 723 411 710T464 686V607Q436 624 390 635T288 647Q210 647 176 617T141 533Q141 502 152 482T182 447T228 424T284 408Q323 397 362 385T432 350T483 290T503 194Z" />
<glyph unicode="%" glyph-name="percent" horiz-adv-x="650" d="M55 -10L516 726H594L133 -10H55ZM287 539Q287 491 276 456T246 399T202 365T149 354Q121 354 97 364T54 396T24 452T13 535Q13 583 24 618T53 676T96 711T149 722Q177 722 202 712T246 679T276
622T287 539ZM89 537Q89 471 104 445T149 418Q180 418 195 444T210 537Q210 603 195 630T149 657Q119 657 104 630T89 537ZM637 179Q637 131 626 97T597 39T553 5T499 -6Q471 -6 447 4T404 36T374 92T363 175Q363 223 374 258T403 316T446 351T499 362Q527 362
552 352T596 319T626 262T637 179ZM440 177Q440 111 454 85T499 58Q531 58 545 84T560 177Q560 243 546 270T499 297Q469 297 455 270T440 177Z" />
<glyph unicode="&amp;" glyph-name="ampersand" horiz-adv-x="770" d="M674 9Q633 9 597 24T522 65Q478 31 421 11T292 -10Q229 -10 182 5T103 48T56 113T40 194Q40 231 50 260T79 311T123 351T177 382Q139 425 121 465T102 550Q102 586 115 618T153 674T215 712T301
726Q349 726 387 713T450 675T489 619T503 551Q503 509 488 479T449 427T394 388T329 358L457 236L522 176Q554 215 572 261T599 352L678 330Q667 279 645 226T584 125Q609 108 635 98T690 88Q715 88 733 93Q743 95 751 98V24Q740 19 722 14T674 9ZM129 197Q129
138 171 104T296 69Q345 69 385 81T458 116Q438 133 417 152T373 193L232 328Q185 308 157 277T129 197ZM193 550Q193 510 216 477T272 413Q303 425 329 438T374 468T403 505T414 551Q414 596 384 621T302 647Q249 647 221 621T193 550Z" />
<glyph unicode="&apos;" glyph-name="quotesingle" horiz-adv-x="251" d="M77 717H173L163 510H87L77 717Z" />
<glyph unicode="(" glyph-name="parenleft" horiz-adv-x="354" d="M234 -139Q156 -50 118 64T80 307Q80 370 89 433T118 554T166 664T234 756H321Q280 717 251 666T203 557T174 436T165 310Q165 182 202 67T321 -139H234Z" />
<glyph unicode=")" glyph-name="parenright" horiz-adv-x="354" d="M120 -139Q198 -50 236 64T274 307Q274 370 265 433T236 554T188 664T120 756H33Q74 717 103 666T151 557T180 436T189 310Q189 182 152 67T33 -139H120Z" />
<glyph unicode="*" glyph-name="asterisk" horiz-adv-x="444" d="M294 369L222 494L151 369L84 418L181 524L40 554L65 632L196 573L181 717H263L248 573L378 632L404 554L263 524L360 418L294 369Z" />
<glyph unicode="+" glyph-name="plus" horiz-adv-x="550" d="M572 302V92H490V302H290V372H490V583H572V372H772V302H572Z" />
<glyph unicode="," glyph-name="comma" horiz-adv-x="239" d="M54 -107Q63 -97 72 -83T88 -55T100 -27T107 -3Q86 2 73 18T60 56Q60 82 76 99T121 117Q149 117 166 98T184 47Q184 26 178 4T163 -40T143 -78T120 -107H54Z" />
<glyph unicode="-" glyph-name="hyphen" horiz-adv-x="360" d="M60 345H300V265H60V345Z" />
<glyph unicode="." glyph-name="period" horiz-adv-x="239" d="M120 -6Q91 -6 73 12T55 57Q55 85 73 103T120 121Q148 121 166 103T184 57Q184 31 166 13T120 -6Z" />
<glyph unicode="/" glyph-name="slash" horiz-adv-x="397" d="M0 -120L317 756H397L80 -120H0Z" />
<glyph unicode="0" glyph-name="zero" horiz-adv-x="550" d="M277 -10Q226 -10 183 11T108 78T58 193T40 359Q40 455 58 524T107 639T182 705T277 726Q328 726 371 705T445 640T493 526T511 361Q511 265 494 196T445 80T371 12T277 -10ZM276 69Q310 69 336 84T380
133T407 222T417 358Q417 438 408 493T381 583T337 632T277 647Q243 647 217 632T172 583T144 494T134 358Q134 278 143 223T171 133T215 84T276 69Z" />
<glyph unicode="1" glyph-name="one" horiz-adv-x="550" d="M372 0H281V604L83 452V553L296 717H372V0Z" />
<glyph unicode="2" glyph-name="two" horiz-adv-x="550" d="M506 0H49V95Q140 168 206 225T316 330T380 421T401 512Q401 571 366 607T262 644Q205 644 156 616T68 545V646Q106 683 154 705T265 727Q321 727 364 712T437 670T482 605T498 521Q498 463 476 412T409
310T301 205T153 86H506V0Z" />
<glyph unicode="3" glyph-name="three" horiz-adv-x="550" d="M512 207Q512 157 493 117T440 49T359 5T255 -10Q185 -10 134 7T51 51V151Q83 119 135 96T256 72Q330 72 372 107T415 205Q415 265 377 298T258 332H166V417H262Q319 417 354 447T389 534Q389 585
356 614T261 644Q197 644 152 620T69 564V662Q104 691 152 709T262 727Q313 727 354 714T423 675T467 616T482 539Q482 505 472 478T445 431T404 398T355 378Q386 373 414 359T465 324T499 273T512 207Z" />
<glyph unicode="4" glyph-name="four" horiz-adv-x="550" d="M425 170V0H337V170H27V232L307 717H425V246H522V170H425ZM337 246V619L118 246H337Z" />
<glyph unicode="5" glyph-name="five" horiz-adv-x="550" d="M494 237Q494 181 477 136T427 58T348 8T244 -10Q180 -10 133 3T53 41V139Q87 111 131 92T244 72Q318 72 358 117T399 235Q399 313 359 349T258 385Q213 385 187 371T146 340H73V717H461V631H155V426Q175
441 204 452T273 464Q319 464 359 450T430 407T477 336T494 237Z" />
<glyph unicode="6" glyph-name="six" horiz-adv-x="550" d="M522 235Q522 180 504 135T453 58T378 8T284 -10Q216 -10 169 13T91 77T47 177T33 304Q33 398 50 476T102 609T191 696T321 727Q375 727 410 716T472 690V601Q407 645 321 645Q274 645 239 625T180 571T141
489T123 387Q156 432 199 454T293 476Q341 476 383 461T456 414T504 338T522 235ZM281 70Q310 70 336 80T383 111T415 161T427 233Q427 273 416 304T385 356T341 387T291 398Q258 398 230 387T181 355T148 303T136 231Q136 159 175 115T281 70Z" />
<glyph unicode="7" glyph-name="seven" horiz-adv-x="550" d="M202 0H104L410 631H45V717H506V636L202 0Z" />
<glyph unicode="8" glyph-name="eight" horiz-adv-x="550" d="M515 196Q515 148 497 110T447 45T372 4T278 -10Q225 -10 181 3T105 43T55 107T37 193Q37 263 73 310T172 381Q122 401 93 442T63 543Q63 587 79 621T124 678T192 714T278 726Q323 726 361 715T429
680T474 624T491 545Q491 484 461 443T382 381Q442 360 478 313T515 196ZM278 417Q332 417 366 447T400 532Q400 586 366 616T278 647Q224 647 189 617T154 532Q154 478 189 448T278 417ZM278 69Q309 69 335 78T381 105T412 149T423 208Q423 241 412 267T382 310T336
337T278 347Q246 347 219 338T171 311T140 267T129 208Q129 175 140 149T171 106T218 79T278 69Z" />
<glyph unicode="9" glyph-name="nine" horiz-adv-x="550" d="M522 423Q522 322 505 242T452 105T361 20T231 -10Q176 -10 141 0T77 27V115Q145 71 231 71Q277 71 312 90T372 144T411 226T429 327Q398 288 355 270T262 251Q214 251 172 266T99 312T51 386T33 487Q33
541 51 585T102 660T177 709T271 727Q338 727 386 705T464 642T508 546T522 423ZM274 646Q245 646 219 636T172 607T140 558T128 489Q128 450 139 420T170 370T214 339T264 329Q297 329 325 339T374 370T407 421T419 491Q419 561 380 603T274 646Z" />
<glyph unicode=":" glyph-name="colon" horiz-adv-x="239" d="M120 -6Q91 -6 73 12T55 57Q55 85 73 103T120 121Q148 121 166 103T184 57Q184 31 166 13T120 -6ZM120 377Q91 377 73 395T55 440Q55 468 73 486T120 504Q148 504 166 486T184 440Q184 414 166 396T120 377Z" />
<glyph unicode=";" glyph-name="semicolon" horiz-adv-x="239" d="M307 -103Q316 -93 325 -79T341 -51T353 -23T360 1Q339 6 326 22T313 60Q313 86 329 103T374 121Q402 121 419 102T437 51Q437 30 431 8T416 -36T396 -74T373 -103H307ZM120 377Q91 377 73 395T55
440Q55 468 73 486T120 504Q148 504 166 486T184 440Q184 414 166 396T120 377Z" />
<glyph unicode="&lt;" glyph-name="less" horiz-adv-x="550" d="M70 292V383L482 572V492L146 337L482 182V102L70 292Z" />
<glyph unicode="=" glyph-name="equal" horiz-adv-x="549" d="M289 397V467H772V397H289ZM289 207V277H772V207H289Z" />
<glyph unicode="&gt;" glyph-name="greater" horiz-adv-x="550" d="M70 182L406 337L70 492V572L482 383V292L70 102V182Z" />
<glyph unicode="?" glyph-name="question" horiz-adv-x="470" d="M440 520Q440 466 422 430T378 370T320 328T263 295T218 258T200 209V191H125V208Q125 256 141 286T183 336T238 372T292 407T334 452T351 521Q351 545 346 567T324 607T279 636T202 647Q143 647
108 634T55 609V688Q79 701 115 713T211 726Q271 726 314 710T385 666T426 601T440 520ZM166 -6Q139 -6 122 11T104 55Q104 81 121 99T166 117Q193 117 210 99T228 55Q228 29 211 12T166 -6Z" />
<glyph unicode="@" glyph-name="at" horiz-adv-x="1063" d="M765 -160Q751 -167 728 -174T674 -186T609 -195T537 -199Q434 -199 344 -171T188 -88T83 48T45 237Q45 346 82 436T188 590T349 690T556 726Q650 726 734 701T881 626T981 503T1018 336Q1018 275 1003
219T957 119T881 49T777 23Q743 23 718 31T675 53T646 87T629 128Q601 76 557 50T461 23Q428 23 396 34T339 71T299 136T284 233Q284 290 300 338T346 422T417 478T506 499Q559 499 596 473T652 391L691 469H747L702 219Q699 199 700 177T711 137T737 106T785 94Q817
94 845 110T893 157T926 230T938 323Q938 403 908 465T824 570T701 635T551 657Q459 657 381 628T246 544T157 413T125 242Q125 146 157 76T244 -39T376 -107T540 -130Q623 -130 681 -115T765 -86V-160ZM370 229Q370 189 380 163T406 121T443 99T484 92Q518 92
545 109T592 153T621 217T632 292Q632 330 622 356T596 397T560 420T520 427Q485 427 457 411T410 367T380 304T370 229Z" />
<glyph unicode="A" glyph-name="A" horiz-adv-x="692" d="M275 717H415L672 0H572L498 205H181L108 0H20L275 717ZM468 290L340 647L212 290H468Z" />
<glyph unicode="B" glyph-name="B" horiz-adv-x="645" d="M84 717H327Q445 717 506 677T568 542Q568 503 558 475T529 426T484 392T425 372Q509 362 551 324T594 207Q594 151 574 112T517 48T432 12T325 0H84V717ZM178 631V411H320Q354 411 382 418T430 441T461
480T473 537Q473 592 435 611T327 631H178ZM178 326V85H325Q363 85 394 91T447 111T482 148T495 205Q495 273 452 299T314 326H178Z" />
<glyph unicode="C" glyph-name="C" horiz-adv-x="671" d="M395 -10Q315 -10 250 15T139 87T67 203T42 358Q42 445 65 513T133 628T243 701T393 726Q466 726 521 711T611 674V584Q566 613 508 627T392 641Q265 641 205 571T144 358Q144 215 209 145T403 75Q458
75 510 90T611 141V51Q582 28 527 9T395 -10Z" />
<glyph unicode="D" glyph-name="D" horiz-adv-x="706" d="M84 717H325Q397 717 459 700T567 644T639 541T665 383Q665 288 639 217T566 97T455 25T314 0H84V717ZM178 631V85H314Q369 85 415 102T494 154T545 245T563 376Q563 451 545 500T496 579T420 619T325 631H178Z" />
<glyph unicode="E" glyph-name="E" horiz-adv-x="598" d="M84 717H528V631H178V414H475V329H178V85H533V0H84V717Z" />
<glyph unicode="F" glyph-name="F" horiz-adv-x="568" d="M84 717H522V631H178V393H470V308H178V0H84V717Z" />
<glyph unicode="G" glyph-name="G" horiz-adv-x="739" d="M690 281Q690 218 672 165T615 73T520 12T384 -10Q308 -10 245 16T137 91T67 207T42 358Q42 441 66 509T136 625T252 699T411 726Q457 726 493 720T558 705T606 685T642 664V574Q618 588 593 600T540 622T479
636T408 641Q340 641 291 622T209 567T160 478T144 358Q144 224 207 150T384 75Q440 75 480 89T545 129T581 190T593 268V288H362V373H690V281V281Z" />
<glyph unicode="H" glyph-name="H" horiz-adv-x="724" d="M546 313H178V0H84V717H178V398H546V717H641V0H546V313Z" />
<glyph unicode="I" glyph-name="I" horiz-adv-x="261" d="M178 717V0H84V717H178Z" />
<glyph unicode="J" glyph-name="J" horiz-adv-x="373" d="M293 717V133Q293 106 283 80T253 34T201 2T126 -10Q100 -10 74 -6T25 7V88Q63 75 104 75Q153 75 175 95T198 161V717H293Z" />
<glyph unicode="K" glyph-name="K" horiz-adv-x="641" d="M254 307H178V0H84V717H178V392H248L504 717H610L327 359L621 0H504L254 307Z" />
<glyph unicode="L" glyph-name="L" horiz-adv-x="572" d="M527 0H84V717H178V85H527V0Z" />
<glyph unicode="M" glyph-name="M" horiz-adv-x="876" d="M438 214L671 717H793V0H698V577L478 110L431 109H389L390 110L173 585V0H84V717H215L438 214Z" />
<glyph unicode="N" glyph-name="N" horiz-adv-x="744" d="M661 0H533L173 602V0H84V717H211L571 115V717H661V0Z" />
<glyph unicode="O" glyph-name="O" horiz-adv-x="770" d="M385 -10Q313 -10 250 14T141 86T69 202T42 361Q42 451 68 519T141 633T250 702T385 726Q458 726 521 703T630 633T702 519T728 360Q728 271 702 202T630 86T521 15T385 -10ZM385 75Q437 75 481 90T557
139T608 227T627 358Q627 435 609 489T558 576T481 625T385 641Q333 641 289 626T213 577T162 489T143 358Q143 281 161 227T212 140T289 91T385 75Z" />
<glyph unicode="P" glyph-name="P" horiz-adv-x="610" d="M84 717H313Q435 717 502 667T570 509Q570 448 551 405T496 333T413 292T305 279H178V0H84V717ZM178 631V364H305Q343 364 374 372T427 397T462 441T475 508Q475 573 433 602T313 631H178Z" />
<glyph unicode="Q" glyph-name="Q" horiz-adv-x="770" d="M703 -135Q623 -119 559 -101T441 -63T344 -26T260 7Q212 26 172 55T103 127T58 225T42 355Q42 445 68 514T140 630T248 701T384 726Q456 726 519 703T628 634T701 520T728 361Q728 296 715 240T670 138T590
59T469 8Q529 -10 594 -24T737 -47L703 -135ZM385 75Q437 75 481 90T557 139T608 227T627 358Q627 435 609 489T558 576T481 625T385 641Q333 641 289 626T213 577T162 489T143 358Q143 281 161 227T212 140T289 91T385 75Z" />
<glyph unicode="R" glyph-name="R" horiz-adv-x="651" d="M84 717H324Q451 717 517 668T584 512Q584 418 539 368T419 302L614 0H508L321 291H178V0H84V717ZM178 631V376H315Q353 376 384 383T438 406T473 448T486 514Q486 578 444 604T324 631H178Z" />
<glyph unicode="S" glyph-name="S" horiz-adv-x="586" d="M284 -10Q235 -10 196 -4T128 13T78 36T45 61V151Q60 138 84 125T139 100T207 82T284 75Q362 75 408 104T454 194Q454 224 443 243T411 276T359 299T285 320Q243 331 201 345T126 382T72 440T51 529Q51
622 116 674T315 726Q354 726 384 722T438 711T479 696T511 681V591Q469 618 421 629T315 641Q267 641 235 634T182 612T153 578T144 533Q144 503 157 483T193 450T245 427T306 411Q348 401 392 388T471 352T528 293T551 198Q551 141 529 102T469 37T384 1T284
-10Z" />
<glyph unicode="T" glyph-name="T" horiz-adv-x="599" d="M346 630V0H251V630H30V717H567V630H346Z" />
<glyph unicode="U" glyph-name="U" horiz-adv-x="692" d="M67 717H162V245Q162 158 211 116T347 74Q389 74 424 84T486 116T526 170T541 245V717H631V248Q631 186 609 138T549 57T458 7T345 -10Q286 -10 235 6T147 54T88 133T67 244V717Z" />
<glyph unicode="V" glyph-name="V" horiz-adv-x="676" d="M412 0H265L15 717H113L342 57L571 717H661L412 0Z" />
<glyph unicode="W" glyph-name="W" horiz-adv-x="951" d="M772 0H634L476 554L317 0H178L20 717H118L254 81L438 717H524L704 93L839 717H930L772 0Z" />
<glyph unicode="X" glyph-name="X" horiz-adv-x="640" d="M316 309L105 0H5L267 377L39 717H152L334 443L514 717H614L382 378L635 0H523L316 309Z" />
<glyph unicode="Y" glyph-name="Y" horiz-adv-x="624" d="M361 311V0H265V308L20 717H128L316 391L508 717H604L361 311Z" />
<glyph unicode="Z" glyph-name="Z" horiz-adv-x="614" d="M561 0H43V68L443 631H54V717H560V648L157 85H561V0Z" />
<glyph unicode="[" glyph-name="bracketleft" horiz-adv-x="408" d="M100 756H378V681H185V-64H378V-139H100V756Z" />
<glyph unicode="\" glyph-name="backslash" horiz-adv-x="397" d="M0 756H80L397 -120H317L0 756Z" />
<glyph unicode="]" glyph-name="bracketright" horiz-adv-x="408" d="M308 756H30V681H223V-64H30V-139H308V756Z" />
<glyph unicode="^" glyph-name="asciicircum" horiz-adv-x="451" d="M225 644L105 458H30L175 717H275L420 458H345L225 644Z" />
<glyph unicode="_" glyph-name="underscore" horiz-adv-x="390" d="M-10 -40H400V-115H-10V-40Z" />
<glyph unicode="`" glyph-name="grave" horiz-adv-x="451" d="M235 588L104 746H219L310 588H235Z" />
<glyph unicode="a" glyph-name="a" horiz-adv-x="526" d="M376 99Q367 81 353 62T318 26T269 0T202 -10Q132 -10 89 29T46 143Q46 228 105 268T275 308H372V351Q372 405 344 428T248 451Q200 451 157 436T80 400V479Q108 496 155 512T260 529Q358 529 409 489T460
363V84Q460 75 460 64T461 40T463 18T465 0H385Q382 14 380 39T377 84L376 99ZM221 69Q262 69 291 86T338 125T364 169T372 200V238H284Q205 238 170 216T134 148Q134 113 155 91T221 69Z" />
<glyph unicode="b" glyph-name="b" horiz-adv-x="600" d="M565 260Q565 191 546 141T495 57T421 7T333 -10Q273 -10 229 18T158 98L155 0H72V717H160L158 418Q184 469 228 499T337 529Q382 529 423 513T496 463T546 379T565 260ZM320 69Q389 69 431 116T474 260Q474
354 432 402T320 451Q286 451 257 439T206 404T172 344T159 260Q159 212 171 176T205 116T256 81T320 69Z" />
<glyph unicode="c" glyph-name="c" horiz-adv-x="489" d="M296 -10Q236 -10 188 8T105 61T53 146T35 260Q35 323 53 373T106 457T189 510T300 529Q348 529 388 519T454 488V409Q422 430 383 440T301 451Q210 451 168 404T125 260Q125 163 166 116T296 69Q343 69
382 80T454 110V31Q426 14 387 2T296 -10Z" />
<glyph unicode="d" glyph-name="d" horiz-adv-x="600" d="M444 102Q420 51 377 21T268 -10Q221 -10 179 6T105 56T54 140T35 260Q35 328 54 378T105 462T179 512T269 529Q328 529 371 505T440 435V717H528V0H451L444 102ZM281 69Q315 69 344 80T394 116T428 176T441
260Q441 308 429 344T395 404T344 439T281 451Q212 451 169 403T125 260Q125 165 169 117T281 69Z" />
<glyph unicode="e" glyph-name="e" horiz-adv-x="530" d="M485 44Q474 36 458 27T419 10T367 -4T302 -10Q171 -10 103 61T35 260Q35 323 53 373T105 457T183 510T281 529Q337 529 381 510T453 454T492 363T492 236H126Q131 152 176 111T310 69Q370 69 413 86T485
123V44ZM279 451Q222 451 181 416T129 310H408Q412 382 375 416T279 451Z" />
<glyph unicode="f" glyph-name="f" horiz-adv-x="372" d="M191 444V0H103V444H40V519H103V532Q103 624 152 675T286 726Q323 726 352 717V637Q343 641 326 644T290 647Q244 647 218 619T191 532V519H341V444H191Z" />
<glyph unicode="g" glyph-name="g" horiz-adv-x="589" d="M518 44Q518 -6 504 -47T458 -118T377 -163T257 -179Q219 -179 190 -175T140 -165T103 -151T78 -136V-57Q94 -66 111 -73T150 -87T197 -96T258 -100Q354 -100 392 -64T430 43V123Q407 77 366 49T263 21Q217
21 176 37T103 84T53 163T34 274Q34 338 52 385T102 465T176 513T265 529Q327 529 369 501T436 425L437 436Q437 454 439 479T443 519H523Q521 505 520 479T518 436V44ZM279 100Q312 100 339 110T387 143T419 197T431 274Q431 363 388 407T278 451Q245 451 217
440T168 407T135 352T123 274Q123 230 135 198T168 144T217 111T279 100Z" />
<glyph unicode="h" glyph-name="h" horiz-adv-x="575" d="M318 451Q258 451 221 424T160 353V0H72V717H160V519L158 426H160Q181 470 226 499T340 529Q417 529 462 489T508 364V0H420V355Q420 409 393 430T318 451Z" />
<glyph unicode="i" glyph-name="i" horiz-adv-x="231" d="M117 595Q90 595 74 611T58 652Q58 676 74 693T117 710Q143 710 158 693T173 652Q173 628 158 612T117 595ZM160 519V0H72V519H160Z" />
<glyph unicode="j" glyph-name="j" horiz-adv-x="239" d="M124 595Q98 595 82 611T66 652Q66 676 82 693T124 710Q150 710 165 693T181 652Q181 628 166 612T124 595ZM168 -44Q168 -73 160 -99T135 -144T90 -175T26 -187Q6 -187 -18 -183T-65 -166V-81Q-51 -92
-32 -100T11 -108Q49 -108 64 -90T80 -46V519H168V-44Z" />
<glyph unicode="k" glyph-name="k" horiz-adv-x="496" d="M206 221H160V0H72V717H160V296H210L392 519H492L279 263L496 0H389L206 221Z" />
<glyph unicode="l" glyph-name="l" horiz-adv-x="231" d="M160 717V0H72V717H160Z" />
<glyph unicode="m" glyph-name="m" horiz-adv-x="883" d="M160 0H72V519H149L158 426H160Q181 470 223 499T333 529Q393 529 431 501T483 415Q505 468 550 498T661 529Q733 529 775 489T817 364V0H728V353Q728 404 703 427T635 451Q606 451 584 443T545 419T514
384T488 342V0H400V363Q400 413 375 432T307 451Q279 451 257 444T218 424T186 393T160 352V0Z" />
<glyph unicode="n" glyph-name="n" horiz-adv-x="575" d="M318 451Q258 451 221 424T160 353V0H72V519H155L158 426H160Q181 471 226 500T340 529Q417 529 462 489T508 364V0H420V355Q420 409 393 430T318 451Z" />
<glyph unicode="o" glyph-name="o" horiz-adv-x="572" d="M285 -10Q232 -10 186 8T107 60T54 145T35 260Q35 324 54 374T106 459T186 511T285 529Q339 529 385 511T464 459T517 375T537 260Q537 195 518 145T465 61T385 8T285 -10ZM285 69Q320 69 349 80T401 115T435
175T447 260Q447 309 435 345T401 404T350 439T285 451Q250 451 221 440T171 405T137 345T125 260Q125 211 137 175T170 116T221 81T285 69Z" />
<glyph unicode="p" glyph-name="p" horiz-adv-x="600" d="M333 -10Q273 -10 230 18T160 95V-177H72V519H149L158 418Q184 469 228 499T337 529Q382 529 423 513T496 463T546 379T565 260Q565 191 546 141T495 57T421 7T333 -10ZM320 69Q389 69 431 116T474 260Q474
354 432 402T320 451Q286 451 257 439T206 404T172 344T159 260Q159 212 171 176T205 116T256 81T320 69Z" />
<glyph unicode="q" glyph-name="q" horiz-adv-x="600" d="M528 -177H440V94Q416 46 374 18T268 -10Q221 -10 179 6T105 56T54 140T35 260Q35 328 54 378T105 462T179 512T269 529Q330 529 374 502T444 427L445 436Q445 454 447 479T452 519H533Q531 505 530 479T528
436V-177ZM281 69Q315 69 344 80T394 116T428 176T441 260Q441 308 429 344T395 403T344 439T281 451Q212 451 169 403T125 260Q125 165 169 117T281 69Z" />
<glyph unicode="r" glyph-name="r" horiz-adv-x="364" d="M329 431Q273 426 228 403T160 330V0H72V519H149L158 406H160Q182 452 223 486T329 529V431V431Z" />
<glyph unicode="s" glyph-name="s" horiz-adv-x="483" d="M238 -10Q197 -10 166 -4T111 12T71 32T46 51V130Q56 120 73 109T114 87T168 71T237 64Q293 64 326 82T359 143Q359 166 349 180T320 202T279 216T229 226Q196 233 164 241T106 266T64 309T48 379Q48 449
102 489T255 529Q310 529 352 518T418 494V415Q392 432 354 443T258 455Q199 455 168 439T136 381Q136 360 145 348T169 328T205 316T247 307Q281 300 317 292T381 267T428 222T447 145Q447 100 429 70T382 23T315 -2T238 -10Z" />
<glyph unicode="t" glyph-name="t" horiz-adv-x="371" d="M326 11Q310 2 285 -4T232 -10Q194 -10 168 1T124 30T100 72T92 121V444H30V519H92V628H180V519H331V444H180V132Q180 99 196 84T255 69Q294 69 326 91V11V11Z" />
<glyph unicode="u" glyph-name="u" horiz-adv-x="565" d="M405 93Q384 49 341 20T227 -10Q155 -10 111 30T66 156V519H155V156Q155 130 162 114T183 87T213 73T252 69Q310 69 345 95T405 166V519H493V0H415L407 93H405V93Z" />
<glyph unicode="v" glyph-name="v" horiz-adv-x="518" d="M330 0H188L10 519H105L263 47L420 519H508L330 0Z" />
<glyph unicode="w" glyph-name="w" horiz-adv-x="785" d="M637 0H502L392 401L279 0H148L30 519H123L222 66L348 519H447L570 71L668 519H755L637 0Z" />
<glyph unicode="x" glyph-name="x" horiz-adv-x="503" d="M247 206L107 0H15L203 269L37 519H139L263 336L388 519H479L307 271L488 0H386L247 206Z" />
<glyph unicode="y" glyph-name="y" horiz-adv-x="531" d="M327 6Q309 -41 289 -76T244 -137T188 -174T117 -187Q97 -187 80 -185T49 -176V-91Q60 -99 77 -103T114 -108Q151 -108 175 -91T221 -35L10 519H107L272 81L436 519H521L327 6V6Z" />
<glyph unicode="z" glyph-name="z" horiz-adv-x="459" d="M419 0H35V57L308 444H43V519H418V462L145 75H419V0Z" />
<glyph unicode="{" glyph-name="braceleft" horiz-adv-x="429" d="M369 -135Q353 -138 339 -139T311 -140Q271 -140 243 -130T197 -100T171 -55T162 3Q162 24 164 41T168 73T173 105T175 141Q175 168 172 190T157 229T126 257T70 271V346Q105 349 125 360T157
388T171 427T175 476Q175 495 173 511T169 543T164 576T162 614Q162 645 170 671T197 717T243 746T311 757Q324 757 338 756T369 752V681Q341 686 325 686Q281 686 266 664T251 609Q251 587 252 570T254 535T257 500T258 461Q258 440 254 419T239 378T207 340T154
308Q187 294 207 277T238 239T254 198T258 156Q258 135 257 117T255 82T252 48T251 8Q251 -24 265 -47T323 -70Q342 -70 369 -64V-135Z" />
<glyph unicode="|" glyph-name="bar" horiz-adv-x="285" d="M185 756V-120H100V756H185Z" />
<glyph unicode="}" glyph-name="braceright" horiz-adv-x="429" d="M60 -135Q76 -138 90 -139T118 -140Q158 -140 186 -130T232 -100T258 -55T267 3Q267 24 265 41T261 73T256 105T254 141Q254 168 257 190T272 229T303 257T359 271V346Q324 349 304 360T272 388T258
427T254 476Q254 495 256 511T260 543T265 576T267 614Q267 645 259 671T232 717T186 746T118 757Q105 757 91 756T60 752V681Q88 686 104 686Q148 686 163 664T178 609Q178 587 177 570T175 535T172 500T171 461Q171 440 175 419T190 378T222 340T275 308Q242
294 222 277T191 239T175 198T171 156Q171 135 172 117T174 82T177 48T178 8Q178 -24 164 -47T106 -70Q87 -70 60 -64V-135Z" />
<glyph unicode="~" glyph-name="asciitilde" horiz-adv-x="609" d="M52 247Q47 280 52 311T74 366T120 405T191 420Q231 420 263 407T321 377T371 347T417 333Q450 333 464 355T477 426H556Q561 394 556 363T533 308T487 268T417 253Q376 253 345 266T287 296T237
326T192 340Q159 340 144 318T131 247H52V247Z" />
<glyph unicode="&#xa0;" glyph-name="uni00A0" horiz-adv-x="200" />
<glyph unicode="&#xa1;" glyph-name="exclamdown" horiz-adv-x="274" d="M92 -194L101 332H172L180 -194H92ZM137 529Q164 529 181 512T199 468Q199 442 182 424T137 406Q110 406 93 424T75 468Q75 494 92 511T137 529Z" />
<glyph unicode="&#xa2;" glyph-name="cent" horiz-adv-x="550" d="M482 31Q457 16 424 5T347 -9V-140H263V-5Q169 12 116 80T63 260Q63 369 116 437T263 523V650H347V529Q389 527 424 516T482 488V409Q450 430 411 440T329 451Q153 451 153 260Q153 163 194 116T324
69Q371 69 410 80T482 110V31V31Z" />
<glyph unicode="&#xa3;" glyph-name="sterling" horiz-adv-x="550" d="M514 0H45V51Q102 94 123 138T144 231Q144 254 139 279H37V353H116Q102 388 89 426T76 513Q76 611 139 668T323 726Q385 726 421 715T481 690V609Q455 624 413 634T321 645Q237 645 202 607T168
505Q169 455 183 421T211 353H386V279H228Q229 274 229 269T229 259Q229 215 217 171T161 80H514V0Z" />
<glyph unicode="&#xa4;" glyph-name="currency" horiz-adv-x="567" d="M404 174Q378 157 348 147T284 136Q249 136 219 146T162 174L89 101L40 149L113 223Q96 249 86 279T75 344Q75 379 85 409T113 466L40 539L89 588L162 514Q188 532 218 542T284 553Q317 553
348 543T405 514L478 588L527 539L454 466Q471 440 481 410T492 344Q492 309 482 279T454 223L527 149L477 101L404 174ZM285 483Q259 483 237 474T197 447T169 403T159 344Q159 311 169 286T196 243T236 216T285 206Q310 206 333 215T372 242T399 285T409 344Q409
377 399 403T373 446T333 473T285 483Z" />
<glyph unicode="&#xa5;" glyph-name="yen" horiz-adv-x="550" d="M321 149V0H232V149H72V219H232V299H72V369H210L7 717H110L279 410L453 717H544L342 369H481V299H321V219H481V149H321Z" />
<glyph unicode="&#xa6;" glyph-name="brokenbar" horiz-adv-x="285" d="M185 756V356H100V756H185ZM185 280V-120H100V280H185Z" />
<glyph unicode="&#xa7;" glyph-name="section" horiz-adv-x="586" d="M502 -10Q502 -57 482 -90T428 -145T350 -177T259 -187Q214 -187 179 -182T116 -167T71 -148T41 -127V-51Q54 -62 76 -73T126 -93T189 -108T259 -114Q330 -114 372 -89T414 -13Q414 13 404
30T375 59T327 79T260 96Q216 106 177 118T109 150T63 197T46 267Q46 324 80 361T177 416Q128 441 104 475T80 559Q80 635 139 680T321 726Q357 726 384 723T433 713T471 701T500 688V611Q463 634 418 644T321 654Q234 654 200 629T165 562Q165 536 177 518T210
488T257 469T313 456Q353 448 393 437T464 405T516 353T536 276Q536 168 413 130Q502 84 502 -10ZM307 172Q373 172 410 198T448 272Q448 368 287 368Q210 368 171 345T131 273Q131 244 146 225T187 194T244 177T307 172Z" />
<glyph unicode="&#xa8;" glyph-name="dieresis" horiz-adv-x="451" d="M122 595Q97 595 81 611T65 651Q65 676 81 692T122 708Q148 708 163 692T179 651Q179 628 164 612T122 595ZM328 595Q302 595 287 611T271 651Q271 676 286 692T328 708Q354 708 369 692T385
651Q385 628 370 612T328 595Z" />
<glyph unicode="&#xa9;" glyph-name="copyright" horiz-adv-x="902" d="M451 -96Q364 -96 289 -66T159 20T72 151T40 317Q40 406 71 481T158 610T289 695T451 726Q538 726 613 696T744 611T830 481T862 317Q862 227 831 151T744 20T614 -65T451 -96ZM451 -34Q527
-34 590 -8T699 65T770 176T795 317Q795 392 770 456T700 566T591 639T451 665Q375 665 312 639T203 567T132 456T107 317Q107 240 132 176T202 65T311 -8T451 -34ZM473 100Q375 100 317 157T259 315Q259 417 314 473T472 529Q510 529 540 521T587 501V430Q564
446 534 453T471 460Q339 460 339 315Q339 241 374 205T477 169Q507 169 534 177T587 205V133Q572 121 543 111T473 100Z" />
<glyph unicode="&#xaa;" glyph-name="ordfeminine" horiz-adv-x="459" d="M325 408Q317 392 305 375T275 345T233 323T175 314Q115 314 77 348T39 447Q39 521 91 555T240 590H322V626Q322 673 298 692T217 711Q174 711 136 698T69 668V739Q93 754 134 768T227
783Q312 783 357 747T402 637V395Q402 388 402 378T403 358T404 339T406 323H333Q331 335 329 357T326 395L325 408ZM194 384Q229 384 253 398T293 432T315 470T322 497V529H247Q180 529 150 510T119 452Q119 421 137 403T194 384Z" />
<glyph unicode="&#xab;" glyph-name="guillemotleft" horiz-adv-x="510" d="M348 264L475 69H383L255 264L383 459H475L348 264ZM138 264L265 69H172L45 264L172 459H265L138 264Z" />
<glyph unicode="&#xac;" glyph-name="logicalnot" horiz-adv-x="588" d="M533 372V102H451V302H51V372H533Z" />
<glyph unicode="&#xae;" glyph-name="registered" horiz-adv-x="902" d="M451 -96Q364 -96 289 -66T159 20T72 151T40 317Q40 406 71 481T158 610T289 695T451 726Q538 726 613 696T744 611T830 481T862 317Q862 227 831 151T744 20T614 -65T451 -96ZM451 -34Q527
-34 590 -8T699 65T770 176T795 317Q795 392 770 456T700 566T591 639T451 665Q375 665 312 639T203 567T132 456T107 317Q107 240 132 176T202 65T311 -8T451 -34ZM305 524H451Q530 524 571 494T613 398Q613 347 591 317T531 273L629 107H541L453 258H384V107H305V524ZM384
454V328H448Q488 328 510 342T533 394Q533 428 512 441T451 454H384Z" />
<glyph unicode="&#xaf;" glyph-name="overscore" horiz-adv-x="451" d="M80 687H370V617H80V687Z" />
<glyph unicode="&#xb0;" glyph-name="degree" horiz-adv-x="462" d="M231 413Q197 413 169 425T119 458T87 507T75 570Q75 604 86 633T119 682T168 714T231 726Q265 726 293 715T343 683T375 633T387 570Q387 536 376 508T343 458T294 425T231 413ZM231 474Q273
474 297 500T322 570Q322 613 298 639T231 666Q189 666 165 640T140 570Q140 527 164 501T231 474Z" />
<glyph unicode="&#xb1;" glyph-name="plusminus" horiz-adv-x="550" d="M572 302V130H489V302H289V372H489V583H572V372H772V302H572ZM289 0V70H772V0H289Z" />
<glyph unicode="&#xb2;" glyph-name="twosuperior" horiz-adv-x="395" d="M340 325H35V401Q94 444 135 478T202 541T240 595T252 644Q252 679 231 698T176 717Q134 717 103 703T47 670V735Q70 753 103 767T192 782Q255 782 295 747T335 643Q335 583 282 524T121
393H340V325Z" />
<glyph unicode="&#xb3;" glyph-name="threesuperior" horiz-adv-x="386" d="M330 453Q330 393 285 356T158 319Q113 319 81 330T29 355V425Q47 411 78 398T158 384Q245 384 245 458Q245 491 225 509T160 527H100V594H163Q193 594 212 610T231 658Q231 686 213
702T160 718Q122 718 90 707T35 678V748Q57 762 90 772T166 782Q235 782 273 750T311 663Q311 620 290 595T237 564Q275 556 302 529T330 453Z" />
<glyph unicode="&#xb4;" glyph-name="acute" horiz-adv-x="451" d="M231 746H346L215 588H140L231 746Z" />
<glyph unicode="&#xb6;" glyph-name="paragraph" horiz-adv-x="635" d="M40 497Q40 606 104 661T287 717H407V-187H322V279H295Q238 279 192 293T111 334T59 402T40 497ZM552 -187H467V717H552V-187Z" />
<glyph unicode="&#xb7;" glyph-name="middot" horiz-adv-x="234" d="M118 240Q89 240 71 258T53 303Q53 331 71 349T118 367Q146 367 164 349T182 303Q182 277 164 259T118 240Z" />
<glyph unicode="&#xb8;" glyph-name="cedilla" horiz-adv-x="451" d="M286 20L227 -187H117L211 20H286Z" />
<glyph unicode="&#xb9;" glyph-name="onesuperior" horiz-adv-x="313" d="M233 325H151V686L51 593V673L162 776H233V325Z" />
<glyph unicode="&#xba;" glyph-name="ordmasculine" horiz-adv-x="498" d="M248 314Q201 314 162 329T93 375T47 449T30 550Q30 605 46 648T92 722T161 767T248 783Q295 783 335 768T404 722T451 649T468 550Q468 493 451 449T405 375T335 330T248 314ZM248 385Q278
385 303 395T346 425T375 476T386 550Q386 592 376 622T347 672T303 701T248 711Q189 711 151 672T112 550Q112 465 150 425T248 385Z" />
<glyph unicode="&#xbb;" glyph-name="guillemotright" horiz-adv-x="510" d="M338 69H245L372 264L245 459H338L465 264L338 69ZM128 69H35L162 264L35 459H128L255 264L128 69Z" />
<glyph unicode="&#xbc;" glyph-name="onequarter" horiz-adv-x="937" d="M243 265H161V626L61 533V613L172 716H243V265ZM134 0L694 717H774L215 0H134ZM827 101V1H747V101H530V160L739 452H827V166H892V101H827ZM747 166V361L609 166H747Z" />
<glyph unicode="&#xbd;" glyph-name="onehalf" horiz-adv-x="989" d="M134 0L694 717H774L215 0H134ZM934 1H629V77Q688 120 729 154T796 217T834 271T846 320Q846 355 825 374T770 393Q728 393 697 379T641 346V411Q664 429 697 443T786 458Q849 458 889 423T929
319Q929 259 876 200T715 69H934V1ZM243 265H161V626L61 533V613L172 716H243V265Z" />
<glyph unicode="&#xbe;" glyph-name="threequarters" horiz-adv-x="991" d="M340 393Q340 333 295 296T168 259Q123 259 91 270T39 295V365Q57 351 88 338T168 324Q255 324 255 398Q255 431 235 449T170 467H110V534H173Q203 534 222 550T241 598Q241 626 223
642T170 658Q132 658 100 647T45 618V688Q67 702 100 712T176 722Q245 722 283 690T321 603Q321 560 300 535T247 504Q285 496 312 469T340 393ZM187 0L747 717H827L268 0H187ZM881 101V1H801V101H584V160L793 452H881V166H946V101H881ZM801 166V361L663 166H801Z"
/>
<glyph unicode="&#xbf;" glyph-name="questiondown" horiz-adv-x="470" d="M40 3Q40 57 58 93T102 153T160 195T217 228T262 265T280 314V332H355V315Q355 267 339 237T297 187T242 151T188 116T146 71T129 2Q129 -22 134 -44T156 -84T201 -113T278 -124Q337 -124
372 -111T425 -86V-165Q401 -178 365 -190T269 -203Q209 -203 166 -187T95 -143T54 -78T40 3ZM314 529Q341 529 358 512T376 468Q376 442 359 424T314 406Q287 406 270 424T252 468Q252 494 269 511T314 529Z" />
<glyph unicode="&#xc0;" glyph-name="Agrave" horiz-adv-x="692" d="M275 717H415L672 0H572L498 205H181L108 0H20L275 717ZM468 290L340 647L212 290H468ZM309 773L173 909H298L394 773H309Z" />
<glyph unicode="&#xc1;" glyph-name="Aacute" horiz-adv-x="692" d="M275 717H415L672 0H572L498 205H181L108 0H20L275 717ZM468 290L340 647L212 290H468ZM388 909H513L377 773H292L388 909Z" />
<glyph unicode="&#xc2;" glyph-name="Acircumflex" horiz-adv-x="692" d="M275 717H415L672 0H572L498 205H181L108 0H20L275 717ZM468 290L340 647L212 290H468ZM339 848L259 763H184L289 911H389L494 763H419L339 848Z" />
<glyph unicode="&#xc3;" glyph-name="Atilde" horiz-adv-x="692" d="M275 717H415L672 0H572L498 205H181L108 0H20L275 717ZM468 290L340 647L212 290H468ZM167 784Q163 809 167 833T183 876T215 906T265 918Q291 918 311 910T349 891T380 872T410 863Q451 863
448 922H511Q515 897 511 873T495 830T463 800T413 788Q387 788 367 796T330 815T298 834T268 843Q227 843 231 784H167V784Z" />
<glyph unicode="&#xc4;" glyph-name="Adieresis" horiz-adv-x="692" d="M275 717H415L672 0H572L498 205H181L108 0H20L275 717ZM468 290L340 647L212 290H468ZM233 786Q207 786 192 802T176 842Q176 866 191 882T233 899Q259 899 274 883T289 842Q289 819 274
803T233 786ZM448 786Q422 786 406 802T390 842Q390 866 406 882T448 899Q474 899 489 883T505 842Q505 819 490 803T448 786Z" />
<glyph unicode="&#xc5;" glyph-name="Aring" horiz-adv-x="692" d="M275 717H415L672 0H572L498 205H181L108 0H20L275 717ZM468 290L340 647L212 290H468ZM346 756Q298 756 267 786T235 865Q235 913 266 943T346 974Q394 974 425 944T457 865Q457 817 426 787T346
756ZM346 811Q369 811 384 826T400 865Q400 889 385 904T346 920Q323 920 308 905T293 865Q293 841 308 826T346 811Z" />
<glyph unicode="&#xc6;" glyph-name="AE" horiz-adv-x="994" d="M929 0H479V245H246L114 0H20L405 717H924V631H574V414H871V329H574V85H929V0ZM479 330V676L292 330H479Z" />
<glyph unicode="&#xc7;" glyph-name="Ccedilla" horiz-adv-x="671" d="M404 -10Q324 -10 259 15T148 87T76 203T51 358Q51 445 74 513T142 628T252 701T402 726Q475 726 530 711T620 674V584Q575 613 517 627T401 641Q274 641 214 571T153 358Q153 215 218 145T412
75Q467 75 519 90T620 141V51Q591 28 536 9T404 -10ZM421 20L362 -187H252L346 20H421Z" />
<glyph unicode="&#xc8;" glyph-name="Egrave" horiz-adv-x="598" d="M84 717H528V631H178V414H475V329H178V85H533V0H84V717ZM293 773L157 909H282L378 773H293Z" />
<glyph unicode="&#xc9;" glyph-name="Eacute" horiz-adv-x="598" d="M84 717H528V631H178V414H475V329H178V85H533V0H84V717ZM336 909H461L325 773H240L336 909Z" />
<glyph unicode="&#xca;" glyph-name="Ecircumflex" horiz-adv-x="598" d="M84 717H528V631H178V414H475V329H178V85H533V0H84V717ZM306 848L226 763H151L256 911H356L461 763H386L306 848Z" />
<glyph unicode="&#xcb;" glyph-name="Edieresis" horiz-adv-x="598" d="M84 717H528V631H178V414H475V329H178V85H533V0H84V717ZM199 786Q173 786 158 802T142 842Q142 866 157 882T199 899Q225 899 240 883T255 842Q255 819 240 803T199 786ZM414 786Q388 786
372 802T356 842Q356 866 372 882T414 899Q440 899 455 883T471 842Q471 819 456 803T414 786Z" />
<glyph unicode="&#xcc;" glyph-name="Igrave" horiz-adv-x="261" d="M178 717V0H84V717H178ZM86 773L-50 909H75L171 773H86Z" />
<glyph unicode="&#xcd;" glyph-name="Iacute" horiz-adv-x="261" d="M178 717V0H84V717H178ZM440 909H565L429 773H344L440 909Z" />
<glyph unicode="&#xce;" glyph-name="Icircumflex" horiz-adv-x="261" d="M178 717V0H84V717H178ZM385 848L305 763H230L335 911H435L540 763H465L385 848Z" />
<glyph unicode="&#xcf;" glyph-name="Idieresis" horiz-adv-x="261" d="M178 717V0H84V717H178ZM278 786Q252 786 237 802T221 842Q221 866 236 882T278 899Q304 899 319 883T334 842Q334 819 319 803T278 786ZM493 786Q467 786 451 802T435 842Q435 866 451 882T493
899Q519 899 534 883T550 842Q550 819 535 803T493 786Z" />
<glyph unicode="&#xd0;" glyph-name="Eth" horiz-adv-x="723" d="M100 404V717H342Q414 717 476 700T584 644T656 541T683 383Q683 288 657 217T583 97T472 25T331 0H100V329H10V404H100ZM195 329V85H331Q386 85 432 102T511 154T562 245T580 376Q580 451 562
500T513 579T437 619T342 631H195V404H407V329H195Z" />
<glyph unicode="&#xd1;" glyph-name="Ntilde" horiz-adv-x="743" d="M661 0H533L173 602V0H84V717H211L571 115V717H661V0ZM207 784Q203 809 207 833T223 876T255 906T305 918Q331 918 351 910T389 891T420 872T450 863Q491 863 488 922H551Q555 897 551 873T535
830T503 800T453 788Q427 788 407 796T370 815T338 834T308 843Q267 843 271 784H207V784Z" />
<glyph unicode="&#xd2;" glyph-name="Ograve" horiz-adv-x="770" d="M385 -10Q313 -10 250 14T141 86T69 202T42 361Q42 451 68 519T141 633T250 702T385 726Q458 726 521 703T630 633T702 519T728 360Q728 271 702 202T630 86T521 15T385 -10ZM385 75Q437 75
481 90T557 139T608 227T627 358Q627 435 609 489T558 576T481 625T385 641Q333 641 289 626T213 577T162 489T143 358Q143 281 161 227T212 140T289 91T385 75ZM370 773L234 909H359L455 773H370Z" />
<glyph unicode="&#xd3;" glyph-name="Oacute" horiz-adv-x="770" d="M385 -10Q313 -10 250 14T141 86T69 202T42 361Q42 451 68 519T141 633T250 702T385 726Q458 726 521 703T630 633T702 519T728 360Q728 271 702 202T630 86T521 15T385 -10ZM385 75Q437 75
481 90T557 139T608 227T627 358Q627 435 609 489T558 576T481 625T385 641Q333 641 289 626T213 577T162 489T143 358Q143 281 161 227T212 140T289 91T385 75ZM422 909H547L411 773H326L422 909Z" />
<glyph unicode="&#xd4;" glyph-name="Ocircumflex" horiz-adv-x="770" d="M385 -10Q313 -10 250 14T141 86T69 202T42 361Q42 451 68 519T141 633T250 702T385 726Q458 726 521 703T630 633T702 519T728 360Q728 271 702 202T630 86T521 15T385 -10ZM385 75Q437
75 481 90T557 139T608 227T627 358Q627 435 609 489T558 576T481 625T385 641Q333 641 289 626T213 577T162 489T143 358Q143 281 161 227T212 140T289 91T385 75ZM385 848L305 763H230L335 911H435L540 763H465L385 848Z" />
<glyph unicode="&#xd5;" glyph-name="Otilde" horiz-adv-x="770" d="M385 -10Q313 -10 250 14T141 86T69 202T42 361Q42 451 68 519T141 633T250 702T385 726Q458 726 521 703T630 633T702 519T728 360Q728 271 702 202T630 86T521 15T385 -10ZM385 75Q437 75
481 90T557 139T608 227T627 358Q627 435 609 489T558 576T481 625T385 641Q333 641 289 626T213 577T162 489T143 358Q143 281 161 227T212 140T289 91T385 75ZM213 784Q209 809 213 833T229 876T261 906T311 918Q337 918 357 910T395 891T426 872T456 863Q497
863 494 922H557Q561 897 557 873T541 830T509 800T459 788Q433 788 413 796T376 815T344 834T314 843Q273 843 277 784H213V784Z" />
<glyph unicode="&#xd6;" glyph-name="Odieresis" horiz-adv-x="770" d="M385 -10Q313 -10 250 14T141 86T69 202T42 361Q42 451 68 519T141 633T250 702T385 726Q458 726 521 703T630 633T702 519T728 360Q728 271 702 202T630 86T521 15T385 -10ZM385 75Q437
75 481 90T557 139T608 227T627 358Q627 435 609 489T558 576T481 625T385 641Q333 641 289 626T213 577T162 489T143 358Q143 281 161 227T212 140T289 91T385 75ZM278 786Q252 786 237 802T221 842Q221 866 236 882T278 899Q304 899 319 883T334 842Q334 819
319 803T278 786ZM493 786Q467 786 451 802T435 842Q435 866 451 882T493 899Q519 899 534 883T550 842Q550 819 535 803T493 786Z" />
<glyph unicode="&#xd7;" glyph-name="multiply" horiz-adv-x="550" d="M707 111L530 288L353 111L300 164L477 341L304 514L357 567L530 394L703 567L756 514L583 341L760 164L707 111Z" />
<glyph unicode="&#xd8;" glyph-name="Oslash" horiz-adv-x="770" d="M385 -10Q313 -10 250 14L239 18L189 -70H99L171 58Q155 71 141 86Q95 133 69 202T42 361Q42 451 68 519T141 633T250 702T385 726Q458 726 521 702Q527 700 533 698L583 786H672L600 659Q616
647 630 633Q676 587 702 519T728 360Q728 271 702 202T630 86T521 15T385 -10ZM481 625Q437 641 385 641Q333 641 289 626T213 577T162 489T143 358Q143 281 161 227T212 139L215 136L490 622Q485 624 481 625ZM385 75Q437 75 481 90T557 139T608 227T627 358Q627
435 609 489T557 576Q556 578 555 579L281 93Q285 92 289 90Q333 75 385 75Z" />
<glyph unicode="&#xd9;" glyph-name="Ugrave" horiz-adv-x="692" d="M67 717H162V245Q162 158 211 116T347 74Q389 74 424 84T486 116T526 170T541 245V717H631V248Q631 186 609 138T549 57T458 7T345 -10Q286 -10 235 6T147 54T88 133T67 244V717ZM322 773L186
909H311L407 773H322Z" />
<glyph unicode="&#xda;" glyph-name="Uacute" horiz-adv-x="692" d="M67 717H162V245Q162 158 211 116T347 74Q389 74 424 84T486 116T526 170T541 245V717H631V248Q631 186 609 138T549 57T458 7T345 -10Q286 -10 235 6T147 54T88 133T67 244V717ZM402 909H527L391
773H306L402 909Z" />
<glyph unicode="&#xdb;" glyph-name="Ucircumflex" horiz-adv-x="692" d="M67 717H162V245Q162 158 211 116T347 74Q389 74 424 84T486 116T526 170T541 245V717H631V248Q631 186 609 138T549 57T458 7T345 -10Q286 -10 235 6T147 54T88 133T67 244V717ZM352 848L272
763H197L302 911H402L507 763H432L352 848Z" />
<glyph unicode="&#xdc;" glyph-name="Udieresis" horiz-adv-x="692" d="M67 717H162V245Q162 158 211 116T347 74Q389 74 424 84T486 116T526 170T541 245V717H631V248Q631 186 609 138T549 57T458 7T345 -10Q286 -10 235 6T147 54T88 133T67 244V717ZM247 786Q221
786 206 802T190 842Q190 866 205 882T247 899Q273 899 288 883T303 842Q303 819 288 803T247 786ZM462 786Q436 786 420 802T404 842Q404 866 420 882T462 899Q488 899 503 883T519 842Q519 819 504 803T462 786Z" />
<glyph unicode="&#xdd;" glyph-name="Yacute" horiz-adv-x="624" d="M361 311V0H265V308L20 717H128L316 391L508 717H604L361 311ZM366 909H491L355 773H270L366 909Z" />
<glyph unicode="&#xde;" glyph-name="Thorn" horiz-adv-x="610" d="M178 145V0H84V717H178V570H313Q433 570 501 524T570 374Q570 314 551 271T496 200T413 159T305 145H178ZM178 485V230H305Q343 230 374 237T427 261T462 304T475 368Q475 430 433 457T313 485H178Z" />
<glyph unicode="&#xdf;" glyph-name="germandbls" horiz-adv-x="608" d="M584 142Q584 98 568 69T526 22T465 -3T396 -10Q351 -10 319 -1T267 19V97Q290 83 321 74T391 64Q442 64 468 84T495 141Q495 168 479 184T438 211T385 231T332 254T291 291T274 352Q274
381 284 400T310 432T344 456T377 479T403 509T414 553Q414 578 405 595T379 624T341 641T295 647Q227 647 194 606T160 485V0H72V485Q72 596 129 661T295 726Q343 726 381 714T445 679T486 625T501 555Q501 522 491 499T465 460T431 433T398 410T372 387T361 358Q361
336 377 324T419 303T472 283T526 257T567 213T584 142Z" />
<glyph unicode="&#xe0;" glyph-name="agrave" horiz-adv-x="526" d="M376 99Q367 81 353 62T318 26T269 0T202 -10Q132 -10 89 29T46 143Q46 228 105 268T275 308H372V351Q372 405 344 428T248 451Q200 451 157 436T80 400V479Q108 496 155 512T260 529Q358 529
409 489T460 363V84Q460 75 460 64T461 40T463 18T465 0H385Q382 14 380 39T377 84L376 99ZM221 69Q262 69 291 86T338 125T364 169T372 200V238H284Q205 238 170 216T134 148Q134 113 155 91T221 69ZM490 588L359 746H474L565 588H490Z" />
<glyph unicode="&#xe1;" glyph-name="aacute" horiz-adv-x="526" d="M376 99Q367 81 353 62T318 26T269 0T202 -10Q132 -10 89 29T46 143Q46 228 105 268T275 308H372V351Q372 405 344 428T248 451Q200 451 157 436T80 400V479Q108 496 155 512T260 529Q358 529
409 489T460 363V84Q460 75 460 64T461 40T463 18T465 0H385Q382 14 380 39T377 84L376 99ZM221 69Q262 69 291 86T338 125T364 169T372 200V238H284Q205 238 170 216T134 148Q134 113 155 91T221 69ZM310 746H425L294 588H219L310 746Z" />
<glyph unicode="&#xe2;" glyph-name="acircumflex" horiz-adv-x="526" d="M376 99Q367 81 353 62T318 26T269 0T202 -10Q132 -10 89 29T46 143Q46 228 105 268T275 308H372V351Q372 405 344 428T248 451Q200 451 157 436T80 400V479Q108 496 155 512T260 529Q358
529 409 489T460 363V84Q460 75 460 64T461 40T463 18T465 0H385Q382 14 380 39T377 84L376 99ZM221 69Q262 69 291 86T338 125T364 169T372 200V238H284Q205 238 170 216T134 148Q134 113 155 91T221 69ZM264 673L184 588H109L214 736H314L419 588H344L264 673Z"
/>
<glyph unicode="&#xe3;" glyph-name="atilde" horiz-adv-x="526" d="M376 99Q367 81 353 62T318 26T269 0T202 -10Q132 -10 89 29T46 143Q46 228 105 268T275 308H372V351Q372 405 344 428T248 451Q200 451 157 436T80 400V479Q108 496 155 512T260 529Q358 529
409 489T460 363V84Q460 75 460 64T461 40T463 18T465 0H385Q382 14 380 39T377 84L376 99ZM221 69Q262 69 291 86T338 125T364 169T372 200V238H284Q205 238 170 216T134 148Q134 113 155 91T221 69ZM101 598Q98 620 101 642T116 680T146 707T193 718Q217 718
236 712T271 698T300 684T328 677Q365 677 362 722H425Q428 699 425 678T410 640T379 613T333 602Q309 602 290 608T255 622T225 636T198 643Q161 643 164 598H101V598Z" />
<glyph unicode="&#xe4;" glyph-name="adieresis" horiz-adv-x="526" d="M376 99Q367 81 353 62T318 26T269 0T202 -10Q132 -10 89 29T46 143Q46 228 105 268T275 308H372V351Q372 405 344 428T248 451Q200 451 157 436T80 400V479Q108 496 155 512T260 529Q358
529 409 489T460 363V84Q460 75 460 64T461 40T463 18T465 0H385Q382 14 380 39T377 84L376 99ZM221 69Q262 69 291 86T338 125T364 169T372 200V238H284Q205 238 170 216T134 148Q134 113 155 91T221 69ZM157 595Q132 595 116 611T100 651Q100 676 116 692T157
708Q183 708 198 692T214 651Q214 628 199 612T157 595ZM363 595Q337 595 322 611T306 651Q306 676 321 692T363 708Q389 708 404 692T420 651Q420 628 405 612T363 595Z" />
<glyph unicode="&#xe5;" glyph-name="aring" horiz-adv-x="526" d="M383 99Q374 81 360 62T325 26T276 0T209 -10Q139 -10 96 29T53 143Q53 228 112 268T282 308H379V351Q379 405 351 428T255 451Q207 451 164 436T87 400V479Q115 496 162 512T267 529Q365 529
416 489T467 363V84Q467 75 467 64T468 40T470 18T472 0H392Q389 14 387 39T384 84L383 99ZM228 69Q269 69 298 86T345 125T371 169T379 200V238H291Q212 238 177 216T141 148Q141 113 162 91T228 69ZM263 571Q215 571 184 601T152 680Q152 728 183 758T263 789Q311
789 342 759T374 680Q374 632 343 602T263 571ZM263 626Q286 626 301 641T317 680Q317 704 302 719T263 735Q240 735 225 720T210 680Q210 656 225 641T263 626Z" />
<glyph unicode="&#xe6;" glyph-name="ae" horiz-adv-x="864" d="M812 44Q802 36 787 27T751 10T701 -4T635 -10Q549 -10 494 23T411 118Q404 99 390 77T351 36T293 3T211 -10Q134 -10 90 29T46 143Q46 228 105 268T275 308H377V351Q377 403 348 427T258 451Q204
451 160 436T80 400V479Q108 496 156 512T270 529Q332 529 375 508T439 443Q497 529 614 529Q668 529 711 510T781 454T819 363T819 236H467Q478 69 643 69Q703 69 743 86T812 123V44ZM614 451Q558 451 520 416T470 310H735Q737 346 729 372T704 416T665 442T614
451ZM223 69Q265 69 294 86T342 125T368 169T377 200V238H284Q205 238 170 216T134 148Q134 113 155 91T223 69Z" />
<glyph unicode="&#xe7;" glyph-name="ccedilla" horiz-adv-x="489" d="M296 -10Q236 -10 188 8T105 61T53 146T35 260Q35 323 53 373T106 457T189 510T300 529Q348 529 388 519T454 488V409Q422 430 383 440T301 451Q210 451 168 404T125 260Q125 163 166 116T296
69Q343 69 382 80T454 110V31Q426 14 387 2T296 -10ZM329 20L270 -187H160L254 20H329Z" />
<glyph unicode="&#xe8;" glyph-name="egrave" horiz-adv-x="530" d="M485 44Q474 36 458 27T419 10T367 -4T302 -10Q171 -10 103 61T35 260Q35 323 53 373T105 457T183 510T281 529Q337 529 381 510T453 454T492 363T492 236H126Q131 152 176 111T310 69Q370 69
413 86T485 123V44ZM279 451Q222 451 181 416T129 310H408Q412 382 375 416T279 451ZM251 588L120 746H235L326 588H251Z" />
<glyph unicode="&#xe9;" glyph-name="eacute" horiz-adv-x="530" d="M740 44Q729 36 713 27T674 10T622 -4T557 -10Q426 -10 358 61T290 260Q290 323 308 373T360 457T438 510T536 529Q592 529 636 510T708 454T747 363T747 236H381Q386 152 431 111T565 69Q625
69 668 86T740 123V44ZM534 451Q477 451 436 416T384 310H663Q667 382 630 416T534 451ZM294 746H409L278 588H203L294 746Z" />
<glyph unicode="&#xea;" glyph-name="ecircumflex" horiz-adv-x="530" d="M485 44Q474 36 458 27T419 10T367 -4T302 -10Q171 -10 103 61T35 260Q35 323 53 373T105 457T183 510T281 529Q337 529 381 510T453 454T492 363T492 236H126Q131 152 176 111T310 69Q370
69 413 86T485 123V44ZM279 451Q222 451 181 416T129 310H408Q412 382 375 416T279 451ZM271 673L191 588H116L221 736H321L426 588H351L271 673Z" />
<glyph unicode="&#xeb;" glyph-name="edieresis" horiz-adv-x="530" d="M485 44Q474 36 458 27T419 10T367 -4T302 -10Q171 -10 103 61T35 260Q35 323 53 373T105 457T183 510T281 529Q337 529 381 510T453 454T492 363T492 236H126Q131 152 176 111T310 69Q370
69 413 86T485 123V44ZM279 451Q222 451 181 416T129 310H408Q412 382 375 416T279 451ZM173 595Q148 595 132 611T116 651Q116 676 132 692T173 708Q199 708 214 692T230 651Q230 628 215 612T173 595ZM379 595Q353 595 338 611T322 651Q322 676 337 692T379 708Q405
708 420 692T436 651Q436 628 421 612T379 595Z" />
<glyph unicode="&#xec;" glyph-name="igrave" horiz-adv-x="231" d="M160 519V0H72V519H160ZM81 588L-50 746H65L156 588H81Z" />
<glyph unicode="&#xed;" glyph-name="iacute" horiz-adv-x="231" d="M160 519V0H72V519H160ZM424 746H539L408 588H333L424 746Z" />
<glyph unicode="&#xee;" glyph-name="icircumflex" horiz-adv-x="231" d="M160 519V0H72V519H160ZM371 673L291 588H216L321 736H421L526 588H451L371 673Z" />
<glyph unicode="&#xef;" glyph-name="idieresis" horiz-adv-x="231" d="M160 519V0H72V519H160ZM273 595Q248 595 232 611T216 651Q216 676 232 692T273 708Q299 708 314 692T330 651Q330 628 315 612T273 595ZM479 595Q453 595 438 611T422 651Q422 676 437 692T479
708Q505 708 520 692T536 651Q536 628 521 612T479 595Z" />
<glyph unicode="&#xf0;" glyph-name="eth" horiz-adv-x="572" d="M542 298Q542 223 523 166T470 69T388 10T285 -10Q232 -10 186 8T107 60T54 145T35 260Q35 324 54 373T105 457T180 508T271 525Q313 525 348 513T412 465Q395 505 370 539T312 603L144 550L126
606L256 648Q230 666 202 681T143 709V717H271Q308 702 344 676L448 709L466 652L398 630Q428 601 454 565T499 487T530 398T542 298ZM285 69Q320 69 349 81T401 120T435 191T447 298Q447 349 437 392Q410 425 374 438T285 451Q250 451 221 440T171 405T137 345T125
260Q125 211 137 175T170 116T221 81T285 69Z" />
<glyph unicode="&#xf1;" glyph-name="ntilde" horiz-adv-x="575" d="M318 451Q258 451 221 424T160 353V0H72V519H155L158 426H160Q181 471 226 500T340 529Q417 529 462 489T508 364V0H420V355Q420 409 393 430T318 451ZM129 598Q126 620 129 642T144 680T174
707T221 718Q245 718 264 712T299 698T328 684T356 677Q393 677 390 722H453Q456 699 453 678T438 640T407 613T361 602Q337 602 318 608T283 622T253 636T226 643Q189 643 192 598H129V598Z" />
<glyph unicode="&#xf2;" glyph-name="ograve" horiz-adv-x="572" d="M285 -10Q232 -10 186 8T107 60T54 145T35 260Q35 324 54 374T106 459T186 511T285 529Q339 529 385 511T464 459T517 375T537 260Q537 195 518 145T465 61T385 8T285 -10ZM285 69Q320 69 349
80T401 115T435 175T447 260Q447 309 435 345T401 404T350 439T285 451Q250 451 221 440T171 405T137 345T125 260Q125 211 137 175T170 116T221 81T285 69ZM273 588L142 746H257L348 588H273Z" />
<glyph unicode="&#xf3;" glyph-name="oacute" horiz-adv-x="572" d="M285 -10Q232 -10 186 8T107 60T54 145T35 260Q35 324 54 374T106 459T186 511T285 529Q339 529 385 511T464 459T517 375T537 260Q537 195 518 145T465 61T385 8T285 -10ZM285 69Q320 69 349
80T401 115T435 175T447 260Q447 309 435 345T401 404T350 439T285 451Q250 451 221 440T171 405T137 345T125 260Q125 211 137 175T170 116T221 81T285 69ZM316 746H431L300 588H225L316 746Z" />
<glyph unicode="&#xf4;" glyph-name="ocircumflex" horiz-adv-x="572" d="M285 -10Q232 -10 186 8T107 60T54 145T35 260Q35 324 54 374T106 459T186 511T285 529Q339 529 385 511T464 459T517 375T537 260Q537 195 518 145T465 61T385 8T285 -10ZM285 69Q320
69 349 80T401 115T435 175T447 260Q447 309 435 345T401 404T350 439T285 451Q250 451 221 440T171 405T137 345T125 260Q125 211 137 175T170 116T221 81T285 69ZM286 673L206 588H131L236 736H336L441 588H366L286 673Z" />
<glyph unicode="&#xf5;" glyph-name="otilde" horiz-adv-x="572" d="M285 -10Q232 -10 186 8T107 60T54 145T35 260Q35 324 54 374T106 459T186 511T285 529Q339 529 385 511T464 459T517 375T537 260Q537 195 518 145T465 61T385 8T285 -10ZM285 69Q320 69 349
80T401 115T435 175T447 260Q447 309 435 345T401 404T350 439T285 451Q250 451 221 440T171 405T137 345T125 260Q125 211 137 175T170 116T221 81T285 69ZM124 598Q121 620 124 642T139 680T169 707T216 718Q240 718 259 712T294 698T323 684T351 677Q388 677
385 722H448Q451 699 448 678T433 640T402 613T356 602Q332 602 313 608T278 622T248 636T221 643Q184 643 187 598H124V598Z" />
<glyph unicode="&#xf6;" glyph-name="odieresis" horiz-adv-x="572" d="M285 -10Q232 -10 186 8T107 60T54 145T35 260Q35 324 54 374T106 459T186 511T285 529Q339 529 385 511T464 459T517 375T537 260Q537 195 518 145T465 61T385 8T285 -10ZM285 69Q320 69
349 80T401 115T435 175T447 260Q447 309 435 345T401 404T350 439T285 451Q250 451 221 440T171 405T137 345T125 260Q125 211 137 175T170 116T221 81T285 69ZM183 595Q158 595 142 611T126 651Q126 676 142 692T183 708Q209 708 224 692T240 651Q240 628 225
612T183 595ZM389 595Q363 595 348 611T332 651Q332 676 347 692T389 708Q415 708 430 692T446 651Q446 628 431 612T389 595Z" />
<glyph unicode="&#xf7;" glyph-name="divide" horiz-adv-x="550" d="M531 481Q503 481 485 499T466 544Q466 572 484 590T531 608Q559 608 577 590T595 544Q595 518 577 500T531 481ZM290 302V372H772V302H290ZM531 65Q503 65 485 83T466 128Q466 156 484 174T531
192Q559 192 577 174T595 128Q595 102 577 84T531 65Z" />
<glyph unicode="&#xf8;" glyph-name="oslash" horiz-adv-x="572" d="M285 -10Q241 -10 204 2L165 -80H84L138 34Q90 67 63 124T35 260Q35 324 54 374T106 459T186 511T285 529Q329 529 368 517L407 599H489L434 485Q482 451 509 395T537 260Q537 195 518 145T465
61T385 8T285 -10ZM125 260Q125 208 138 171T175 111L334 445Q310 451 285 451Q250 451 221 440T171 405T137 345T125 260ZM447 260Q447 311 434 348T398 408L239 75Q260 69 285 69Q320 69 349 80T401 115T435 175T447 260Z" />
<glyph unicode="&#xf9;" glyph-name="ugrave" horiz-adv-x="565" d="M405 93Q384 49 341 20T227 -10Q155 -10 111 30T66 156V519H155V156Q155 130 162 114T183 87T213 73T252 69Q310 69 345 95T405 166V519H493V0H415L407 93H405V93ZM248 588L117 746H232L323 588H248Z" />
<glyph unicode="&#xfa;" glyph-name="uacute" horiz-adv-x="565" d="M405 93Q384 49 341 20T227 -10Q155 -10 111 30T66 156V519H155V156Q155 130 162 114T183 87T213 73T252 69Q310 69 345 95T405 166V519H493V0H415L407 93H405V93ZM327 746H442L311 588H236L327 746Z" />
<glyph unicode="&#xfb;" glyph-name="ucircumflex" horiz-adv-x="565" d="M405 93Q384 49 341 20T227 -10Q155 -10 111 30T66 156V519H155V156Q155 130 162 114T183 87T213 73T252 69Q310 69 345 95T405 166V519H493V0H415L407 93H405V93ZM277 673L197 588H122L227
736H327L432 588H357L277 673Z" />
<glyph unicode="&#xfc;" glyph-name="udieresis" horiz-adv-x="565" d="M405 93Q384 49 341 20T227 -10Q155 -10 111 30T66 156V519H155V156Q155 130 162 114T183 87T213 73T252 69Q310 69 345 95T405 166V519H493V0H415L407 93H405V93ZM174 595Q149 595 133 611T117
651Q117 676 133 692T174 708Q200 708 215 692T231 651Q231 628 216 612T174 595ZM380 595Q354 595 339 611T323 651Q323 676 338 692T380 708Q406 708 421 692T437 651Q437 628 422 612T380 595Z" />
<glyph unicode="&#xfd;" glyph-name="yacute" horiz-adv-x="531" d="M327 6Q309 -41 289 -76T244 -137T188 -174T117 -187Q97 -187 80 -185T49 -176V-91Q60 -99 77 -103T114 -108Q151 -108 175 -91T221 -35L10 519H107L272 81L436 519H521L327 6V6ZM322 746H437L306
588H231L322 746Z" />
<glyph unicode="&#xfe;" glyph-name="thorn" horiz-adv-x="600" d="M333 -10Q273 -10 230 18T160 95V-177H72V717H160V429Q186 476 228 502T332 529Q379 529 421 513T496 463T546 379T565 260Q565 191 546 141T495 57T421 7T333 -10ZM320 69Q389 69 431 116T474
260Q474 354 432 402T320 451Q286 451 257 439T206 404T172 344T159 260Q159 212 171 176T205 116T256 81T320 69Z" />
<glyph unicode="&#xff;" glyph-name="ydieresis" horiz-adv-x="531" d="M327 6Q309 -41 289 -76T244 -137T188 -174T117 -187Q97 -187 80 -185T49 -176V-91Q60 -99 77 -103T114 -108Q151 -108 175 -91T221 -35L10 519H107L272 81L436 519H521L327 6V6ZM165 595Q140
595 124 611T108 651Q108 676 124 692T165 708Q191 708 206 692T222 651Q222 628 207 612T165 595ZM371 595Q345 595 330 611T314 651Q314 676 329 692T371 708Q397 708 412 692T428 651Q428 628 413 612T371 595Z" />
<glyph unicode="&#x100;" glyph-name="Amacron" horiz-adv-x="692" d="M275 717H415L672 0H572L498 205H181L108 0H20L275 717ZM468 290L340 647L212 290H468ZM185 878H495V808H185V878Z" />
<glyph unicode="&#x101;" glyph-name="amacron" horiz-adv-x="526" d="M376 99Q367 81 353 62T318 26T269 0T202 -10Q132 -10 89 29T46 143Q46 228 105 268T275 308H372V351Q372 405 344 428T248 451Q200 451 157 436T80 400V479Q108 496 155 512T260 529Q358
529 409 489T460 363V84Q460 75 460 64T461 40T463 18T465 0H385Q382 14 380 39T377 84L376 99ZM221 69Q262 69 291 86T338 125T364 169T372 200V238H284Q205 238 170 216T134 148Q134 113 155 91T221 69ZM115 687H405V617H115V687Z" />
<glyph unicode="&#x102;" glyph-name="Abreve" horiz-adv-x="692" d="M275 717H415L672 0H572L498 205H181L108 0H20L275 717ZM468 290L340 647L212 290H468ZM342 763Q301 763 271 775T220 808T190 857T180 919H268Q268 870 287 849T342 828Q377 828 396 849T415
919H503Q503 886 493 858T463 808T413 775T342 763Z" />
<glyph unicode="&#x103;" glyph-name="abreve" horiz-adv-x="526" d="M376 99Q367 81 353 62T318 26T269 0T202 -10Q132 -10 89 29T46 143Q46 228 105 268T275 308H372V351Q372 405 344 428T248 451Q200 451 157 436T80 400V479Q108 496 155 512T260 529Q358 529
409 489T460 363V84Q460 75 460 64T461 40T463 18T465 0H385Q382 14 380 39T377 84L376 99ZM221 69Q262 69 291 86T338 125T364 169T372 200V238H284Q205 238 170 216T134 148Q134 113 155 91T221 69ZM260 588Q222 588 194 599T146 629T118 674T108 729H196Q196
687 213 670T260 652Q290 652 306 669T323 729H411Q411 700 402 674T374 629T327 599T260 588Z" />
<glyph unicode="&#x104;" glyph-name="Aogonek" horiz-adv-x="692" d="M275 717H415L672 0Q645 -10 624 -30T602 -80Q602 -100 615 -114T658 -129Q678 -129 700 -121V-181Q693 -186 678 -189T641 -192Q586 -192 556 -166T526 -92Q526 -63 538 -39T571 2L498 205H181L108
0H20L275 717ZM468 290L340 647L212 290H468Z" />
<glyph unicode="&#x105;" glyph-name="aogonek" horiz-adv-x="526" d="M326 -101Q326 -80 333 -64T351 -35T376 -15T404 0H392Q390 14 388 39T385 84L383 100Q375 82 361 63T326 27T276 1T209 -10Q140 -10 97 29T54 143Q54 228 113 268T282 308H379V351Q379 405
352 428T256 451Q208 451 165 436T88 400V479Q115 496 162 512T267 529Q365 529 416 489T467 363V84Q467 75 467 64T468 40T470 18T472 0Q445 -10 424 -30T402 -80Q402 -100 415 -114T458 -129Q478 -129 500 -121V-181Q493 -186 478 -189T441 -192Q386 -192 356
-168T326 -101ZM228 69Q269 69 298 86T345 125T371 169T379 200V238H291Q213 238 177 216T141 148Q141 113 162 91T228 69Z" />
<glyph unicode="&#x106;" glyph-name="Cacute" horiz-adv-x="671" d="M395 -10Q315 -10 250 15T139 87T67 203T42 358Q42 445 65 513T133 628T243 701T393 726Q466 726 521 711T611 674V584Q566 613 508 627T392 641Q265 641 205 571T144 358Q144 215 209 145T403
75Q458 75 510 90T611 141V51Q582 28 527 9T395 -10ZM412 909H537L401 773H316L412 909Z" />
<glyph unicode="&#x107;" glyph-name="cacute" horiz-adv-x="489" d="M296 -10Q236 -10 188 8T105 61T53 146T35 260Q35 323 53 373T106 457T189 510T300 529Q348 529 388 519T454 488V409Q422 430 383 440T301 451Q210 451 168 404T125 260Q125 163 166 116T296
69Q343 69 382 80T454 110V31Q426 14 387 2T296 -10ZM324 746H439L308 588H233L324 746Z" />
<glyph unicode="&#x108;" glyph-name="Ccircumflex" horiz-adv-x="671" d="M395 -10Q315 -10 250 15T139 87T67 203T42 358Q42 445 65 513T133 628T243 701T393 726Q466 726 521 711T611 674V584Q566 613 508 627T392 641Q265 641 205 571T144 358Q144 215 209
145T403 75Q458 75 510 90T611 141V51Q582 28 527 9T395 -10ZM387 848L307 763H232L337 911H437L542 763H467L387 848Z" />
<glyph unicode="&#x109;" glyph-name="ccircumflex" horiz-adv-x="489" d="M296 -10Q236 -10 188 8T105 61T53 146T35 260Q35 323 53 373T106 457T189 510T300 529Q348 529 388 519T454 488V409Q422 430 383 440T301 451Q210 451 168 404T125 260Q125 163 166
116T296 69Q343 69 382 80T454 110V31Q426 14 387 2T296 -10ZM278 673L198 588H123L228 736H328L433 588H358L278 673Z" />
<glyph unicode="&#x10a;" glyph-name="Cdotaccent" horiz-adv-x="671" d="M404 -10Q324 -10 259 15T148 87T76 203T51 358Q51 445 74 513T142 628T252 701T402 726Q475 726 530 711T620 674V584Q575 613 517 627T401 641Q274 641 214 571T153 358Q153 215 218
145T412 75Q467 75 519 90T620 141V51Q591 28 536 9T404 -10ZM377 786Q351 786 336 802T320 842Q320 866 335 882T377 899Q403 899 418 883T434 842Q434 819 419 803T377 786Z" />
<glyph unicode="&#x10b;" glyph-name="cdotaccent" horiz-adv-x="489" d="M296 -10Q236 -10 188 8T105 61T53 146T35 260Q35 323 53 373T106 457T189 510T300 529Q348 529 388 519T454 488V409Q422 430 383 440T301 451Q210 451 168 404T125 260Q125 163 166 116T296
69Q343 69 382 80T454 110V31Q426 14 387 2T296 -10ZM269 595Q243 595 228 611T212 651Q212 676 227 692T269 708Q295 708 310 692T326 651Q326 628 311 612T269 595Z" />
<glyph unicode="&#x10c;" glyph-name="Ccaron" horiz-adv-x="671" d="M395 -10Q315 -10 250 15T139 87T67 203T42 358Q42 445 65 513T133 628T243 701T393 726Q466 726 521 711T611 674V584Q566 613 508 627T392 641Q265 641 205 571T144 358Q144 215 209 145T403
75Q458 75 510 90T611 141V51Q582 28 527 9T395 -10ZM436 763H336L231 911H306L386 826L466 911H541L436 763Z" />
<glyph unicode="&#x10d;" glyph-name="ccaron" horiz-adv-x="489" d="M296 -10Q236 -10 188 8T105 61T53 146T35 260Q35 323 53 373T106 457T189 510T300 529Q348 529 388 519T454 488V409Q422 430 383 440T301 451Q210 451 168 404T125 260Q125 163 166 116T296
69Q343 69 382 80T454 110V31Q426 14 387 2T296 -10ZM328 588H228L123 736H198L278 651L358 736H433L328 588Z" />
<glyph unicode="&#x10e;" glyph-name="Dcaron" horiz-adv-x="706" d="M84 717H325Q397 717 459 700T567 644T639 541T665 383Q665 288 639 217T566 97T455 25T314 0H84V717ZM178 631V85H314Q369 85 415 102T494 154T545 245T563 376Q563 451 545 500T496 579T420
619T325 631H178ZM374 763H274L169 911H244L324 826L404 911H479L374 763Z" />
<glyph unicode="&#x10f;" glyph-name="dcaron" horiz-adv-x="581" d="M444 102Q420 51 377 21T268 -10Q221 -10 179 6T105 56T54 140T35 260Q35 328 54 378T105 462T179 512T269 529Q328 529 371 505T440 435V717H528V0H451L444 102ZM281 69Q315 69 344 80T394
116T428 176T441 260Q441 308 429 344T395 404T344 439T281 451Q212 451 169 403T125 260Q125 165 169 117T281 69ZM583 528L603 717H704L644 528H583Z" />
<glyph unicode="&#x110;" glyph-name="Dcroat" horiz-adv-x="723" d="M100 404V717H342Q414 717 476 700T584 644T656 541T683 383Q683 288 657 217T583 97T472 25T331 0H100V329H10V404H100ZM195 329V85H331Q386 85 432 102T511 154T562 245T580 376Q580 451
562 500T513 579T437 619T342 631H195V404H407V329H195Z" />
<glyph unicode="&#x111;" glyph-name="" horiz-adv-x="600" d="M444 102Q420 51 377 21T268 -10Q221 -10 179 6T105 56T54 140T35 260Q35 328 54 378T105 462T179 512T269 529Q328 529 371 505T440 435V576H290V641H440V717H528V641H608V576H528V0H451L444 102ZM281
69Q315 69 344 80T394 116T428 176T441 260Q441 308 429 344T395 404T344 439T281 451Q212 451 169 403T125 260Q125 165 169 117T281 69Z" />
<glyph unicode="&#x112;" glyph-name="Emacron" horiz-adv-x="598" d="M84 717H528V631H178V414H475V329H178V85H533V0H84V717ZM150 878H460V808H150V878Z" />
<glyph unicode="&#x113;" glyph-name="emacron" horiz-adv-x="530" d="M485 44Q474 36 458 27T419 10T367 -4T302 -10Q171 -10 103 61T35 260Q35 323 53 373T105 457T183 510T281 529Q337 529 381 510T453 454T492 363T492 236H126Q131 152 176 111T310 69Q370
69 413 86T485 123V44ZM279 451Q222 451 181 416T129 310H408Q412 382 375 416T279 451ZM133 687H423V617H133V687Z" />
<glyph unicode="&#x114;" glyph-name="Ebreve" horiz-adv-x="598" d="M84 717H528V631H178V414H475V329H178V85H533V0H84V717ZM307 763Q266 763 236 775T185 808T155 857T145 919H233Q233 870 252 849T307 828Q342 828 361 849T380 919H468Q468 886 458 858T428
808T378 775T307 763Z" />
<glyph unicode="&#x115;" glyph-name="ebreve" horiz-adv-x="530" d="M485 44Q474 36 458 27T419 10T367 -4T302 -10Q171 -10 103 61T35 260Q35 323 53 373T105 457T183 510T281 529Q337 529 381 510T453 454T492 363T492 236H126Q131 152 176 111T310 69Q370
69 413 86T485 123V44ZM279 451Q222 451 181 416T129 310H408Q412 382 375 416T279 451ZM278 588Q240 588 212 599T164 629T136 674T126 729H214Q214 687 231 670T278 652Q308 652 324 669T341 729H429Q429 700 420 674T392 629T345 599T278 588Z" />
<glyph unicode="&#x116;" glyph-name="Edotaccent" horiz-adv-x="598" d="M84 717H528V631H178V414H475V329H178V85H533V0H84V717ZM312 786Q286 786 271 802T255 842Q255 866 270 882T312 899Q338 899 353 883T369 842Q369 819 354 803T312 786Z" />
<glyph unicode="&#x117;" glyph-name="edotaccent" horiz-adv-x="530" d="M740 44Q729 36 713 27T674 10T622 -4T557 -10Q426 -10 358 61T290 260Q290 323 308 373T360 457T438 510T536 529Q592 529 636 510T708 454T747 363T747 236H381Q386 152 431 111T565
69Q625 69 668 86T740 123V44ZM534 451Q477 451 436 416T384 310H663Q667 382 630 416T534 451ZM265 595Q239 595 224 611T208 651Q208 676 223 692T265 708Q291 708 306 692T322 651Q322 628 307 612T265 595Z" />
<glyph unicode="&#x118;" glyph-name="Eogonek" horiz-adv-x="598" d="M84 717H528V631H178V414H475V329H178V85H533V0H84V717ZM502 -192Q447 -192 417 -168T387 -101Q387 -80 394 -64T412 -35T437 -15T465 0H533Q506 -10 485 -30T463 -80Q463 -100 476 -114T519
-129Q539 -129 561 -121V-181Q554 -186 539 -189T502 -192Z" />
<glyph unicode="&#x119;" glyph-name="eogonek" horiz-adv-x="530" d="M485 44Q474 36 458 27T419 10T367 -4T302 -10Q171 -10 103 61T35 260Q35 323 53 373T105 457T183 510T281 529Q337 529 381 510T453 454T492 363T492 236H126Q131 152 176 111T310 69Q370
69 413 86T485 123V44ZM279 451Q222 451 181 416T129 310H408Q412 382 375 416T279 451ZM357 -192Q302 -192 272 -168T242 -101Q242 -80 249 -64T267 -35T292 -15T320 0H388Q361 -10 340 -30T318 -80Q318 -100 331 -114T374 -129Q394 -129 416 -121V-181Q409 -186
394 -189T357 -192Z" />
<glyph unicode="&#x11a;" glyph-name="Ecaron" horiz-adv-x="598" d="M84 717H528V631H178V414H475V329H178V85H533V0H84V717ZM362 763H262L157 911H232L312 826L392 911H467L362 763Z" />
<glyph unicode="&#x11b;" glyph-name="ecaron" horiz-adv-x="530" d="M485 44Q474 36 458 27T419 10T367 -4T302 -10Q171 -10 103 61T35 260Q35 323 53 373T105 457T183 510T281 529Q337 529 381 510T453 454T492 363T492 236H126Q131 152 176 111T310 69Q370
69 413 86T485 123V44ZM279 451Q222 451 181 416T129 310H408Q412 382 375 416T279 451ZM332 588H232L127 736H202L282 651L362 736H437L332 588Z" />
<glyph unicode="&#x11c;" glyph-name="Gcircumflex" horiz-adv-x="739" d="M690 281Q690 218 672 165T615 73T520 12T384 -10Q308 -10 245 16T137 91T67 207T42 358Q42 441 66 509T136 625T252 699T411 726Q457 726 493 720T558 705T606 685T642 664V574Q618 588
593 600T540 622T479 636T408 641Q340 641 291 622T209 567T160 478T144 358Q144 224 207 150T384 75Q440 75 480 89T545 129T581 190T593 268V288H362V373H690V281V281ZM396 848L316 763H241L346 911H446L551 763H476L396 848Z" />
<glyph unicode="&#x11d;" glyph-name="gcircumflex" horiz-adv-x="589" d="M518 44Q518 -6 504 -47T458 -118T377 -163T257 -179Q219 -179 190 -175T140 -165T103 -151T78 -136V-57Q94 -66 111 -73T150 -87T197 -96T258 -100Q354 -100 392 -64T430 43V123Q407
77 366 49T263 21Q217 21 176 37T103 84T53 163T34 274Q34 338 52 385T102 465T176 513T265 529Q327 529 369 501T436 425L437 436Q437 454 439 479T443 519H523Q521 505 520 479T518 436V44ZM279 100Q312 100 339 110T387 143T419 197T431 274Q431 363 388 407T278
451Q245 451 217 440T168 407T135 352T123 274Q123 230 135 198T168 144T217 111T279 100ZM284 673L204 588H129L234 736H334L439 588H364L284 673Z" />
<glyph unicode="&#x11e;" glyph-name="Gbreve" horiz-adv-x="739" d="M690 281Q690 218 672 165T615 73T520 12T384 -10Q308 -10 245 16T137 91T67 207T42 358Q42 441 66 509T136 625T252 699T411 726Q457 726 493 720T558 705T606 685T642 664V574Q618 588 593
600T540 622T479 636T408 641Q340 641 291 622T209 567T160 478T144 358Q144 224 207 150T384 75Q440 75 480 89T545 129T581 190T593 268V288H362V373H690V281V281ZM396 763Q355 763 325 775T274 808T244 857T234 919H322Q322 870 341 849T396 828Q431 828 450
849T469 919H557Q557 886 547 858T517 808T467 775T396 763Z" />
<glyph unicode="&#x11f;" glyph-name="gbreve" horiz-adv-x="589" d="M518 44Q518 -6 504 -47T458 -118T377 -163T257 -179Q219 -179 190 -175T140 -165T103 -151T78 -136V-57Q94 -66 111 -73T150 -87T197 -96T258 -100Q354 -100 392 -64T430 43V123Q407 77 366
49T263 21Q217 21 176 37T103 84T53 163T34 274Q34 338 52 385T102 465T176 513T265 529Q327 529 369 501T436 425L437 436Q437 454 439 479T443 519H523Q521 505 520 479T518 436V44ZM279 100Q312 100 339 110T387 143T419 197T431 274Q431 363 388 407T278 451Q245
451 217 440T168 407T135 352T123 274Q123 230 135 198T168 144T217 111T279 100ZM269 588Q231 588 203 599T155 629T127 674T117 729H205Q205 687 222 670T269 652Q299 652 315 669T332 729H420Q420 700 411 674T383 629T336 599T269 588Z" />
<glyph unicode="&#x120;" glyph-name="Gdotaccent" horiz-adv-x="739" d="M690 281Q690 218 672 165T615 73T520 12T384 -10Q308 -10 245 16T137 91T67 207T42 358Q42 441 66 509T136 625T252 699T411 726Q457 726 493 720T558 705T606 685T642 664V574Q618 588
593 600T540 622T479 636T408 641Q340 641 291 622T209 567T160 478T144 358Q144 224 207 150T384 75Q440 75 480 89T545 129T581 190T593 268V288H362V373H690V281V281ZM391 786Q365 786 350 802T334 842Q334 866 349 882T391 899Q417 899 432 883T448 842Q448
819 433 803T391 786Z" />
<glyph unicode="&#x121;" glyph-name="gdotaccent" horiz-adv-x="589" d="M518 44Q518 -6 504 -47T458 -118T377 -163T257 -179Q219 -179 190 -175T140 -165T103 -151T78 -136V-57Q94 -66 111 -73T150 -87T197 -96T258 -100Q354 -100 392 -64T430 43V123Q407 77
366 49T263 21Q217 21 176 37T103 84T53 163T34 274Q34 338 52 385T102 465T176 513T265 529Q327 529 369 501T436 425L437 436Q437 454 439 479T443 519H523Q521 505 520 479T518 436V44ZM279 100Q312 100 339 110T387 143T419 197T431 274Q431 363 388 407T278
451Q245 451 217 440T168 407T135 352T123 274Q123 230 135 198T168 144T217 111T279 100ZM269 595Q243 595 228 611T212 651Q212 676 227 692T269 708Q295 708 310 692T326 651Q326 628 311 612T269 595Z" />
<glyph unicode="&#x122;" glyph-name="uni0122" horiz-adv-x="739" d="M690 281Q690 218 672 165T615 73T520 12T384 -10Q308 -10 245 16T137 91T67 207T42 358Q42 441 66 509T136 625T252 699T411 726Q457 726 493 720T558 705T606 685T642 664V574Q618 588 593
600T540 622T479 636T408 641Q340 641 291 622T209 567T160 478T144 358Q144 224 207 150T384 75Q440 75 480 89T545 129T581 190T593 268V288H362V373H690V281V281ZM444 -114Q444 -133 439 -149T424 -180T405 -206T384 -228H322Q338 -213 349 -196T375 -154Q357
-150 346 -137T334 -103Q334 -81 349 -66T387 -51Q410 -51 427 -66T444 -114Z" />
<glyph unicode="&#x123;" glyph-name="uni0123" horiz-adv-x="589" d="M518 44Q518 -6 504 -47T458 -118T377 -163T257 -179Q219 -179 190 -175T140 -165T103 -151T78 -136V-57Q94 -66 111 -73T150 -87T197 -96T258 -100Q354 -100 392 -64T430 43V123Q407 77 366
49T263 21Q217 21 176 37T103 84T53 163T34 274Q34 338 52 385T102 465T176 513T265 529Q327 529 369 501T436 425L437 436Q437 454 439 479T443 519H523Q521 505 520 479T518 436V44ZM279 100Q312 100 339 110T387 143T419 197T431 274Q431 363 388 407T278 451Q245
451 217 440T168 407T135 352T123 274Q123 230 135 198T168 144T217 111T279 100ZM328 648Q328 626 313 611T275 595Q252 595 235 611T218 659Q218 678 223 694T238 725T257 751T278 773H340Q324 759 313 742T287 699Q305 695 316 682T328 648Z" />
<glyph unicode="&#x124;" glyph-name="Hcircumflex" horiz-adv-x="724" d="M546 313H178V0H84V717H178V398H546V717H641V0H546V313ZM363 848L283 763H208L313 911H413L518 763H443L363 848Z" />
<glyph unicode="&#x125;" glyph-name="hcircumflex" horiz-adv-x="575" d="M318 451Q258 451 221 424T160 353V0H72V717H160V519L158 426H160Q181 470 226 499T340 529Q417 529 462 489T508 364V0H420V355Q420 409 393 430T318 451ZM288 879L208 794H133L238 942H338L443
794H368L288 879Z" />
<glyph unicode="&#x126;" glyph-name="Hbar" horiz-adv-x="724" d="M546 313H178V0H84V511H-16V586H84V717H178V586H546V717H641V586H741V511H641V0H546V313ZM546 398V511H178V398H546Z" />
<glyph unicode="&#x127;" glyph-name="hbar" horiz-adv-x="575" d="M318 451Q258 451 221 424T160 353V0H72V576H-8V641H72V717H160V641H310V576H160V519L158 426H160Q181 470 226 499T340 529Q417 529 462 489T508 364V0H420V355Q420 409 393 430T318 451Z" />
<glyph unicode="&#x128;" glyph-name="Itilde" horiz-adv-x="261" d="M178 717V0H84V717H178ZM214 784Q210 809 214 833T230 876T262 906T312 918Q338 918 358 910T396 891T427 872T457 863Q498 863 495 922H558Q562 897 558 873T542 830T510 800T460 788Q434
788 414 796T377 815T345 834T315 843Q274 843 278 784H214V784Z" />
<glyph unicode="&#x129;" glyph-name="itilde" horiz-adv-x="231" d="M160 519V0H72V519H160ZM210 598Q207 620 210 642T225 680T255 707T302 718Q326 718 345 712T380 698T409 684T437 677Q474 677 471 722H534Q537 699 534 678T519 640T488 613T442 602Q418
602 399 608T364 622T334 636T307 643Q270 643 273 598H210V598Z" />
<glyph unicode="&#x12a;" glyph-name="Imacron" horiz-adv-x="261" d="M178 717V0H84V717H178ZM231 878H541V808H231V878Z" />
<glyph unicode="&#x12b;" glyph-name="imacron" horiz-adv-x="231" d="M160 519V0H72V519H160ZM221 942H511V872H221V942Z" />
<glyph unicode="&#x12c;" glyph-name="Ibreve" horiz-adv-x="261" d="M178 717V0H84V717H178ZM387 763Q346 763 316 775T265 808T235 857T225 919H313Q313 870 332 849T387 828Q422 828 441 849T460 919H548Q548 886 538 858T508 808T458 775T387 763Z" />
<glyph unicode="&#x12d;" glyph-name="ibreve" horiz-adv-x="231" d="M160 519V0H72V519H160ZM372 588Q334 588 306 599T258 629T230 674T220 729H308Q308 687 325 670T372 652Q402 652 418 669T435 729H523Q523 700 514 674T486 629T439 599T372 588Z" />
<glyph unicode="&#x12e;" glyph-name="Iogonek" horiz-adv-x="261" d="M206 -181Q199 -186 184 -189T147 -192Q92 -192 62 -165T32 -92Q32 -59 46 -36T84 2V717H178V0Q151 -10 130 -30T108 -80Q108 -100 121 -114T164 -129Q184 -129 206 -121V-181V-181Z" />
<glyph unicode="&#x12f;" glyph-name="iogonek" horiz-adv-x="231" d="M160 519V0Q133 -10 112 -30T90 -80Q90 -100 102 -114T145 -129Q157 -129 167 -127T188 -121V-181Q180 -186 165 -189T129 -192Q72 -192 43 -164T13 -91Q13 -69 20 -52T38 -22T64 0L72 5V519H160ZM117
595Q90 595 74 611T58 652Q58 676 74 693T117 710Q143 710 158 693T173 652Q173 628 158 612T117 595Z" />
<glyph unicode="&#x130;" glyph-name="Idot" horiz-adv-x="261" d="M178 717V0H84V717H178ZM385 786Q359 786 344 802T328 842Q328 866 343 882T385 899Q411 899 426 883T442 842Q442 819 427 803T385 786Z" />
<glyph unicode="&#x131;" glyph-name="dotlessi" horiz-adv-x="231" d="M160 519V0H72V519H160Z" />
<glyph unicode="&#x132;" glyph-name="IJ" horiz-adv-x="593" d="M512 717V133Q512 106 502 80T472 34T420 2T345 -10Q319 -10 293 -6T244 7V88Q264 81 284 78T324 75Q373 75 395 95T418 161V717H512ZM178 717V0H84V717H178Z" />
<glyph unicode="&#x133;" glyph-name="ij" horiz-adv-x="461" d="M117 595Q90 595 74 611T58 652Q58 676 74 693T117 710Q143 710 158 693T173 652Q173 628 158 612T117 595ZM160 519V0H72V519H160ZM346 595Q320 595 304 611T288 652Q288 676 304 693T346 710Q372
710 387 693T403 652Q403 628 388 612T346 595ZM390 -44Q390 -73 382 -99T357 -144T312 -175T248 -187Q228 -187 204 -183T157 -166V-81Q171 -92 190 -100T233 -108Q271 -108 286 -90T302 -46V519H390V-44Z" />
<glyph unicode="&#x134;" glyph-name="Jcircumflex" horiz-adv-x="373" d="M293 717V133Q293 106 283 80T253 34T201 2T126 -10Q100 -10 74 -6T25 7V88Q63 75 104 75Q153 75 175 95T198 161V717H293ZM243 848L163 763H88L193 911H293L398 763H323L243 848Z" />
<glyph unicode="&#x135;" glyph-name="jcircumflex" horiz-adv-x="239" d="M168 -44Q168 -73 160 -99T135 -144T90 -175T26 -187Q6 -187 -18 -183T-65 -166V-81Q-51 -92 -32 -100T11 -108Q49 -108 64 -90T80 -46V519H168V-44ZM373 673L293 588H218L323 736H423L528
588H453L373 673Z" />
<glyph unicode="&#x136;" glyph-name="uni0136" horiz-adv-x="641" d="M254 307H178V0H84V717H178V392H248L504 717H610L327 359L621 0H504L254 307ZM380 -114Q380 -133 375 -149T360 -180T341 -206T320 -228H258Q274 -213 285 -196T311 -154Q293 -150 282 -137T270
-103Q270 -81 285 -66T323 -51Q346 -51 363 -66T380 -114Z" />
<glyph unicode="&#x137;" glyph-name="uni0137" horiz-adv-x="496" d="M206 221H160V0H72V717H160V296H210L392 519H492L279 263L496 0H389L206 221ZM333 -114Q333 -133 328 -149T313 -180T294 -206T273 -228H211Q227 -213 238 -196T264 -154Q246 -150 235 -137T223
-103Q223 -81 238 -66T276 -51Q299 -51 316 -66T333 -114Z" />
<glyph unicode="&#x139;" glyph-name="Lacute" horiz-adv-x="572" d="M527 0H84V717H178V85H527V0ZM440 909H565L429 773H344L440 909Z" />
<glyph unicode="&#x13a;" glyph-name="lacute" horiz-adv-x="231" d="M160 717V0H72V717H160ZM430 940H555L419 804H334L430 940Z" />
<glyph unicode="&#x13b;" glyph-name="uni013B" horiz-adv-x="572" d="M527 0H84V717H178V85H527V0ZM362 -114Q362 -133 357 -149T342 -180T323 -206T302 -228H240Q256 -213 267 -196T293 -154Q275 -150 264 -137T252 -103Q252 -81 267 -66T305 -51Q328 -51 345
-66T362 -114Z" />
<glyph unicode="&#x13c;" glyph-name="uni013C" horiz-adv-x="231" d="M160 717V0H72V717H160ZM427 -114Q427 -133 422 -149T407 -180T388 -206T367 -228H305Q321 -213 332 -196T358 -154Q340 -150 329 -137T317 -103Q317 -81 332 -66T370 -51Q393 -51 410 -66T427 -114Z" />
<glyph unicode="&#x13d;" glyph-name="Lcaron" horiz-adv-x="572" d="M527 0H84V717H178V85H527V0ZM274 528L294 717H395L335 528H274Z" />
<glyph unicode="&#x13e;" glyph-name="lcaron" horiz-adv-x="231" d="M160 717V0H72V717H160ZM211 528L231 717H332L272 528H211Z" />
<glyph unicode="&#x13f;" glyph-name="Ldot" horiz-adv-x="572" d="M527 0H84V717H178V85H527V0ZM475 298Q446 298 428 316T410 361Q410 389 428 407T475 425Q503 425 521 407T539 361Q539 335 521 317T475 298Z" />
<glyph unicode="&#x140;" glyph-name="ldot" horiz-adv-x="383" d="M160 717V0H72V717H160ZM307 278Q278 278 260 296T242 341Q242 369 260 387T307 405Q335 405 353 387T371 341Q371 315 353 297T307 278Z" />
<glyph unicode="&#x141;" glyph-name="Lslash" horiz-adv-x="572" d="M527 0H84V243L-3 198V288L84 333V717H178V383L397 498V408L178 293V85H527V0Z" />
<glyph unicode="&#x142;" glyph-name="lslash" horiz-adv-x="252" d="M0 301L82 369V717H170V442L252 511V432L170 363V0H82V290L0 222V301Z" />
<glyph unicode="&#x143;" glyph-name="Nacute" horiz-adv-x="743" d="M661 0H533L173 602V0H84V717H211L571 115V717H661V0ZM420 909H545L409 773H324L420 909Z" />
<glyph unicode="&#x144;" glyph-name="nacute" horiz-adv-x="575" d="M318 451Q258 451 221 424T160 353V0H72V519H155L158 426H160Q181 471 226 500T340 529Q417 529 462 489T508 364V0H420V355Q420 409 393 430T318 451ZM328 746H443L312 588H237L328 746Z" />
<glyph unicode="&#x145;" glyph-name="uni0145" horiz-adv-x="743" d="M661 0H533L173 602V0H84V717H211L571 115V717H661V0ZM415 -114Q415 -133 410 -149T395 -180T376 -206T355 -228H293Q309 -213 320 -196T346 -154Q328 -150 317 -137T305 -103Q305 -81 320
-66T358 -51Q381 -51 398 -66T415 -114Z" />
<glyph unicode="&#x146;" glyph-name="uni0146" horiz-adv-x="575" d="M318 451Q258 451 221 424T160 353V0H72V519H155L158 426H160Q181 471 226 500T340 529Q417 529 462 489T508 364V0H420V355Q420 409 393 430T318 451ZM364 -114Q364 -133 359 -149T344 -180T325
-206T304 -228H242Q258 -213 269 -196T295 -154Q277 -150 266 -137T254 -103Q254 -81 269 -66T307 -51Q330 -51 347 -66T364 -114Z" />
<glyph unicode="&#x147;" glyph-name="Ncaron" horiz-adv-x="743" d="M661 0H533L173 602V0H84V717H211L571 115V717H661V0ZM437 763H337L232 911H307L387 826L467 911H542L437 763Z" />
<glyph unicode="&#x148;" glyph-name="ncaron" horiz-adv-x="575" d="M318 451Q258 451 221 424T160 353V0H72V519H155L158 426H160Q181 471 226 500T340 529Q417 529 462 489T508 364V0H420V355Q420 409 393 430T318 451ZM342 588H242L137 736H212L292 651L372
736H447L342 588Z" />
<glyph unicode="&#x14a;" glyph-name="Eng" horiz-adv-x="744" d="M84 717H211L571 115V717H661V-37Q661 -71 651 -101T621 -153T569 -187T494 -200Q439 -200 393 -184V-106Q412 -113 432 -116T472 -119Q571 -119 571 -29V0H533L173 602V0H84V717Z" />
<glyph unicode="&#x14b;" glyph-name="eng" horiz-adv-x="566" d="M340 529Q417 529 462 489T508 364V-56Q508 -81 500 -104T476 -146T432 -176T368 -187Q348 -187 323 -183T275 -166V-81Q289 -92 308 -100T351 -108Q389 -108 404 -90T420 -46V355Q420 409 393
430T318 451Q258 451 221 424T160 353V0H72V519H155L158 426H160Q181 470 226 499T340 529Z" />
<glyph unicode="&#x14c;" glyph-name="Omacron" horiz-adv-x="770" d="M385 -10Q313 -10 250 14T141 86T69 202T42 361Q42 451 68 519T141 633T250 702T385 726Q458 726 521 703T630 633T702 519T728 360Q728 271 702 202T630 86T521 15T385 -10ZM385 75Q437 75
481 90T557 139T608 227T627 358Q627 435 609 489T558 576T481 625T385 641Q333 641 289 626T213 577T162 489T143 358Q143 281 161 227T212 140T289 91T385 75ZM230 878H540V808H230V878Z" />
<glyph unicode="&#x14d;" glyph-name="omacron" horiz-adv-x="572" d="M285 -10Q232 -10 186 8T107 60T54 145T35 260Q35 324 54 374T106 459T186 511T285 529Q339 529 385 511T464 459T517 375T537 260Q537 195 518 145T465 61T385 8T285 -10ZM285 69Q320 69
349 80T401 115T435 175T447 260Q447 309 435 345T401 404T350 439T285 451Q250 451 221 440T171 405T137 345T125 260Q125 211 137 175T170 116T221 81T285 69ZM141 687H431V617H141V687Z" />
<glyph unicode="&#x14e;" glyph-name="Obreve" horiz-adv-x="770" d="M385 -10Q313 -10 250 14T141 86T69 202T42 361Q42 451 68 519T141 633T250 702T385 726Q458 726 521 703T630 633T702 519T728 360Q728 271 702 202T630 86T521 15T385 -10ZM385 75Q437 75
481 90T557 139T608 227T627 358Q627 435 609 489T558 576T481 625T385 641Q333 641 289 626T213 577T162 489T143 358Q143 281 161 227T212 140T289 91T385 75ZM386 763Q345 763 315 775T264 808T234 857T224 919H312Q312 870 331 849T386 828Q421 828 440 849T459
919H547Q547 886 537 858T507 808T457 775T386 763Z" />
<glyph unicode="&#x14f;" glyph-name="obreve" horiz-adv-x="572" d="M285 -10Q232 -10 186 8T107 60T54 145T35 260Q35 324 54 374T106 459T186 511T285 529Q339 529 385 511T464 459T517 375T537 260Q537 195 518 145T465 61T385 8T285 -10ZM285 69Q320 69 349
80T401 115T435 175T447 260Q447 309 435 345T401 404T350 439T285 451Q250 451 221 440T171 405T137 345T125 260Q125 211 137 175T170 116T221 81T285 69ZM286 588Q248 588 220 599T172 629T144 674T134 729H222Q222 687 239 670T286 652Q316 652 332 669T349
729H437Q437 700 428 674T400 629T353 599T286 588Z" />
<glyph unicode="&#x150;" glyph-name="Ohungarumlaut" horiz-adv-x="770" d="M385 -10Q313 -10 250 14T141 86T69 202T42 361Q42 451 68 519T141 633T250 702T385 726Q458 726 521 703T630 633T702 519T728 360Q728 271 702 202T630 86T521 15T385 -10ZM385 75Q437
75 481 90T557 139T608 227T627 358Q627 435 609 489T558 576T481 625T385 641Q333 641 289 626T213 577T162 489T143 358Q143 281 161 227T212 140T289 91T385 75ZM230 773L294 909H405L310 773H230ZM428 773L492 909H603L508 773H428Z" />
<glyph unicode="&#x151;" glyph-name="ohungarumlaut" horiz-adv-x="572" d="M285 -10Q232 -10 186 8T107 60T54 145T35 260Q35 324 54 374T106 459T186 511T285 529Q339 529 385 511T464 459T517 375T537 260Q537 195 518 145T465 61T385 8T285 -10ZM285 69Q320
69 349 80T401 115T435 175T447 260Q447 309 435 345T401 404T350 439T285 451Q250 451 221 440T171 405T137 345T125 260Q125 211 137 175T170 116T221 81T285 69ZM153 588L211 746H310L224 588H153ZM324 588L382 746H481L394 588H324Z" />
<glyph unicode="&#x152;" glyph-name="OE" horiz-adv-x="1032" d="M42 367Q42 466 70 533T148 641T266 699T412 717H962V631H610V414H909V329H610V85H967V0H403Q325 0 259 23T144 93T69 207T42 367ZM516 85V631H412Q354 631 305 619T220 577T164 496T144 366Q144
292 164 239T221 152T309 102T423 85H516Z" />
<glyph unicode="&#x153;" glyph-name="oe" horiz-adv-x="950" d="M897 44Q886 36 870 27T831 10T779 -4T714 -10Q630 -10 575 19T491 106Q460 49 407 20T285 -10Q232 -10 186 8T107 60T54 145T35 260Q35 324 54 374T106 459T186 511T285 529Q355 529 408 499T492
412Q521 469 572 499T693 529Q749 529 793 510T865 454T904 363T904 236H538Q543 152 587 111T722 69Q782 69 825 86T897 123V44ZM691 451Q634 451 593 416T541 310H820Q824 382 787 416T691 451ZM285 69Q320 69 349 80T401 115T435 175T447 260Q447 309 435 345T401
404T350 439T285 451Q250 451 221 440T171 405T137 345T125 260Q125 211 137 175T170 116T221 81T285 69Z" />
<glyph unicode="&#x154;" glyph-name="Racute" horiz-adv-x="651" d="M84 717H324Q451 717 517 668T584 512Q584 418 539 368T419 302L614 0H508L321 291H178V0H84V717ZM178 631V376H315Q353 376 384 383T438 406T473 448T486 514Q486 578 444 604T324 631H178ZM333
909H458L322 773H237L333 909Z" />
<glyph unicode="&#x155;" glyph-name="racute" horiz-adv-x="364" d="M329 431Q273 426 228 403T160 330V0H72V519H149L158 406H160Q182 452 223 486T329 529V431V431ZM481 746H596L465 588H390L481 746Z" />
<glyph unicode="&#x156;" glyph-name="uni0156" horiz-adv-x="651" d="M84 717H324Q451 717 517 668T584 512Q584 418 539 368T419 302L614 0H508L321 291H178V0H84V717ZM178 631V376H315Q353 376 384 383T438 406T473 448T486 514Q486 578 444 604T324 631H178ZM384
-114Q384 -133 379 -149T364 -180T345 -206T324 -228H262Q278 -213 289 -196T315 -154Q297 -150 286 -137T274 -103Q274 -81 289 -66T327 -51Q350 -51 367 -66T384 -114Z" />
<glyph unicode="&#x157;" glyph-name="uni0157" horiz-adv-x="364" d="M329 431Q273 426 228 403T160 330V0H72V519H149L158 406H160Q182 452 223 486T329 529V431V431ZM435 -114Q435 -133 430 -149T415 -180T396 -206T375 -228H313Q329 -213 340 -196T366 -154Q348
-150 337 -137T325 -103Q325 -81 340 -66T378 -51Q401 -51 418 -66T435 -114Z" />
<glyph unicode="&#x158;" glyph-name="Rcaron" horiz-adv-x="651" d="M84 717H324Q451 717 517 668T584 512Q584 418 539 368T419 302L614 0H508L321 291H178V0H84V717ZM178 631V376H315Q353 376 384 383T438 406T473 448T486 514Q486 578 444 604T324 631H178ZM356
763H256L151 911H226L306 826L386 911H461L356 763Z" />
<glyph unicode="&#x159;" glyph-name="rcaron" horiz-adv-x="364" d="M329 431Q273 426 228 403T160 330V0H72V519H149L158 406H160Q182 452 223 486T329 529V431V431ZM505 588H405L300 736H375L455 651L535 736H610L505 588Z" />
<glyph unicode="&#x15a;" glyph-name="Sacute" horiz-adv-x="586" d="M284 -10Q235 -10 196 -4T128 13T78 36T45 61V151Q60 138 84 125T139 100T207 82T284 75Q362 75 408 104T454 194Q454 224 443 243T411 276T359 299T285 320Q243 331 201 345T126 382T72 440T51
529Q51 622 116 674T315 726Q354 726 384 722T438 711T479 696T511 681V591Q469 618 421 629T315 641Q267 641 235 634T182 612T153 578T144 533Q144 503 157 483T193 450T245 427T306 411Q348 401 392 388T471 352T528 293T551 198Q551 141 529 102T469 37T384
1T284 -10ZM341 909H466L330 773H245L341 909Z" />
<glyph unicode="&#x15b;" glyph-name="sacute" horiz-adv-x="483" d="M238 -10Q197 -10 166 -4T111 12T71 32T46 51V130Q56 120 73 109T114 87T168 71T237 64Q293 64 326 82T359 143Q359 166 349 180T320 202T279 216T229 226Q196 233 164 241T106 266T64 309T48
379Q48 449 102 489T255 529Q310 529 352 518T418 494V415Q392 432 354 443T258 455Q199 455 168 439T136 381Q136 360 145 348T169 328T205 316T247 307Q281 300 317 292T381 267T428 222T447 145Q447 100 429 70T382 23T315 -2T238 -10ZM271 746H386L255 588H180L271
746Z" />
<glyph unicode="&#x15c;" glyph-name="Scircumflex" horiz-adv-x="586" d="M284 -10Q235 -10 196 -4T128 13T78 36T45 61V151Q60 138 84 125T139 100T207 82T284 75Q362 75 408 104T454 194Q454 224 443 243T411 276T359 299T285 320Q243 331 201 345T126 382T72
440T51 529Q51 622 116 674T315 726Q354 726 384 722T438 711T479 696T511 681V591Q469 618 421 629T315 641Q267 641 235 634T182 612T153 578T144 533Q144 503 157 483T193 450T245 427T306 411Q348 401 392 388T471 352T528 293T551 198Q551 141 529 102T469
37T384 1T284 -10ZM304 848L224 763H149L254 911H354L459 763H384L304 848Z" />
<glyph unicode="&#x15d;" glyph-name="scircumflex" horiz-adv-x="483" d="M238 -10Q197 -10 166 -4T111 12T71 32T46 51V130Q56 120 73 109T114 87T168 71T237 64Q293 64 326 82T359 143Q359 166 349 180T320 202T279 216T229 226Q196 233 164 241T106 266T64
309T48 379Q48 449 102 489T255 529Q310 529 352 518T418 494V415Q392 432 354 443T258 455Q199 455 168 439T136 381Q136 360 145 348T169 328T205 316T247 307Q281 300 317 292T381 267T428 222T447 145Q447 100 429 70T382 23T315 -2T238 -10ZM236 673L156 588H81L186
736H286L391 588H316L236 673Z" />
<glyph unicode="&#x15e;" glyph-name="uni015E" horiz-adv-x="586" d="M284 -10Q235 -10 196 -4T128 13T78 36T45 61V151Q60 138 84 125T139 100T207 82T284 75Q362 75 408 104T454 194Q454 224 443 243T411 276T359 299T285 320Q243 331 201 345T126 382T72 440T51
529Q51 622 116 674T315 726Q354 726 384 722T438 711T479 696T511 681V591Q469 618 421 629T315 641Q267 641 235 634T182 612T153 578T144 533Q144 503 157 483T193 450T245 427T306 411Q348 401 392 388T471 352T528 293T551 198Q551 141 529 102T469 37T384
1T284 -10ZM349 20L290 -187H180L274 20H349Z" />
<glyph unicode="&#x15f;" glyph-name="uni015F" horiz-adv-x="483" d="M238 -10Q197 -10 166 -4T111 12T71 32T46 51V130Q56 120 73 109T114 87T168 71T237 64Q293 64 326 82T359 143Q359 166 349 180T320 202T279 216T229 226Q196 233 164 241T106 266T64 309T48
379Q48 449 102 489T255 529Q310 529 352 518T418 494V415Q392 432 354 443T258 455Q199 455 168 439T136 381Q136 360 145 348T169 328T205 316T247 307Q281 300 317 292T381 267T428 222T447 145Q447 100 429 70T382 23T315 -2T238 -10ZM301 20L242 -187H132L226
20H301Z" />
<glyph unicode="&#x160;" glyph-name="Scaron" horiz-adv-x="586" d="M535 -10Q486 -10 447 -4T379 13T329 36T296 61V151Q311 138 335 125T390 100T458 82T535 75Q613 75 659 104T705 194Q705 224 694 243T662 276T610 299T536 320Q494 331 452 345T377 382T323
440T302 529Q302 622 367 674T566 726Q605 726 635 722T689 711T730 696T762 681V591Q720 618 672 629T566 641Q518 641 486 634T433 612T404 578T395 533Q395 503 408 483T444 450T496 427T557 411Q599 401 643 388T722 352T779 293T802 198Q802 141 780 102T720
37T635 1T535 -10ZM343 763H243L138 911H213L293 826L373 911H448L343 763Z" />
<glyph unicode="&#x161;" glyph-name="scaron" horiz-adv-x="483" d="M488 -10Q447 -10 416 -4T361 12T321 32T296 51V130Q306 120 323 109T364 87T418 71T487 64Q543 64 576 82T609 143Q609 166 599 180T570 202T529 216T479 226Q446 233 414 241T356 266T314
309T298 379Q298 449 352 489T505 529Q560 529 602 518T668 494V415Q642 432 604 443T508 455Q449 455 418 439T386 381Q386 360 395 348T419 328T455 316T497 307Q531 300 567 292T631 267T678 222T697 145Q697 100 679 70T632 23T565 -2T488 -10ZM291 588H191L86
736H161L241 651L321 736H396L291 588Z" />
<glyph unicode="&#x162;" glyph-name="Tcommaaccent" horiz-adv-x="597" d="M346 630V0H251V630H30V717H567V630H346ZM354 -114Q354 -133 349 -149T334 -180T315 -206T294 -228H232Q248 -213 259 -196T285 -154Q267 -150 256 -137T244 -103Q244 -81 259 -66T297
-51Q320 -51 337 -66T354 -114Z" />
<glyph unicode="&#x163;" glyph-name="tcommaaccent" horiz-adv-x="371" d="M326 11Q310 2 285 -4T232 -10Q194 -10 168 1T124 30T100 72T92 121V444H30V519H92V628H180V519H331V444H180V132Q180 99 196 84T255 69Q294 69 326 91V11V11ZM513 -114Q513 -133 508
-149T493 -180T474 -206T453 -228H391Q407 -213 418 -196T444 -154Q426 -150 415 -137T403 -103Q403 -81 418 -66T456 -51Q479 -51 496 -66T513 -114Z" />
<glyph unicode="&#x164;" glyph-name="Tcaron" horiz-adv-x="597" d="M346 630V0H251V630H30V717H567V630H346ZM351 763H251L146 911H221L301 826L381 911H456L351 763Z" />
<glyph unicode="&#x165;" glyph-name="tcaron" horiz-adv-x="371" d="M326 11Q310 2 285 -4T232 -10Q194 -10 168 1T124 30T100 72T92 121V444H30V519H92V628H180V519H331V444H180V132Q180 99 196 84T255 69Q294 69 326 91V11V11ZM256 549L276 716H373L315 549H256Z" />
<glyph unicode="&#x166;" glyph-name="Tbar" horiz-adv-x="599" d="M80 431H251V630H30V717H567V630H346V431H516V356H346V0H251V356H80V431Z" />
<glyph unicode="&#x167;" glyph-name="tbar" horiz-adv-x="372" d="M327 11Q311 2 286 -4T233 -10Q195 -10 169 1T125 30T101 72T93 121V278H31V353H93V444H31V519H93V628H181V519H332V444H181V353H332V278H181V132Q181 99 197 84T256 69Q295 69 327 91V11Z" />
<glyph unicode="&#x168;" glyph-name="Utilde" horiz-adv-x="692" d="M67 717H162V245Q162 158 211 116T347 74Q389 74 424 84T486 116T526 170T541 245V717H631V248Q631 186 609 138T549 57T458 7T345 -10Q286 -10 235 6T147 54T88 133T67 244V717ZM178 784Q174
809 178 833T194 876T226 906T276 918Q302 918 322 910T360 891T391 872T421 863Q462 863 459 922H522Q526 897 522 873T506 830T474 800T424 788Q398 788 378 796T341 815T309 834T279 843Q238 843 242 784H178V784Z" />
<glyph unicode="&#x169;" glyph-name="utilde" horiz-adv-x="565" d="M405 93Q384 49 341 20T227 -10Q155 -10 111 30T66 156V519H155V156Q155 130 162 114T183 87T213 73T252 69Q310 69 345 95T405 166V519H493V0H415L407 93H405V93ZM117 598Q114 620 117 642T132
680T162 707T209 718Q233 718 252 712T287 698T316 684T344 677Q381 677 378 722H441Q444 699 441 678T426 640T395 613T349 602Q325 602 306 608T271 622T241 636T214 643Q177 643 180 598H117V598Z" />
<glyph unicode="&#x16a;" glyph-name="Umacron" horiz-adv-x="692" d="M67 717H162V245Q162 158 211 116T347 74Q389 74 424 84T486 116T526 170T541 245V717H631V248Q631 186 609 138T549 57T458 7T345 -10Q286 -10 235 6T147 54T88 133T67 244V717ZM191 878H501V808H191V878Z"
/>
<glyph unicode="&#x16b;" glyph-name="umacron" horiz-adv-x="565" d="M405 93Q384 49 341 20T227 -10Q155 -10 111 30T66 156V519H155V156Q155 130 162 114T183 87T213 73T252 69Q310 69 345 95T405 166V519H493V0H415L407 93H405V93ZM133 687H423V617H133V687Z" />
<glyph unicode="&#x16c;" glyph-name="Ubreve" horiz-adv-x="692" d="M67 717H162V245Q162 158 211 116T347 74Q389 74 424 84T486 116T526 170T541 245V717H631V248Q631 186 609 138T549 57T458 7T345 -10Q286 -10 235 6T147 54T88 133T67 244V717ZM346 763Q305
763 275 775T224 808T194 857T184 919H272Q272 870 291 849T346 828Q381 828 400 849T419 919H507Q507 886 497 858T467 808T417 775T346 763Z" />
<glyph unicode="&#x16d;" glyph-name="ubreve" horiz-adv-x="565" d="M405 93Q384 49 341 20T227 -10Q155 -10 111 30T66 156V519H155V156Q155 130 162 114T183 87T213 73T252 69Q310 69 345 95T405 166V519H493V0H415L407 93H405V93ZM277 588Q239 588 211 599T163
629T135 674T125 729H213Q213 687 230 670T277 652Q307 652 323 669T340 729H428Q428 700 419 674T391 629T344 599T277 588Z" />
<glyph unicode="&#x16e;" glyph-name="Uring" horiz-adv-x="692" d="M67 717H162V245Q162 158 211 116T347 74Q389 74 424 84T486 116T526 170T541 245V717H631V248Q631 186 609 138T549 57T458 7T345 -10Q286 -10 235 6T147 54T88 133T67 244V717ZM346 991Q298
991 267 1021T235 1100Q235 1148 266 1178T346 1209Q394 1209 425 1179T457 1100Q457 1052 426 1022T346 991ZM346 1046Q369 1046 384 1061T400 1100Q400 1124 385 1139T346 1155Q323 1155 308 1140T293 1100Q293 1076 308 1061T346 1046Z" />
<glyph unicode="&#x16f;" glyph-name="uring" horiz-adv-x="565" d="M405 93Q384 49 341 20T227 -10Q155 -10 111 30T66 156V519H155V156Q155 130 162 114T183 87T213 73T252 69Q310 69 345 95T405 166V519H493V0H415L407 93H405V93ZM279 571Q231 571 200 601T168
680Q168 728 199 758T279 789Q327 789 358 759T390 680Q390 632 359 602T279 571ZM279 626Q302 626 317 641T333 680Q333 704 318 719T279 735Q256 735 241 720T226 680Q226 656 241 641T279 626Z" />
<glyph unicode="&#x170;" glyph-name="Uhungarumlaut" horiz-adv-x="692" d="M67 717H162V245Q162 158 211 116T347 74Q389 74 424 84T486 116T526 170T541 245V717H631V248Q631 186 609 138T549 57T458 7T345 -10Q286 -10 235 6T147 54T88 133T67 244V717ZM200
773L264 909H375L280 773H200ZM398 773L462 909H573L478 773H398Z" />
<glyph unicode="&#x171;" glyph-name="uhungarumlaut" horiz-adv-x="565" d="M405 93Q384 49 341 20T227 -10Q155 -10 111 30T66 156V519H155V156Q155 130 162 114T183 87T213 73T252 69Q310 69 345 95T405 166V519H493V0H415L407 93H405V93ZM152 588L210 746H309L223
588H152ZM323 588L381 746H480L393 588H323Z" />
<glyph unicode="&#x172;" glyph-name="Uogonek" horiz-adv-x="692" d="M67 717H162V245Q162 158 211 116T347 74Q389 74 424 84T486 116T526 170T541 245V717H631V248Q631 186 609 138T549 57T458 7T345 -10Q286 -10 235 6T147 54T88 133T67 244V717ZM400 -192Q345
-192 315 -168T285 -101Q285 -80 292 -64T310 -35T335 -15T363 0H431Q404 -10 383 -30T361 -80Q361 -100 374 -114T417 -129Q437 -129 459 -121V-181Q452 -186 437 -189T400 -192Z" />
<glyph unicode="&#x173;" glyph-name="uogonek" horiz-adv-x="565" d="M521 -181Q513 -186 498 -189T462 -192Q403 -192 375 -164T346 -93Q346 -58 366 -33T415 6L407 93H405Q384 49 341 20T227 -10Q155 -10 111 30T66 156V519H155V156Q155 130 162 114T183 87T213
73T252 69Q310 69 345 95T405 166V519H493V0Q466 -10 445 -30T423 -80Q423 -100 435 -114T478 -129Q490 -129 500 -127T521 -121V-181V-181Z" />
<glyph unicode="&#x174;" glyph-name="Wcircumflex" horiz-adv-x="951" d="M772 0H634L476 554L317 0H178L20 717H118L254 81L438 717H524L704 93L839 717H930L772 0ZM479 848L399 763H324L429 911H529L634 763H559L479 848Z" />
<glyph unicode="&#x175;" glyph-name="wcircumflex" horiz-adv-x="785" d="M637 0H502L392 401L279 0H148L30 519H123L222 66L348 519H447L570 71L668 519H755L637 0ZM397 673L317 588H242L347 736H447L552 588H477L397 673Z" />
<glyph unicode="&#x176;" glyph-name="Ycircumflex" horiz-adv-x="624" d="M361 311V0H265V308L20 717H128L316 391L508 717H604L361 311ZM317 848L237 763H162L267 911H367L472 763H397L317 848Z" />
<glyph unicode="&#x177;" glyph-name="ycircumflex" horiz-adv-x="531" d="M327 6Q309 -41 289 -76T244 -137T188 -174T117 -187Q97 -187 80 -185T49 -176V-91Q60 -99 77 -103T114 -108Q151 -108 175 -91T221 -35L10 519H107L272 81L436 519H521L327 6V6ZM269
673L189 588H114L219 736H319L424 588H349L269 673Z" />
<glyph unicode="&#x178;" glyph-name="Ydieresis" horiz-adv-x="624" d="M361 311V0H265V308L20 717H128L316 391L508 717H604L361 311ZM211 786Q185 786 170 802T154 842Q154 866 169 882T211 899Q237 899 252 883T267 842Q267 819 252 803T211 786ZM426 786Q400
786 384 802T368 842Q368 866 384 882T426 899Q452 899 467 883T483 842Q483 819 468 803T426 786Z" />
<glyph unicode="&#x179;" glyph-name="Zacute" horiz-adv-x="614" d="M561 0H43V68L443 631H54V717H560V648L157 85H561V0ZM345 909H470L334 773H249L345 909Z" />
<glyph unicode="&#x17a;" glyph-name="zacute" horiz-adv-x="459" d="M419 0H35V57L308 444H43V519H418V462L145 75H419V0ZM267 746H382L251 588H176L267 746Z" />
<glyph unicode="&#x17b;" glyph-name="Zdotaccent" horiz-adv-x="614" d="M561 0H43V68L443 631H54V717H560V648L157 85H561V0ZM304 786Q278 786 263 802T247 842Q247 866 262 882T304 899Q330 899 345 883T361 842Q361 819 346 803T304 786Z" />
<glyph unicode="&#x17c;" glyph-name="zdotaccent" horiz-adv-x="459" d="M419 0H35V57L308 444H43V519H418V462L145 75H419V0ZM230 595Q204 595 189 611T173 651Q173 676 188 692T230 708Q256 708 271 692T287 651Q287 628 272 612T230 595Z" />
<glyph unicode="&#x17d;" glyph-name="Zcaron" horiz-adv-x="614" d="M561 0H43V68L443 631H54V717H560V648L157 85H561V0ZM369 763H269L164 911H239L319 826L399 911H474L369 763Z" />
<glyph unicode="&#x17e;" glyph-name="zcaron" horiz-adv-x="459" d="M419 0H35V57L308 444H43V519H418V462L145 75H419V0ZM281 588H181L76 736H151L231 651L311 736H386L281 588Z" />
<glyph unicode="&#x192;" glyph-name="uni0192" horiz-adv-x="550" d="M277 16Q243 -187 80 -187Q58 -187 40 -184T8 -177V-104Q17 -108 37 -112T78 -117Q129 -117 154 -84T192 22L249 363H159L174 434H261L276 523Q293 630 344 678T487 726Q501 726 515 725T544
721V641Q534 645 513 648T472 651Q447 651 429 645T398 623T377 584T362 523L347 434H490L475 363H335L277 16V16Z" />
<glyph unicode="&#x218;" glyph-name="uni0218" horiz-adv-x="586" d="M535 -10Q486 -10 447 -4T379 13T329 36T296 61V151Q311 138 335 125T390 100T458 82T535 75Q613 75 659 104T705 194Q705 224 694 243T662 276T610 299T536 320Q494 331 452 345T377 382T323
440T302 529Q302 622 367 674T566 726Q605 726 635 722T689 711T730 696T762 681V591Q720 618 672 629T566 641Q518 641 486 634T433 612T404 578T395 533Q395 503 408 483T444 450T496 427T557 411Q599 401 643 388T722 352T779 293T802 198Q802 141 780 102T720
37T635 1T535 -10ZM354 -114Q354 -133 349 -149T334 -180T315 -206T294 -228H232Q248 -213 259 -196T285 -154Q267 -150 256 -137T244 -103Q244 -81 259 -66T297 -51Q320 -51 337 -66T354 -114Z" />
<glyph unicode="&#x219;" glyph-name="uni0219" horiz-adv-x="483" d="M238 -10Q197 -10 166 -4T111 12T71 32T46 51V130Q56 120 73 109T114 87T168 71T237 64Q293 64 326 82T359 143Q359 166 349 180T320 202T279 216T229 226Q196 233 164 241T106 266T64 309T48
379Q48 449 102 489T255 529Q310 529 352 518T418 494V415Q392 432 354 443T258 455Q199 455 168 439T136 381Q136 360 145 348T169 328T205 316T247 307Q281 300 317 292T381 267T428 222T447 145Q447 100 429 70T382 23T315 -2T238 -10ZM304 -114Q304 -133 299
-149T284 -180T265 -206T244 -228H182Q198 -213 209 -196T235 -154Q217 -150 206 -137T194 -103Q194 -81 209 -66T247 -51Q270 -51 287 -66T304 -114Z" />
<glyph unicode="&#x21a;" glyph-name="uni021A" horiz-adv-x="597" d="M346 630V0H251V630H30V717H567V630H346ZM354 -114Q354 -133 349 -149T334 -180T315 -206T294 -228H232Q248 -213 259 -196T285 -154Q267 -150 256 -137T244 -103Q244 -81 259 -66T297 -51Q320
-51 337 -66T354 -114Z" />
<glyph unicode="&#x21b;" glyph-name="uni021B" horiz-adv-x="371" d="M326 11Q310 2 285 -4T232 -10Q194 -10 168 1T124 30T100 72T92 121V444H30V519H92V628H180V519H331V444H180V132Q180 99 196 84T255 69Q294 69 326 91V11V11ZM513 -114Q513 -133 508 -149T493
-180T474 -206T453 -228H391Q407 -213 418 -196T444 -154Q426 -150 415 -137T403 -103Q403 -81 418 -66T456 -51Q479 -51 496 -66T513 -114Z" />
<glyph unicode="&#x237;" glyph-name="uni0237" horiz-adv-x="239" d="M168 -44Q168 -73 160 -99T135 -144T90 -175T26 -187Q6 -187 -18 -183T-65 -166V-81Q-51 -92 -32 -100T11 -108Q49 -108 64 -90T80 -46V519H168V-44Z" />
<glyph unicode="&#x2bc;" glyph-name="uni02BC" horiz-adv-x="251" d="M190 651Q190 630 184 610T168 572T147 537T125 510H60Q75 527 88 550T111 604Q90 609 78 625T66 662Q66 688 82 704T127 721Q154 721 172 703T190 651Z" />
<glyph unicode="&#x2c6;" glyph-name="circumflex" horiz-adv-x="451" d="M225 673L145 588H70L175 736H275L380 588H305L225 673Z" />
<glyph unicode="&#x2c7;" glyph-name="caron" horiz-adv-x="451" d="M275 588H175L70 736H145L225 651L305 736H380L275 588Z" />
<glyph unicode="&#x2d8;" glyph-name="breve" horiz-adv-x="450" d="M225 588Q187 588 159 599T111 629T83 674T73 729H161Q161 687 178 670T225 652Q255 652 271 669T288 729H376Q376 700 367 674T339 629T292 599T225 588Z" />
<glyph unicode="&#x2d9;" glyph-name="dotaccent" horiz-adv-x="451" d="M225 595Q199 595 184 611T168 651Q168 676 183 692T225 708Q251 708 266 692T282 651Q282 628 267 612T225 595Z" />
<glyph unicode="&#x2da;" glyph-name="ring" horiz-adv-x="451" d="M225 571Q177 571 146 601T114 680Q114 728 145 758T225 789Q273 789 304 759T336 680Q336 632 305 602T225 571ZM225 626Q248 626 263 641T279 680Q279 704 264 719T225 735Q202 735 187 720T172
680Q172 656 187 641T225 626Z" />
<glyph unicode="&#x2db;" glyph-name="ogonek" horiz-adv-x="450" d="M246 -192Q191 -192 161 -168T131 -101Q131 -80 138 -64T156 -35T181 -15T209 0H277Q250 -10 229 -30T207 -80Q207 -100 220 -114T263 -129Q283 -129 305 -121V-181Q298 -186 283 -189T246 -192Z" />
<glyph unicode="&#x2dc;" glyph-name="tilde" horiz-adv-x="451" d="M63 598Q60 620 63 642T78 680T108 707T155 718Q179 718 198 712T233 698T262 684T290 677Q327 677 324 722H387Q390 699 387 678T372 640T341 613T295 602Q271 602 252 608T217 622T187 636T160
643Q123 643 126 598H63V598Z" />
<glyph unicode="&#x2dd;" glyph-name="hungarumlaut" horiz-adv-x="451" d="M80 588L138 746H237L151 588H80ZM251 588L309 746H408L321 588H251Z" />
<glyph unicode="&#x300;" glyph-name="gravecomb" horiz-adv-x="0" d="M-216 588L-347 746H-232L-141 588H-216Z" />
<glyph unicode="&#x301;" glyph-name="acutecomb" horiz-adv-x="0" d="M-220 746H-105L-236 588H-311L-220 746Z" />
<glyph unicode="&#x302;" glyph-name="circumflexcomb" horiz-adv-x="0" d="M-226 673L-306 588H-381L-276 736H-176L-71 588H-146L-226 673Z" />
<glyph unicode="&#x303;" glyph-name="tildecomb" horiz-adv-x="0" d="M-388 598Q-391 620 -388 642T-373 680T-343 707T-296 718Q-272 718 -253 712T-218 698T-189 684T-161 677Q-124 677 -127 722H-64Q-61 699 -64 678T-79 640T-110 613T-156 602Q-180 602 -199
608T-234 622T-264 636T-291 643Q-328 643 -325 598H-388Z" />
<glyph unicode="&#x304;" glyph-name="macroncomb" horiz-adv-x="0" d="M-371 687H-81V617H-371V687Z" />
<glyph unicode="&#x306;" glyph-name="brevecomb" horiz-adv-x="0" d="M-225 588Q-263 588 -291 599T-339 629T-367 674T-377 729H-289Q-289 687 -272 670T-225 652Q-195 652 -179 669T-162 729H-74Q-74 700 -83 674T-111 629T-158 599T-225 588Z" />
<glyph unicode="&#x308;" glyph-name="dieresiscomb" horiz-adv-x="0" d="M-329 595Q-354 595 -370 611T-386 651Q-386 676 -370 692T-329 708Q-303 708 -288 692T-272 651Q-272 628 -287 612T-329 595ZM-123 595Q-149 595 -164 611T-180 651Q-180 676 -165 692T-123
708Q-97 708 -82 692T-66 651Q-66 628 -81 612T-123 595Z" />
<glyph unicode="&#x30c;" glyph-name="caroncomb" horiz-adv-x="0" d="M-176 588H-276L-381 736H-306L-226 651L-146 736H-71L-176 588Z" />
<glyph unicode="&#x401;" glyph-name="uni0401" horiz-adv-x="598" d="M400 772Q375 772 360 788T344 830Q344 854 359 870T400 887Q426 887 441 871T456 830Q456 805 441 789T400 772ZM211 772Q185 772 170 788T155 830Q155 854 170 870T211 887Q237 887 252
871T267 830Q267 805 252 789T211 772ZM84 717H528V631H178V414H475V329H178V85H533V0H84V717Z" />
<glyph unicode="&#x402;" glyph-name="uni0402" horiz-adv-x="800" d="M346 630V416Q368 429 401 439Q444 452 493 452Q554 452 603 434T687 379T740 290T759 166Q759 24 688 -51T493 -126V-41Q582 -41 623 12T664 166Q664 263 622 315T491 367Q444 367 404 356Q372
347 346 329V0H251V630H30V717H567V630H346Z" />
<glyph unicode="&#x403;" glyph-name="uni0403" horiz-adv-x="544" d="M317 909H442L306 773H221L317 909ZM84 717H502V631H178V0H84V717Z" />
<glyph unicode="&#x404;" glyph-name="uni0404" horiz-adv-x="679" d="M619 51Q590 28 535 9T402 -10Q321 -10 255 15T141 87T68 203T42 358Q42 445 65 513T134 628T245 701T397 726Q470 726 526 711T617 674V584Q570 613 512 627T396 641Q278 641 217 583T146
406H483V322H145Q153 197 219 136T409 75Q466 75 518 90T619 141V51V51Z" />
<glyph unicode="&#x405;" glyph-name="uni0405" horiz-adv-x="578" d="M284 -10Q235 -10 196 -4T128 13T78 36T45 61V151Q60 138 84 125T139 100T207 82T284 75Q362 75 408 104T454 194Q454 224 443 243T411 276T359 299T285 320Q243 331 201 345T126 382T72 440T51
529Q51 622 116 674T315 726Q354 726 384 722T438 711T479 696T511 681V591Q469 618 421 629T315 641Q267 641 235 634T182 612T153 578T144 533Q144 503 157 483T193 450T245 427T306 411Q348 401 392 388T471 352T528 293T551 198Q551 141 529 102T469 37T384
1T284 -10Z" />
<glyph unicode="&#x406;" glyph-name="uni0406" horiz-adv-x="261" d="M178 717V0H84V717H178Z" />
<glyph unicode="&#x407;" glyph-name="uni0407" horiz-adv-x="261" d="M178 717V0H84V717H178ZM279 786Q253 786 238 802T222 842Q222 866 237 882T279 899Q305 899 320 883T335 842Q335 819 320 803T279 786ZM494 786Q468 786 452 802T436 842Q436 866 452 882T494
899Q520 899 535 883T551 842Q551 819 536 803T494 786Z" />
<glyph unicode="&#x408;" glyph-name="uni0408" horiz-adv-x="373" d="M293 717V133Q293 106 283 80T253 34T201 2T126 -10Q100 -10 74 -6T25 7V88Q63 75 104 75Q153 75 175 95T198 161V717H293Z" />
<glyph unicode="&#x409;" glyph-name="uni0409" horiz-adv-x="1028" d="M976 227Q976 165 957 122T904 52T821 13T716 0H493V631H244Q241 484 236 378T217 197Q208 157 195 121T161 56T108 12T34 -5Q31 -5 28 -5T20 -4V91Q24 90 32 90Q73 91 97 129T133 244T149
440T155 717H588V439H729Q850 439 913 389T976 227ZM588 355V85H716Q751 85 780 92T831 115T865 157T877 223Q877 355 726 355H588Z" />
<glyph unicode="&#x40a;" glyph-name="uni040A" horiz-adv-x="1061" d="M1009 227Q1009 165 990 122T937 52T854 13T749 0H526V355H178V0H84V717H178V439H526V717H621V439H762Q882 439 945 389T1009 227ZM621 355V85H749Q784 85 813 92T864 115T898 157T910 223Q910
289 872 322T759 355H621Z" />
<glyph unicode="&#x40b;" glyph-name="uni040B" horiz-adv-x="780" d="M346 630V415Q367 427 399 438Q440 452 502 452Q552 452 593 439T665 396T712 321T729 210V0H633V205Q633 252 623 283T594 333T551 359T497 367Q450 367 409 356Q374 347 346 330V0H251V630H30V717H567V630H346Z"
/>
<glyph unicode="&#x40c;" glyph-name="uni040C" horiz-adv-x="641" d="M254 307H178V0H84V717H178V392H248L504 717H610L327 359L621 0H504L254 307ZM347 909H472L336 773H251L347 909Z" />
<glyph unicode="&#x40e;" glyph-name="uni040E" horiz-adv-x="631" d="M336 756Q294 756 263 767T210 798T179 844T169 902H257Q257 858 278 840T336 821Q373 821 393 839T414 902H502Q502 871 492 845T461 799T409 768T336 756ZM389 194Q369 147 347 111T298
49T237 12T157 -1Q152 -1 147 -1T137 0V94Q142 93 147 93T158 93Q211 93 241 117T292 177L26 717H133L340 285L519 717H616L389 194Z" />
<glyph unicode="&#x40f;" glyph-name="uni040F" horiz-adv-x="724" d="M641 0H409L405 -170H320L316 0H84V717H178V85H546V717H641V0Z" />
<glyph unicode="&#x410;" glyph-name="uni0410" horiz-adv-x="692" d="M275 717H415L672 0H572L498 205H181L108 0H20L275 717ZM468 290L340 647L212 290H468Z" />
<glyph unicode="&#x411;" glyph-name="uni0411" horiz-adv-x="621" d="M84 717H521V631H178V429H320Q439 429 503 380T567 222Q567 162 548 120T495 51T412 12T306 0H84V717ZM178 344V85H306Q342 85 371 91T422 114T456 155T468 218Q468 282 429 313T317 344H178Z" />
<glyph unicode="&#x412;" glyph-name="uni0412" horiz-adv-x="645" d="M84 717H327Q445 717 506 677T568 542Q568 503 558 475T529 426T484 392T425 372Q509 362 551 324T594 207Q594 151 574 112T517 48T432 12T325 0H84V717ZM178 631V411H320Q354 411 382 418T430
441T461 480T473 537Q473 592 435 611T327 631H178ZM178 326V85H325Q363 85 394 91T447 111T482 148T495 205Q495 273 452 299T314 326H178Z" />
<glyph unicode="&#x413;" glyph-name="uni0413" horiz-adv-x="544" d="M84 717H502V631H178V0H84V717Z" />
<glyph unicode="&#x414;" glyph-name="uni0414" horiz-adv-x="763" d="M631 85H723V-170H636L626 0H111L100 -170H15V85H64Q98 116 118 168T150 298T166 479T174 717H631V85ZM536 85V631H262Q259 517 254 430T238 276T212 164T173 85H536Z" />
<glyph unicode="&#x415;" glyph-name="uni0415" horiz-adv-x="598" d="M84 717H528V631H178V414H475V329H178V85H533V0H84V717Z" />
<glyph unicode="&#x416;" glyph-name="uni0416" horiz-adv-x="949" d="M423 315H380L130 0H18L309 365L31 717H133L383 394H423V717H518V394H560L810 717H913L633 363L926 0H811L559 315H518V0H423V315Z" />
<glyph unicode="&#x417;" glyph-name="uni0417" horiz-adv-x="605" d="M179 328V408H280Q355 408 394 440T433 530Q433 591 392 616T284 642Q215 642 160 627T63 590V679Q96 696 149 711T285 726Q397 726 463 680T529 536Q529 473 492 432T382 374Q467 363 510
323T554 207Q554 150 532 109T473 41T384 3T276 -10Q195 -10 137 9T52 52V142Q145 75 273 75Q310 75 343 81T401 103T440 143T455 205Q455 273 412 300T282 328H179Z" />
<glyph unicode="&#x418;" glyph-name="uni0418" horiz-adv-x="757" d="M178 125L572 717H674V0H578V589L186 0H84V717H178V125Z" />
<glyph unicode="&#x419;" glyph-name="uni0419" horiz-adv-x="757" d="M370 756Q328 756 297 767T244 798T213 844T203 902H291Q291 858 312 840T370 821Q407 821 427 839T448 902H536Q536 871 526 845T496 799T444 768T370 756ZM178 125L572 717H674V0H578V589L186
0H84V717H178V125Z" />
<glyph unicode="&#x41a;" glyph-name="uni041A" horiz-adv-x="641" d="M254 307H178V0H84V717H178V392H248L504 717H610L327 359L621 0H504L254 307Z" />
<glyph unicode="&#x41b;" glyph-name="uni041B" horiz-adv-x="680" d="M128 217Q143 292 148 416T155 717H597V0H502V631H244Q241 484 236 378T217 197Q208 157 195 121T161 56T108 12T34 -5Q31 -5 28 -5T20 -4V91Q24 90 32 90Q74 91 95 126T128 217Z" />
<glyph unicode="&#x41c;" glyph-name="uni041C" horiz-adv-x="876" d="M438 214L671 717H793V0H698V577L478 110L431 109H389L390 110L173 585V0H84V717H215L438 214Z" />
<glyph unicode="&#x41d;" glyph-name="uni041D" horiz-adv-x="723" d="M801 313H433V0H339V717H433V398H801V717H896V0H801V313Z" />
<glyph unicode="&#x41e;" glyph-name="uni041E" horiz-adv-x="770" d="M385 -10Q313 -10 250 14T141 86T69 202T42 361Q42 451 68 519T141 633T250 702T385 726Q458 726 521 703T630 633T702 519T728 360Q728 271 702 202T630 86T521 15T385 -10ZM385 75Q437 75
481 90T557 139T608 227T627 358Q627 435 609 489T558 576T481 625T385 641Q333 641 289 626T213 577T162 489T143 358Q143 281 161 227T212 140T289 91T385 75Z" />
<glyph unicode="&#x41f;" glyph-name="uni041F" horiz-adv-x="706" d="M84 717H623V0H528V631H178V0H84V717Z" />
<glyph unicode="&#x420;" glyph-name="uni0420" horiz-adv-x="610" d="M84 717H313Q435 717 502 667T570 509Q570 448 551 405T496 333T413 292T305 279H178V0H84V717ZM178 631V364H305Q343 364 374 372T427 397T462 441T475 508Q475 573 433 602T313 631H178Z" />
<glyph unicode="&#x421;" glyph-name="uni0421" horiz-adv-x="671" d="M395 -10Q315 -10 250 15T139 87T67 203T42 358Q42 445 65 513T133 628T243 701T393 726Q466 726 521 711T611 674V584Q566 613 508 627T392 641Q265 641 205 571T144 358Q144 215 209 145T403
75Q458 75 510 90T611 141V51Q582 28 527 9T395 -10Z" />
<glyph unicode="&#x422;" glyph-name="uni0422" horiz-adv-x="597" d="M346 630V0H251V630H30V717H567V630H346Z" />
<glyph unicode="&#x423;" glyph-name="uni0423" horiz-adv-x="631" d="M389 194Q369 147 347 111T298 49T237 12T157 -1Q152 -1 147 -1T137 0V94Q142 93 147 93T158 93Q211 93 241 117T292 177L26 717H133L340 285L519 717H616L389 194Z" />
<glyph unicode="&#x424;" glyph-name="uni0424" horiz-adv-x="819" d="M141 359Q141 305 158 268T204 207T274 172T362 159V558Q315 556 275 545T205 510T158 450T141 359ZM678 357Q678 411 661 448T615 509T545 544T457 557V158Q504 160 544 171T614 205T661
266T678 357ZM457 725V633Q525 631 583 614T685 562T752 478T777 360Q777 293 753 242T685 157T584 104T457 84V-10H362V84Q294 85 236 103T134 154T67 238T42 356Q42 423 66 474T134 559T235 612T362 633V725H457Z" />
<glyph unicode="&#x425;" glyph-name="uni0425" horiz-adv-x="640" d="M316 309L105 0H5L267 377L39 717H152L334 443L514 717H614L382 378L635 0H523L316 309Z" />
<glyph unicode="&#x426;" glyph-name="uni0426" horiz-adv-x="756" d="M623 85H717V-170H629L618 0H84V717H178V85H528V717H623V85Z" />
<glyph unicode="&#x427;" glyph-name="uni0427" horiz-adv-x="684" d="M601 0H506V313Q425 263 328 263Q204 263 137 324T70 517V717H165V517Q165 432 206 388T329 343Q378 343 423 354T506 393V717H601V0Z" />
<glyph unicode="&#x428;" glyph-name="uni0428" horiz-adv-x="951" d="M867 0H84V717H178V85H426V717H523V85H772V717H867V0Z" />
<glyph unicode="&#x429;" glyph-name="uni0429" horiz-adv-x="999" d="M867 85H957V-170H871L860 0H84V717H178V85H426V717H523V85H772V717H867V85Z" />
<glyph unicode="&#x42a;" glyph-name="uni042A" horiz-adv-x="746" d="M33 717H308V439H451Q569 439 633 389T697 227Q697 165 678 122T625 52T542 13T436 0H213V631H33V717ZM308 355V85H436Q472 85 501 92T552 115T586 157T598 223Q598 290 559 322T446 355H308Z" />
<glyph unicode="&#x42b;" glyph-name="uni042B" horiz-adv-x="841" d="M567 227Q567 165 548 122T495 52T412 13T306 0H84V717H178V439H320Q439 439 503 389T567 227ZM758 716V0H663V716H758ZM178 355V85H306Q342 85 371 92T422 115T456 157T468 223Q468 290 429
322T317 355H178Z" />
<glyph unicode="&#x42c;" glyph-name="uni042C" horiz-adv-x="619" d="M567 227Q567 165 548 122T495 52T412 13T306 0H84V717H178V439H320Q439 439 503 389T567 227ZM178 355V85H306Q342 85 371 92T422 115T456 157T468 223Q468 289 429 322T317 355H178Z" />
<glyph unicode="&#x42d;" glyph-name="uni042D" horiz-adv-x="671" d="M629 358Q629 272 603 204T530 88T417 15T269 -10Q192 -10 137 9T52 51V141Q101 105 153 90T262 75Q385 75 451 136T526 322H189V406H525Q515 524 455 582T280 641Q224 641 168 627T65 584V674Q100
695 154 710T279 726Q363 726 428 701T538 629T606 513T629 358Z" />
<glyph unicode="&#x42e;" glyph-name="uni042E" horiz-adv-x="970" d="M928 361Q928 271 903 202T835 86T732 15T605 -10Q540 -10 484 10T385 71T316 172T283 313H178V0H84V717H178V398H284Q290 477 316 538T385 641T484 704T605 726Q673 726 732 703T834 634T903
520T928 361ZM605 75Q653 75 693 90T763 139T810 227T827 358Q827 435 810 489T764 576T694 625T605 641Q557 641 517 626T447 577T401 489T384 358Q384 281 400 227T446 140T516 91T605 75Z" />
<glyph unicode="&#x42f;" glyph-name="uni042F" horiz-adv-x="646" d="M79 503Q79 560 98 600T151 667T234 705T340 717H563V0H468V287H338L140 0H25L242 304Q163 321 121 369T79 503ZM468 372V631H340Q304 631 275 625T224 603T190 564T178 503Q178 435 217 404T330
372H468Z" />
<glyph unicode="&#x430;" glyph-name="uni0430" horiz-adv-x="526" d="M376 99Q367 81 353 62T318 26T269 0T202 -10Q132 -10 89 29T46 143Q46 228 105 268T275 308H372V351Q372 405 344 428T248 451Q200 451 157 436T80 400V479Q108 496 155 512T260 529Q358
529 409 489T460 363V84Q460 75 460 64T461 40T463 18T465 0H385Q382 14 380 39T377 84L376 99ZM221 69Q262 69 291 86T338 125T364 169T372 200V238H284Q205 238 170 216T134 148Q134 113 155 91T221 69Z" />
<glyph unicode="&#x431;" glyph-name="uni0431" horiz-adv-x="578" d="M540 260Q540 195 521 145T468 61T388 8T288 -10Q233 -10 187 8T108 65T57 161T38 298Q38 363 42 422T60 531T100 622T172 690Q197 705 224 712T278 724T334 729T389 731Q429 734 456 741T504
760V680Q482 666 458 661T398 651Q341 646 294 644T207 621Q157 593 137 538T111 406Q163 526 307 526Q356 526 398 509T472 457T522 374T540 260ZM288 69Q323 69 352 80T404 115T438 175T450 260Q450 309 438 345T404 404T353 439T288 451Q219 451 174 405T128
263Q128 213 140 177T173 116T224 81T288 69Z" />
<glyph unicode="&#x432;" glyph-name="uni0432" horiz-adv-x="537" d="M72 519H266Q360 519 408 487T456 385Q456 339 433 312T366 272Q477 254 477 149Q477 109 461 81T417 34T350 8T264 0H72V519ZM160 444V303H258Q308 303 338 321T369 373Q369 414 342 429T265
444H160ZM160 233V75H263Q291 75 313 78T352 91T378 115T387 152Q387 197 356 215T263 233H160Z" />
<glyph unicode="&#x433;" glyph-name="uni0433" horiz-adv-x="437" d="M72 519H402V444H160V0H72V519Z" />
<glyph unicode="&#x434;" glyph-name="uni0434" horiz-adv-x="587" d="M44 75Q72 92 88 128T113 219T125 349T132 519H489V75H567V-148H490L479 0H93L84 -148H5V75H44ZM401 75V444H211Q206 297 193 209T146 75H401Z" />
<glyph unicode="&#x435;" glyph-name="uni0435" horiz-adv-x="538" d="M485 44Q474 36 458 27T419 10T367 -4T302 -10Q171 -10 103 61T35 260Q35 323 53 373T105 457T183 510T281 529Q337 529 381 510T453 454T492 363T492 236H126Q131 152 176 111T310 69Q370
69 413 86T485 123V44ZM279 451Q222 451 181 416T129 310H408Q412 382 375 416T279 451Z" />
<glyph unicode="&#x436;" glyph-name="uni0436" horiz-adv-x="762" d="M425 519V296H472L637 519H734L541 265L741 0H634L468 221H425V0H337V221H293L125 0H21L221 262L28 519H129L291 296H337V519H425Z" />
<glyph unicode="&#x437;" glyph-name="uni0437" horiz-adv-x="497" d="M440 151Q440 107 423 77T375 27T306 -1T223 -10Q166 -10 123 2T54 31V110Q85 91 128 80T221 69Q278 69 316 87T355 151Q355 195 323 213T223 231H154V302H226Q281 302 310 322T339 380Q339
400 330 413T304 435T267 447T221 451Q175 451 136 440T64 409V488Q90 505 131 517T228 529Q323 529 371 493T420 389Q420 338 393 309T315 269Q377 261 408 230T440 151Z" />
<glyph unicode="&#x438;" glyph-name="uni0438" horiz-adv-x="598" d="M160 120L437 519H526V0H438V398L162 0H72V519H160V120Z" />
<glyph unicode="&#x439;" glyph-name="uni0439" horiz-adv-x="598" d="M301 588Q261 588 232 598T183 627T154 670T144 724H232Q232 686 250 669T301 652Q333 652 351 669T369 724H457Q457 667 419 628T301 588ZM160 120L437 519H526V0H438V398L162 0H72V519H160V120Z" />
<glyph unicode="&#x43a;" glyph-name="uni043A" horiz-adv-x="517" d="M206 221H160V0H72V519H160V296H210L392 519H492L279 263L496 0H389L206 221Z" />
<glyph unicode="&#x43b;" glyph-name="uni043B" horiz-adv-x="554" d="M112 161Q126 212 130 299T134 519H483V0H394V444H217Q216 337 211 254T188 114T137 28T47 -2Q43 -2 39 -2T30 -1V86Q35 85 43 85Q94 85 112 161Z" />
<glyph unicode="&#x43c;" glyph-name="uni043C" horiz-adv-x="726" d="M567 417L391 58H321L155 419V0H72V519H203L362 171L532 519H654V0H567V417Z" />
<glyph unicode="&#x43d;" glyph-name="uni043D" horiz-adv-x="571" d="M411 230H160V0H72V519H160V305H411V519H499V0H411V230Z" />
<glyph unicode="&#x43e;" glyph-name="uni043E" horiz-adv-x="572" d="M285 -10Q232 -10 186 8T107 60T54 145T35 260Q35 324 54 374T106 459T186 511T285 529Q339 529 385 511T464 459T517 375T537 260Q537 195 518 145T465 61T385 8T285 -10ZM285 69Q320 69
349 80T401 115T435 175T447 260Q447 309 435 345T401 404T350 439T285 451Q250 451 221 440T171 405T137 345T125 260Q125 211 137 175T170 116T221 81T285 69Z" />
<glyph unicode="&#x43f;" glyph-name="uni043F" horiz-adv-x="560" d="M72 519H488V0H400V444H160V0H72V519Z" />
<glyph unicode="&#x440;" glyph-name="uni0440" horiz-adv-x="600" d="M333 -10Q273 -10 230 18T160 95V-177H72V519H149L158 418Q184 469 228 499T337 529Q382 529 423 513T496 463T546 379T565 260Q565 191 546 141T495 57T421 7T333 -10ZM320 69Q389 69 431
116T474 260Q474 354 432 402T320 451Q286 451 257 439T206 404T172 344T159 260Q159 212 171 176T205 116T256 81T320 69Z" />
<glyph unicode="&#x441;" glyph-name="uni0441" horiz-adv-x="500" d="M296 -10Q236 -10 188 8T105 61T53 146T35 260Q35 323 53 373T106 457T189 510T300 529Q348 529 388 519T454 488V409Q422 430 383 440T301 451Q210 451 168 404T125 260Q125 163 166 116T296
69Q343 69 382 80T454 110V31Q426 14 387 2T296 -10Z" />
<glyph unicode="&#x442;" glyph-name="uni0442" horiz-adv-x="477" d="M281 444V0H193V444H30V519H447V444H281Z" />
<glyph unicode="&#x443;" glyph-name="uni0443" horiz-adv-x="536" d="M327 6Q309 -41 289 -76T244 -137T188 -174T117 -187Q97 -187 80 -185T49 -176V-91Q60 -99 77 -103T114 -108Q151 -108 175 -91T221 -35L10 519H107L272 81L436 519H521L327 6V6Z" />
<glyph unicode="&#x444;" glyph-name="uni0444" horiz-adv-x="716" d="M680 260Q680 195 658 146T599 63T510 12T402 -8V-177H314V-8Q255 -6 205 12T116 63T57 146T35 260Q35 324 57 373T117 456T205 507T314 527V727H402V527Q460 525 510 507T598 456T658 373T680
260ZM590 260Q590 308 576 343T536 401T476 436T402 451V69Q442 71 476 83T536 119T575 177T590 260ZM125 260Q125 212 139 177T179 119T239 83T314 69V451Q273 449 239 437T179 401T140 342T125 260Z" />
<glyph unicode="&#x445;" glyph-name="uni0445" horiz-adv-x="503" d="M247 206L107 0H15L203 269L37 519H139L263 336L388 519H479L307 271L488 0H386L247 206Z" />
<glyph unicode="&#x446;" glyph-name="uni0446" horiz-adv-x="601" d="M495 0H72V519H160V75H415V519H503V75H581V-148H506L495 0Z" />
<glyph unicode="&#x447;" glyph-name="uni0447" horiz-adv-x="546" d="M474 0H386V228Q359 207 324 196T243 184Q155 184 109 227T62 367V519H151V366Q151 305 179 281T258 257Q293 257 326 267T386 298V519H474V0Z" />
<glyph unicode="&#x448;" glyph-name="uni0448" horiz-adv-x="792" d="M720 0H72V519H160V75H352V519H440V75H632V519H720V0Z" />
<glyph unicode="&#x449;" glyph-name="uni0449" horiz-adv-x="818" d="M720 75H798V-148H723L712 0H72V519H160V75H352V519H440V75H632V519H720V75Z" />
<glyph unicode="&#x44a;" glyph-name="uni044A" horiz-adv-x="591" d="M30 519H251V338H340Q439 338 495 299T551 173Q551 128 535 95T490 41T421 10T334 0H162V444H30V519ZM251 263V75H334Q391 75 426 96T462 168Q462 219 430 241T340 263H251Z" />
<glyph unicode="&#x44b;" glyph-name="uni044B" horiz-adv-x="691" d="M456 173Q456 128 440 95T395 41T326 10T239 0H72V519H160V338H245Q344 338 400 299T456 173ZM619 0H531V519H619V0ZM160 263V75H239Q296 75 331 96T367 168Q367 219 335 241T245 263H160Z" />
<glyph unicode="&#x44c;" glyph-name="uni044C" horiz-adv-x="498" d="M458 173Q458 128 442 95T397 41T328 10T241 0H69V519H157V338H247Q346 338 402 299T458 173ZM157 263V75H241Q298 75 333 96T369 168Q369 219 337 241T247 263H157Z" />
<glyph unicode="&#x44d;" glyph-name="uni044D" horiz-adv-x="498" d="M463 260Q463 196 445 146T393 62T311 9T202 -10Q151 -10 112 2T44 31V110Q76 92 115 81T202 69Q283 69 324 108T372 229H148V304H371Q363 378 324 414T205 451Q163 451 125 441T54 409V488Q80
508 121 518T210 529Q334 529 398 459T463 260Z" />
<glyph unicode="&#x44e;" glyph-name="uni044E" horiz-adv-x="762" d="M727 260Q727 195 709 145T658 61T581 8T485 -10Q437 -10 395 6T322 52T270 128T246 230H160V0H72V519H160V305H248Q254 359 274 400T325 470T397 514T485 529Q537 529 581 511T657 459T708
375T727 260ZM485 69Q518 69 545 80T593 115T624 175T636 260Q636 309 625 345T593 404T546 439T485 451Q453 451 426 440T378 405T347 345T335 260Q335 211 346 175T378 116T425 81T485 69Z" />
<glyph unicode="&#x44f;" glyph-name="uni044F" horiz-adv-x="528" d="M72 351Q72 395 88 426T133 478T202 509T289 519H456V0H368V188H273L140 0H35L185 210Q131 226 102 259T72 351ZM368 263V444H289Q233 444 197 423T161 355Q161 306 193 285T284 263H368Z" />
<glyph unicode="&#x451;" glyph-name="uni0451" horiz-adv-x="538" d="M372 621Q346 621 331 637T315 677Q315 701 330 717T372 734Q398 734 413 718T429 677Q429 654 414 638T372 621ZM184 621Q159 621 143 637T127 677Q127 701 143 717T184 734Q210 734 225
718T241 677Q241 654 226 638T184 621ZM485 44Q474 36 458 27T419 10T367 -4T302 -10Q171 -10 103 61T35 260Q35 323 53 373T105 457T183 510T281 529Q337 529 381 510T453 454T492 363T492 236H126Q131 152 176 111T310 69Q370 69 413 86T485 123V44ZM279 451Q222
451 181 416T129 310H408Q412 382 375 416T279 451Z" />
<glyph unicode="&#x452;" glyph-name="uni0452" horiz-adv-x="575" d="M508 -44Q508 -73 500 -99T475 -144T430 -175T366 -187Q346 -187 322 -183T275 -166V-81Q289 -92 308 -100T351 -108Q389 -108 404 -90T420 -46V355Q420 409 393 430T318 451Q258 451 221
424T160 353V0H72V576H-8V641H72V717H160V641H310V576H160V519L158 426H160Q181 470 226 499T340 529Q417 529 462 489T508 364V-44V-44Z" />
<glyph unicode="&#x453;" glyph-name="uni0453" horiz-adv-x="437" d="M72 519H402V444H160V0H72V519ZM242 746H357L226 588H151L242 746Z" />
<glyph unicode="&#x454;" glyph-name="uni0454" horiz-adv-x="489" d="M454 31Q426 14 387 2T296 -10Q236 -10 188 8T105 61T53 146T35 260Q35 388 99 458T288 529Q336 529 377 519T444 488V409Q379 451 293 451Q214 451 175 415T127 304H351V229H126Q132 148
173 109T296 69Q343 69 382 80T454 110V31V31Z" />
<glyph unicode="&#x455;" glyph-name="uni0455" horiz-adv-x="493" d="M238 -10Q197 -10 166 -4T111 12T71 32T46 51V130Q56 120 73 109T114 87T168 71T237 64Q293 64 326 82T359 143Q359 166 349 180T320 202T279 216T229 226Q196 233 164 241T106 266T64 309T48
379Q48 449 102 489T255 529Q310 529 352 518T418 494V415Q392 432 354 443T258 455Q199 455 168 439T136 381Q136 360 145 348T169 328T205 316T247 307Q281 300 317 292T381 267T428 222T447 145Q447 100 429 70T382 23T315 -2T238 -10Z" />
<glyph unicode="&#x456;" glyph-name="uni0456" horiz-adv-x="231" d="M117 595Q90 595 74 611T58 652Q58 676 74 693T117 710Q143 710 158 693T173 652Q173 628 158 612T117 595ZM160 519V0H72V519H160Z" />
<glyph unicode="&#x457;" glyph-name="uni0457" horiz-adv-x="232" d="M42 595Q16 595 1 611T-15 652Q-15 678 0 694T42 710Q68 710 84 694T101 652Q101 628 85 612T42 595ZM190 595Q164 595 148 611T132 652Q132 678 148 694T190 710Q216 710 231 694T247 652Q247
628 232 612T190 595ZM160 519V0H72V519H160Z" />
<glyph unicode="&#x458;" glyph-name="uni0458" horiz-adv-x="239" d="M124 595Q98 595 82 611T66 652Q66 676 82 693T124 710Q150 710 165 693T181 652Q181 628 166 612T124 595ZM168 -44Q168 -73 160 -99T135 -144T90 -175T26 -187Q6 -187 -18 -183T-65 -166V-81Q-51
-92 -32 -100T11 -108Q49 -108 64 -90T80 -46V519H168V-44Z" />
<glyph unicode="&#x459;" glyph-name="uni0459" horiz-adv-x="812" d="M773 173Q773 128 757 95T711 41T642 10T556 0H384V444H217Q216 337 211 254T188 114T137 28T47 -2Q43 -2 39 -2T30 -1V86Q35 85 43 85Q72 85 90 109T117 186T130 321T134 519H472V338H562Q661
338 717 299T773 173ZM472 263V75H556Q613 75 648 96T684 168Q684 219 652 241T562 263H472Z" />
<glyph unicode="&#x45a;" glyph-name="uni045A" horiz-adv-x="829" d="M790 168Q790 124 774 93T729 41T660 10T573 0H401V253H160V0H72V519H160V328H401V519H489V328H578Q677 328 733 290T790 168ZM489 253V75H573Q629 75 665 95T701 163Q701 211 669 232T578 253H489Z" />
<glyph unicode="&#x45b;" glyph-name="uni045B" horiz-adv-x="575" d="M318 451Q258 451 221 424T160 353V0H72V576H-8V641H72V717H160V641H310V576H160V519L158 426H160Q181 470 226 499T340 529Q417 529 462 489T508 364V0H420V355Q420 409 393 430T318 451Z" />
<glyph unicode="&#x45c;" glyph-name="uni045C" horiz-adv-x="517" d="M206 221H160V0H72V519H160V296H210L392 519H492L279 263L496 0H389L206 221ZM277 746H392L261 588H186L277 746Z" />
<glyph unicode="&#x45e;" glyph-name="uni045E" horiz-adv-x="536" d="M280 588Q240 588 211 598T162 627T133 670T123 724H211Q211 686 229 669T280 652Q312 652 330 669T348 724H436Q436 667 398 628T280 588ZM327 6Q309 -41 289 -76T244 -137T188 -174T117
-187Q97 -187 80 -185T49 -176V-91Q60 -99 77 -103T114 -108Q151 -108 175 -91T221 -35L10 519H107L272 81L436 519H521L327 6V6Z" />
<glyph unicode="&#x45f;" glyph-name="uni045F" horiz-adv-x="575" d="M503 519V0H330L325 -148H251L245 0H72V519H160V75H415V519H503Z" />
<glyph unicode="&#x490;" glyph-name="uni0490" horiz-adv-x="544" d="M84 717H406L417 885H502V631H178V0H84V717Z" />
<glyph unicode="&#x491;" glyph-name="uni0491" horiz-adv-x="437" d="M72 519H316L327 667H402V444H160V0H72V519Z" />
<glyph unicode="&#x492;" glyph-name="uni0492" horiz-adv-x="575" d="M15 398H115V717H533V631H209V398H402V324H209V0H115V324H15V398Z" />
<glyph unicode="&#x493;" glyph-name="uni0493" horiz-adv-x="465" d="M23 295H100V519H430V444H188V295H324V231H188V0H100V231H23V295Z" />
<glyph unicode="&#x49a;" glyph-name="uni049A" horiz-adv-x="647" d="M254 307H178V0H84V717H178V392H248L504 717H610L327 359L551 85H637V-170H550L539 0H504L254 307Z" />
<glyph unicode="&#x49b;" glyph-name="uni049B" horiz-adv-x="525" d="M206 221H160V0H72V519H160V296H210L392 519H492L279 263L434 75H516V-148H440L429 0H389L206 221Z" />
<glyph unicode="&#x4a2;" glyph-name="uni04A2" horiz-adv-x="776" d="M546 313H178V0H84V717H178V398H546V717H641V85H734V-170H646L636 0H546V313Z" />
<glyph unicode="&#x4a3;" glyph-name="uni04A3" horiz-adv-x="597" d="M411 230H160V0H72V519H160V305H411V519H499V75H577V-148H502L491 0H411V230Z" />
<glyph unicode="&#x4ae;" glyph-name="uni04AE" horiz-adv-x="624" d="M361 311V0H265V308L20 717H128L316 391L508 717H604L361 311Z" />
<glyph unicode="&#x4af;" glyph-name="uni04AF" horiz-adv-x="509" d="M299 0V-177H211V-1L10 519H105L259 112L411 519H500L299 0Z" />
<glyph unicode="&#x4b0;" glyph-name="uni04B0" horiz-adv-x="624" d="M90 326H254L20 717H128L316 391L508 717H604L370 326H536V252H361V0H265V252H90V326Z" />
<glyph unicode="&#x4b1;" glyph-name="uni04B1" horiz-adv-x="509" d="M61 0H210L10 519H105L259 112L411 519H500L299 0H450V-70H299V-177H211V-70H61V0Z" />
<glyph unicode="&#x4ba;" glyph-name="uni04BA" horiz-adv-x="684" d="M83 717H178V404Q259 454 356 454Q480 454 547 393T614 200V0H519V200Q519 285 478 329T355 374Q306 374 261 363T178 324V0H83V717Z" />
<glyph unicode="&#x4bb;" glyph-name="uni04BB" horiz-adv-x="575" d="M318 451Q258 451 221 424T160 353V0H72V717H160V519L158 426H160Q181 470 226 499T340 529Q417 529 462 489T508 364V0H420V355Q420 409 393 430T318 451Z" />
<glyph unicode="&#x4d8;" glyph-name="uni04D8" horiz-adv-x="721" d="M678 358Q678 275 655 207T590 91T487 17T350 -10Q39 -10 39 351V398H575Q567 514 509 577T330 641Q249 641 194 622T93 573V663Q107 673 127 684T175 705T242 720T331 726Q418 726 483 700T591
625T656 509T678 358ZM350 75Q453 75 509 137T574 313H137Q140 249 154 204T194 130T258 88T350 75Z" />
<glyph unicode="&#x4d9;" glyph-name="uni04D9" horiz-adv-x="530" d="M45 475Q56 483 72 492T111 509T163 523T228 529Q359 529 427 458T495 259Q495 196 477 146T425 62T347 9T249 -10Q193 -10 149 9T77 65T38 156T38 283H404Q399 367 354 408T220 450Q160 450
117 433T45 396V475ZM251 68Q308 68 349 103T401 209H122Q118 137 155 103T251 68Z" />
<glyph unicode="&#x4e8;" glyph-name="uni04E8" horiz-adv-x="770" d="M385 -10Q313 -10 250 14T141 86T69 202T42 361Q42 451 68 519T141 633T250 702T385 726Q458 726 521 703T630 633T702 519T728 360Q728 271 702 202T630 86T521 15T385 -10ZM385 641Q337
641 296 628T222 587T168 514T141 405H629Q623 469 602 513T549 586T475 628T385 641ZM385 75Q433 75 475 88T551 131T604 208T630 321H140Q145 254 165 208T219 132T294 89T385 75Z" />
<glyph unicode="&#x4e9;" glyph-name="uni04E9" horiz-adv-x="572" d="M285 -10Q232 -10 186 8T107 60T54 145T35 260Q35 324 54 374T106 459T186 511T285 529Q339 529 385 511T464 459T517 375T537 260Q537 195 518 145T465 61T385 8T285 -10ZM285 451Q224 451
180 416T124 304H449Q443 342 429 369T392 415T343 442T285 451ZM285 69Q349 69 395 107T450 229H122Q126 188 140 158T176 108T225 79T285 69Z" />
<glyph unicode="&#x58f;" glyph-name="uni058F" horiz-adv-x="626" d="M222 330H399V410H222V480H399V509Q399 579 365 611T270 643Q218 643 184 610T150 504H55Q55 558 72 599T118 669T187 712T274 727Q321 727 361 713T430 672T477 604T494 510V480H586V410H494V330H586V260H494V0H399V260H222V330Z"
/>
<glyph unicode="&#xe3f;" glyph-name="baht" horiz-adv-x="645" d="M261 678V846H345V678H261ZM261 31H345V-140H261V31ZM84 717H327Q445 717 506 677T568 542Q568 503 558 475T529 426T484 392T425 372Q509 362 551 324T594 207Q594 151 574 112T517 48T432 12T325
0H84V717ZM178 631V411H320Q354 411 382 418T430 441T461 480T473 537Q473 592 435 611T327 631H178ZM178 326V85H325Q363 85 394 91T447 111T482 148T495 205Q495 273 452 299T314 326H178Z" />
</font>
</defs>
</svg>
